<svg xmlns="http://www.w3.org/2000/svg" width="1920" height="1080" fill="none" viewBox="0 0 1920 1080"><style>text{font-family:Inter,ui-sans-serif,system-ui,-apple-system,Segoe UI,Roboto,Helvetica,Arial,sans-serif}.ia-primary{font-size:12px;font-weight:600;fill:#fff}.ia-secondary{font-size:11px;font-weight:500;fill:#1a1a1a}</style><title>Coco Care information architecture</title><rect width="220" height="44" x="850" y="40" fill="#4a5568" stroke="#4a5568" stroke-width="1.25" rx="8"/><text x="960" y="66" class="ia-primary" text-anchor="middle">Superadmin (Coco Care)</text><path stroke="#9ca3af" stroke-width="1.25" d="M960 84v36"/><path fill="#9ca3af" d="m960 120-4-7h8z"/><rect width="320" height="44" x="800" y="120" fill="#fff" stroke="#cbd5e1" stroke-width="1.25" rx="8"/><text x="960" y="146" class="ia-secondary" text-anchor="middle">Organisation (Clinic/Municipality)</text><rect width="1680" height="820" x="120" y="190" stroke="#d1d5db" stroke-width="1.5" rx="12"/><path stroke="#9ca3af" stroke-width="1.25" d="M960 164v56"/><path fill="#9ca3af" d="m960 220-4-7h8z"/><rect width="120" height="40" x="900" y="220" fill="#4a5568" stroke="#4a5568" stroke-width="1.25" rx="8"/><text x="960" y="244" class="ia-primary" text-anchor="middle">Admin</text><path stroke="#9ca3af" stroke-width="1.25" d="M960 260v40"/><path fill="#9ca3af" d="m960 300-4-7h8z"/><rect width="380" height="680" x="540" y="300" stroke="#d1d5db" stroke-width="1.5" rx="12"/><rect width="80" height="36" x="690" y="320" fill="#fff" stroke="#cbd5e1" stroke-width="1.25" rx="8"/><text x="730" y="342" class="ia-secondary" text-anchor="middle">Team</text><path stroke="#9ca3af" stroke-width="1.25" d="M730 356v34"/><path fill="#9ca3af" d="m730 390-4-7h8z"/><rect width="88" height="36" x="686" y="390" fill="#4a5568" stroke="#4a5568" stroke-width="1.25" rx="8"/><text x="730" y="412" class="ia-primary" text-anchor="middle">Physio</text><path stroke="#9ca3af" stroke-width="1.25" d="M730 426v44"/><path fill="#9ca3af" d="m730 470-4-7h8z"/><rect width="80" height="36" x="600" y="470" fill="#4a5568" stroke="#4a5568" stroke-width="1.25" rx="8"/><text x="640" y="492" class="ia-primary" text-anchor="middle">Patient</text><path stroke="#9ca3af" stroke-width="1.25" d="M640 506v44"/><path fill="#9ca3af" d="m640 550-4-7h8z"/><rect width="120" height="150" x="580" y="550" stroke="#d1d5db" stroke-width="1.5" rx="12"/><rect width="80" height="32" x="600" y="560" fill="#fff" stroke="#cbd5e1" stroke-width="1.25" rx="8"/><text x="640" y="580" class="ia-secondary" text-anchor="middle">Program</text><path stroke="#9ca3af" stroke-width="1.25" d="M640 592v16"/><path fill="#9ca3af" d="m640 608-4-7h8z"/><rect width="50" height="28" x="588" y="608" fill="#4a5568" stroke="#4a5568" stroke-width="1.25" rx="8"/><text x="613" y="626" class="ia-primary" text-anchor="middle">Exercise</text><rect width="50" height="28" x="642" y="608" fill="#4a5568" stroke="#4a5568" stroke-width="1.25" rx="8"/><text x="667" y="626" class="ia-primary" text-anchor="middle">Exercise</text><rect width="50" height="28" x="588" y="650" fill="#4a5568" stroke="#4a5568" stroke-width="1.25" rx="8"/><text x="613" y="668" class="ia-primary" text-anchor="middle">Exercise</text><rect width="50" height="28" x="642" y="650" fill="#4a5568" stroke="#4a5568" stroke-width="1.25" rx="8"/><text x="667" y="668" class="ia-primary" text-anchor="middle">Exercise</text><rect width="80" height="36" x="780" y="620" fill="#4a5568" stroke="#4a5568" stroke-width="1.25" rx="8"/><text x="820" y="642" class="ia-primary" text-anchor="middle">Patient</text><path stroke="#9ca3af" stroke-width="1.25" d="M820 656v44"/><path fill="#9ca3af" d="m820 700-4-7h8z"/><rect width="120" height="150" x="760" y="700" stroke="#d1d5db" stroke-width="1.5" rx="12"/><rect width="80" height="32" x="780" y="710" fill="#fff" stroke="#cbd5e1" stroke-width="1.25" rx="8"/><text x="820" y="730" class="ia-secondary" text-anchor="middle">Program</text><path stroke="#9ca3af" stroke-width="1.25" d="M820 742v16"/><path fill="#9ca3af" d="m820 758-4-7h8z"/><rect width="50" height="28" x="768" y="758" fill="#4a5568" stroke="#4a5568" stroke-width="1.25" rx="8"/><text x="793" y="776" class="ia-primary" text-anchor="middle">Exercise</text><rect width="50" height="28" x="822" y="758" fill="#4a5568" stroke="#4a5568" stroke-width="1.25" rx="8"/><text x="847" y="776" class="ia-primary" text-anchor="middle">Exercise</text><rect width="50" height="28" x="768" y="800" fill="#4a5568" stroke="#4a5568" stroke-width="1.25" rx="8"/><text x="793" y="818" class="ia-primary" text-anchor="middle">Exercise</text><rect width="50" height="28" x="822" y="800" fill="#4a5568" stroke="#4a5568" stroke-width="1.25" rx="8"/><text x="847" y="818" class="ia-primary" text-anchor="middle">Exercise</text><rect width="380" height="680" x="1000" y="300" stroke="#d1d5db" stroke-width="1.5" rx="12"/><rect width="80" height="36" x="1150" y="320" fill="#fff" stroke="#cbd5e1" stroke-width="1.25" rx="8"/><text x="1190" y="342" class="ia-secondary" text-anchor="middle">Team</text><path stroke="#9ca3af" stroke-width="1.25" d="M1190 356v34"/><path fill="#9ca3af" d="m1190 390-4-7h8z"/><rect width="88" height="36" x="1146" y="390" fill="#4a5568" stroke="#4a5568" stroke-width="1.25" rx="8"/><text x="1190" y="412" class="ia-primary" text-anchor="middle">Physio</text><path stroke="#9ca3af" stroke-width="1.25" d="M1190 426v44"/><path fill="#9ca3af" d="m1190 470-4-7h8z"/><rect width="80" height="36" x="1060" y="470" fill="#4a5568" stroke="#4a5568" stroke-width="1.25" rx="8"/><text x="1100" y="492" class="ia-primary" text-anchor="middle">Patient</text><path stroke="#9ca3af" stroke-width="1.25" d="M1100 506v44"/><path fill="#9ca3af" d="m1100 550-4-7h8z"/><rect width="120" height="150" x="1040" y="550" stroke="#d1d5db" stroke-width="1.5" rx="12"/><rect width="80" height="32" x="1060" y="560" fill="#fff" stroke="#cbd5e1" stroke-width="1.25" rx="8"/><text x="1100" y="580" class="ia-secondary" text-anchor="middle">Program</text><path stroke="#9ca3af" stroke-width="1.25" d="M1100 592v16"/><path fill="#9ca3af" d="m1100 608-4-7h8z"/><rect width="50" height="28" x="1048" y="608" fill="#4a5568" stroke="#4a5568" stroke-width="1.25" rx="8"/><text x="1073" y="626" class="ia-primary" text-anchor="middle">Exercise</text><rect width="50" height="28" x="1102" y="608" fill="#4a5568" stroke="#4a5568" stroke-width="1.25" rx="8"/><text x="1127" y="626" class="ia-primary" text-anchor="middle">Exercise</text><rect width="50" height="28" x="1048" y="650" fill="#4a5568" stroke="#4a5568" stroke-width="1.25" rx="8"/><text x="1073" y="668" class="ia-primary" text-anchor="middle">Exercise</text><rect width="50" height="28" x="1102" y="650" fill="#4a5568" stroke="#4a5568" stroke-width="1.25" rx="8"/><text x="1127" y="668" class="ia-primary" text-anchor="middle">Exercise</text><rect width="80" height="36" x="1240" y="620" fill="#4a5568" stroke="#4a5568" stroke-width="1.25" rx="8"/><text x="1280" y="642" class="ia-primary" text-anchor="middle">Patient</text><path stroke="#9ca3af" stroke-width="1.25" d="M1280 656v44"/><path fill="#9ca3af" d="m1280 700-4-7h8z"/><rect width="120" height="150" x="1220" y="700" stroke="#d1d5db" stroke-width="1.5" rx="12"/><rect width="80" height="32" x="1240" y="710" fill="#fff" stroke="#cbd5e1" stroke-width="1.25" rx="8"/><text x="1280" y="730" class="ia-secondary" text-anchor="middle">Program</text><path stroke="#9ca3af" stroke-width="1.25" d="M1280 742v16"/><path fill="#9ca3af" d="m1280 758-4-7h8z"/><rect width="50" height="28" x="1228" y="758" fill="#4a5568" stroke="#4a5568" stroke-width="1.25" rx="8"/><text x="1253" y="776" class="ia-primary" text-anchor="middle">Exercise</text><rect width="50" height="28" x="1282" y="758" fill="#4a5568" stroke="#4a5568" stroke-width="1.25" rx="8"/><text x="1307" y="776" class="ia-primary" text-anchor="middle">Exercise</text><rect width="50" height="28" x="1228" y="800" fill="#4a5568" stroke="#4a5568" stroke-width="1.25" rx="8"/><text x="1253" y="818" class="ia-primary" text-anchor="middle">Exercise</text><rect width="50" height="28" x="1282" y="800" fill="#4a5568" stroke="#4a5568" stroke-width="1.25" rx="8"/><text x="1307" y="818" class="ia-primary" text-anchor="middle">Exercise</text></svg>