<?xml version="1.0" encoding="UTF-8"?> <svg xmlns="http://www.w3.org/2000/svg" width="40" height="40" viewBox="0 0 40 40" fill="none"><g clip-path="url(#clip0_192_2)"><mask id="mask0_192_2" style="mask-type:luminance" maskUnits="userSpaceOnUse" x="0" y="0" width="40" height="40"><path d="M3.49691e-06 1.74846e-06L1.74846e-06 40L40 40L40 3.49691e-06L3.49691e-06 1.74846e-06Z" fill="white"></path></mask><g mask="url(#mask0_192_2)"><path d="M2.18554e-07 24L1.74846e-06 17L7 17L7 24L2.18554e-07 24Z" fill="#888888"></path><path d="M7 31L7 24L14 24L14 31L7 31Z" fill="#888888"></path><path d="M7 17L7 10L14 10L14 17L7 17Z" fill="#888888"></path><path d="M14 10L14 3L21 3L21 10L14 10Z" fill="#888888"></path><path d="M14 38L14 31L21 31L21 38L14 38Z" fill="#888888"></path><path d="M13 24L13 17L40 17L40 24L13 24Z" fill="#888888"></path></g></g><defs><clipPath id="clip0_192_2"><rect width="40" height="40" fill="white" transform="translate(40 1.74846e-06) rotate(90)"></rect></clipPath></defs></svg> 