<?xml version="1.0" encoding="UTF-8"?> <svg xmlns="http://www.w3.org/2000/svg" width="40" height="40" viewBox="0 0 40 40" fill="none"><g clip-path="url(#clip0_117_1128)"><rect width="7" height="7" transform="matrix(-1 -8.74228e-08 -8.74228e-08 1 23 0)" fill="#1D1D1D"></rect><rect width="7" height="7" transform="matrix(-1 -8.74228e-08 -8.74228e-08 1 16 7)" fill="#1D1D1D"></rect><rect width="7" height="7" transform="matrix(-1 -8.74228e-08 -8.74228e-08 1 30 7)" fill="#1D1D1D"></rect><rect width="7" height="7" transform="matrix(-1 -8.74228e-08 -8.74228e-08 1 37 14)" fill="#1D1D1D"></rect><rect width="7" height="7" transform="matrix(-1 -8.74228e-08 -8.74228e-08 1 9 14)" fill="#1D1D1D"></rect><rect width="7" height="27" transform="matrix(-1 -8.74228e-08 -8.74228e-08 1 23 13)" fill="#1D1D1D"></rect></g><defs><clipPath id="clip0_117_1128"><rect width="40" height="40" fill="white"></rect></clipPath></defs></svg> 