<svg xmlns="http://www.w3.org/2000/svg" width="1283" height="792" fill="none" viewBox="0 0 1283 792"><style>text{font-family:Inter,ui-sans-serif,system-ui,-apple-system,Segoe UI,Roboto,Helvetica,Arial,sans-serif}.flow-label,.flow-small{font-size:11px;font-weight:500;fill:#1a1a1a}.flow-small{font-size:10px;font-weight:400}</style><title>User flow: Training Flow</title><text x="96" y="34" class="flow-label" font-size="14" font-weight="600">User flow: Training Flow</text><rect width="168" height="132" x="24" y="56" fill="#fff" stroke="#e5e7eb" stroke-width="1.25" rx="8"/><text x="38" y="76" class="flow-label" font-size="12" font-weight="600">Legend</text><rect width="22" height="12" x="36" y="84" fill="#e4e7d7" stroke="#e4e7d7" rx="2"/><text x="66" y="94" class="flow-small">Action</text><rect width="22" height="12" x="36" y="101" fill="#4a5568" stroke="#4a5568" rx="2"/><text x="66" y="111" class="flow-small">Option</text><path fill="#e4e7d7" stroke="#e4e7d7" d="m47 118 11 6-11 6-11-6z"/><text x="66" y="128" class="flow-small">Decision</text><rect width="22" height="12" x="36" y="135" fill="#e4e7d7" stroke="#e4e7d7" rx="2"/><text x="66" y="145" class="flow-small">Screen</text><rect width="22" height="14" x="36" y="150" fill="#e4e7d7" stroke="#e4e7d7" rx="7"/><text x="66" y="162" class="flow-small">Start/End</text><text class="flow-label" font-size="11" font-weight="600" text-anchor="middle" transform="rotate(-90 118 82)">Pre-training</text><text class="flow-label" font-size="11" font-weight="600" text-anchor="middle" transform="rotate(-90 218 182)">Training</text><text class="flow-label" font-size="11" font-weight="600" text-anchor="middle" transform="rotate(-90 318 282)">Post-training</text><rect width="265" height="87" x="105" y="117" fill="#e4e7d7" stroke="#e4e7d7" stroke-width="2" rx="43.5"/><rect width="30" height="20" x="144" y="136" fill="#000" stroke-width="1.25" rx="10"/><text x="159" y="150" fill="#fff" class="flow-small" font-size="12" font-weight="600" text-anchor="middle">1.0</text><text x="237.5" y="164.5" class="flow-label" font-size="11" text-anchor="middle">Start</text><path stroke="#9ca3af" stroke-width="1.25" d="M218 150h152"/><path fill="#9ca3af" d="m370 150-7-4v8z"/><rect width="227" height="89" x="218" y="106" fill="#e4e7d7" stroke="#e4e7d7" stroke-width="0" rx="10"/><rect width="30" height="20" x="238" y="126" fill="#000" stroke-width="1.25" rx="10"/><text x="253" y="140" fill="#fff" class="flow-small" font-size="12" font-weight="600" text-anchor="middle">1.0</text><text x="331.5" y="160.5" class="flow-label" text-anchor="middle">Start training</text><path stroke="#9ca3af" stroke-width="1.25" d="M406 150h39"/><path fill="#9ca3af" d="m445 150-7-4v8z"/><path fill="#e4e7d7" stroke="#e4e7d7" stroke-width="2" d="m469 117 63 63-63 63-63-63z"/><rect width="30" height="20" x="454" y="129" fill="#000" stroke-width="1.25" rx="10"/><text x="469" y="143" fill="#fff" class="flow-small" font-size="12" font-weight="600" text-anchor="middle">1.0</text><text x="469" y="186.5" class="flow-small" text-anchor="middle">Pain score</text><text x="469" y="197.5" class="flow-small" text-anchor="middle">pre-training</text><circle cx="496" cy="98" r="9.4" fill="#55d45b"/><path fill="#fff" d="m494.7 100.8-2.5-2.8c-.1-.2-.1-.5 0-.6l.6-.6c.1-.1.3-.1.4 0l1.9 1.9 3.6-4c.1-.1.4-.1.5 0l.6.6c.1.1.1.4 0 .5z"/><path stroke="#9ca3af" stroke-width="1.25" d="M524 150h32"/><path fill="#9ca3af" d="m556 150-7-4v8z"/><rect width="227" height="89" x="556" y="106" fill="#e4e7d7" stroke="#e4e7d7" stroke-width="0" rx="10"/><rect width="30" height="20" x="576" y="126" fill="#000" stroke-width="1.25" rx="10"/><text x="591" y="140" fill="#fff" class="flow-small" font-size="12" font-weight="600" text-anchor="middle">1.0</text><text x="669.5" y="160.5" class="flow-label" text-anchor="middle">Tips</text><path stroke="#9ca3af" stroke-width="1.25" d="M670 195v57"/><path fill="#9ca3af" d="m670 252-4-7h8z"/><rect width="227" height="89" x="536" y="180" fill="#4a5568" stroke="#4a5568" stroke-width="1.25" rx="8"/><text x="649.5" y="228.5" fill="#fff" class="flow-label" text-anchor="middle">Ok</text><rect width="227" height="89" x="646" y="180" fill="#4a5568" stroke="#4a5568" stroke-width="1.25" rx="8"/><text x="759.5" y="228.5" fill="#fff" class="flow-label" text-anchor="middle">Don&apos;t show again</text><circle cx="496" cy="272" r="9.4" fill="#fd6764"/><path fill="#fff" d="m497.3 272.6 1.5-1.6c.1-.1.1-.4 0-.5l-.3-.3c-.1-.1-.4-.1-.5 0l-1.5 1.5-1.4-1.5c-.1-.1-.4-.1-.5 0l-.3.3c-.1.1-.1.4 0 .5z"/><path stroke="#9ca3af" stroke-width="1.25" d="M585 252v88"/><path fill="#9ca3af" d="m585 340-4-7h8z"/><rect width="227" height="89" x="516" y="252" fill="#e4e7d7" stroke="#e4e7d7" stroke-width="0" rx="10"/><rect width="30" height="20" x="536" y="272" fill="#000" stroke-width="1.25" rx="10"/><text x="551" y="286" fill="#fff" class="flow-small" font-size="12" font-weight="600" text-anchor="middle">1.0</text><text x="629.5" y="300.5" class="flow-label" text-anchor="middle">Tilt phone (until</text><text x="629.5" y="312.5" class="flow-label" text-anchor="middle">positive feedback)</text><path stroke="#9ca3af" stroke-width="1.25" d="M629 341v39"/><rect width="227" height="89" x="516" y="340" fill="#e4e7d7" stroke="#e4e7d7" stroke-width="0" rx="10"/><rect width="30" height="20" x="536" y="360" fill="#000" stroke-width="1.25" rx="10"/><text x="551" y="374" fill="#fff" class="flow-small" font-size="12" font-weight="600" text-anchor="middle">1.0</text><text x="629.5" y="394.5" class="flow-label" text-anchor="middle">Next exercise</text><path stroke="#9ca3af" stroke-width="1.25" d="M696 384h47"/><path fill="#9ca3af" d="m743 384-7-4v8z"/><rect width="227" height="102" x="696" y="340" fill="#e4e7d7" stroke="#e4e7d7" stroke-width="0" rx="10"/><rect width="30" height="20" x="716" y="360" fill="#000" stroke-width="1.25" rx="10"/><text x="731" y="374" fill="#fff" class="flow-small" font-size="12" font-weight="600" text-anchor="middle">1.0</text><text x="809.5" y="395" class="flow-label" text-anchor="middle">Countdown from 3</text><text x="809.5" y="407" class="flow-label" text-anchor="middle">(+sound cues)</text><path stroke="#9ca3af" stroke-width="1.25" d="M923 384h33"/><path fill="#9ca3af" d="m956 384-7-4v8z"/><rect width="227" height="102" x="956" y="340" fill="#e4e7d7" stroke="#e4e7d7" stroke-width="0" rx="10"/><rect width="30" height="20" x="976" y="360" fill="#000" stroke-width="1.25" rx="10"/><text x="991" y="374" fill="#fff" class="flow-small" font-size="12" font-weight="600" text-anchor="middle">1.0</text><text x="1069.5" y="389" class="flow-label" text-anchor="middle">Active exercise</text><text x="1069.5" y="401" class="flow-label" text-anchor="middle">(no screen action</text><text x="1069.5" y="413" class="flow-label" text-anchor="middle">required)</text><path stroke="#9ca3af" stroke-width="1.25" d="M1036 384h147"/><path fill="#9ca3af" d="m1183 384-7-4v8z"/><rect width="227" height="89" x="1036" y="340" fill="#e4e7d7" stroke="#e4e7d7" stroke-width="0" rx="10"/><rect width="30" height="20" x="1056" y="360" fill="#000" stroke-width="1.25" rx="10"/><text x="1071" y="374" fill="#fff" class="flow-small" font-size="12" font-weight="600" text-anchor="middle">1.0</text><text x="1149.5" y="388.5" class="flow-label" text-anchor="middle">10 s rest between</text><text x="1149.5" y="400.5" class="flow-label" text-anchor="middle">sets/exercises</text><path stroke="#9ca3af" stroke-dasharray="6 4" stroke-width="1.25" d="M1100 429H629M629 429v-89"/><path fill="#e4e7d7" stroke="#e4e7d7" stroke-width="2" d="m577 560 63 63-63 63-63-63z"/><rect width="30" height="20" x="562" y="572" fill="#000" stroke-width="1.25" rx="10"/><text x="577" y="586" fill="#fff" class="flow-small" font-size="12" font-weight="600" text-anchor="middle">1.0</text><text x="577" y="629.5" class="flow-small" text-anchor="middle">Pain score</text><text x="577" y="640.5" class="flow-small" text-anchor="middle">post-training</text><circle cx="604" cy="562" r="9.4" fill="#55d45b"/><path fill="#fff" d="m602.7 564.8-2.5-2.8c-.1-.2-.1-.5 0-.6l.6-.6c.1-.1.3-.1.4 0l1.9 1.9 3.6-4c.1-.1.4-.1.5 0l.6.6c.1.1.1.4 0 .5z"/><path stroke="#9ca3af" stroke-width="1.25" d="M632 600h24"/><path fill="#9ca3af" d="m656 600-7-4v8z"/><rect width="227" height="89" x="656" y="568" fill="#e4e7d7" stroke="#e4e7d7" stroke-width="0" rx="10"/><rect width="30" height="20" x="676" y="588" fill="#000" stroke-width="1.25" rx="10"/><text x="691" y="602" fill="#fff" class="flow-small" font-size="12" font-weight="600" text-anchor="middle">1.0</text><text x="769.5" y="622.5" class="flow-label" text-anchor="middle">Session completed!</text><path stroke="#9ca3af" stroke-width="1.25" d="M856 600h27"/><path fill="#9ca3af" d="m883 600-7-4v8z"/><rect width="227" height="89" x="856" y="572" fill="#e4e7d7" stroke="#e4e7d7" stroke-width="0" rx="10"/><rect width="30" height="20" x="876" y="592" fill="#000" stroke-width="1.25" rx="10"/><text x="891" y="606" fill="#fff" class="flow-small" font-size="12" font-weight="600" text-anchor="middle">1.0</text><text x="969.5" y="626.5" class="flow-label" text-anchor="middle">Confirm</text><path stroke="#9ca3af" stroke-width="1.25" d="M1016 600h67"/><path fill="#9ca3af" d="m1083 600-7-4v8z"/><rect width="227" height="102" x="1016" y="560" fill="#e4e7d7" stroke="#e4e7d7" stroke-width="0" rx="10"/><rect width="30" height="20" x="1036" y="580" fill="#000" stroke-width="1.25" rx="10"/><text x="1051" y="594" fill="#fff" class="flow-small" font-size="12" font-weight="600" text-anchor="middle">1.0</text><text x="1129.5" y="609" class="flow-label" text-anchor="middle">Session overview</text><text x="1129.5" y="621" class="flow-label" text-anchor="middle">(compliance for each</text><text x="1129.5" y="633" class="flow-label" text-anchor="middle">exercise)</text><path stroke="#9ca3af" stroke-width="1.25" d="M1130 662v38"/><path fill="#9ca3af" d="m1130 700-4-7h8z"/><rect width="227" height="89" x="1066" y="640" fill="#e4e7d7" stroke="#e4e7d7" stroke-width="0" rx="10"/><rect width="30" height="20" x="1086" y="660" fill="#000" stroke-width="1.25" rx="10"/><text x="1101" y="674" fill="#fff" class="flow-small" font-size="12" font-weight="600" text-anchor="middle">1.0</text><text x="1179.5" y="694.5" class="flow-label" text-anchor="middle">Confirm</text><path stroke="#9ca3af" stroke-width="1.25" d="M1179 648v52"/><path fill="#9ca3af" d="m1179 700-4-7h8z"/><rect width="227" height="89" x="1076" y="648" fill="#e4e7d7" stroke="#e4e7d7" stroke-width="0" rx="10"/><rect width="30" height="20" x="1096" y="668" fill="#000" stroke-width="1.25" rx="10"/><text x="1111" y="682" fill="#fff" class="flow-small" font-size="12" font-weight="600" text-anchor="middle">1.0</text><text x="1189.5" y="702.5" class="flow-label" text-anchor="middle">Dashboard</text><path stroke="#9ca3af" stroke-width="1.25" d="M1217 692h86"/><path fill="#9ca3af" d="m1303 692-7-4v8z"/><rect width="265" height="87" x="1217" y="641" fill="#e4e7d7" stroke="#e4e7d7" stroke-width="2" rx="43.5"/><rect width="30" height="20" x="1256" y="660" fill="#000" stroke-width="1.25" rx="10"/><text x="1271" y="674" fill="#fff" class="flow-small" font-size="12" font-weight="600" text-anchor="middle">1.0</text><text x="1349.5" y="688.5" class="flow-label" font-size="11" text-anchor="middle">End</text></svg>