<svg xmlns="http://www.w3.org/2000/svg" width="1283" height="792" fill="none" viewBox="0 0 1283 792"><style>text{font-family:Inter,ui-sans-serif,system-ui,-apple-system,Segoe UI,Roboto,Helvetica,Arial,sans-serif}.flow-label,.flow-small{font-size:11px;font-weight:500;fill:#1a1a1a}.flow-small{font-size:10px;font-weight:400}</style><title>User flow: App Onboarding</title><text x="96" y="34" class="flow-label" font-size="14" font-weight="600">User flow: App Onboarding</text><rect width="168" height="132" x="24" y="56" fill="#fff" stroke="#e5e7eb" stroke-width="1.25" rx="8"/><text x="38" y="76" class="flow-label" font-size="12" font-weight="600">Legend</text><rect width="22" height="12" x="36" y="84" fill="#e4e7d7" stroke="#e4e7d7" rx="2"/><text x="66" y="94" class="flow-small">Action</text><rect width="22" height="12" x="36" y="101" fill="#4a5568" stroke="#4a5568" rx="2"/><text x="66" y="111" class="flow-small">Option</text><path fill="#e4e7d7" stroke="#e4e7d7" d="m47 118 11 6-11 6-11-6z"/><text x="66" y="128" class="flow-small">Decision</text><rect width="22" height="12" x="36" y="135" fill="#e4e7d7" stroke="#e4e7d7" rx="2"/><text x="66" y="145" class="flow-small">Screen</text><rect width="22" height="14" x="36" y="150" fill="#e4e7d7" stroke="#e4e7d7" rx="7"/><text x="66" y="162" class="flow-small">Start/End</text><rect width="200" height="72" x="80" y="90" fill="#e4e7d7" stroke="#e4e7d7" stroke-width="2" rx="36"/><rect width="30" height="20" x="119" y="109" fill="#000" stroke-width="1.25" rx="10"/><text x="134" y="123" fill="#fff" class="flow-small" font-size="12" font-weight="600" text-anchor="middle">1.0</text><text x="180" y="130" class="flow-label" font-size="11" text-anchor="middle">Start</text><path stroke="#9ca3af" stroke-width="1.25" d="M132 116h48"/><path fill="#9ca3af" d="m180 116-7-4v8z"/><rect width="170" height="48" x="180" y="92" fill="#e4e7d7" stroke="#e4e7d7" stroke-width="0" rx="10"/><rect width="30" height="20" x="200" y="112" fill="#000" stroke-width="1.25" rx="10"/><text x="215" y="126" fill="#fff" class="flow-small" font-size="12" font-weight="600" text-anchor="middle">1.0</text><text x="265" y="120" class="flow-label" text-anchor="middle">Download and open</text><text x="265" y="132" class="flow-label" text-anchor="middle">the app</text><path stroke="#9ca3af" stroke-width="1.25" d="M350 116h50"/><path fill="#9ca3af" d="m400 116-7-4v8z"/><path fill="#e4e7d7" stroke="#e4e7d7" stroke-width="2" d="m440 84 40 40-40 40-40-40z"/><rect width="30" height="20" x="425" y="96" fill="#000" stroke-width="1.25" rx="10"/><text x="440" y="110" fill="#fff" class="flow-small" font-size="12" font-weight="600" text-anchor="middle">1.0</text><text x="440" y="136" class="flow-small" text-anchor="middle">Log in</text><rect width="120" height="32" x="500" y="60" fill="#4a5568" stroke="#4a5568" stroke-width="1.25" rx="8"/><text x="560" y="80" fill="#fff" class="flow-label" text-anchor="middle">Log in with code</text><rect width="140" height="32" x="500" y="110" fill="#4a5568" stroke="#4a5568" stroke-width="1.25" rx="8"/><text x="570" y="130" fill="#fff" class="flow-label" text-anchor="middle">Log in with NemID</text><path stroke="#9ca3af" stroke-width="1.25" d="M620 76h80"/><path fill="#9ca3af" d="m700 76-7-4v8z"/><path stroke="#9ca3af" stroke-width="1.25" d="M640 126h80"/><path fill="#9ca3af" d="m720 126-7-4v8z"/><rect width="150" height="36" x="700" y="68" fill="#e4e7d7" stroke="#e4e7d7" stroke-width="0" rx="10"/><rect width="30" height="20" x="720" y="88" fill="#000" stroke-width="1.25" rx="10"/><text x="735" y="102" fill="#fff" class="flow-small" font-size="12" font-weight="600" text-anchor="middle">1.0</text><text x="775" y="90" class="flow-label" text-anchor="middle">Input code from</text><text x="775" y="102" class="flow-label" text-anchor="middle">email</text><rect width="150" height="36" x="720" y="118" fill="#e4e7d7" stroke="#e4e7d7" stroke-width="0" rx="10"/><rect width="30" height="20" x="740" y="138" fill="#000" stroke-width="1.25" rx="10"/><text x="755" y="152" fill="#fff" class="flow-small" font-size="12" font-weight="600" text-anchor="middle">1.0</text><text x="795" y="146" class="flow-label" text-anchor="middle">NemID verification</text><path stroke="#9ca3af" stroke-width="1.25" d="M775 104v66"/><path fill="#9ca3af" d="m775 170-4-7h8z"/><path stroke="#9ca3af" stroke-width="1.25" d="M795 154v16"/><path fill="#9ca3af" d="m795 170-4-7h8z"/><rect width="140" height="40" x="680" y="170" fill="#e4e7d7" stroke="#e4e7d7" stroke-width="0" rx="10"/><rect width="30" height="20" x="700" y="190" fill="#000" stroke-width="1.25" rx="10"/><text x="715" y="204" fill="#fff" class="flow-small" font-size="12" font-weight="600" text-anchor="middle">1.0</text><text x="750" y="200" class="flow-label" text-anchor="middle">Onboarding intro</text><path stroke="#9ca3af" stroke-width="1.25" d="M820 190h60"/><path fill="#9ca3af" d="m880 190-7-4v8z"/><rect width="100" height="36" x="880" y="176" fill="#e4e7d7" stroke="#e4e7d7" stroke-width="0" rx="10"/><rect width="30" height="20" x="900" y="196" fill="#000" stroke-width="1.25" rx="10"/><text x="915" y="210" fill="#fff" class="flow-small" font-size="12" font-weight="600" text-anchor="middle">1.0</text><text x="930" y="204" class="flow-label" text-anchor="middle">Set a goal</text><path stroke="#9ca3af" stroke-width="1.25" d="M980 190h60"/><path fill="#9ca3af" d="m1040 190-7-4v8z"/><rect width="140" height="40" x="1040" y="170" fill="#e4e7d7" stroke="#e4e7d7" stroke-width="0" rx="10"/><rect width="30" height="20" x="1060" y="190" fill="#000" stroke-width="1.25" rx="10"/><text x="1075" y="204" fill="#fff" class="flow-small" font-size="12" font-weight="600" text-anchor="middle">1.0</text><text x="1110" y="200" class="flow-label" text-anchor="middle">Onboarding carousel</text><path stroke="#9ca3af" stroke-width="1.25" d="M1180 190h60"/><path fill="#9ca3af" d="m1240 190-7-4v8z"/><path stroke="#718096" stroke-width="1.25" d="M1240 210c0 50-1040 50-1040 90"/><path fill="#e4e7d7" stroke="#e4e7d7" stroke-width="2" d="m224 296 44 44-44 44-44-44z"/><rect width="30" height="20" x="209" y="308" fill="#000" stroke-width="1.25" rx="10"/><text x="224" y="322" fill="#fff" class="flow-small" font-size="12" font-weight="600" text-anchor="middle">1.0</text><text x="224" y="335.5" class="flow-small" text-anchor="middle">Enable</text><text x="224" y="346.5" class="flow-small" text-anchor="middle">notifications</text><text x="224" y="357.5" class="flow-small" text-anchor="middle">&amp; camera</text><text x="224" y="368.5" class="flow-small" text-anchor="middle">access</text><rect width="80" height="30" x="300" y="270" fill="#4a5568" stroke="#4a5568" stroke-width="1.25" rx="8"/><text x="340" y="289" fill="#fff" class="flow-label" text-anchor="middle">Enable</text><rect width="100" height="30" x="300" y="320" fill="#4a5568" stroke="#4a5568" stroke-width="1.25" rx="8"/><text x="350" y="339" fill="#fff" class="flow-label" text-anchor="middle">Skip for now</text><path stroke="#9ca3af" stroke-width="1.25" d="M400 340h80"/><path fill="#9ca3af" d="m480 340-7-4v8z"/><rect width="130" height="44" x="480" y="308" fill="#e4e7d7" stroke="#e4e7d7" stroke-width="0" rx="10"/><rect width="30" height="20" x="500" y="328" fill="#000" stroke-width="1.25" rx="10"/><text x="515" y="342" fill="#fff" class="flow-small" font-size="12" font-weight="600" text-anchor="middle">1.0</text><text x="545" y="340" class="flow-label" text-anchor="middle">PSFS Score intro</text><path stroke="#9ca3af" stroke-width="1.25" d="M610 330h70"/><path fill="#9ca3af" d="m680 330-7-4v8z"/><rect width="110" height="36" x="680" y="300" fill="#4a5568" stroke="#4a5568" stroke-width="1.25" rx="8"/><text x="735" y="322" fill="#fff" class="flow-label" text-anchor="middle">Add activity</text><path stroke="#9ca3af" stroke-width="1.25" d="M790 318h70"/><path fill="#9ca3af" d="m860 318-7-4v8z"/><rect width="130" height="40" x="860" y="304" fill="#e4e7d7" stroke="#e4e7d7" stroke-width="0" rx="10"/><rect width="30" height="20" x="880" y="324" fill="#000" stroke-width="1.25" rx="10"/><text x="895" y="338" fill="#fff" class="flow-small" font-size="12" font-weight="600" text-anchor="middle">1.0</text><text x="925" y="334" class="flow-label" text-anchor="middle">Add activity name</text><path stroke="#9ca3af" stroke-width="1.25" d="M990 324h70"/><path fill="#9ca3af" d="m1060 324-7-4v8z"/><path fill="#e4e7d7" stroke="#e4e7d7" stroke-width="2" d="m1105 296 45 45-45 45-45-45z"/><rect width="30" height="20" x="1090" y="308" fill="#000" stroke-width="1.25" rx="10"/><text x="1105" y="322" fill="#fff" class="flow-small" font-size="12" font-weight="600" text-anchor="middle">1.0</text><text x="1105" y="347.5" class="flow-small" text-anchor="middle">Set difficulty</text><text x="1105" y="358.5" class="flow-small" text-anchor="middle">on a slider</text><circle cx="1156" cy="340" r="9.4" fill="#55d45b"/><path fill="#fff" d="m1154.7 342.8-2.5-2.8c-.1-.2-.1-.5 0-.6l.6-.6c.1-.1.3-.1.4 0l1.9 1.9 3.6-4c.1-.1.4-.1.5 0l.6.6c.1.1.1.4 0 .5z"/><path stroke="#9ca3af" stroke-width="1.25" d="M1150 340h50"/><path fill="#9ca3af" d="m1200 340-7-4v8z"/><rect width="60" height="32" x="1200" y="312" fill="#e4e7d7" stroke="#e4e7d7" stroke-width="0" rx="10"/><rect width="30" height="20" x="1220" y="332" fill="#000" stroke-width="1.25" rx="10"/><text x="1235" y="346" fill="#fff" class="flow-small" font-size="12" font-weight="600" text-anchor="middle">1.0</text><text x="1230" y="338" class="flow-label" text-anchor="middle">Add</text><path stroke="#718096" stroke-dasharray="5 4" stroke-width="1.25" d="m1230 344-500 76"/><text x="900" y="400" class="flow-small" text-anchor="middle">max 5 activities</text><path stroke="#718096" stroke-dasharray="5 4" stroke-width="1.25" d="M730 420v-60"/><path stroke="#9ca3af" stroke-width="1.25" d="M1080 360h180"/><path fill="#9ca3af" d="m1260 360-7-4v8z"/><rect width="90" height="32" x="1080" y="352" fill="#e4e7d7" stroke="#e4e7d7" stroke-width="0" rx="10"/><rect width="30" height="20" x="1100" y="372" fill="#000" stroke-width="1.25" rx="10"/><text x="1115" y="386" fill="#fff" class="flow-small" font-size="12" font-weight="600" text-anchor="middle">1.0</text><text x="1125" y="378" class="flow-label" text-anchor="middle">Continue</text><rect width="100" height="32" x="680" y="400" fill="#4a5568" stroke="#4a5568" stroke-width="1.25" rx="8"/><text x="730" y="420" fill="#fff" class="flow-label" text-anchor="middle">Skip for now</text><path stroke="#9ca3af" stroke-width="1.25" d="M1125 392v68"/><path fill="#9ca3af" d="m1125 460-4-7h8z"/><path stroke="#9ca3af" stroke-width="1.25" d="M730 432v28"/><path fill="#9ca3af" d="m730 460-4-7h8z"/><rect width="110" height="40" x="1020" y="448" fill="#e4e7d7" stroke="#e4e7d7" stroke-width="0" rx="10"/><rect width="30" height="20" x="1040" y="468" fill="#000" stroke-width="1.25" rx="10"/><text x="1055" y="482" fill="#fff" class="flow-small" font-size="12" font-weight="600" text-anchor="middle">1.0</text><text x="1075" y="478" class="flow-label" text-anchor="middle">Dashboard</text><path stroke="#9ca3af" stroke-width="1.25" d="M1130 468h50"/><path fill="#9ca3af" d="m1180 468-7-4v8z"/><rect width="200" height="72" x="1080" y="432" fill="#e4e7d7" stroke="#e4e7d7" stroke-width="2" rx="36"/><rect width="30" height="20" x="1119" y="451" fill="#000" stroke-width="1.25" rx="10"/><text x="1134" y="465" fill="#fff" class="flow-small" font-size="12" font-weight="600" text-anchor="middle">1.0</text><text x="1180" y="472" class="flow-label" font-size="11" text-anchor="middle">End</text></svg>