<?xml version="1.0" encoding="UTF-8"?> <svg xmlns="http://www.w3.org/2000/svg" width="120" height="120" viewBox="0 0 120 120" fill="none"><rect width="120" height="120" rx="27" fill="white"></rect><rect x="12" y="12" width="96" height="96" rx="15" fill="url(#paint0_linear_90_4)"></rect><rect x="12" y="12" width="96" height="96" rx="15" stroke="url(#paint1_linear_90_4)" stroke-width="6"></rect><g clip-path="url(#clip0_90_4)"><path fill-rule="evenodd" clip-rule="evenodd" d="M96 96H81.0007V70.4529C81.0007 63.4487 78.3393 59.5344 72.7954 59.5344C66.7643 59.5344 63.6134 63.6078 63.6134 70.4529V96H49.1583V47.3333H63.6134V53.8887C63.6134 53.8887 67.9596 45.8465 78.2871 45.8465C88.6097 45.8465 96 52.1502 96 65.1873V96ZM31.9135 40.9608C26.9898 40.9608 23 36.9397 23 31.9804C23 27.0211 26.9898 23 31.9135 23C36.8372 23 40.8246 27.0211 40.8246 31.9804C40.8246 36.9397 36.8372 40.9608 31.9135 40.9608ZM24.4495 96H39.5224V47.3333H24.4495V96Z" fill="#1D1D1D"></path></g><defs><linearGradient id="paint0_linear_90_4" x1="60" y1="9" x2="60" y2="111" gradientUnits="userSpaceOnUse"><stop stop-color="#F1F2F0"></stop><stop offset="1" stop-color="white"></stop></linearGradient><linearGradient id="paint1_linear_90_4" x1="60" y1="9" x2="60" y2="111" gradientUnits="userSpaceOnUse"><stop stop-color="white"></stop><stop offset="1" stop-color="#DFE1DD"></stop></linearGradient><clipPath id="clip0_90_4"><rect width="73" height="73" fill="white" transform="translate(23 23)"></rect></clipPath></defs></svg> 