<?xml version="1.0" encoding="UTF-8"?> <svg xmlns="http://www.w3.org/2000/svg" width="328" height="383" viewBox="0 0 328 383" fill="none"><path d="M161.704 0V36.7526H198.457V106.578H161.704V128.63H198.457V147.005H327.087V198.455H198.457V198.457H161.706V330.763H275.637V271.959H238.886V220.509H327.087V345.462H290.336V382.213H147.007V345.462H110.254V235.208H0V0H161.704ZM161.706 367.514H275.637V345.462H161.706V367.514ZM253.585 257.26H290.336V330.763H312.388V235.208H253.585V257.26ZM14.699 220.509H124.953V330.763H147.007V198.455H124.953V198.457H36.7509V128.63H147.005V106.578H36.7509V36.7526H147.005V14.699H14.699V220.509ZM161.704 183.758H183.758V183.756H312.388V161.704H183.758V143.329H161.704V183.758ZM51.4498 183.758H110.254V183.756H147.005V143.329H51.4498V183.758ZM161.704 91.8789H183.758V51.4516H161.704V91.8789ZM51.4498 91.8789H147.005V51.4516H51.4498V91.8789Z" fill="#1E1E1E"></path></svg> 