<svg width="120" height="120" viewBox="0 0 120 120" fill="none" xmlns="http://www.w3.org/2000/svg">
<rect width="120" height="120" rx="27" fill="white"/>
<rect x="12" y="12" width="96" height="96" rx="15" fill="url(#paint0_linear_54_74)"/>
<rect x="12" y="12" width="96" height="96" rx="15" stroke="url(#paint1_linear_54_74)" stroke-width="6"/>
<rect width="6.92307" height="6.92307" transform="matrix(1 0 0 -1 29.9233 64.1538)" fill="black"/>
<rect width="8.30768" height="8.30768" transform="matrix(1 0 0 -1 56.2305 65.5386)" fill="black"/>
<rect width="8.30768" height="8.30768" transform="matrix(1 0 0 -1 62.8311 72.1387)" fill="black"/>
<rect width="8.30768" height="8.30768" transform="matrix(1 0 0 -1 69.4307 77.6772)" fill="black"/>
<rect width="8.30768" height="8.30768" transform="matrix(1 0 0 -1 76.0308 83.5386)" fill="black"/>
<rect width="8.30768" height="8.30768" transform="matrix(1 0 0 -1 82.4463 89.6309)" fill="black"/>
<rect width="8.30768" height="8.30768" transform="matrix(1 0 0 -1 88.8154 96)" fill="black"/>
<rect width="6.92307" height="6.92307" transform="matrix(1 0 0 -1 29.9233 37.8462)" fill="black"/>
<rect width="6.92307" height="6.92307" transform="matrix(1 0 0 -1 56.2305 37.8462)" fill="black"/>
<rect width="6.92307" height="19.3846" transform="matrix(1 0 0 -1 23 57.231)" fill="black"/>
<rect width="6.92307" height="19.3846" transform="matrix(1 0 0 -1 63.1538 57.231)" fill="black"/>
<rect width="6.92307" height="19.3846" transform="matrix(-4.37114e-08 1 1 4.37114e-08 36.8462 64.1538)" fill="black"/>
<rect width="6.92307" height="19.3846" transform="matrix(-4.37114e-08 1 1 4.37114e-08 36.8462 24)" fill="black"/>
<defs>
<linearGradient id="paint0_linear_54_74" x1="60" y1="9" x2="60" y2="111" gradientUnits="userSpaceOnUse">
<stop stop-color="#F1F2F0"/>
<stop offset="1" stop-color="white"/>
</linearGradient>
<linearGradient id="paint1_linear_54_74" x1="60" y1="9" x2="60" y2="111" gradientUnits="userSpaceOnUse">
<stop stop-color="white"/>
<stop offset="1" stop-color="#DFE1DD"/>
</linearGradient>
</defs>
</svg>
