<svg xmlns="http://www.w3.org/2000/svg" width="2560" height="1727" fill="none" viewBox="0 0 2560 1727"><style>text{font-family:Inter,ui-sans-serif,system-ui,-apple-system,Segoe UI,Roboto,Helvetica,Arial,sans-serif}.map-label,.map-small{font-size:11px;font-weight:500;fill:#1a1a1a}.map-small{font-size:10px;font-weight:400}</style><title>Coco Care portal sitemaps</title><rect width="165" height="32" x="80" y="40" fill="#fff" stroke="#d1d5db" stroke-width="1.25" rx="16"/><text x="162.5" y="61" class="map-label" font-weight="600" text-anchor="middle">Appmap - Fysio view</text><rect width="118" height="32" x="95879" y="100" fill="#4a5568" stroke="#4a5568" stroke-width="1.25" rx="6"/><text x="95938" y="120" class="map-small" text-anchor="middle">Fysio login</text><rect width="118" height="32" x="95879" y="158" fill="#fff" stroke="#1a1a1a" stroke-width="1.25" rx="6"/><text x="95938" y="171.5" class="map-small" text-anchor="middle">Patients</text><text x="95938" y="184.5" class="map-small" text-anchor="middle">(homepage)</text><path stroke="#9ca3af" stroke-width="1.25" d="M95938 132v26"/><rect width="118" height="32" x="30346" y="216" fill="#fff" stroke="#1a1a1a" stroke-width="1.25" rx="6"/><text x="30405" y="236" class="map-small" text-anchor="middle">Programs</text><path stroke="#9ca3af" stroke-width="1.25" d="m95938 190-65533 26"/><rect width="118" height="32" x="80756" y="216" fill="#fff" stroke="#1a1a1a" stroke-width="1.25" rx="6"/><text x="80815" y="236" class="map-small" text-anchor="middle">Exercises</text><path stroke="#9ca3af" stroke-width="1.25" d="m95938 190-15123 26"/><rect width="118" height="32" x="161412" y="216" fill="#fff" stroke="#1a1a1a" stroke-width="1.25" rx="6"/><text x="161471" y="236" class="map-small" text-anchor="middle">Patients</text><path stroke="#9ca3af" stroke-width="1.25" d="m95938 190 65533 26"/><rect width="118" height="32" x="100" y="274" fill="#fff" stroke="#1a1a1a" stroke-width="1.25" rx="6"/><text x="159" y="287.5" class="map-small" text-anchor="middle">Create new</text><text x="159" y="300.5" class="map-small" text-anchor="middle">program</text><path stroke="#9ca3af" stroke-width="1.25" d="M30405 248 159 274"/><rect width="118" height="32" x="20264" y="274" fill="#fff" stroke="#1a1a1a" stroke-width="1.25" rx="6"/><text x="20323" y="294" class="map-small" text-anchor="middle">Go to folder</text><path stroke="#9ca3af" stroke-width="1.25" d="m30405 248-10082 26"/><rect width="118" height="32" x="40428" y="274" fill="#fff" stroke="#1a1a1a" stroke-width="1.25" rx="6"/><text x="40487" y="294" class="map-small" text-anchor="middle">Edit program</text><path stroke="#9ca3af" stroke-width="1.25" d="m30405 248 10082 26"/><rect width="118" height="32" x="60592" y="274" fill="#fff" stroke="#1a1a1a" stroke-width="1.25" rx="6"/><text x="60651" y="294" class="map-small" text-anchor="middle">Delete program</text><path stroke="#9ca3af" stroke-width="1.25" d="m30405 248 30246 26"/><rect width="118" height="32" x="100" y="332" fill="#fff" stroke="#1a1a1a" stroke-width="1.25" rx="6"/><text x="159" y="352" class="map-small" text-anchor="middle">Program editor</text><path stroke="#9ca3af" stroke-width="1.25" d="M159 306v26"/><rect width="118" height="32" x="20264" y="332" fill="#fff" stroke="#1a1a1a" stroke-width="1.25" rx="6"/><text x="20323" y="352" class="map-small" text-anchor="middle">Name folder</text><path stroke="#9ca3af" stroke-width="1.25" d="M20323 306v26"/><rect width="118" height="32" x="40428" y="332" fill="#fff" stroke="#1a1a1a" stroke-width="1.25" rx="6"/><text x="40487" y="352" class="map-small" text-anchor="middle">Program editor</text><path stroke="#9ca3af" stroke-width="1.25" d="M40487 306v26"/><rect width="118" height="32" x="80756" y="274" fill="#fff" stroke="#1a1a1a" stroke-width="1.25" rx="6"/><text x="80815" y="294" class="map-small" text-anchor="middle">View exercise</text><path stroke="#9ca3af" stroke-width="1.25" d="M80815 248v26"/><rect width="118" height="32" x="80756" y="332" fill="#fff" stroke="#1a1a1a" stroke-width="1.25" rx="6"/><text x="80815" y="345.5" class="map-small" text-anchor="middle">Edit exercise</text><text x="80815" y="358.5" class="map-small" text-anchor="middle">note</text><path stroke="#9ca3af" stroke-width="1.25" d="M80815 306v26"/><rect width="118" height="32" x="100920" y="274" fill="#fff" stroke="#1a1a1a" stroke-width="1.25" rx="6"/><text x="100979" y="287.5" class="map-small" text-anchor="middle">Add new</text><text x="100979" y="300.5" class="map-small" text-anchor="middle">patient</text><path stroke="#9ca3af" stroke-width="1.25" d="m161471 248-60492 26"/><rect width="118" height="32" x="121084" y="274" fill="#fff" stroke="#1a1a1a" stroke-width="1.25" rx="6"/><text x="121143" y="287.5" class="map-small" text-anchor="middle">Delete</text><text x="121143" y="300.5" class="map-small" text-anchor="middle">patient/s</text><path stroke="#9ca3af" stroke-width="1.25" d="m161471 248-40328 26"/><rect width="118" height="32" x="221904" y="274" fill="#fff" stroke="#1a1a1a" stroke-width="1.25" rx="6"/><text x="221963" y="294" class="map-small" text-anchor="middle">Patient page</text><path stroke="#9ca3af" stroke-width="1.25" d="m161471 248 60492 26"/><rect width="118" height="32" x="100920" y="332" fill="#fff" stroke="#1a1a1a" stroke-width="1.25" rx="6"/><text x="100979" y="352" class="map-small" text-anchor="middle">Add</text><path stroke="#9ca3af" stroke-width="1.25" d="M100979 306v26"/><rect width="118" height="32" x="100920" y="390" fill="#fff" stroke="#1a1a1a" stroke-width="1.25" rx="6"/><text x="100979" y="403.5" class="map-small" text-anchor="middle">Assign program</text><text x="100979" y="416.5" class="map-small" text-anchor="middle">to patient</text><path stroke="#9ca3af" stroke-width="1.25" d="M100979 364v26"/><rect width="118" height="32" x="141248" y="332" fill="#fff" stroke="#1a1a1a" stroke-width="1.25" rx="6"/><text x="141307" y="352" class="map-small" text-anchor="middle">Delete patient</text><path stroke="#9ca3af" stroke-width="1.25" d="m221963 306-80656 26"/><rect width="118" height="32" x="161412" y="332" fill="#fff" stroke="#1a1a1a" stroke-width="1.25" rx="6"/><text x="161471" y="352" class="map-small" text-anchor="middle">Asign program</text><path stroke="#9ca3af" stroke-width="1.25" d="m221963 306-60492 26"/><rect width="118" height="32" x="181576" y="332" fill="#fff" stroke="#1a1a1a" stroke-width="1.25" rx="6"/><text x="181635" y="345.5" class="map-small" text-anchor="middle">Request PSFS</text><text x="181635" y="358.5" class="map-small" text-anchor="middle">data</text><path stroke="#9ca3af" stroke-width="1.25" d="m221963 306-40328 26"/><rect width="118" height="32" x="201740" y="332" fill="#fff" stroke="#1a1a1a" stroke-width="1.25" rx="6"/><text x="201799" y="345.5" class="map-small" text-anchor="middle">Knee</text><text x="201799" y="358.5" class="map-small" text-anchor="middle">flexibiloty</text><path stroke="#9ca3af" stroke-width="1.25" d="m221963 306-20164 26"/><rect width="118" height="32" x="221904" y="332" fill="#fff" stroke="#1a1a1a" stroke-width="1.25" rx="6"/><text x="221963" y="352" class="map-small" text-anchor="middle">Pain score</text><path stroke="#9ca3af" stroke-width="1.25" d="M221963 306v26"/><rect width="118" height="32" x="242068" y="332" fill="#fff" stroke="#1a1a1a" stroke-width="1.25" rx="6"/><text x="242127" y="352" class="map-small" text-anchor="middle">Set SMART goal</text><path stroke="#9ca3af" stroke-width="1.25" d="m221963 306 20164 26"/><rect width="118" height="32" x="262232" y="332" fill="#fff" stroke="#1a1a1a" stroke-width="1.25" rx="6"/><text x="262291" y="352" class="map-small" text-anchor="middle">Modify program</text><path stroke="#9ca3af" stroke-width="1.25" d="m221963 306 40328 26"/><rect width="118" height="32" x="282396" y="332" fill="#fff" stroke="#1a1a1a" stroke-width="1.25" rx="6"/><text x="282455" y="345.5" class="map-small" text-anchor="middle">See details of</text><text x="282455" y="358.5" class="map-small" text-anchor="middle">exercises</text><path stroke="#9ca3af" stroke-width="1.25" d="m221963 306 60492 26"/><rect width="118" height="32" x="302560" y="332" fill="#fff" stroke="#1a1a1a" stroke-width="1.25" rx="6"/><text x="302619" y="345.5" class="map-small" text-anchor="middle">Chat with</text><text x="302619" y="358.5" class="map-small" text-anchor="middle">patient</text><path stroke="#9ca3af" stroke-width="1.25" d="m221963 306 80656 26"/><rect width="118" height="32" x="242068" y="390" fill="#fff" stroke="#1a1a1a" stroke-width="1.25" rx="6"/><text x="242127" y="410" class="map-small" text-anchor="middle">Set goal</text><path stroke="#9ca3af" stroke-width="1.25" d="M242127 364v26"/><rect width="118" height="32" x="161412" y="390" fill="#fff" stroke="#1a1a1a" stroke-width="1.25" rx="6"/><text x="161471" y="403.5" class="map-small" text-anchor="middle">Program</text><text x="161471" y="416.5" class="map-small" text-anchor="middle">builder</text><path stroke="#9ca3af" stroke-width="1.25" d="M161471 364v26"/><rect width="118" height="32" x="262232" y="390" fill="#fff" stroke="#1a1a1a" stroke-width="1.25" rx="6"/><text x="262291" y="403.5" class="map-small" text-anchor="middle">Program</text><text x="262291" y="416.5" class="map-small" text-anchor="middle">builder</text><path stroke="#9ca3af" stroke-width="1.25" d="M262291 364v26"/><rect width="165" height="32" x="80" y="880" fill="#fff" stroke="#d1d5db" stroke-width="1.25" rx="16"/><text x="162.5" y="901" class="map-label" font-weight="600" text-anchor="middle">Appmap - Admin view</text><rect width="118" height="32" x="95879" y="940" fill="#4a5568" stroke="#4a5568" stroke-width="1.25" rx="6"/><text x="95938" y="960" class="map-small" text-anchor="middle">Admin login</text><rect width="118" height="32" x="20264" y="998" fill="#fff" stroke="#1a1a1a" stroke-width="1.25" rx="6"/><text x="20323" y="1018" class="map-small" text-anchor="middle">users</text><path stroke="#9ca3af" stroke-width="1.25" d="m95938 972-75615 26"/><rect width="118" height="32" x="80756" y="998" fill="#fff" stroke="#1a1a1a" stroke-width="1.25" rx="6"/><text x="80815" y="1018" class="map-small" text-anchor="middle">Teams</text><path stroke="#9ca3af" stroke-width="1.25" d="m95938 972-15123 26"/><rect width="118" height="32" x="121084" y="998" fill="#fff" stroke="#1a1a1a" stroke-width="1.25" rx="6"/><text x="121143" y="1018" class="map-small" text-anchor="middle">Exercises</text><path stroke="#9ca3af" stroke-width="1.25" d="m95938 972 25205 26"/><rect width="118" height="32" x="171494" y="998" fill="#fff" stroke="#1a1a1a" stroke-width="1.25" rx="6"/><text x="171553" y="1018" class="map-small" text-anchor="middle">Programs</text><path stroke="#9ca3af" stroke-width="1.25" d="m95938 972 75615 26"/><rect width="118" height="32" x="100" y="1056" fill="#fff" stroke="#1a1a1a" stroke-width="1.25" rx="6"/><text x="159" y="1076" class="map-small" text-anchor="middle">Patient page</text><path stroke="#9ca3af" stroke-width="1.25" d="M20323 1030 159 1056"/><rect width="118" height="32" x="20264" y="1056" fill="#fff" stroke="#1a1a1a" stroke-width="1.25" rx="6"/><text x="20323" y="1076" class="map-small" text-anchor="middle">Fysio page</text><path stroke="#9ca3af" stroke-width="1.25" d="M20323 1030v26"/><rect width="118" height="32" x="40428" y="1056" fill="#fff" stroke="#1a1a1a" stroke-width="1.25" rx="6"/><text x="40487" y="1076" class="map-small" text-anchor="middle">Delete users</text><path stroke="#9ca3af" stroke-width="1.25" d="m20323 1030 20164 26"/><rect width="118" height="32" x="100" y="1114" fill="#fff" stroke="#1a1a1a" stroke-width="1.25" rx="6"/><text x="159" y="1134" class="map-small" text-anchor="middle">Program editor</text><path stroke="#9ca3af" stroke-width="1.25" d="M159 1088v26"/><rect width="118" height="32" x="60592" y="1056" fill="#fff" stroke="#1a1a1a" stroke-width="1.25" rx="6"/><text x="60651" y="1076" class="map-small" text-anchor="middle">Add new team</text><path stroke="#9ca3af" stroke-width="1.25" d="m80815 1030-20164 26"/><rect width="118" height="32" x="80756" y="1056" fill="#fff" stroke="#1a1a1a" stroke-width="1.25" rx="6"/><text x="80815" y="1069.5" class="map-small" text-anchor="middle">Select /</text><text x="80815" y="1082.5" class="map-small" text-anchor="middle">delete</text><path stroke="#9ca3af" stroke-width="1.25" d="M80815 1030v26"/><rect width="118" height="32" x="100920" y="1056" fill="#fff" stroke="#1a1a1a" stroke-width="1.25" rx="6"/><text x="100979" y="1076" class="map-small" text-anchor="middle">View team</text><path stroke="#9ca3af" stroke-width="1.25" d="m80815 1030 20164 26"/><rect width="118" height="32" x="121084" y="1056" fill="#fff" stroke="#1a1a1a" stroke-width="1.25" rx="6"/><text x="121143" y="1076" class="map-small" text-anchor="middle">View exercise</text><path stroke="#9ca3af" stroke-width="1.25" d="M121143 1030v26"/><rect width="118" height="32" x="121084" y="1114" fill="#fff" stroke="#1a1a1a" stroke-width="1.25" rx="6"/><text x="121143" y="1134" class="map-small" text-anchor="middle">Edit note</text><path stroke="#9ca3af" stroke-width="1.25" d="M121143 1088v26"/><rect width="118" height="32" x="141248" y="1056" fill="#fff" stroke="#1a1a1a" stroke-width="1.25" rx="6"/><text x="141307" y="1069.5" class="map-small" text-anchor="middle">Create new</text><text x="141307" y="1082.5" class="map-small" text-anchor="middle">program</text><path stroke="#9ca3af" stroke-width="1.25" d="m171553 1030-30246 26"/><rect width="118" height="32" x="161412" y="1056" fill="#fff" stroke="#1a1a1a" stroke-width="1.25" rx="6"/><text x="161471" y="1076" class="map-small" text-anchor="middle">Go to folder</text><path stroke="#9ca3af" stroke-width="1.25" d="m171553 1030-10082 26"/><rect width="118" height="32" x="181576" y="1056" fill="#fff" stroke="#1a1a1a" stroke-width="1.25" rx="6"/><text x="181635" y="1076" class="map-small" text-anchor="middle">Edit program</text><path stroke="#9ca3af" stroke-width="1.25" d="m171553 1030 10082 26"/><rect width="118" height="32" x="201740" y="1056" fill="#fff" stroke="#1a1a1a" stroke-width="1.25" rx="6"/><text x="201799" y="1076" class="map-small" text-anchor="middle">Delete program</text><path stroke="#9ca3af" stroke-width="1.25" d="m171553 1030 30246 26"/></svg>