<svg width="120" height="120" viewBox="0 0 120 120" fill="none" xmlns="http://www.w3.org/2000/svg">
<rect width="120" height="120" rx="27" fill="white"/>
<rect x="12" y="12" width="96" height="96" rx="15" fill="url(#paint0_linear_54_130)"/>
<rect x="12" y="12" width="96" height="96" rx="15" stroke="url(#paint1_linear_54_130)" stroke-width="6"/>
<rect width="6.85714" height="6.85714" transform="matrix(1 0 0 -1 42.2856 89.1431)" fill="black"/>
<rect width="20.5714" height="6.85714" transform="matrix(1 0 0 -1 49.1431 96)" fill="black"/>
<rect width="6.85714" height="6.85714" transform="matrix(1 0 0 -1 69.7144 89.1431)" fill="black"/>
<rect width="6.85714" height="6.85714" transform="matrix(1 0 0 -1 32 37.7144)" fill="black"/>
<rect width="6.85714" height="6.85714" transform="matrix(1 0 0 -1 80 37.7144)" fill="black"/>
<rect width="12.5714" height="6.85714" transform="matrix(1 0 0 -1 65.1431 56)" fill="black"/>
<rect width="12.5714" height="6.85714" transform="matrix(1 0 0 -1 65.1431 72)" fill="black"/>
<rect width="6.85714" height="44.5714" transform="matrix(1 0 0 -1 35.5303 82.2856)" fill="black"/>
<rect width="6.85714" height="44.5714" transform="matrix(1 0 0 -1 76.6733 82.2856)" fill="black"/>
<rect width="6.85714" height="64" transform="matrix(-4.37114e-08 1 1 4.37114e-08 27.4287 24)" fill="black"/>
<defs>
<linearGradient id="paint0_linear_54_130" x1="60" y1="9" x2="60" y2="111" gradientUnits="userSpaceOnUse">
<stop stop-color="#F1F2F0"/>
<stop offset="1" stop-color="white"/>
</linearGradient>
<linearGradient id="paint1_linear_54_130" x1="60" y1="9" x2="60" y2="111" gradientUnits="userSpaceOnUse">
<stop stop-color="white"/>
<stop offset="1" stop-color="#DFE1DD"/>
</linearGradient>
</defs>
</svg>
