<svg xmlns="http://www.w3.org/2000/svg" width="2560" height="1138" fill="none" viewBox="0 0 2560 1138"><style>text{font-family:Inter,ui-sans-serif,system-ui,-apple-system,Segoe UI,Roboto,Helvetica,Arial,sans-serif}.wf-label,.wf-title{font-size:14px;font-weight:600;fill:#1a1a1a}.wf-title{font-size:13px}.wf-body,.wf-muted{font-size:11px;font-weight:400;fill:#4a4a4a}.wf-muted{font-size:10px;fill:#6b6b6b}.wf-tab{font-size:9px;font-weight:500;fill:#8a8a8a}.wf-tab-active{font-size:9px;font-weight:600;fill:#1a1a1a}</style><text x="80" y="24" class="wf-label">Dashboard V1</text><rect width="460" height="980" x="80" y="52" fill="#fff" stroke="#1a1a1a" stroke-width="1.5" rx="20"/><rect width="436" height="14}" x="92" y="66" fill="#f3f4f6" rx="7"/><rect width="436" height="120" x="92" y="88" fill="#f9fafb" stroke="#e5e7eb" stroke-width="1.25" rx="8"/><text x="102" y="106" class="wf-title">Your current goal</text><rect width="48" height="48" x="102" y="116" fill="#fff" stroke="#d1d5db" stroke-width="1.25" rx="4"/><path stroke="#cbd5e1" stroke-width="1.5" d="m110 124 32 32M142 124l-32 32"/><text x="160" y="146" class="wf-body">Patient&apos;s current goal</text><rect width="436" height="130" x="92" y="218" fill="#f9fafb" stroke="#e5e7eb" stroke-width="1.25" rx="8"/><text x="102" y="236" class="wf-title">This week</text><rect width="100" height="28" x="418" y="96" fill="#2d3748" stroke="#2d3748" stroke-width="1.25" rx="14"/><text x="468" y="114" fill="#fff" class="wf-body" text-anchor="middle">Start training</text><circle cx="112" cy="158" r="10" fill="#2d3748" stroke="#2d3748"/><circle cx="140" cy="158" r="10" fill="#2d3748" stroke="#2d3748"/><circle cx="168" cy="158" r="10" fill="#2d3748" stroke="#2d3748"/><circle cx="196" cy="158" r="10" stroke="#2d3748"/><circle cx="224" cy="158" r="10" stroke="#2d3748"/><circle cx="252" cy="158" r="10" stroke="#2d3748"/><circle cx="280" cy="158" r="10" stroke="#2d3748"/><text x="102" y="188" class="wf-muted">3 of 7 sessions completed</text><rect width="436" height="140" x="92" y="358" fill="#f9fafb" stroke="#e5e7eb" stroke-width="1.25" rx="8"/><text x="102" y="376" class="wf-title">Pain level</text><path stroke="#2d3748" stroke-width="2" d="m112 188 396-50"/><text x="102" y="128" class="wf-muted">Max</text><text x="102" y="198" class="wf-muted">Min</text><text x="132" y="213" class="wf-muted" text-anchor="middle">1W</text><text x="172" y="213" class="wf-muted" text-anchor="middle">2W</text><text x="212" y="213" class="wf-muted" text-anchor="middle">3W</text><text x="252" y="213" class="wf-muted" text-anchor="middle">All</text><rect width="436" height="100" x="92" y="508" fill="#f9fafb" stroke="#e5e7eb" stroke-width="1.25" rx="8"/><text x="102" y="526" class="wf-title">Knee flexibility</text><text x="102" y="128" class="wf-body">Max. flexion</text><rect width="88" height="24" x="428" y="120" fill="#f3f4f6" stroke="#e5e7eb" stroke-width="1.25" rx="12"/><text x="472" y="136" class="wf-body" text-anchor="middle">80° ↓ 3°</text><text x="102" y="156" class="wf-body">Max. extension</text><rect width="88" height="24" x="428" y="148" fill="#f3f4f6" stroke="#e5e7eb" stroke-width="1.25" rx="12"/><text x="472" y="164" class="wf-body" text-anchor="middle">178° ↑ 5°</text><path stroke="#e5e7eb" d="M92 960h436"/><text x="146.5" y="978" class="wf-tab-active" text-anchor="middle">Home</text><text x="255.5" y="978" class="wf-tab" text-anchor="middle">Exercises</text><text x="364.5" y="978" class="wf-tab" text-anchor="middle">Chat</text><text x="473.5" y="978" class="wf-tab" text-anchor="middle">Profile</text><text x="596" y="24" class="wf-label">Dashboard V2</text><rect width="460" height="980" x="596" y="52" fill="#fff" stroke="#1a1a1a" stroke-width="1.5" rx="20"/><rect width="436" height="14}" x="608" y="66" fill="#f3f4f6" rx="7"/><rect width="60" height="60" x="796" y="88" fill="#fff" stroke="#d1d5db" stroke-width="1.25" rx="4"/><path stroke="#cbd5e1" stroke-width="1.5" d="m804 96 44 44M848 96l-44 44"/><rect width="436" height="90" x="608" y="168" fill="#f9fafb" stroke="#e5e7eb" stroke-width="1.25" rx="8"/><text x="618" y="186" class="wf-title">Your overview</text><rect width="110" height="30" x="618" y="118" fill="#2d3748" stroke="#2d3748" stroke-width="1.25" rx="15"/><text x="673" y="137" fill="#fff" class="wf-body" text-anchor="middle">Start training</text><circle cx="994" cy="133" r="28" stroke="#2d3748" stroke-dasharray="120 40" stroke-width="8"/><rect width="210" height="100" x="608" y="278" fill="#f9fafb" stroke="#e5e7eb" stroke-width="1.25" rx="8"/><text x="618" y="296" class="wf-title">Goal</text><text x="618" y="318" class="wf-muted">Patient&apos;s current goal</text><rect width="188" height="6" x="618" y="333" fill="#2d3748" rx="3"/><rect width="210" height="100" x="830" y="278" fill="#f9fafb" stroke="#e5e7eb" stroke-width="1.25" rx="8"/><text x="840" y="296" class="wf-title">Active Time</text><text x="840" y="318" class="wf-muted">Goal: x Min.</text><text x="840" y="350" class="wf-title" font-size="16">40 Min.</text><rect width="210" height="100" x="608" y="388" fill="#f9fafb" stroke="#e5e7eb" stroke-width="1.25" rx="8"/><text x="618" y="406" class="wf-title">Pain Level</text><text x="618" y="428" class="wf-muted">-15% since last week</text><text x="618" y="460" class="wf-title" font-size="16">6/10</text><rect width="210" height="100" x="830" y="388" fill="#f9fafb" stroke="#e5e7eb" stroke-width="1.25" rx="8"/><text x="840" y="406" class="wf-title">Steps</text><text x="840" y="428" class="wf-muted">Goal: 10K</text><text x="840" y="460" class="wf-title" font-size="16">6K Steps</text><path stroke="#e5e7eb" d="M608 960h436"/><text x="662.5" y="978" class="wf-tab-active" text-anchor="middle">Home</text><text x="771.5" y="978" class="wf-tab" text-anchor="middle">Exercises</text><text x="880.5" y="978" class="wf-tab" text-anchor="middle">Chat</text><text x="989.5" y="978" class="wf-tab" text-anchor="middle">Profile</text><text x="1112" y="24" class="wf-label">Settings</text><rect width="460" height="980" x="1112" y="52" fill="#fff" stroke="#1a1a1a" stroke-width="1.5" rx="20"/><rect width="436" height="14}" x="1124" y="66" fill="#f3f4f6" rx="7"/><text x="1144" y="96" class="wf-title">‹</text><text x="1342" y="100" class="wf-title" text-anchor="middle">Settings</text><rect width="56" height="56" x="1314" y="118" fill="#fff" stroke="#d1d5db" stroke-width="1.25" rx="4"/><path stroke="#cbd5e1" stroke-width="1.5" d="m1322 126 40 40M1362 126l-40 40"/><text x="1342" y="188" class="wf-body" text-anchor="middle">User&apos;s Name</text><text x="1128" y="208" class="wf-muted">Profile</text><rect width="436" height="120" x="1124" y="226" fill="#f9fafb" stroke="#e5e7eb" stroke-width="1.25" rx="8"/><text x="1136" y="242" class="wf-body">Change login code</text><text x="1136" y="274" class="wf-body">Link profile with MitID</text><rect width="34" height="18" x="1512" y="262" fill="#e5e7eb" stroke-width="1.25" rx="9"/><circle cx="1521" cy="271" r="7" fill="#fff"/><text x="1136" y="306" class="wf-body">Log in with Face ID</text><rect width="34" height="18" x="1512" y="294" fill="#2d3748" stroke-width="1.25" rx="9"/><circle cx="1537" cy="303" r="7" fill="#fff"/><text x="1128" y="362" class="wf-muted">Preferences</text><rect width="436" height="120" x="1124" y="380" fill="#f9fafb" stroke="#e5e7eb" stroke-width="1.25" rx="8"/><text x="1136" y="396" class="wf-body">Language</text><text x="1136" y="428" class="wf-body">Sound</text><rect width="34" height="18" x="1512" y="416" fill="#2d3748" stroke-width="1.25" rx="9"/><circle cx="1537" cy="425" r="7" fill="#fff"/><text x="1136" y="460" class="wf-body">Notifications</text><rect width="34" height="18" x="1512" y="448" fill="#2d3748" stroke-width="1.25" rx="9"/><circle cx="1537" cy="457" r="7" fill="#fff"/><text x="1128" y="516" class="wf-muted">Other settings</text><rect width="436" height="88" x="1124" y="534" fill="#f9fafb" stroke="#e5e7eb" stroke-width="1.25" rx="8"/><text x="1136" y="550" class="wf-body">Privacy policy</text><text x="1136" y="582" class="wf-body">Contact support</text><path stroke="#e5e7eb" d="M1124 960h436"/><text x="1178.5" y="978" class="wf-tab" text-anchor="middle">Home</text><text x="1287.5" y="978" class="wf-tab" text-anchor="middle">Exercises</text><text x="1396.5" y="978" class="wf-tab" text-anchor="middle">Chat</text><text x="1505.5" y="978" class="wf-tab-active" text-anchor="middle">Profile</text><text x="1628" y="24" class="wf-label">Exercises</text><rect width="460" height="980" x="1628" y="52" fill="#fff" stroke="#1a1a1a" stroke-width="1.5" rx="20"/><rect width="436" height="14}" x="1640" y="66" fill="#f3f4f6" rx="7"/><text x="1858" y="100" class="wf-title" text-anchor="middle">Exercises</text><rect width="436" height="76" x="1640" y="128" fill="#f9fafb" stroke="#e5e7eb" stroke-width="1.25" rx="8"/><rect width="52" height="52" x="1650" y="140" fill="#fff" stroke="#d1d5db" stroke-width="1.25" rx="4"/><path stroke="#cbd5e1" stroke-width="1.5" d="m1658 148 36 36M1694 148l-36 36"/><text x="1716" y="156" class="wf-title">Squat</text><text x="1716" y="172" class="wf-muted">15 reps</text><text x="1716" y="186" class="wf-muted">2 sets</text><rect width="436" height="76" x="1640" y="216" fill="#f9fafb" stroke="#e5e7eb" stroke-width="1.25" rx="8"/><rect width="52" height="52" x="1650" y="228" fill="#fff" stroke="#d1d5db" stroke-width="1.25" rx="4"/><path stroke="#cbd5e1" stroke-width="1.5" d="m1658 236 36 36M1694 236l-36 36"/><text x="1716" y="244" class="wf-title">Squat</text><text x="1716" y="260" class="wf-muted">15 reps</text><text x="1716" y="274" class="wf-muted">2 sets</text><rect width="436" height="76" x="1640" y="304" fill="#f9fafb" stroke="#e5e7eb" stroke-width="1.25" rx="8"/><rect width="52" height="52" x="1650" y="316" fill="#fff" stroke="#d1d5db" stroke-width="1.25" rx="4"/><path stroke="#cbd5e1" stroke-width="1.5" d="m1658 324 36 36M1694 324l-36 36"/><text x="1716" y="332" class="wf-title">Squat</text><text x="1716" y="348" class="wf-muted">15 reps</text><text x="1716" y="362" class="wf-muted">2 sets</text><rect width="436" height="76" x="1640" y="392" fill="#f9fafb" stroke="#e5e7eb" stroke-width="1.25" rx="8"/><rect width="52" height="52" x="1650" y="404" fill="#fff" stroke="#d1d5db" stroke-width="1.25" rx="4"/><path stroke="#cbd5e1" stroke-width="1.5" d="m1658 412 36 36M1694 412l-36 36"/><text x="1716" y="420" class="wf-title">Squat</text><text x="1716" y="436" class="wf-muted">15 reps</text><text x="1716" y="450" class="wf-muted">2 sets</text><rect width="436" height="76" x="1640" y="480" fill="#f9fafb" stroke="#e5e7eb" stroke-width="1.25" rx="8"/><rect width="52" height="52" x="1650" y="492" fill="#fff" stroke="#d1d5db" stroke-width="1.25" rx="4"/><path stroke="#cbd5e1" stroke-width="1.5" d="m1658 500 36 36M1694 500l-36 36"/><text x="1716" y="508" class="wf-title">Squat</text><text x="1716" y="524" class="wf-muted">15 reps</text><text x="1716" y="538" class="wf-muted">2 sets</text><path stroke="#e5e7eb" d="M1640 960h436"/><text x="1694.5" y="978" class="wf-tab" text-anchor="middle">Home</text><text x="1803.5" y="978" class="wf-tab-active" text-anchor="middle">Exercises</text><text x="1912.5" y="978" class="wf-tab" text-anchor="middle">Chat</text><text x="2021.5" y="978" class="wf-tab" text-anchor="middle">Profile</text><text x="2144" y="24" class="wf-label">Pain Score</text><rect width="460" height="980" x="2144" y="52" fill="#fff" stroke="#1a1a1a" stroke-width="1.5" rx="20"/><rect width="436" height="14}" x="2156" y="66" fill="#f3f4f6" rx="7"/><text x="2374" y="100" class="wf-title" text-anchor="middle">Pain Score</text><text x="2374" y="158" class="wf-body" text-anchor="middle">How much pain do you feel</text><text x="2374" y="172" class="wf-body" text-anchor="middle">right now in relation to</text><text x="2374" y="186" class="wf-body" text-anchor="middle">your current problem?</text><rect width="80" height="80" x="2334" y="248" fill="#f9fafb" stroke="#d1d5db" stroke-width="1.25" rx="8"/><text x="2374" y="298" class="wf-title" font-size="28" text-anchor="middle">5</text><path stroke="#d1d5db" stroke-width="4" d="M2176 368h396"/><circle cx="2374" cy="368" r="10" fill="#2d3748"/><text x="2180" y="388" class="wf-muted">Min</text><text x="2568" y="388" class="wf-muted" text-anchor="middle">Max</text><rect width="120" height="36" x="2314" y="916" fill="#2d3748" stroke="#2d3748" stroke-width="1.25" rx="18"/><text x="2374" y="938" fill="#fff" class="wf-body" text-anchor="middle">Confirm</text></svg>