<?xml version="1.0" encoding="UTF-8"?> <svg xmlns="http://www.w3.org/2000/svg" width="762" height="1025" viewBox="0 0 762 1025" fill="none"><rect width="762.007" height="1025" fill="#F5F5F5"></rect><g opacity="0.5"><rect x="38.9844" y="36.689" width="45.8613" height="953.915" fill="#CCCCCC"></rect><rect x="97" y="36.689" width="45.8613" height="953.915" fill="#CCCCCC"></rect><rect x="155.012" y="36.689" width="45.8613" height="953.915" fill="#CCCCCC"></rect><rect x="213.027" y="36.689" width="45.8613" height="953.915" fill="#CCCCCC"></rect><rect x="271.043" y="36.689" width="45.8613" height="953.915" fill="#CCCCCC"></rect><rect x="329.059" y="36.689" width="45.8613" height="953.915" fill="#CCCCCC"></rect><rect x="387.07" y="36.689" width="45.8613" height="953.915" fill="#CCCCCC"></rect><rect x="445.086" y="36.689" width="45.8613" height="953.915" fill="#CCCCCC"></rect><rect x="503.102" y="36.689" width="45.8613" height="953.915" fill="#CCCCCC"></rect><rect x="561.113" y="36.689" width="45.8613" height="953.915" fill="#CCCCCC"></rect><rect x="619.129" y="36.689" width="45.8613" height="953.915" fill="#CCCCCC"></rect><rect x="677.145" y="36.689" width="45.8613" height="953.915" fill="#CCCCCC"></rect></g><g clip-path="url(#clip0_1_10992)"><path fill-rule="evenodd" clip-rule="evenodd" d="M380.651 989.457C569.348 989.457 722.318 836.488 722.318 647.791C722.318 459.093 569.348 306.124 380.651 306.124C191.954 306.124 38.9844 459.093 38.9844 647.791C38.9844 836.488 191.954 989.457 380.651 989.457ZM380.667 826.763C479.508 826.763 559.635 746.636 559.635 647.794C559.635 548.953 479.508 468.826 380.667 468.826C281.825 468.826 201.699 548.953 201.699 647.794C201.699 746.636 281.825 826.763 380.667 826.763Z" fill="#18181B"></path></g><path d="M50.7635 47.586C50.4922 45.9156 49.8335 45.0027 48.7292 44.556C50.221 44.0898 51.1897 42.9438 51.1897 41.118C51.1897 38.6124 49.3879 37.0779 46.0944 37.0779H38.9844V51.3542H41.2123V45.3912H45.7457C47.4893 45.3912 48.2643 46.2847 48.5355 48.1687L49.0005 51.3542H51.3834L50.7635 47.586ZM41.2123 43.546V39.0203H45.9588C47.8962 39.0203 48.8842 39.7584 48.8842 41.2928C48.8842 42.8079 47.8962 43.546 45.9588 43.546H41.2123Z" fill="#18181B"></path><path d="M60.8168 51.7427C65.0983 51.7427 68.1593 48.4407 68.1593 44.1869C68.1593 39.9526 65.2533 36.6895 60.9137 36.6895C56.6515 36.6895 53.5711 39.9915 53.5711 44.2452C53.5711 48.4795 56.4965 51.7427 60.8168 51.7427ZM60.8555 49.6838C57.8139 49.6838 55.8959 47.3141 55.8959 44.2258C55.8959 41.118 57.8139 38.7483 60.8749 38.7483C63.9359 38.7483 65.8539 41.118 65.8539 44.2064C65.8539 47.3141 63.9359 49.6838 60.8555 49.6838Z" fill="#18181B"></path><path d="M81.5423 51.3542H84.1965L78.4038 42.264L83.8672 37.0585H81.0968L73.7348 43.9538V37.0779H71.5069V51.3542H73.7348V46.4595L76.6408 43.7013L81.5423 51.3542Z" fill="#18181B"></path><path d="M92.0906 51.7427C96.3721 51.7427 99.4332 48.4407 99.4332 44.1869C99.4332 39.9526 96.5271 36.6895 92.1875 36.6895C87.9253 36.6895 84.8449 39.9915 84.8449 44.2452C84.8449 48.4795 87.7703 51.7427 92.0906 51.7427ZM92.1293 49.6838C89.0877 49.6838 87.1697 47.3141 87.1697 44.2258C87.1697 41.118 89.0877 38.7483 92.1487 38.7483C95.2097 38.7483 97.1277 41.118 97.1277 44.2064C97.1277 47.3141 95.2097 49.6838 92.1293 49.6838Z" fill="#18181B"></path><path d="M112.816 51.3542H115.47L109.678 42.264L115.141 37.0585H112.371L105.009 43.9538V37.0779H102.781V51.3542H105.009V46.4595L107.915 43.7013L112.816 51.3542Z" fill="#18181B"></path><path d="M123.364 51.7427C127.646 51.7427 130.707 48.4407 130.707 44.1869C130.707 39.9526 127.801 36.6895 123.461 36.6895C119.199 36.6895 116.119 39.9915 116.119 44.2452C116.119 48.4795 119.044 51.7427 123.364 51.7427ZM123.403 49.6838C120.362 49.6838 118.444 47.3141 118.444 44.2258C118.444 41.118 120.362 38.7483 123.423 38.7483C126.484 38.7483 128.402 41.118 128.402 44.2064C128.402 47.3141 126.484 49.6838 123.403 49.6838Z" fill="#18181B"></path><defs><clipPath id="clip0_1_10992"><rect width="683.333" height="683.333" fill="white" transform="translate(38.9844 306.124)"></rect></clipPath></defs></svg> 