<?xml version="1.0" encoding="UTF-8"?> <svg xmlns="http://www.w3.org/2000/svg" width="763" height="1025" viewBox="0 0 763 1025" fill="none"><rect width="762.007" height="1025" transform="translate(0.0195312)" fill="#F5F5F5"></rect><g opacity="0.5"><rect x="39.0039" y="36.689" width="45.8613" height="953.915" fill="#CCCCCC"></rect><rect x="97.0195" y="36.689" width="45.8613" height="953.915" fill="#CCCCCC"></rect><rect x="155.031" y="36.689" width="45.8613" height="953.915" fill="#CCCCCC"></rect><rect x="213.047" y="36.689" width="45.8613" height="953.915" fill="#CCCCCC"></rect><rect x="271.062" y="36.689" width="45.8613" height="953.915" fill="#CCCCCC"></rect><rect x="329.078" y="36.689" width="45.8613" height="953.915" fill="#CCCCCC"></rect><rect x="387.09" y="36.689" width="45.8613" height="953.915" fill="#CCCCCC"></rect><rect x="445.105" y="36.689" width="45.8613" height="953.915" fill="#CCCCCC"></rect><rect x="503.121" y="36.689" width="45.8613" height="953.915" fill="#CCCCCC"></rect><rect x="561.133" y="36.689" width="45.8613" height="953.915" fill="#CCCCCC"></rect><rect x="619.148" y="36.689" width="45.8613" height="953.915" fill="#CCCCCC"></rect><rect x="677.164" y="36.689" width="45.8613" height="953.915" fill="#CCCCCC"></rect></g><g clip-path="url(#clip0_1_11008)"><path fill-rule="evenodd" clip-rule="evenodd" d="M50.4692 59.6201C56.8014 59.6201 61.9346 54.4869 61.9346 48.1548C61.9346 41.8227 56.8014 36.6895 50.4692 36.6895C44.1371 36.6895 39.0039 41.8227 39.0039 48.1548C39.0039 54.4869 44.1371 59.6201 50.4692 59.6201ZM50.4698 54.1605C53.7866 54.1605 56.4754 51.4717 56.4754 48.1549C56.4754 44.8381 53.7866 42.1493 50.4698 42.1493C47.1529 42.1493 44.4641 44.8381 44.4641 48.1549C44.4641 51.4717 47.1529 54.1605 50.4698 54.1605Z" fill="#18181B"></path></g><path d="M126.758 959.424C124.737 946.979 119.83 940.178 111.603 936.85C122.717 933.377 129.933 924.839 129.933 911.237C129.933 892.57 116.51 881.138 91.974 881.138H39.0039V987.497H55.6022V943.072H89.376C102.366 943.072 108.139 949.728 110.16 963.765L113.624 987.497H131.377L126.758 959.424ZM55.6022 929.325V895.609H90.9636C105.397 895.609 112.758 901.108 112.758 912.539C112.758 923.826 105.397 929.325 90.9636 929.325H55.6022Z" fill="#18181B"></path><path d="M201.655 990.391C233.553 990.391 256.357 965.791 256.357 934.1C256.357 902.555 234.708 878.244 202.377 878.244C170.624 878.244 147.675 902.844 147.675 934.534C147.675 966.08 169.469 990.391 201.655 990.391ZM201.944 975.052C179.284 975.052 164.995 957.398 164.995 934.39C164.995 911.237 179.284 893.583 202.088 893.583C224.893 893.583 239.182 911.237 239.182 934.245C239.182 957.398 224.893 975.052 201.944 975.052Z" fill="#18181B"></path><path d="M356.061 987.497H375.834L332.679 919.775L373.381 880.994H352.741L297.895 932.364V881.138H281.296V987.497H297.895V951.031L319.545 930.483L356.061 987.497Z" fill="#18181B"></path><path d="M434.645 990.391C466.543 990.391 489.347 965.791 489.347 934.1C489.347 902.555 467.697 878.244 435.367 878.244C403.614 878.244 380.665 902.844 380.665 934.534C380.665 966.08 402.459 990.391 434.645 990.391ZM434.934 975.052C412.274 975.052 397.985 957.398 397.985 934.39C397.985 911.237 412.274 893.583 435.078 893.583C457.883 893.583 472.172 911.237 472.172 934.245C472.172 957.398 457.883 975.052 434.934 975.052Z" fill="#18181B"></path><path d="M589.051 987.497H608.824L565.669 919.775L606.371 880.994H585.731L530.885 932.364V881.138H514.286V987.497H530.885V951.031L552.535 930.483L589.051 987.497Z" fill="#18181B"></path><path d="M667.635 990.391C699.533 990.391 722.337 965.791 722.337 934.1C722.337 902.555 700.687 878.244 668.357 878.244C636.604 878.244 613.655 902.844 613.655 934.534C613.655 966.08 635.449 990.391 667.635 990.391ZM667.924 975.052C645.264 975.052 630.975 957.398 630.975 934.39C630.975 911.237 645.264 893.583 668.068 893.583C690.873 893.583 705.162 911.237 705.162 934.245C705.162 957.398 690.873 975.052 667.924 975.052Z" fill="#18181B"></path><defs><clipPath id="clip0_1_11008"><rect width="22.9306" height="22.9306" fill="white" transform="translate(39.0039 36.6895)"></rect></clipPath></defs></svg> 