<?xml version="1.0" encoding="UTF-8"?> <svg xmlns="http://www.w3.org/2000/svg" width="763" height="1025" viewBox="0 0 763 1025" fill="none"><rect width="762.007" height="1025" transform="translate(0.0195312)" fill="#F5F5F5"></rect><g opacity="0.3" clip-path="url(#clip0_2321_21656)"><path fill-rule="evenodd" clip-rule="evenodd" d="M85.3333 541.333C101.534 541.333 114.667 528.2 114.667 511.999C114.667 495.799 101.534 482.666 85.3333 482.666C69.133 482.666 56 495.799 56 511.999C56 528.2 69.133 541.333 85.3333 541.333ZM85.3347 527.365C93.8205 527.365 100.7 520.486 100.7 512C100.7 503.514 93.8205 496.635 85.3347 496.635C76.8488 496.635 69.9696 503.514 69.9696 512C69.9696 520.486 76.8488 527.365 85.3347 527.365Z" fill="black"></path></g><g opacity="0.3" clip-path="url(#clip1_2321_21656)"><path fill-rule="evenodd" clip-rule="evenodd" d="M144.001 482.667C160.202 482.667 173.335 469.534 173.335 453.333C173.335 437.133 160.202 424 144.001 424C127.801 424 114.668 437.133 114.668 453.333C114.668 469.534 127.801 482.667 144.001 482.667ZM144.003 468.699C152.489 468.699 159.368 461.819 159.368 453.334C159.368 444.848 152.489 437.969 144.003 437.969C135.517 437.969 128.638 444.848 128.638 453.334C128.638 461.819 135.517 468.699 144.003 468.699Z" fill="black"></path></g><g opacity="0.3" clip-path="url(#clip2_2321_21656)"><path fill-rule="evenodd" clip-rule="evenodd" d="M144.001 600C160.202 600 173.335 586.867 173.335 570.667C173.335 554.466 160.202 541.333 144.001 541.333C127.801 541.333 114.668 554.466 114.668 570.667C114.668 586.867 127.801 600 144.001 600ZM144.003 586.032C152.489 586.032 159.368 579.153 159.368 570.667C159.368 562.181 152.489 555.302 144.003 555.302C135.517 555.302 128.638 562.181 128.638 570.667C128.638 579.153 135.517 586.032 144.003 586.032Z" fill="black"></path></g><g opacity="0.3" clip-path="url(#clip3_2321_21656)"><path fill-rule="evenodd" clip-rule="evenodd" d="M618.224 600C634.424 600 647.557 586.867 647.557 570.667C647.557 554.466 634.424 541.333 618.224 541.333C602.024 541.333 588.891 554.466 588.891 570.667C588.891 586.867 602.024 600 618.224 600ZM618.225 586.032C626.711 586.032 633.59 579.153 633.59 570.667C633.59 562.181 626.711 555.302 618.225 555.302C609.739 555.302 602.86 562.181 602.86 570.667C602.86 579.153 609.739 586.032 618.225 586.032Z" fill="black"></path></g><g opacity="0.3" clip-path="url(#clip4_2321_21656)"><path fill-rule="evenodd" clip-rule="evenodd" d="M676.888 541.333C693.088 541.333 706.221 528.2 706.221 511.999C706.221 495.799 693.088 482.666 676.888 482.666C660.688 482.666 647.555 495.799 647.555 511.999C647.555 528.2 660.688 541.333 676.888 541.333ZM676.889 527.365C685.375 527.365 692.254 520.486 692.254 512C692.254 503.514 685.375 496.635 676.889 496.635C668.403 496.635 661.524 503.514 661.524 512C661.524 520.486 668.403 527.365 676.889 527.365Z" fill="black"></path></g><g opacity="0.3" clip-path="url(#clip5_2321_21656)"><path fill-rule="evenodd" clip-rule="evenodd" d="M618.224 482.667C634.424 482.667 647.557 469.534 647.557 453.333C647.557 437.133 634.424 424 618.224 424C602.024 424 588.891 437.133 588.891 453.333C588.891 469.534 602.024 482.667 618.224 482.667ZM618.225 468.699C626.711 468.699 633.59 461.819 633.59 453.334C633.59 444.848 626.711 437.969 618.225 437.969C609.739 437.969 602.86 444.848 602.86 453.334C602.86 461.819 609.739 468.699 618.225 468.699Z" fill="black"></path></g><path d="M56 482.667H706.221" stroke="#737373" stroke-width="1.22222" stroke-dasharray="9.78 9.78"></path><path d="M114.668 424L114.668 600" stroke="#737373" stroke-width="1.22222" stroke-dasharray="9.78 9.78"></path><path d="M647.555 424L647.555 600" stroke="#737373" stroke-width="1.22222" stroke-dasharray="9.78 9.78"></path><path d="M56 541.333H706.221" stroke="#737373" stroke-width="1.22222" stroke-dasharray="9.78 9.78"></path><g clip-path="url(#clip6_2321_21656)"><path fill-rule="evenodd" clip-rule="evenodd" d="M144.001 541.333C160.202 541.333 173.335 528.2 173.335 511.999C173.335 495.799 160.202 482.666 144.001 482.666C127.801 482.666 114.668 495.799 114.668 511.999C114.668 528.2 127.801 541.333 144.001 541.333ZM144.003 527.365C152.489 527.365 159.368 520.486 159.368 512C159.368 503.514 152.489 496.635 144.003 496.635C135.517 496.635 128.638 503.514 128.638 512C128.638 520.486 135.517 527.365 144.003 527.365Z" fill="black"></path></g><path d="M336.574 525.133C335.517 518.623 332.95 515.065 328.646 513.324C334.46 511.507 338.235 507.041 338.235 499.925C338.235 490.16 331.214 484.18 318.378 484.18H290.668V539.819H299.351V516.579H317.019C323.814 516.579 326.834 520.061 327.891 527.404L329.703 539.819H338.99L336.574 525.133ZM299.351 509.388V491.75H317.849C325.4 491.75 329.25 494.626 329.25 500.607C329.25 506.511 325.4 509.388 317.849 509.388H299.351Z" fill="black"></path><path d="M375.755 541.333C392.441 541.333 404.371 528.464 404.371 511.886C404.371 495.383 393.045 482.666 376.132 482.666C359.522 482.666 347.516 495.535 347.516 512.113C347.516 528.615 358.918 541.333 375.755 541.333ZM375.906 533.309C364.052 533.309 356.577 524.073 356.577 512.037C356.577 499.925 364.052 490.69 375.981 490.69C387.911 490.69 395.386 499.925 395.386 511.961C395.386 524.073 387.911 533.309 375.906 533.309Z" fill="black"></path><path d="M456.528 539.819H466.872L444.297 504.392L465.589 484.104H454.792L426.1 510.977V484.18H417.417V539.819H426.1V520.743L437.426 509.993L456.528 539.819Z" fill="black"></path><path d="M497.638 541.333C514.324 541.333 526.254 528.464 526.254 511.886C526.254 495.383 514.928 482.666 498.015 482.666C481.404 482.666 469.399 495.535 469.399 512.113C469.399 528.615 480.8 541.333 497.638 541.333ZM497.789 533.309C485.935 533.309 478.46 524.073 478.46 512.037C478.46 499.925 485.935 490.69 497.864 490.69C509.794 490.69 517.269 499.925 517.269 511.961C517.269 524.073 509.794 533.309 497.789 533.309Z" fill="black"></path><path d="M578.411 539.819H588.755L566.179 504.392L587.471 484.104H576.674L547.983 510.977V484.18H539.3V539.819H547.983V520.743L559.308 509.993L578.411 539.819Z" fill="black"></path><path d="M619.52 541.333C636.207 541.333 648.136 528.464 648.136 511.886C648.136 495.383 636.811 482.666 619.898 482.666C603.287 482.666 591.282 495.535 591.282 512.113C591.282 528.615 602.683 541.333 619.52 541.333ZM619.671 533.309C607.817 533.309 600.342 524.073 600.342 512.037C600.342 499.925 607.817 490.69 619.747 490.69C631.677 490.69 639.151 499.925 639.151 511.961C639.151 524.073 631.677 533.309 619.671 533.309Z" fill="black"></path><defs><clipPath id="clip0_2321_21656"><rect width="58.6666" height="58.6666" fill="white" transform="translate(56 482.666)"></rect></clipPath><clipPath id="clip1_2321_21656"><rect width="58.6666" height="58.6666" fill="white" transform="translate(114.668 424)"></rect></clipPath><clipPath id="clip2_2321_21656"><rect width="58.6666" height="58.6666" fill="white" transform="translate(114.668 541.333)"></rect></clipPath><clipPath id="clip3_2321_21656"><rect width="58.6666" height="58.6666" fill="white" transform="translate(588.891 541.333)"></rect></clipPath><clipPath id="clip4_2321_21656"><rect width="58.6666" height="58.6666" fill="white" transform="translate(647.555 482.666)"></rect></clipPath><clipPath id="clip5_2321_21656"><rect width="58.6666" height="58.6666" fill="white" transform="translate(588.891 424)"></rect></clipPath><clipPath id="clip6_2321_21656"><rect width="58.6666" height="58.6666" fill="white" transform="translate(114.668 482.666)"></rect></clipPath></defs></svg> 