<svg width="560" height="560" viewBox="0 0 560 560" fill="none" xmlns="http://www.w3.org/2000/svg">
<rect width="560" height="560" rx="2" fill="#262627"/>
<path d="M114 107.579C114 106.155 115.155 105 116.579 105H445.421C446.845 105 448 106.155 448 107.579V164.32H114V107.579Z" fill="#141515"/>
<path d="M114 164.32H448V451.896C448 453.32 446.845 454.475 445.421 454.475H116.579C115.155 454.475 114 453.32 114 451.896V164.32Z" fill="black"/>
<rect x="135.482" y="189.508" width="20.8722" height="19.345" fill="#0070F4"/>
<rect x="135.482" y="233.287" width="20.8722" height="19.345" fill="#0070F4"/>
<rect x="135.482" y="277.069" width="20.8722" height="19.345" fill="#0070F4"/>
<rect x="135.482" y="320.849" width="20.8722" height="19.345" fill="#0070F4"/>
<rect x="135.482" y="364.63" width="20.8722" height="19.345" fill="#0070F4"/>
<rect x="135.482" y="408.41" width="20.8722" height="19.345" fill="#0070F4"/>
<path d="M147.399 140.225C147.399 141.092 147.185 141.897 146.759 142.639C146.333 143.368 145.755 143.946 145.026 144.373C144.31 144.799 143.52 145.012 142.653 145.012C141.786 145.012 140.989 144.799 140.259 144.373C139.544 143.946 138.973 143.368 138.547 142.639C138.12 141.897 137.907 141.092 137.907 140.225V127.226H140.693V140.535C140.693 141.085 140.878 141.553 141.25 141.938C141.635 142.323 142.103 142.516 142.653 142.516C143.189 142.516 143.65 142.323 144.035 141.938C144.421 141.553 144.613 141.085 144.613 140.535V127.226H147.399V140.225ZM152.77 145.054C152.096 145.054 151.477 144.888 150.913 144.558C150.362 144.228 149.929 143.781 149.613 143.217C149.296 142.639 149.138 142.007 149.138 141.319V140.927H151.614V141.319C151.614 141.594 151.71 141.869 151.903 142.144C152.096 142.406 152.384 142.536 152.77 142.536C153.182 142.536 153.478 142.419 153.657 142.185C153.836 141.952 153.925 141.663 153.925 141.319C153.925 140.865 153.877 140.514 153.781 140.267C153.684 140.005 153.512 139.799 153.265 139.648C153.155 139.565 152.969 139.476 152.708 139.379C152.46 139.269 152.295 139.201 152.213 139.173C151.167 138.747 150.39 138.135 149.881 137.337C149.386 136.525 149.138 135.617 149.138 134.613C149.138 133.967 149.296 133.375 149.613 132.839C149.929 132.302 150.362 131.883 150.913 131.58C151.463 131.264 152.068 131.105 152.728 131.105C153.829 131.105 154.702 131.484 155.349 132.24C155.995 132.983 156.319 134.015 156.319 135.335H153.843C153.843 134.716 153.746 134.269 153.554 133.994C153.375 133.719 153.1 133.581 152.728 133.581C152.426 133.581 152.164 133.678 151.944 133.87C151.724 134.049 151.614 134.297 151.614 134.613C151.614 135.163 151.731 135.617 151.965 135.975C152.213 136.333 152.591 136.615 153.1 136.821L153.657 137.089C154.152 137.323 154.462 137.481 154.585 137.564C155.246 137.963 155.713 138.465 155.988 139.07C156.264 139.661 156.401 140.411 156.401 141.319C156.401 142.034 156.243 142.681 155.927 143.258C155.624 143.822 155.197 144.263 154.647 144.579C154.097 144.895 153.471 145.054 152.77 145.054ZM162.099 145.012C161.301 145.012 160.565 144.84 159.891 144.496C159.231 144.139 158.708 143.657 158.323 143.052C157.951 142.447 157.766 141.787 157.766 141.071V135.356C157.766 133.967 158.13 132.914 158.859 132.199C159.602 131.47 160.682 131.105 162.099 131.105C163.488 131.105 164.533 131.477 165.235 132.22C165.95 132.962 166.308 134.035 166.308 135.438V138.781H160.592V141.216C160.592 141.628 160.744 141.979 161.046 142.268C161.349 142.543 161.727 142.681 162.181 142.681C162.594 142.681 162.951 142.536 163.254 142.247C163.557 141.959 163.708 141.615 163.708 141.216V140.349H166.308V141.071C166.308 141.828 166.136 142.509 165.792 143.114C165.448 143.705 164.953 144.173 164.306 144.517C163.674 144.847 162.938 145.012 162.099 145.012ZM163.708 134.923C163.708 134.372 163.57 133.946 163.295 133.643C163.034 133.341 162.656 133.189 162.16 133.189C161.624 133.189 161.225 133.354 160.964 133.685C160.716 134.001 160.592 134.434 160.592 134.985V137.11H163.708V134.923ZM170.276 132.962C170.565 132.371 171.074 131.91 171.803 131.58C172.532 131.25 173.261 131.092 173.99 131.105V133.623C173.798 133.595 173.646 133.581 173.536 133.581C172.862 133.581 172.271 133.795 171.762 134.221C171.267 134.634 170.998 135.15 170.957 135.769V144.765H168.151V131.353H170.276V132.962ZM178.266 131.353H180.515V132.901C180.804 132.309 181.21 131.862 181.732 131.559C182.269 131.257 182.86 131.105 183.507 131.105C184.14 131.105 184.724 131.277 185.261 131.621C185.797 131.951 186.224 132.398 186.54 132.962C186.856 133.526 187.014 134.132 187.014 134.778V140.659C187.014 141.993 186.746 143.052 186.21 143.836C185.687 144.62 184.827 145.012 183.631 145.012C183.012 145.012 182.475 144.861 182.021 144.558C181.581 144.256 181.265 143.864 181.072 143.382V148.891H178.266V131.353ZM182.64 133.478C182.2 133.478 181.829 133.63 181.526 133.932C181.223 134.235 181.072 134.599 181.072 135.026V141.113C181.072 141.553 181.223 141.931 181.526 142.247C181.829 142.55 182.2 142.701 182.64 142.701C183.067 142.701 183.431 142.55 183.734 142.247C184.036 141.931 184.188 141.553 184.188 141.113V135.026C184.188 134.586 184.036 134.221 183.734 133.932C183.445 133.63 183.08 133.478 182.64 133.478ZM192.847 145.012C192.049 145.012 191.313 144.84 190.639 144.496C189.979 144.139 189.456 143.657 189.071 143.052C188.7 142.447 188.514 141.787 188.514 141.071V135.356C188.514 133.967 188.878 132.914 189.607 132.199C190.35 131.47 191.43 131.105 192.847 131.105C194.236 131.105 195.282 131.477 195.983 132.22C196.698 132.962 197.056 134.035 197.056 135.438V138.781H191.341V141.216C191.341 141.628 191.492 141.979 191.795 142.268C192.097 142.543 192.476 142.681 192.929 142.681C193.342 142.681 193.7 142.536 194.002 142.247C194.305 141.959 194.456 141.615 194.456 141.216V140.349H197.056V141.071C197.056 141.828 196.884 142.509 196.54 143.114C196.196 143.705 195.701 144.173 195.055 144.517C194.422 144.847 193.686 145.012 192.847 145.012ZM194.456 134.923C194.456 134.372 194.319 133.946 194.044 133.643C193.782 133.341 193.404 133.189 192.909 133.189C192.372 133.189 191.973 133.354 191.712 133.685C191.464 134.001 191.341 134.434 191.341 134.985V137.11H194.456V134.923ZM201.024 132.962C201.313 132.371 201.822 131.91 202.551 131.58C203.28 131.25 204.009 131.092 204.738 131.105V133.623C204.546 133.595 204.395 133.581 204.284 133.581C203.61 133.581 203.019 133.795 202.51 134.221C202.015 134.634 201.747 135.15 201.705 135.769V144.765H198.899V131.353H201.024V132.962ZM215.977 131.105C217.229 131.105 218.192 131.429 218.866 132.075C219.54 132.708 219.877 133.623 219.877 134.819V144.765H217.112V134.634C217.112 134.262 216.975 133.953 216.7 133.705C216.424 133.444 216.087 133.313 215.688 133.313C215.317 133.313 214.987 133.444 214.698 133.705C214.423 133.953 214.285 134.262 214.285 134.634V144.765H211.521L211.5 134.592C211.5 134.235 211.369 133.932 211.108 133.685C210.847 133.423 210.523 133.293 210.138 133.293C209.767 133.293 209.444 133.423 209.168 133.685C208.907 133.932 208.776 134.235 208.776 134.592V144.765H206.032V131.353H207.972V132.467C208.164 132.041 208.474 131.711 208.9 131.477C209.327 131.229 209.801 131.105 210.324 131.105C210.943 131.105 211.507 131.271 212.016 131.601C212.525 131.931 212.827 132.364 212.924 132.901C213.13 132.309 213.55 131.862 214.182 131.559C214.829 131.257 215.427 131.105 215.977 131.105ZM223.544 129.29C223.063 129.29 222.643 129.125 222.285 128.795C221.941 128.451 221.769 128.031 221.769 127.536C221.769 127.041 221.941 126.621 222.285 126.277C222.643 125.92 223.063 125.741 223.544 125.741C224.025 125.741 224.445 125.92 224.803 126.277C225.16 126.621 225.339 127.041 225.339 127.536C225.339 128.031 225.16 128.451 224.803 128.795C224.459 129.125 224.039 129.29 223.544 129.29ZM224.823 131.353V144.765H222.141V131.353H224.823ZM230.668 145.054C229.994 145.054 229.375 144.888 228.811 144.558C228.261 144.228 227.828 143.781 227.511 143.217C227.195 142.639 227.037 142.007 227.037 141.319V140.927H229.513V141.319C229.513 141.594 229.609 141.869 229.801 142.144C229.994 142.406 230.283 142.536 230.668 142.536C231.081 142.536 231.376 142.419 231.555 142.185C231.734 141.952 231.824 141.663 231.824 141.319C231.824 140.865 231.775 140.514 231.679 140.267C231.583 140.005 231.411 139.799 231.163 139.648C231.053 139.565 230.868 139.476 230.606 139.379C230.359 139.269 230.193 139.201 230.111 139.173C229.066 138.747 228.288 138.135 227.779 137.337C227.284 136.525 227.037 135.617 227.037 134.613C227.037 133.967 227.195 133.375 227.511 132.839C227.828 132.302 228.261 131.883 228.811 131.58C229.361 131.264 229.967 131.105 230.627 131.105C231.727 131.105 232.601 131.484 233.247 132.24C233.894 132.983 234.217 134.015 234.217 135.335H231.741C231.741 134.716 231.645 134.269 231.452 133.994C231.273 133.719 230.998 133.581 230.627 133.581C230.324 133.581 230.063 133.678 229.843 133.87C229.623 134.049 229.513 134.297 229.513 134.613C229.513 135.163 229.63 135.617 229.863 135.975C230.111 136.333 230.489 136.615 230.998 136.821L231.555 137.089C232.05 137.323 232.36 137.481 232.484 137.564C233.144 137.963 233.612 138.465 233.887 139.07C234.162 139.661 234.299 140.411 234.299 141.319C234.299 142.034 234.141 142.681 233.825 143.258C233.522 143.822 233.096 144.263 232.546 144.579C231.995 144.895 231.37 145.054 230.668 145.054ZM239.111 145.054C238.437 145.054 237.818 144.888 237.254 144.558C236.704 144.228 236.27 143.781 235.954 143.217C235.637 142.639 235.479 142.007 235.479 141.319V140.927H237.955V141.319C237.955 141.594 238.052 141.869 238.244 142.144C238.437 142.406 238.726 142.536 239.111 142.536C239.523 142.536 239.819 142.419 239.998 142.185C240.177 141.952 240.266 141.663 240.266 141.319C240.266 140.865 240.218 140.514 240.122 140.267C240.025 140.005 239.854 139.799 239.606 139.648C239.496 139.565 239.31 139.476 239.049 139.379C238.801 139.269 238.636 139.201 238.554 139.173C237.508 138.747 236.731 138.135 236.222 137.337C235.727 136.525 235.479 135.617 235.479 134.613C235.479 133.967 235.637 133.375 235.954 132.839C236.27 132.302 236.704 131.883 237.254 131.58C237.804 131.264 238.409 131.105 239.069 131.105C240.17 131.105 241.043 131.484 241.69 132.24C242.336 132.983 242.66 134.015 242.66 135.335H240.184C240.184 134.716 240.087 134.269 239.895 133.994C239.716 133.719 239.441 133.581 239.069 133.581C238.767 133.581 238.505 133.678 238.285 133.87C238.065 134.049 237.955 134.297 237.955 134.613C237.955 135.163 238.072 135.617 238.306 135.975C238.554 136.333 238.932 136.615 239.441 136.821L239.998 137.089C240.493 137.323 240.803 137.481 240.926 137.564C241.587 137.963 242.054 138.465 242.33 139.07C242.605 139.661 242.742 140.411 242.742 141.319C242.742 142.034 242.584 142.681 242.268 143.258C241.965 143.822 241.539 144.263 240.988 144.579C240.438 144.895 239.812 145.054 239.111 145.054ZM246.253 129.29C245.771 129.29 245.352 129.125 244.994 128.795C244.65 128.451 244.478 128.031 244.478 127.536C244.478 127.041 244.65 126.621 244.994 126.277C245.352 125.92 245.771 125.741 246.253 125.741C246.734 125.741 247.154 125.92 247.511 126.277C247.869 126.621 248.048 127.041 248.048 127.536C248.048 128.031 247.869 128.451 247.511 128.795C247.167 129.125 246.748 129.29 246.253 129.29ZM247.532 131.353V144.765H244.85V131.353H247.532ZM254.243 131.064C255.646 131.064 256.712 131.449 257.441 132.22C258.17 132.976 258.535 134.07 258.535 135.5V141.195C258.535 141.952 258.356 142.626 257.998 143.217C257.655 143.795 257.159 144.249 256.513 144.579C255.88 144.895 255.144 145.054 254.305 145.054C253.439 145.054 252.668 144.875 251.994 144.517C251.334 144.159 250.818 143.671 250.447 143.052C250.075 142.433 249.89 141.745 249.89 140.989V135.438C249.89 134.022 250.268 132.942 251.024 132.199C251.781 131.442 252.854 131.064 254.243 131.064ZM255.935 135.15C255.935 134.558 255.804 134.097 255.543 133.767C255.282 133.423 254.876 133.251 254.326 133.251C253.776 133.251 253.37 133.43 253.108 133.788C252.847 134.132 252.716 134.599 252.716 135.191V141.113C252.716 141.567 252.875 141.952 253.191 142.268C253.507 142.571 253.899 142.722 254.367 142.722C254.793 142.722 255.158 142.564 255.461 142.247C255.777 141.931 255.935 141.553 255.935 141.113V135.15ZM266.152 131.105C267.17 131.105 267.927 131.456 268.422 132.158C268.917 132.846 269.165 133.726 269.165 134.799V144.765H266.318V135.046C266.318 134.634 266.166 134.283 265.864 133.994C265.575 133.705 265.217 133.561 264.791 133.561C264.337 133.561 263.958 133.705 263.656 133.994C263.367 134.283 263.223 134.634 263.223 135.046V144.765H260.396V131.353H263.284V132.942C263.45 132.46 263.766 132.034 264.234 131.663C264.715 131.291 265.355 131.105 266.152 131.105ZM274.191 145.054C273.517 145.054 272.898 144.888 272.334 144.558C271.784 144.228 271.351 143.781 271.034 143.217C270.718 142.639 270.56 142.007 270.56 141.319V140.927H273.036V141.319C273.036 141.594 273.132 141.869 273.325 142.144C273.517 142.406 273.806 142.536 274.191 142.536C274.604 142.536 274.9 142.419 275.078 142.185C275.257 141.952 275.347 141.663 275.347 141.319C275.347 140.865 275.299 140.514 275.202 140.267C275.106 140.005 274.934 139.799 274.686 139.648C274.576 139.565 274.391 139.476 274.129 139.379C273.882 139.269 273.717 139.201 273.634 139.173C272.589 138.747 271.812 138.135 271.303 137.337C270.807 136.525 270.56 135.617 270.56 134.613C270.56 133.967 270.718 133.375 271.034 132.839C271.351 132.302 271.784 131.883 272.334 131.58C272.884 131.264 273.49 131.105 274.15 131.105C275.25 131.105 276.124 131.484 276.77 132.24C277.417 132.983 277.74 134.015 277.74 135.335H275.264C275.264 134.716 275.168 134.269 274.975 133.994C274.796 133.719 274.521 133.581 274.15 133.581C273.847 133.581 273.586 133.678 273.366 133.87C273.146 134.049 273.036 134.297 273.036 134.613C273.036 135.163 273.153 135.617 273.387 135.975C273.634 136.333 274.012 136.615 274.521 136.821L275.078 137.089C275.574 137.323 275.883 137.481 276.007 137.564C276.667 137.963 277.135 138.465 277.41 139.07C277.685 139.661 277.823 140.411 277.823 141.319C277.823 142.034 277.664 142.681 277.348 143.258C277.045 143.822 276.619 144.263 276.069 144.579C275.519 144.895 274.893 145.054 274.191 145.054Z" fill="white"/>
<path d="M179.06 208.475C178.246 208.475 177.492 208.271 176.8 207.864C176.108 207.457 175.558 206.907 175.151 206.215C174.743 205.522 174.54 204.769 174.54 203.954V196.237C174.54 195.422 174.743 194.669 175.151 193.976C175.558 193.284 176.108 192.741 176.8 192.347C177.492 191.94 178.246 191.736 179.06 191.736C179.888 191.736 180.649 191.94 181.341 192.347C182.033 192.741 182.583 193.284 182.99 193.976C183.398 194.655 183.601 195.409 183.601 196.237V197.397H181.646V196.013C181.646 195.565 181.531 195.144 181.3 194.75C181.069 194.357 180.757 194.044 180.364 193.814C179.97 193.569 179.542 193.447 179.081 193.447C178.619 193.447 178.191 193.562 177.798 193.793C177.418 194.024 177.112 194.336 176.881 194.73C176.651 195.124 176.535 195.551 176.535 196.013V204.178C176.535 204.884 176.78 205.488 177.268 205.991C177.771 206.493 178.375 206.744 179.081 206.744C179.542 206.744 179.97 206.629 180.364 206.398C180.757 206.167 181.069 205.855 181.3 205.461C181.531 205.068 181.646 204.64 181.646 204.178V202.61H183.601V203.954C183.601 204.782 183.398 205.543 182.99 206.235C182.583 206.914 182.033 207.457 181.341 207.864C180.649 208.271 179.888 208.475 179.06 208.475ZM191.257 203.608H187.164L186.105 208.251H184.191L187.897 191.96H190.524L194.332 208.251H192.377L191.257 203.608ZM190.951 201.918L189.2 193.814L187.51 201.918H190.951ZM199.384 208.475C198.569 208.475 197.816 208.271 197.123 207.864C196.431 207.457 195.881 206.907 195.474 206.215C195.067 205.522 194.863 204.769 194.863 203.954V196.237C194.863 195.422 195.067 194.669 195.474 193.976C195.881 193.284 196.431 192.741 197.123 192.347C197.816 191.94 198.569 191.736 199.384 191.736C200.212 191.736 200.972 191.94 201.664 192.347C202.357 192.741 202.906 193.284 203.314 193.976C203.721 194.655 203.925 195.409 203.925 196.237V197.397H201.97V196.013C201.97 195.565 201.854 195.144 201.624 194.75C201.393 194.357 201.081 194.044 200.687 193.814C200.293 193.569 199.866 193.447 199.404 193.447C198.942 193.447 198.515 193.562 198.121 193.793C197.741 194.024 197.436 194.336 197.205 194.73C196.974 195.124 196.859 195.551 196.859 196.013V204.178C196.859 204.884 197.103 205.488 197.592 205.991C198.094 206.493 198.698 206.744 199.404 206.744C199.866 206.744 200.293 206.629 200.687 206.398C201.081 206.167 201.393 205.855 201.624 205.461C201.854 205.068 201.97 204.64 201.97 204.178V202.61H203.925V203.954C203.925 204.782 203.721 205.543 203.314 206.235C202.906 206.914 202.357 207.457 201.664 207.864C200.972 208.271 200.212 208.475 199.384 208.475Z" fill="white"/>
<path d="M174.906 252.032V235.742H176.881V250.301H182.278V252.032H174.906ZM188.87 237.473H185.408V252.032H183.453V237.473H179.89V235.742H188.87V237.473ZM193.081 252.032L189.599 235.742H191.636L194.507 250.546L197.5 235.742H199.537L195.912 252.032H193.081Z" fill="white"/>
<path d="M182.705 282.543H179.244V297.103H177.289V282.543H173.725V280.812H182.705V282.543ZM185.605 284.62C186.8 284.62 187.736 284.966 188.415 285.658C189.094 286.351 189.433 287.308 189.433 288.53V293.824C189.433 294.503 189.27 295.114 188.945 295.657C188.619 296.186 188.164 296.607 187.58 296.919C187.01 297.218 186.358 297.367 185.625 297.367C184.879 297.367 184.207 297.204 183.609 296.879C183.026 296.553 182.564 296.112 182.225 295.555C181.899 294.998 181.736 294.374 181.736 293.682V288.469C181.736 287.26 182.082 286.317 182.774 285.638C183.467 284.959 184.41 284.62 185.605 284.62ZM187.601 288.285C187.601 287.661 187.424 287.152 187.071 286.758C186.732 286.364 186.257 286.168 185.646 286.168C185.035 286.168 184.56 286.371 184.22 286.778C183.881 287.172 183.711 287.688 183.711 288.326V293.763C183.711 294.306 183.901 294.768 184.281 295.148C184.661 295.528 185.123 295.718 185.666 295.718C186.209 295.718 186.664 295.528 187.03 295.148C187.411 294.768 187.601 294.306 187.601 293.763V288.285ZM193.921 294.537C193.921 294.768 194.002 294.964 194.165 295.127C194.328 295.29 194.525 295.372 194.756 295.372H196.426V297.103H194.023C193.453 297.103 192.964 296.906 192.557 296.512C192.163 296.105 191.966 295.616 191.966 295.046V286.636H190.154V284.885H191.966V281.912H193.921V284.885H196.344V286.636H193.921V294.537ZM202.452 295.82C202.262 296.281 201.997 296.648 201.658 296.919C201.332 297.177 200.85 297.306 200.212 297.306C199.329 297.306 198.63 296.98 198.114 296.329C197.599 295.664 197.341 294.822 197.341 293.804C197.341 293.546 197.347 293.356 197.361 293.234C197.442 292.161 197.85 291.306 198.583 290.668C199.316 290.03 200.32 289.711 201.597 289.711H202.37V287.695C202.37 287.192 202.282 286.778 202.106 286.453C201.943 286.113 201.597 285.944 201.067 285.944C200.578 285.944 200.239 286.086 200.049 286.371C199.859 286.656 199.75 287.064 199.723 287.593V288.183H197.809V287.593C197.877 286.697 198.189 285.977 198.746 285.434C199.302 284.891 200.103 284.62 201.149 284.62C202.289 284.62 203.11 284.891 203.613 285.434C204.115 285.964 204.366 286.677 204.366 287.573L204.386 297.103H202.452V295.82ZM201.556 290.933C200.714 290.933 200.124 291.15 199.784 291.584C199.458 292.019 199.289 292.629 199.275 293.417C199.275 294.123 199.397 294.706 199.642 295.168C199.886 295.616 200.253 295.84 200.741 295.84C201.325 295.84 201.746 295.623 202.004 295.188C202.262 294.754 202.391 294.055 202.391 293.091V290.933H201.556ZM206.523 280.812H208.397V297.103H206.523V280.812ZM222.455 293.01C222.455 293.797 222.259 294.523 221.865 295.188C221.485 295.854 220.962 296.383 220.297 296.777C219.645 297.157 218.926 297.347 218.138 297.347C217.365 297.347 216.645 297.157 215.98 296.777C215.328 296.383 214.806 295.854 214.412 295.188C214.032 294.523 213.842 293.797 213.842 293.01V280.812H215.817V293.234C215.817 293.885 216.041 294.442 216.489 294.903C216.937 295.365 217.487 295.596 218.138 295.596C218.79 295.596 219.347 295.365 219.808 294.903C220.27 294.442 220.501 293.885 220.501 293.234V280.812H222.455V293.01ZM227.445 297.367C226.847 297.367 226.304 297.225 225.816 296.94C225.327 296.655 224.94 296.268 224.655 295.779C224.37 295.277 224.227 294.727 224.227 294.13V293.824H225.958V294.13C225.958 294.496 226.094 294.835 226.365 295.148C226.637 295.446 226.997 295.596 227.445 295.596C227.974 295.596 228.354 295.453 228.585 295.168C228.816 294.883 228.931 294.537 228.931 294.13C228.931 293.587 228.857 293.166 228.707 292.867C228.571 292.555 228.32 292.31 227.954 292.134C227.872 292.093 227.662 292.005 227.323 291.869L226.691 291.604C225.809 291.211 225.178 290.654 224.797 289.935C224.417 289.202 224.227 288.455 224.227 287.695C224.227 287.125 224.363 286.609 224.635 286.147C224.92 285.672 225.307 285.305 225.795 285.048C226.284 284.776 226.827 284.64 227.424 284.64C228.402 284.64 229.176 284.966 229.746 285.618C230.316 286.269 230.601 287.186 230.601 288.367H228.87C228.87 287.647 228.734 287.138 228.463 286.84C228.191 286.541 227.845 286.392 227.424 286.392C227.003 286.392 226.657 286.514 226.386 286.758C226.114 286.989 225.979 287.301 225.979 287.695C225.979 288.808 226.433 289.568 227.343 289.975C227.533 290.07 227.791 290.186 228.117 290.322C228.51 290.485 228.755 290.593 228.85 290.647C229.501 291 229.97 291.455 230.255 292.012C230.54 292.568 230.682 293.274 230.682 294.13C230.682 295.08 230.384 295.86 229.786 296.471C229.189 297.069 228.409 297.367 227.445 297.367ZM235.834 297.367C235.142 297.367 234.504 297.218 233.92 296.919C233.35 296.607 232.895 296.193 232.556 295.677C232.23 295.148 232.067 294.578 232.067 293.967V288.224C232.067 287.097 232.4 286.222 233.065 285.597C233.73 284.959 234.653 284.64 235.834 284.64C237.002 284.64 237.911 284.966 238.563 285.618C239.215 286.256 239.54 287.145 239.54 288.285V291.442H234.022V294.048C234.022 294.51 234.198 294.903 234.551 295.229C234.904 295.541 235.346 295.697 235.875 295.697C236.391 295.697 236.825 295.541 237.178 295.229C237.531 294.903 237.708 294.51 237.708 294.048V293.071H239.54V293.967C239.54 294.605 239.384 295.182 239.072 295.697C238.76 296.213 238.319 296.621 237.748 296.919C237.192 297.218 236.554 297.367 235.834 297.367ZM237.708 287.959C237.708 287.403 237.538 286.962 237.199 286.636C236.873 286.297 236.432 286.127 235.875 286.127C235.291 286.127 234.837 286.303 234.511 286.656C234.185 287.009 234.022 287.457 234.022 288V290.22H237.708V287.959ZM242.929 286.595C243.214 285.984 243.682 285.502 244.334 285.149C244.999 284.796 245.678 284.627 246.37 284.64V286.412L246.085 286.392C245.393 286.392 244.789 286.622 244.273 287.084C243.757 287.532 243.458 288.109 243.377 288.815V297.103H241.402V284.885H242.929V286.595ZM250.174 297.367C249.577 297.367 249.034 297.225 248.545 296.94C248.056 296.655 247.67 296.268 247.384 295.779C247.099 295.277 246.957 294.727 246.957 294.13V293.824H248.688V294.13C248.688 294.496 248.823 294.835 249.095 295.148C249.367 295.446 249.726 295.596 250.174 295.596C250.704 295.596 251.084 295.453 251.315 295.168C251.545 294.883 251.661 294.537 251.661 294.13C251.661 293.587 251.586 293.166 251.437 292.867C251.301 292.555 251.05 292.31 250.683 292.134C250.602 292.093 250.391 292.005 250.052 291.869L249.421 291.604C248.538 291.211 247.907 290.654 247.527 289.935C247.147 289.202 246.957 288.455 246.957 287.695C246.957 287.125 247.093 286.609 247.364 286.147C247.649 285.672 248.036 285.305 248.525 285.048C249.014 284.776 249.557 284.64 250.154 284.64C251.131 284.64 251.905 284.966 252.475 285.618C253.045 286.269 253.331 287.186 253.331 288.367H251.6C251.6 287.647 251.464 287.138 251.192 286.84C250.921 286.541 250.575 286.392 250.154 286.392C249.733 286.392 249.387 286.514 249.115 286.758C248.844 286.989 248.708 287.301 248.708 287.695C248.708 288.808 249.163 289.568 250.072 289.975C250.262 290.07 250.52 290.186 250.846 290.322C251.24 290.485 251.484 290.593 251.579 290.647C252.231 291 252.699 291.455 252.984 292.012C253.269 292.568 253.412 293.274 253.412 294.13C253.412 295.08 253.113 295.86 252.516 296.471C251.919 297.069 251.138 297.367 250.174 297.367Z" fill="white"/>
<path d="M186.615 339.594H184.782V325.502L181.626 339.594H179.753L176.759 325.482V339.594H174.906V323.222H177.798L180.689 337.13L183.764 323.222H186.574L186.615 339.594ZM197.372 328.231C197.372 329.141 197.101 329.976 196.558 330.736C196.015 331.482 195.315 331.985 194.46 332.243L197.637 339.594H195.58L192.668 332.833L191.06 332.854V339.553H189.105V323.303H192.668C193.537 323.303 194.331 323.514 195.051 323.934C195.77 324.355 196.334 324.946 196.741 325.706C197.162 326.453 197.372 327.294 197.372 328.231ZM192.424 331.143C193.361 331.143 194.094 330.865 194.623 330.308C195.153 329.752 195.417 329.059 195.417 328.231C195.417 327.607 195.282 327.05 195.01 326.561C194.752 326.073 194.392 325.693 193.931 325.421C193.483 325.149 192.981 325.014 192.424 325.014H191.06V331.143H192.424ZM207.892 328.231C207.892 329.141 207.62 329.976 207.077 330.736C206.534 331.482 205.835 331.985 204.98 332.243L208.157 339.594H206.1L203.188 332.833L201.579 332.854V339.553H199.624V323.303H203.188C204.057 323.303 204.851 323.514 205.57 323.934C206.29 324.355 206.853 324.946 207.261 325.706C207.681 326.453 207.892 327.294 207.892 328.231ZM202.944 331.143C203.88 331.143 204.613 330.865 205.143 330.308C205.672 329.752 205.937 329.059 205.937 328.231C205.937 327.607 205.801 327.05 205.53 326.561C205.272 326.073 204.912 325.693 204.45 325.421C204.002 325.149 203.5 325.014 202.944 325.014H201.579V331.143H202.944Z" fill="white"/>
<path d="M179.06 383.598C178.246 383.598 177.492 383.394 176.8 382.987C176.108 382.58 175.558 382.03 175.151 381.338C174.743 380.645 174.54 379.892 174.54 379.077V371.36C174.54 370.545 174.743 369.792 175.151 369.099C175.558 368.407 176.108 367.864 176.8 367.47C177.492 367.063 178.246 366.86 179.06 366.86C179.888 366.86 180.649 367.063 181.341 367.47C182.033 367.864 182.583 368.407 182.99 369.099C183.398 369.778 183.601 370.532 183.601 371.36V372.52H181.646V371.136C181.646 370.688 181.531 370.267 181.3 369.873C181.069 369.48 180.757 369.167 180.364 368.937C179.97 368.692 179.542 368.57 179.081 368.57C178.619 368.57 178.191 368.685 177.798 368.916C177.418 369.147 177.112 369.459 176.881 369.853C176.651 370.247 176.535 370.674 176.535 371.136V379.301C176.535 380.007 176.78 380.611 177.268 381.114C177.771 381.616 178.375 381.867 179.081 381.867C179.542 381.867 179.97 381.752 180.364 381.521C180.757 381.29 181.069 380.978 181.3 380.584C181.531 380.191 181.646 379.763 181.646 379.301V377.733H183.601V379.077C183.601 379.906 183.398 380.666 182.99 381.358C182.583 382.037 182.033 382.58 181.341 382.987C180.649 383.394 179.888 383.598 179.06 383.598ZM190.07 370.851C190.993 370.851 191.699 371.163 192.187 371.787C192.69 372.398 192.941 373.172 192.941 374.109V383.374H190.966V374.272C190.966 373.797 190.789 373.389 190.436 373.05C190.083 372.711 189.656 372.541 189.153 372.541C188.597 372.541 188.142 372.711 187.789 373.05C187.45 373.376 187.28 373.783 187.28 374.272V383.374H185.325V366.921H187.321V372.48C187.538 372.018 187.87 371.631 188.318 371.319C188.78 371.007 189.364 370.851 190.07 370.851ZM198.04 383.618C197.117 383.618 196.404 383.306 195.902 382.682C195.4 382.057 195.149 381.27 195.149 380.32V371.156H197.124V380.157C197.124 380.632 197.3 381.039 197.653 381.378C198.006 381.718 198.434 381.888 198.936 381.888C199.493 381.888 199.948 381.725 200.3 381.399C200.653 381.059 200.83 380.645 200.83 380.157V371.156H202.805V383.374H200.789V381.969C200.586 382.417 200.253 382.804 199.791 383.13C199.33 383.455 198.746 383.618 198.04 383.618ZM206.617 372.867C206.902 372.256 207.371 371.774 208.022 371.421C208.688 371.068 209.366 370.898 210.059 370.912V372.683L209.774 372.663C209.081 372.663 208.477 372.894 207.961 373.355C207.445 373.803 207.147 374.38 207.065 375.086V383.374H205.09V371.156H206.617V372.867ZM216.1 370.912C217.023 370.912 217.736 371.224 218.238 371.848C218.74 372.473 218.991 373.26 218.991 374.211V383.374H216.996V374.353C216.996 373.878 216.819 373.478 216.466 373.152C216.127 372.812 215.699 372.643 215.183 372.643C214.627 372.643 214.172 372.812 213.819 373.152C213.466 373.478 213.29 373.878 213.29 374.353V383.374H211.314V371.156H213.33V372.561C213.548 372.1 213.88 371.713 214.328 371.401C214.79 371.075 215.38 370.912 216.1 370.912ZM225.648 372.867C225.933 372.256 226.402 371.774 227.053 371.421C227.718 371.068 228.397 370.898 229.089 370.912V372.683L228.804 372.663C228.112 372.663 227.508 372.894 226.992 373.355C226.476 373.803 226.178 374.38 226.096 375.086V383.374H224.121V371.156H225.648V372.867ZM231.73 368.916C231.377 368.916 231.065 368.787 230.793 368.529C230.535 368.271 230.406 367.959 230.406 367.593C230.406 367.24 230.535 366.934 230.793 366.676C231.065 366.405 231.377 366.269 231.73 366.269C232.083 366.269 232.388 366.405 232.646 366.676C232.918 366.934 233.053 367.24 233.053 367.593C233.053 367.959 232.918 368.271 232.646 368.529C232.388 368.787 232.083 368.916 231.73 368.916ZM232.626 371.156V383.374H230.732V371.156H232.626ZM238.024 383.639C237.427 383.639 236.884 383.496 236.395 383.211C235.906 382.926 235.519 382.539 235.234 382.05C234.949 381.548 234.807 380.998 234.807 380.401V380.096H236.537V380.401C236.537 380.768 236.673 381.107 236.945 381.419C237.216 381.718 237.576 381.867 238.024 381.867C238.553 381.867 238.934 381.725 239.164 381.44C239.395 381.154 239.51 380.808 239.51 380.401C239.51 379.858 239.436 379.437 239.286 379.138C239.151 378.826 238.9 378.582 238.533 378.405C238.452 378.365 238.241 378.276 237.902 378.141L237.271 377.876C236.388 377.482 235.757 376.926 235.377 376.206C234.997 375.473 234.807 374.726 234.807 373.966C234.807 373.396 234.942 372.88 235.214 372.419C235.499 371.944 235.886 371.577 236.375 371.319C236.863 371.048 237.406 370.912 238.004 370.912C238.981 370.912 239.755 371.238 240.325 371.889C240.895 372.541 241.18 373.457 241.18 374.638H239.449C239.449 373.919 239.314 373.41 239.042 373.111C238.771 372.812 238.424 372.663 238.004 372.663C237.583 372.663 237.237 372.785 236.965 373.03C236.694 373.26 236.558 373.573 236.558 373.966C236.558 375.079 237.013 375.84 237.922 376.247C238.112 376.342 238.37 376.457 238.696 376.593C239.09 376.756 239.334 376.865 239.429 376.919C240.081 377.272 240.549 377.727 240.834 378.283C241.119 378.84 241.262 379.546 241.262 380.401C241.262 381.351 240.963 382.132 240.366 382.743C239.768 383.34 238.988 383.639 238.024 383.639ZM247.371 376.878L250.629 383.374H248.552L246.006 378.752L245.009 380.177V383.374H243.054V367.084H245.009V377.102L249.061 371.156H251.097L247.371 376.878Z" fill="white"/>
<path d="M183.438 410.864V427.154H181.504V420.007H176.881V427.154H174.906V410.864H176.881V418.256H181.504V410.864H183.438ZM189.222 427.419C188.529 427.419 187.891 427.27 187.308 426.971C186.738 426.659 186.283 426.245 185.943 425.729C185.618 425.199 185.455 424.629 185.455 424.018V418.276C185.455 417.149 185.787 416.274 186.452 415.649C187.118 415.011 188.041 414.692 189.222 414.692C190.389 414.692 191.299 415.018 191.95 415.669C192.602 416.308 192.928 417.197 192.928 418.337V421.493H187.409V424.1C187.409 424.561 187.586 424.955 187.939 425.281C188.292 425.593 188.733 425.749 189.263 425.749C189.778 425.749 190.213 425.593 190.566 425.281C190.919 424.955 191.095 424.561 191.095 424.1V423.122H192.928V424.018C192.928 424.656 192.772 425.233 192.46 425.749C192.147 426.265 191.706 426.672 191.136 426.971C190.579 427.27 189.941 427.419 189.222 427.419ZM191.095 418.011C191.095 417.455 190.926 417.013 190.586 416.688C190.26 416.348 189.819 416.179 189.263 416.179C188.679 416.179 188.224 416.355 187.898 416.708C187.572 417.061 187.409 417.509 187.409 418.052V420.272H191.095V418.011ZM199.27 425.871C199.08 426.333 198.815 426.7 198.476 426.971C198.15 427.229 197.668 427.358 197.03 427.358C196.148 427.358 195.449 427.032 194.933 426.38C194.417 425.715 194.159 424.874 194.159 423.855C194.159 423.598 194.166 423.407 194.179 423.285C194.261 422.213 194.668 421.358 195.401 420.72C196.134 420.082 197.139 419.762 198.415 419.762H199.189V417.747C199.189 417.244 199.1 416.83 198.924 416.504C198.761 416.165 198.415 415.995 197.885 415.995C197.397 415.995 197.057 416.138 196.867 416.423C196.677 416.708 196.569 417.115 196.541 417.645V418.235H194.627V417.645C194.695 416.749 195.007 416.029 195.564 415.486C196.121 414.943 196.922 414.672 197.967 414.672C199.107 414.672 199.928 414.943 200.431 415.486C200.933 416.016 201.184 416.728 201.184 417.624L201.205 427.154H199.27V425.871ZM198.374 420.984C197.532 420.984 196.942 421.201 196.602 421.636C196.277 422.07 196.107 422.681 196.093 423.469C196.093 424.174 196.216 424.758 196.46 425.22C196.704 425.668 197.071 425.892 197.56 425.892C198.143 425.892 198.564 425.675 198.822 425.24C199.08 424.806 199.209 424.107 199.209 423.143V420.984H198.374ZM203.342 410.864H205.215V427.154H203.342V410.864ZM210.148 424.589C210.148 424.819 210.229 425.016 210.392 425.179C210.555 425.342 210.752 425.423 210.983 425.423H212.652V427.154H210.25C209.679 427.154 209.191 426.957 208.783 426.564C208.39 426.157 208.193 425.668 208.193 425.098V416.688H206.381V414.936H208.193V411.963H210.148V414.936H212.571V416.688H210.148V424.589ZM219.004 414.631C219.927 414.631 220.633 414.943 221.121 415.568C221.624 416.179 221.875 416.952 221.875 417.889V427.154H219.9V418.052C219.9 417.577 219.723 417.17 219.37 416.83C219.017 416.491 218.589 416.321 218.087 416.321C217.531 416.321 217.076 416.491 216.723 416.83C216.383 417.156 216.214 417.563 216.214 418.052V427.154H214.259V410.701H216.255V416.26C216.472 415.798 216.804 415.412 217.252 415.099C217.714 414.787 218.298 414.631 219.004 414.631ZM229.751 427.419C229.154 427.419 228.611 427.276 228.122 426.991C227.634 426.706 227.247 426.319 226.962 425.831C226.677 425.328 226.534 424.779 226.534 424.181V423.876H228.265V424.181C228.265 424.548 228.401 424.887 228.672 425.199C228.944 425.498 229.303 425.647 229.751 425.647C230.281 425.647 230.661 425.505 230.892 425.22C231.123 424.935 231.238 424.589 231.238 424.181C231.238 423.638 231.163 423.217 231.014 422.919C230.878 422.607 230.627 422.362 230.261 422.186C230.179 422.145 229.969 422.057 229.629 421.921L228.998 421.656C228.116 421.263 227.484 420.706 227.104 419.986C226.724 419.253 226.534 418.507 226.534 417.747C226.534 417.176 226.67 416.66 226.941 416.199C227.226 415.724 227.613 415.357 228.102 415.099C228.591 414.828 229.134 414.692 229.731 414.692C230.709 414.692 231.482 415.018 232.052 415.669C232.623 416.321 232.908 417.237 232.908 418.419H231.177C231.177 417.699 231.041 417.19 230.77 416.891C230.498 416.593 230.152 416.443 229.731 416.443C229.31 416.443 228.964 416.565 228.693 416.81C228.421 417.041 228.285 417.353 228.285 417.747C228.285 418.86 228.74 419.62 229.65 420.027C229.84 420.122 230.098 420.238 230.423 420.373C230.817 420.536 231.061 420.645 231.157 420.699C231.808 421.052 232.276 421.507 232.562 422.064C232.847 422.62 232.989 423.326 232.989 424.181C232.989 425.132 232.691 425.912 232.093 426.523C231.496 427.12 230.715 427.419 229.751 427.419ZM238.263 427.419C237.517 427.419 236.845 427.256 236.247 426.93C235.664 426.604 235.202 426.163 234.863 425.607C234.537 425.05 234.374 424.426 234.374 423.733V418.52C234.374 417.312 234.72 416.369 235.412 415.69C236.105 415.011 237.048 414.672 238.243 414.672C239.438 414.672 240.374 415.018 241.053 415.71C241.732 416.403 242.071 417.36 242.071 418.581V419.396H240.238V418.357C240.238 417.733 240.062 417.224 239.709 416.83C239.37 416.423 238.895 416.219 238.284 416.219C237.673 416.219 237.198 416.423 236.858 416.83C236.519 417.237 236.349 417.76 236.349 418.398V423.794C236.349 424.351 236.539 424.819 236.919 425.199C237.299 425.58 237.761 425.77 238.304 425.77C238.847 425.77 239.302 425.58 239.668 425.199C240.048 424.819 240.238 424.351 240.238 423.794V422.735H242.071V423.876C242.071 424.555 241.908 425.165 241.582 425.709C241.257 426.238 240.802 426.659 240.218 426.971C239.648 427.27 238.996 427.419 238.263 427.419ZM247.211 414.672C248.406 414.672 249.343 415.018 250.022 415.71C250.7 416.403 251.04 417.36 251.04 418.581V423.876C251.04 424.555 250.877 425.165 250.551 425.709C250.225 426.238 249.77 426.659 249.187 426.971C248.616 427.27 247.965 427.419 247.232 427.419C246.485 427.419 245.813 427.256 245.216 426.93C244.632 426.604 244.171 426.163 243.831 425.607C243.505 425.05 243.342 424.426 243.342 423.733V418.52C243.342 417.312 243.689 416.369 244.381 415.69C245.073 415.011 246.017 414.672 247.211 414.672ZM249.207 418.337C249.207 417.713 249.031 417.204 248.678 416.81C248.338 416.416 247.863 416.219 247.252 416.219C246.641 416.219 246.166 416.423 245.827 416.83C245.487 417.224 245.318 417.74 245.318 418.378V423.815C245.318 424.358 245.508 424.819 245.888 425.199C246.268 425.58 246.729 425.77 247.272 425.77C247.816 425.77 248.27 425.58 248.637 425.199C249.017 424.819 249.207 424.358 249.207 423.815V418.337ZM254.443 416.647C254.728 416.036 255.196 415.554 255.848 415.201C256.513 414.848 257.192 414.678 257.884 414.692V416.464L257.599 416.443C256.907 416.443 256.303 416.674 255.787 417.136C255.271 417.584 254.972 418.161 254.891 418.867V427.154H252.916V414.936H254.443V416.647ZM262.123 427.419C261.431 427.419 260.793 427.27 260.209 426.971C259.639 426.659 259.184 426.245 258.845 425.729C258.519 425.199 258.356 424.629 258.356 424.018V418.276C258.356 417.149 258.689 416.274 259.354 415.649C260.019 415.011 260.942 414.692 262.123 414.692C263.291 414.692 264.2 415.018 264.852 415.669C265.504 416.308 265.83 417.197 265.83 418.337V421.493H260.311V424.1C260.311 424.561 260.488 424.955 260.841 425.281C261.194 425.593 261.635 425.749 262.164 425.749C262.68 425.749 263.114 425.593 263.467 425.281C263.82 424.955 263.997 424.561 263.997 424.1V423.122H265.83V424.018C265.83 424.656 265.673 425.233 265.361 425.749C265.049 426.265 264.608 426.672 264.038 426.971C263.481 427.27 262.843 427.419 262.123 427.419ZM263.997 418.011C263.997 417.455 263.827 417.013 263.488 416.688C263.162 416.348 262.721 416.179 262.164 416.179C261.58 416.179 261.126 416.355 260.8 416.708C260.474 417.061 260.311 417.509 260.311 418.052V420.272H263.997V418.011Z" fill="white"/>
<path d="M97.8029 500C80.1172 495.172 68 484.438 68 465.433V439H127.606V465.433C127.606 484.425 115.507 495.166 97.8029 500Z" fill="white"/>
<path d="M109.965 463.468V457.966C109.965 454.785 108.702 451.734 106.454 449.485C104.206 447.235 101.156 445.972 97.9767 445.972C94.7972 445.972 91.7479 447.235 89.4997 449.485C87.2514 451.734 85.9883 454.785 85.9883 457.966V463.468H82.291V472.29C82.2895 476.712 83.8705 480.988 86.7477 484.345C89.625 487.701 93.6084 489.916 97.9767 490.589C102.344 489.917 106.327 487.702 109.204 484.347C112.081 480.992 113.663 476.717 113.662 472.296V463.474L109.965 463.468ZM89.5593 457.966C89.5593 455.733 90.4461 453.591 92.0247 452.011C93.6033 450.432 95.7443 449.544 97.9767 449.544C100.209 449.544 102.35 450.432 103.929 452.011C105.507 453.591 106.394 455.733 106.394 457.966V463.468H89.5593V457.966Z" fill="#0070F4"/>
<rect x="398" y="69" width="95" height="50.4082" rx="25.2041" fill="white"/>
<rect x="442.592" y="69" width="50.4082" height="50.4082" rx="25.2041" fill="#0070F4"/>
<path d="M407.694 93.458L418.546 103.898L437.745 84.5098" stroke="#0070F4" stroke-width="3.69108" stroke-linecap="round" stroke-linejoin="round"/>
</svg>
