<svg width="560" height="560" viewBox="0 0 560 560" fill="none" xmlns="http://www.w3.org/2000/svg">
<g clip-path="url(#clip0_2300_24058)">
<rect width="560" height="560" rx="2" fill="#262627"/>
<rect x="-123.959" y="399.325" width="808.872" height="161.676" fill="#66A9F8"/>
<path d="M-123.959 0.0644531L280.499 399.325H-123.959V0.0644531Z" fill="#002C61"/>
<path d="M-123.959 85.4678L280.499 399.325H-123.959V85.4678Z" fill="#0059C3"/>
<path d="M-123.959 158.061L280.499 399.325H-123.959V158.061Z" fill="#0070F4"/>
<path d="M-123.959 224.248L280.499 399.325H-123.959V224.248Z" fill="#328CF6"/>
<path d="M684.957 0.0644531L280.499 399.325H684.957V0.0644531Z" fill="#002C61"/>
<path d="M684.957 85.4678L280.499 399.325H684.957V85.4678Z" fill="#0059C3"/>
<path d="M684.957 158.061L280.499 399.325H684.957V158.061Z" fill="#0070F4"/>
<path d="M684.957 224.248L280.499 399.325H684.957V224.248Z" fill="#328CF6"/>
<path d="M153.5 298.5L196 295" stroke="white" stroke-linecap="square" stroke-linejoin="round" stroke-dasharray="2 2"/>
<path d="M188 162.306L230.97 212.824" stroke="white" stroke-linecap="square" stroke-linejoin="round" stroke-dasharray="2 2"/>
<path d="M319.999 144.501L300.999 199" stroke="white" stroke-linecap="square" stroke-linejoin="round" stroke-dasharray="2 2"/>
<path d="M425.999 238L363.311 258.555" stroke="white" stroke-linecap="square" stroke-linejoin="round" stroke-dasharray="2 2"/>
<ellipse cx="280.604" cy="443.358" rx="67.4097" ry="13.8785" fill="black"/>
<ellipse cx="160.277" cy="510.767" rx="31.0613" ry="11.2349" fill="black"/>
<ellipse cx="133.182" cy="488.298" rx="30.4004" ry="31.0613" fill="white"/>
<ellipse cx="441.364" cy="409.653" rx="26.4352" ry="9.25231" fill="black"/>
<circle cx="416.911" cy="390.487" r="25.7743" fill="white"/>
<circle cx="280.866" cy="280.866" r="74.8659" fill="white"/>
<circle cx="280.864" cy="280.865" r="47.1378" fill="#0070F4"/>
<circle cx="280.864" cy="280.866" r="31.8873" fill="black"/>
<circle cx="264.921" cy="259.376" r="20.1029" fill="white"/>
<circle cx="309.981" cy="308.593" r="6.93202" fill="white"/>
<circle cx="342.5" cy="85.5" r="53.5" fill="#CED2FF"/>
<circle cx="94" cy="306" r="50" fill="#FFD644"/>
<circle cx="153.5" cy="122.5" r="44.5" fill="#FC604D"/>
<circle cx="476" cy="213" r="46" fill="#4DE390"/>
<path d="M309.279 73.7206C308.363 73.5166 307.566 73.1023 306.888 72.4778C306.223 71.8563 305.744 71.1112 305.45 70.2424C305.172 69.363 305.136 68.4656 305.34 67.55L307.085 59.7201C307.289 58.8046 307.701 58.0144 308.323 57.3497C308.961 56.6744 309.713 56.1965 310.579 55.9161C311.458 55.6387 312.356 55.6021 313.271 55.8061C314.2 56.0132 314.997 56.4274 315.662 57.0489C316.34 57.6734 316.813 58.417 317.08 59.2797C317.36 60.1454 317.397 61.0429 317.19 61.9721L316.879 63.3659L314.112 62.7492L314.5 61.007C314.637 60.3921 314.529 59.8157 314.176 59.278C313.839 58.7296 313.356 58.3853 312.728 58.2453C312.113 58.1082 311.536 58.2164 310.999 58.5699C310.477 58.9128 310.148 59.3917 310.011 60.0066L308.111 68.5334C307.974 69.1483 308.067 69.7285 308.39 70.2738C308.73 70.8085 309.207 71.1444 309.822 71.2815C310.451 71.4215 311.033 71.3217 311.567 70.9818C312.119 70.6314 312.463 70.1487 312.6 69.5338L313.011 67.6891L315.778 68.3057L315.445 69.802C315.241 70.7176 314.826 71.5145 314.202 72.1929C313.594 72.8607 312.851 73.3333 311.971 73.6106C311.105 73.891 310.208 73.9277 309.279 73.7206ZM318.945 75.8748C317.934 75.6495 317.258 75.1404 316.919 74.3475C316.596 73.544 316.555 72.6025 316.795 71.523L318.997 61.6434L321.826 62.2737L319.674 71.9279C319.583 72.3378 319.649 72.7183 319.872 73.0692C320.108 73.4231 320.438 73.6473 320.862 73.7417C321.313 73.8422 321.714 73.781 322.065 73.5579C322.429 73.338 322.657 73.023 322.749 72.6131L324.9 62.9589L327.708 63.5847L324.739 76.9079L321.869 76.2684L322.221 74.6901C321.937 75.1288 321.515 75.4793 320.954 75.7417C320.407 76.0071 319.738 76.0515 318.945 75.8748ZM329.988 78.3789C329.319 78.2296 328.74 77.9286 328.253 77.4758C327.779 77.0261 327.448 76.486 327.259 75.8557C327.072 75.2118 327.055 74.5482 327.207 73.8649L327.294 73.4755L329.754 74.0236L329.667 74.4131C329.606 74.6864 329.641 74.981 329.771 75.2969C329.905 75.5992 330.163 75.7929 330.545 75.8782C330.955 75.9696 331.275 75.9189 331.504 75.7262C331.734 75.5335 331.887 75.2663 331.963 74.9247C332.063 74.4737 332.093 74.1146 332.052 73.8474C332.014 73.5664 331.889 73.3234 331.677 73.1182C331.586 73.0119 331.421 72.882 331.183 72.7284C330.961 72.5643 330.812 72.4594 330.737 72.4138C329.792 71.7588 329.156 70.9786 328.827 70.0734C328.515 69.1576 328.47 68.2009 328.692 67.2033C328.835 66.5611 329.123 66.0085 329.556 65.5456C329.989 65.0828 330.513 64.7619 331.126 64.5831C331.743 64.3906 332.379 64.3675 333.035 64.5136C334.128 64.7573 334.912 65.3264 335.387 66.2211C335.865 67.1021 335.957 68.1986 335.665 69.5104L333.205 68.9622C333.342 68.3473 333.346 67.8819 333.215 67.566C333.099 67.2531 332.856 67.0555 332.487 66.9733C332.186 66.9063 331.905 66.9441 331.644 67.0867C331.386 67.2156 331.222 67.4372 331.152 67.7515C331.03 68.2981 331.045 68.7749 331.199 69.182C331.365 69.5921 331.679 69.9559 332.139 70.2736L332.633 70.6634C333.073 71.0053 333.345 71.231 333.45 71.3404C334.018 71.8828 334.371 72.4851 334.51 73.1473C334.653 73.7958 334.623 74.571 334.422 75.4728C334.264 76.1834 333.964 76.7906 333.522 77.2945C333.096 77.7878 332.575 78.1306 331.958 78.3231C331.342 78.5156 330.685 78.5342 329.988 78.3789ZM339.883 76.8618C339.831 77.0941 339.869 77.3106 339.996 77.5111C340.124 77.7116 340.297 77.8362 340.515 77.8849L342.36 78.2961L341.821 80.7147L338.869 80.0569C338.186 79.9047 337.652 79.5346 337.267 78.9467C336.895 78.3618 336.787 77.721 336.942 77.0241L338.81 68.6407L336.945 68.225L337.493 65.7654L339.358 66.1811L339.98 63.3934L342.747 64.0101L342.126 66.7977L344.503 67.3276L343.955 69.7873L341.577 69.2574L339.883 76.8618ZM350.22 68.3003C351.613 68.611 352.587 69.2296 353.141 70.1562C353.698 71.0692 353.818 72.2362 353.501 73.6574L352.24 79.3146C352.073 80.0661 351.746 80.6961 351.26 81.2045C350.79 81.7023 350.198 82.0436 349.482 82.2285C348.784 82.4027 348.018 82.3969 347.184 82.2111C346.323 82.0193 345.598 81.6711 345.007 81.1666C344.43 80.6651 344.026 80.0658 343.794 79.3687C343.562 78.6715 343.53 77.9472 343.698 77.1956L344.926 71.6819C345.24 70.2744 345.855 69.2855 346.771 68.7151C347.69 68.131 348.84 67.9928 350.22 68.3003ZM350.996 72.7333C351.127 72.1458 351.099 71.6591 350.913 71.2732C350.729 70.8738 350.364 70.6131 349.817 70.4913C349.271 70.3695 348.828 70.4573 348.489 70.7547C348.154 71.0385 347.92 71.4742 347.789 72.0617L346.478 77.9444C346.378 78.3954 346.45 78.813 346.694 79.1973C346.941 79.568 347.297 79.8051 347.762 79.9086C348.185 80.003 348.582 79.9266 348.953 79.6793C349.337 79.4351 349.578 79.0943 349.676 78.657L350.996 72.7333ZM366.202 71.9052C367.446 72.1823 368.331 72.7166 368.857 73.5081C369.387 74.2858 369.519 75.2692 369.254 76.458L367.052 86.3376L364.306 85.7255L366.548 75.6614C366.631 75.2925 366.562 74.9546 366.344 74.6477C366.129 74.3272 365.823 74.1227 365.426 74.0344C365.057 73.9522 364.701 74.0089 364.356 74.2046C364.028 74.3897 363.822 74.6667 363.74 75.0356L361.497 85.0997L358.751 84.4876L360.982 74.378C361.061 74.0227 360.999 73.6931 360.794 73.3893C360.592 73.0718 360.3 72.8704 359.917 72.7851C359.548 72.7029 359.198 72.7612 358.867 72.9599C358.553 73.148 358.356 73.4197 358.277 73.775L356.025 83.8801L353.299 83.2726L356.268 69.9494L358.194 70.3788L357.948 71.4856C358.233 71.1047 358.614 70.8452 359.089 70.7073C359.568 70.5558 360.067 70.5378 360.586 70.6536C361.201 70.7906 361.725 71.0794 362.157 71.5201C362.59 71.9607 362.794 72.4581 362.771 73.0124C363.107 72.4705 363.623 72.1192 364.318 71.9587C365.028 71.8012 365.656 71.7834 366.202 71.9052ZM372.813 87.8796C372.02 87.703 371.327 87.3693 370.734 86.8784C370.157 86.377 369.744 85.783 369.496 85.0964C369.261 84.413 369.222 83.716 369.381 83.0054L370.646 77.3277C370.954 75.9475 371.549 74.9829 372.431 74.4337C373.331 73.8739 374.484 73.7509 375.892 74.0645C377.272 74.3721 378.228 74.9725 378.76 75.8657C379.307 76.7619 379.424 77.907 379.114 79.3008L378.374 82.6213L372.696 81.356L372.157 83.7747C372.066 84.1846 372.138 84.5666 372.375 84.9205C372.615 85.2608 372.96 85.4812 373.411 85.5817C373.821 85.6731 374.208 85.6088 374.573 85.3888C374.937 85.1688 375.164 84.8607 375.252 84.4644L375.444 83.6036L378.027 84.1791L377.867 84.8965C377.699 85.6481 377.378 86.2864 376.902 86.8115C376.429 87.323 375.834 87.678 375.116 87.8765C374.414 88.0643 373.646 88.0654 372.813 87.8796ZM376.645 78.2128C376.767 77.6662 376.725 77.2121 376.519 76.8506C376.326 76.4921 375.984 76.2581 375.492 76.1484C374.959 76.0297 374.526 76.1053 374.193 76.3754C373.877 76.6349 373.658 77.0379 373.536 77.5845L373.066 79.6957L376.161 80.3855L376.645 78.2128ZM383.604 77.7197C384.022 77.196 384.63 76.8509 385.427 76.6844C386.224 76.5178 386.983 76.5221 387.705 76.6971L387.147 79.1978C386.962 79.1278 386.815 79.0807 386.706 79.0563C386.036 78.9071 385.401 78.988 384.801 79.2989C384.218 79.5992 383.837 80.0522 383.659 80.658L381.668 89.5948L378.88 88.9736L381.849 75.6504L383.96 76.1209L383.604 77.7197ZM319.889 96.3104C320.9 96.5358 321.569 97.0434 321.895 97.8332C322.224 98.6093 322.268 99.5372 322.027 100.617L319.794 110.64L317.006 110.019L319.185 100.241C319.279 99.8178 319.208 99.429 318.971 99.0751C318.748 98.7242 318.425 98.5015 318.001 98.4071C317.551 98.3066 317.143 98.3663 316.778 98.5863C316.427 98.8093 316.205 99.1326 316.11 99.5562L313.931 109.333L311.164 108.717L315.102 91.0481L317.93 91.6785L316.638 97.4792C316.949 97.0466 317.37 96.7029 317.9 96.4482C318.447 96.1827 319.11 96.1368 319.889 96.3104ZM325.654 112.204C324.861 112.027 324.168 111.694 323.575 111.203C322.998 110.701 322.585 110.107 322.337 109.421C322.102 108.737 322.063 108.04 322.222 107.33L323.487 101.652C323.795 100.272 324.39 99.3072 325.272 98.7581C326.172 98.1983 327.325 98.0752 328.733 98.3889C330.113 98.6965 331.069 99.2969 331.601 100.19C332.148 101.086 332.265 102.231 331.955 103.625L331.215 106.946L325.537 105.68L324.998 108.099C324.907 108.509 324.979 108.891 325.216 109.245C325.456 109.585 325.801 109.806 326.252 109.906C326.662 109.997 327.049 109.933 327.414 109.713C327.778 109.493 328.005 109.185 328.093 108.789L328.285 107.928L330.868 108.503L330.708 109.221C330.54 109.972 330.219 110.611 329.743 111.136C329.27 111.647 328.675 112.002 327.957 112.201C327.255 112.389 326.487 112.39 325.654 112.204ZM329.486 102.537C329.608 101.991 329.566 101.537 329.36 101.175C329.167 100.816 328.825 100.582 328.333 100.473C327.8 100.354 327.367 100.43 327.034 100.7C326.718 100.959 326.499 101.362 326.377 101.909L325.907 104.02L329.002 104.71L329.486 102.537ZM336.781 113.285C336.485 113.65 336.146 113.911 335.767 114.07C335.401 114.233 334.897 114.242 334.254 114.099C333.626 113.959 333.102 113.67 332.683 113.233C332.267 112.781 331.981 112.23 331.825 111.578C331.686 110.916 331.703 110.196 331.877 109.417C331.932 109.171 332.012 108.909 332.117 108.631C332.515 107.487 333.214 106.667 334.214 106.172C335.227 105.681 336.417 105.588 337.783 105.892L338.275 106.002L338.713 104.034C338.811 103.597 338.822 103.226 338.746 102.923C338.67 102.619 338.427 102.421 338.017 102.33C337.608 102.239 337.293 102.298 337.074 102.507C336.869 102.719 336.703 103.048 336.575 103.493L336.392 104.313L333.707 103.714L333.894 102.874C334.182 101.905 334.731 101.21 335.542 100.789C336.357 100.353 337.345 100.265 338.506 100.524C339.818 100.816 340.712 101.31 341.188 102.004C341.681 102.687 341.824 103.53 341.615 104.53L339.285 114.984L336.539 114.372L336.781 113.285ZM337.367 107.564C336.575 107.387 335.986 107.486 335.602 107.859C335.218 108.232 334.936 108.822 334.756 109.628C334.604 110.311 334.581 110.895 334.689 111.377C334.799 111.847 335.073 112.13 335.51 112.228C335.989 112.334 336.368 112.24 336.65 111.944C336.944 111.651 337.18 111.108 337.357 110.315L337.941 107.692L337.367 107.564ZM345.132 97.9988L347.797 98.5926L343.914 116.015L341.249 115.421L345.132 97.9988ZM350.472 114.056C350.42 114.288 350.458 114.505 350.586 114.705C350.713 114.906 350.886 115.03 351.105 115.079L352.949 115.49L352.41 117.909L349.459 117.251C348.776 117.099 348.241 116.729 347.856 116.141C347.484 115.556 347.376 114.915 347.531 114.218L349.4 105.835L347.534 105.419L348.083 102.959L349.948 103.375L350.569 100.587L353.336 101.204L352.715 103.992L355.093 104.522L354.544 106.981L352.167 106.451L350.472 114.056ZM362.725 105.857C363.736 106.082 364.404 106.59 364.73 107.379C365.059 108.156 365.104 109.083 364.863 110.163L362.629 120.186L359.842 119.565L362.021 109.788C362.115 109.364 362.044 108.975 361.807 108.621C361.584 108.27 361.261 108.048 360.837 107.953C360.386 107.853 359.979 107.913 359.614 108.133C359.263 108.356 359.041 108.679 358.946 109.102L356.767 118.88L354 118.263L357.938 100.594L360.766 101.225L359.474 107.025C359.785 106.593 360.206 106.249 360.736 105.994C361.283 105.729 361.946 105.683 362.725 105.857Z" fill="black"/>
<path d="M150.269 133.004L147.476 133.684L143.599 117.774L144.616 134.381L141.689 135.095L135.041 119.764L138.94 135.764L136.08 136.461L131.44 117.422L135.977 116.317L142.243 131.054L141.161 115.054L145.63 113.965L150.269 133.004ZM159.683 116.837C159.912 117.776 159.886 118.737 159.605 119.721C159.32 120.69 158.84 121.47 158.163 122.061L163.478 129.785L160.282 130.564L155.671 123.686L153.956 124.128L155.785 131.636L152.768 132.371L148.146 113.399L152.816 112.261C153.814 112.018 154.784 112.05 155.727 112.357C156.685 112.66 157.511 113.2 158.206 113.978C158.915 114.752 159.408 115.705 159.683 116.837ZM154.57 121.208C155.479 120.987 156.101 120.528 156.436 119.83C156.786 119.13 156.865 118.384 156.672 117.595C156.429 116.597 155.967 115.865 155.285 115.4C154.604 114.935 153.861 114.8 153.056 114.996L151.805 115.301L153.318 121.513L154.57 121.208ZM172.144 113.801C172.373 114.74 172.347 115.701 172.066 116.685C171.781 117.654 171.3 118.434 170.623 119.025L175.938 126.749L172.743 127.528L168.131 120.65L166.416 121.091L168.246 128.6L165.229 129.335L160.606 110.363L165.276 109.225C166.275 108.982 167.245 109.014 168.188 109.32C169.146 109.624 169.972 110.164 170.666 110.942C171.376 111.716 171.868 112.669 172.144 113.801ZM167.03 118.172C167.939 117.951 168.561 117.491 168.896 116.794C169.246 116.093 169.325 115.348 169.133 114.559C168.89 113.56 168.427 112.829 167.746 112.364C167.064 111.898 166.321 111.764 165.517 111.96L164.265 112.265L165.779 118.477L167.03 118.172Z" fill="black"/>
<path d="M460.526 220.05C459.543 219.751 458.707 219.233 458.017 218.495C457.342 217.762 456.88 216.909 456.631 215.936C456.4 214.952 456.434 213.969 456.732 212.986L459.283 204.578C459.581 203.595 460.097 202.766 460.831 202.092C461.583 201.407 462.444 200.947 463.413 200.712C464.396 200.481 465.379 200.515 466.362 200.814C467.36 201.116 468.196 201.634 468.871 202.368C469.56 203.106 470.015 203.957 470.235 204.921C470.47 205.89 470.436 206.873 470.134 207.87L469.68 209.367L466.708 208.466L467.276 206.595C467.476 205.935 467.406 205.296 467.064 204.68C466.741 204.053 466.242 203.637 465.567 203.433C464.907 203.232 464.269 203.303 463.652 203.645C463.055 203.976 462.656 204.472 462.456 205.132L459.678 214.288C459.478 214.949 459.532 215.59 459.84 216.212C460.167 216.824 460.66 217.23 461.321 217.431C461.996 217.635 462.639 217.574 463.251 217.247C463.882 216.91 464.298 216.411 464.498 215.751L465.099 213.77L468.07 214.671L467.583 216.278C467.285 217.261 466.767 218.097 466.029 218.787C465.31 219.466 464.459 219.921 463.475 220.151C462.507 220.386 461.524 220.352 460.526 220.05ZM476.369 219.16L472.099 217.865L469.518 222.489L466.591 221.601L476.383 204.142L480.476 205.384L478.982 225.361L476.011 224.459L476.369 219.16ZM476.681 216.467L477.641 207.36L473.38 215.465L476.681 216.467ZM484.771 227.405C483.787 227.107 482.951 226.589 482.262 225.851C481.587 225.118 481.125 224.264 480.875 223.291C480.645 222.308 480.679 221.325 480.977 220.342L483.528 211.934C483.826 210.951 484.342 210.122 485.075 209.447C485.828 208.762 486.689 208.302 487.657 208.068C488.641 207.837 489.624 207.871 490.607 208.169C491.605 208.472 492.441 208.99 493.116 209.724C493.805 210.462 494.26 211.313 494.48 212.277C494.715 213.245 494.681 214.228 494.378 215.226L493.924 216.723L490.953 215.821L491.521 213.951C491.721 213.29 491.65 212.652 491.308 212.036C490.986 211.409 490.487 210.993 489.812 210.788C489.152 210.588 488.513 210.659 487.897 211.001C487.3 211.332 486.901 211.828 486.701 212.488L483.923 221.644C483.722 222.304 483.776 222.946 484.084 223.568C484.411 224.18 484.905 224.586 485.565 224.786C486.24 224.991 486.884 224.93 487.496 224.603C488.127 224.266 488.542 223.767 488.743 223.106L489.344 221.126L492.315 222.027L491.828 223.634C491.529 224.617 491.011 225.453 490.273 226.143C489.554 226.822 488.703 227.277 487.72 227.507C486.751 227.742 485.768 227.708 484.771 227.405Z" fill="black"/>
<path d="M67.5363 310.949C67.8044 311.789 67.8418 312.666 67.6485 313.58C67.4509 314.481 67.0628 315.222 66.4842 315.803L71.8172 322.5L68.9563 323.413L64.3179 317.442L62.7838 317.954L64.9286 324.676L62.2278 325.538L56.8082 308.552L60.9896 307.218C61.8832 306.933 62.7691 306.9 63.6474 307.12C64.539 307.335 65.3258 307.775 66.008 308.439C66.7034 309.098 67.2129 309.935 67.5363 310.949ZM63.1573 315.256C63.9709 314.996 64.5081 314.538 64.7689 313.882C65.0431 313.221 65.0674 312.537 64.8418 311.831C64.5567 310.937 64.089 310.3 63.4386 309.92C62.7882 309.539 62.1029 309.464 61.3827 309.694L60.2623 310.051L62.0369 315.613L63.1573 315.256ZM76.7989 321.175C76.0253 321.422 75.2586 321.483 74.4987 321.358C73.7478 321.216 73.092 320.91 72.5313 320.443C71.984 319.971 71.5996 319.388 71.3784 318.694L69.6101 313.153C69.1803 311.806 69.2082 310.673 69.6938 309.753C70.1885 308.817 71.1227 308.129 72.4965 307.691C73.8436 307.261 74.9721 307.298 75.8821 307.801C76.8055 308.3 77.4842 309.23 77.9183 310.59L78.9524 313.831L73.4107 315.599L74.1639 317.96C74.2916 318.36 74.5468 318.653 74.9296 318.84C75.3081 319.013 75.7175 319.029 76.1576 318.889C76.5577 318.761 76.8598 318.511 77.0639 318.137C77.2679 317.763 77.3083 317.383 77.1849 316.996L76.9167 316.156L79.4375 315.352L79.661 316.052C79.895 316.785 79.939 317.499 79.7928 318.192C79.6423 318.872 79.3069 319.479 78.7864 320.012C78.275 320.528 77.6125 320.916 76.7989 321.175ZM75.2379 310.894C75.0677 310.361 74.8024 309.99 74.442 309.781C74.095 309.569 73.6814 309.539 73.2012 309.692C72.6811 309.858 72.3453 310.142 72.1941 310.543C72.0519 310.926 72.0659 311.385 72.2361 311.918L72.8936 313.979L75.9145 313.015L75.2379 310.894ZM84.4188 318.479L77.2631 306.346L80.244 305.395L86.0424 316.176L84.5454 304.023L87.5063 303.078L88.7202 317.107L84.4188 318.479ZM96.5903 314.86C95.8167 315.107 95.05 315.168 94.29 315.043C93.5392 314.901 92.8834 314.596 92.3227 314.128C91.7754 313.656 91.391 313.073 91.1697 312.38L89.4015 306.838C88.9717 305.491 88.9996 304.358 89.4852 303.439C89.9799 302.502 90.9141 301.814 92.2879 301.376C93.6349 300.946 94.7635 300.983 95.6735 301.486C96.5969 301.985 97.2756 302.915 97.7097 304.275L98.7438 307.516L93.202 309.284L93.9553 311.645C94.083 312.045 94.3382 312.339 94.721 312.525C95.0995 312.698 95.5089 312.714 95.949 312.574C96.3491 312.446 96.6512 312.196 96.8553 311.822C97.0593 311.448 97.0996 311.068 96.9762 310.681L96.7081 309.841L99.2289 309.037L99.4523 309.737C99.6864 310.47 99.7303 311.184 99.5841 311.877C99.4337 312.557 99.0982 313.164 98.5778 313.697C98.0664 314.213 97.4039 314.601 96.5903 314.86ZM95.0293 304.579C94.8591 304.046 94.5938 303.675 94.2334 303.467C93.8864 303.254 93.4728 303.224 92.9926 303.378C92.4724 303.544 92.1367 303.827 91.9854 304.228C91.8432 304.611 91.8573 305.07 92.0275 305.603L92.685 307.664L95.7059 306.7L95.0293 304.579ZM103.738 297.723C104.725 297.408 105.567 297.514 106.264 298.041C106.957 298.554 107.47 299.331 107.802 300.372L110.885 310.035L108.124 310.916L105.117 301.493C104.99 301.093 104.734 300.799 104.352 300.613C103.982 300.422 103.591 300.393 103.177 300.525C102.737 300.665 102.415 300.922 102.211 301.296C102.02 301.665 101.989 302.05 102.116 302.45L105.123 311.873L102.382 312.748L98.2329 299.744L101.034 298.85L101.525 300.39C101.536 299.873 101.711 299.361 102.05 298.856C102.402 298.347 102.964 297.969 103.738 297.723ZM115.715 308.758C114.728 309.073 113.888 308.974 113.195 308.46C112.511 307.929 112.001 307.136 111.665 306.083L108.588 296.44L111.349 295.559L114.356 304.982C114.483 305.382 114.732 305.677 115.101 305.868C115.484 306.054 115.882 306.082 116.296 305.95C116.736 305.809 117.051 305.554 117.242 305.185C117.446 304.811 117.484 304.424 117.357 304.024L114.35 294.601L117.091 293.727L121.24 306.731L118.439 307.624L117.948 306.084C117.923 306.606 117.735 307.122 117.383 307.631C117.045 308.136 116.488 308.511 115.715 308.758ZM127.323 305.054C126.549 305.301 125.782 305.362 125.022 305.237C124.272 305.095 123.616 304.79 123.055 304.322C122.508 303.85 122.123 303.267 121.902 302.574L120.134 297.032C119.704 295.685 119.732 294.552 120.218 293.633C120.712 292.696 121.646 292.009 123.02 291.57C124.367 291.14 125.496 291.177 126.406 291.68C127.329 292.179 128.008 293.109 128.442 294.469L129.476 297.71L123.934 299.479L124.688 301.839C124.815 302.239 125.071 302.533 125.453 302.719C125.832 302.892 126.241 302.909 126.681 302.768C127.081 302.641 127.384 302.39 127.588 302.016C127.792 301.642 127.832 301.262 127.709 300.875L127.44 300.035L129.961 299.231L130.185 299.931C130.419 300.665 130.463 301.378 130.316 302.071C130.166 302.751 129.831 303.358 129.31 303.891C128.799 304.407 128.136 304.795 127.323 305.054ZM125.762 294.774C125.591 294.24 125.326 293.869 124.966 293.661C124.619 293.448 124.205 293.419 123.725 293.572C123.205 293.738 122.869 294.021 122.718 294.422C122.576 294.805 122.59 295.264 122.76 295.797L123.417 297.858L126.438 296.894L125.762 294.774Z" fill="black"/>
</g>
<defs>
<clipPath id="clip0_2300_24058">
<rect width="560" height="560" rx="2" fill="white"/>
</clipPath>
</defs>
</svg>
