<svg width="560" height="560" viewBox="0 0 560 560" fill="none" xmlns="http://www.w3.org/2000/svg">
<g clip-path="url(#clip0_2301_24846)">
<rect width="560" height="560" rx="2" fill="#262627"/>
<path d="M477.395 105.749L27 378.221V665H560V79L477.395 105.749Z" fill="#0070F4"/>
<path d="M109 387L56 424.831V459L109 421.169V387Z" fill="white"/>
<path d="M165 421H108.53L56 459H112.47L165 421Z" fill="black"/>
<path d="M165 421L113 459.881V495L165 456.119V421Z" fill="white"/>
<path d="M222 455H165.53L113 495H169.47L222 455Z" fill="black"/>
<path d="M222 455L169 493.881V529L222 490.119V455Z" fill="white"/>
<path d="M278 491H221.53L169 529H225.47L278 491Z" fill="black"/>
<path d="M278 491L226 528.831V563L278 525.169V491Z" fill="white"/>
<path d="M334 525H278.048L226 563H281.952L334 525Z" fill="black"/>
<path d="M334 525L282 563.881V599L334 560.119V525Z" fill="white"/>
<path d="M38.0145 380H0V765H544L538.101 709.113L38.0145 380Z" fill="#0059C3"/>
<path d="M109 387L56 424.831V459L109 421.169V387Z" fill="white"/>
<path d="M166 422H109.53L57 460H113.47L166 422Z" fill="black"/>
<path d="M165 421L113 459.881V495L165 456.119V421Z" fill="white"/>
<path d="M222 455H165.53L113 495H169.47L222 455Z" fill="black"/>
<path d="M222 455L169 493.881V529L222 490.119V455Z" fill="white"/>
<path d="M278 491H221.53L169 529H225.47L278 491Z" fill="black"/>
<path d="M278 491L226 528.831V563L278 525.169V491Z" fill="white"/>
<path d="M334 525H278.048L226 563H281.952L334 525Z" fill="black"/>
<path d="M334 525L282 563.881V599L334 560.119V525Z" fill="white"/>
<path d="M447.213 -39.1855L394.754 -0.654266V34.1482L447.213 -4.3831V-39.1855Z" fill="white"/>
<path d="M503.606 -4.38281H447.213L394.754 34.1485H451.147L503.606 -4.38281Z" fill="black"/>
<path d="M503.606 -4.38281L451.147 34.1485V68.9509L503.606 30.4196V-4.38281Z" fill="white"/>
<path d="M451.147 68.9512L503.606 107.482V142.285L451.147 103.754V68.9512Z" fill="white"/>
<path d="M394.754 103.754H451.147L503.606 142.285H447.213L394.754 103.754Z" fill="black"/>
<path d="M394.755 103.754L447.214 142.285V177.088L394.755 138.556V103.754Z" fill="white"/>
<path d="M338.361 138.556H394.755L447.214 177.087H390.82L338.361 138.556Z" fill="black"/>
<path d="M338.361 138.556L390.82 177.087V211.889L338.361 173.358V138.556Z" fill="white"/>
<path d="M281.968 173.358H338.361L390.82 211.89H334.427L281.968 173.358Z" fill="black"/>
<path d="M281.968 173.358L334.427 211.89V246.692L281.968 208.161V173.358Z" fill="white"/>
<path d="M225.574 208.161H281.968L334.427 246.692H278.033L225.574 208.161Z" fill="black"/>
<path d="M225.575 208.161L278.034 246.692V281.495L225.575 242.964V208.161Z" fill="white"/>
<path d="M169.182 242.964H225.575L278.034 281.495H221.641L169.182 242.964Z" fill="black"/>
<path d="M169.181 242.964L221.64 281.495V316.298L169.181 277.766V242.964Z" fill="white"/>
<path d="M112.787 277.766H169.181L221.64 316.297H165.246L112.787 277.766Z" fill="black"/>
<path d="M112.787 277.766L165.246 316.297V351.099L112.787 312.568V277.766Z" fill="white"/>
<path d="M56.3936 312.568H112.787L165.246 351.1H108.853L56.3936 312.568Z" fill="black"/>
<path d="M56.3935 312.568L108.853 351.1V385.902L56.3935 347.371V312.568Z" fill="white"/>
<path d="M8.39233e-05 347.371H56.3935L108.853 385.902L56.3935 424.434H8.39233e-05V347.371Z" fill="black"/>
<path d="M560.001 30.4199H503.607L451.148 68.9512L503.607 107.482H560.001V30.4199Z" fill="black"/>
<circle r="92" fill="#FFD644"/>
<circle cx="164.5" cy="433.5" r="41.5" fill="#FC604D"/>
</g>
<defs>
<clipPath id="clip0_2301_24846">
<rect width="560" height="560" rx="2" fill="white"/>
</clipPath>
</defs>
</svg>
