<svg width="560" height="560" viewBox="0 0 560 560" fill="none" xmlns="http://www.w3.org/2000/svg">
<rect width="560" height="560" rx="2" fill="#262627"/>
<path fill-rule="evenodd" clip-rule="evenodd" d="M80.2671 244C81.4852 243.999 82.5657 244.782 82.9435 245.94L86.6467 257.291C87.0246 258.448 86.6137 259.718 85.629 260.435L75.9773 267.464C74.9928 268.182 73.6583 268.183 72.672 267.468L63.0037 260.462C62.0174 259.747 61.6035 258.479 61.9786 257.32L65.655 245.96C66.03 244.801 67.1087 244.016 68.3268 244.014L80.2671 244Z" fill="white"/>
<path fill-rule="evenodd" clip-rule="evenodd" d="M80.2947 316.326C81.5126 316.325 82.5917 315.54 82.9672 314.381L86.6484 303.023C87.024 301.864 86.6107 300.595 85.6246 299.88L75.9593 292.87C74.9734 292.155 73.6389 292.156 72.6539 292.872L62.9992 299.897C62.0144 300.614 61.603 301.883 61.9803 303.042L65.6787 314.394C66.056 315.552 67.1361 316.336 68.3542 316.335L80.2947 316.326Z" fill="white"/>
<path fill-rule="evenodd" clip-rule="evenodd" d="M108.392 271.607C109.55 271.983 110.335 273.063 110.335 274.281V286.22C110.335 287.438 109.55 288.518 108.392 288.894L97.0359 292.584C95.8773 292.96 94.6082 292.548 93.8923 291.562L86.874 281.903C86.1579 280.918 86.1579 279.583 86.874 278.598L93.8923 268.938C94.6082 267.953 95.8773 267.541 97.0359 267.917L108.392 271.607Z" fill="white"/>
<path fill-rule="evenodd" clip-rule="evenodd" d="M39.9428 288.894C38.7843 288.518 38 287.438 38 286.22L38 274.281C38 273.063 38.7843 271.983 39.9428 271.607L51.2989 267.917C52.4573 267.541 53.7264 267.953 54.4423 268.938L61.4608 278.598C62.1767 279.583 62.1767 280.918 61.4608 281.903L54.4423 291.562C53.7264 292.548 52.4573 292.96 51.2989 292.584L39.9428 288.894Z" fill="white"/>
<path opacity="0.7" d="M144 280.298C187.232 280.298 218 90 255 90" stroke="#FBFBFC" stroke-width="10" stroke-linecap="square" stroke-linejoin="round"/>
<path opacity="0.7" d="M144 280.298C187.232 280.298 218 90 255 90" stroke="#FBFBFC" stroke-linecap="square" stroke-linejoin="round"/>
<path opacity="0.7" d="M144 280.298C187.232 280.298 218 166 255 166" stroke="#FC7F70" stroke-width="10" stroke-linecap="square" stroke-linejoin="round"/>
<path opacity="0.7" d="M144 280.298C187.232 280.298 218 166 255 166" stroke="#FC7F70" stroke-linecap="square" stroke-linejoin="round"/>
<path opacity="0.7" d="M144 280.298C187.232 280.298 218 242 255 242" stroke="#CED2FF" stroke-width="10" stroke-linecap="square" stroke-linejoin="round"/>
<path opacity="0.7" d="M144 280.298C187.232 280.298 218 242 255 242" stroke="#CED2FF" stroke-linecap="square" stroke-linejoin="round"/>
<path opacity="0.7" d="M144 280C187.232 280 218 394 255 394" stroke="#66A9F8" stroke-width="10" stroke-linecap="square" stroke-linejoin="round"/>
<path opacity="0.7" d="M144 280C187.232 280 218 394 255 394" stroke="#66A9F8" stroke-linecap="square" stroke-linejoin="round"/>
<path opacity="0.7" d="M144 280C187.232 280 218 318.298 255 318.298" stroke="#70E8A6" stroke-width="10" stroke-linecap="square" stroke-linejoin="round"/>
<path opacity="0.7" d="M144 280C187.232 280 218 318.298 255 318.298" stroke="#70E8A6" stroke-linecap="square" stroke-linejoin="round"/>
<rect x="281" y="61" width="241" height="58" rx="2" fill="white"/>
<path d="M315.434 97.227V100H306.293V80.0015H315.387V82.798H309.465V88.72H314.612V91.4695H309.465V97.227H315.434ZM327.389 82.845H323.441V100H320.245V82.845H316.203V80.025H327.389V82.845ZM328.852 100V80.025H332.048V97.2035H338.229V100H328.852Z" fill="black"/>
<line x1="295.435" y1="75" x2="295.435" y2="107" stroke="black" stroke-width="0.870068"/>
<rect x="281" y="213" width="241" height="58" rx="2" fill="#CED2FF"/>
<path d="M306.316 232.025H311.486C312.677 232.025 313.711 232.307 314.588 232.871C315.465 233.419 316.139 234.203 316.609 235.221C317.095 236.239 317.345 237.43 317.361 238.793L317.385 244.926C317.385 246.321 317.142 247.551 316.656 248.616C316.17 249.681 315.473 250.512 314.565 251.107C313.656 251.702 312.575 252 311.322 252H306.316V232.025ZM310.828 249.203C311.846 249.203 312.653 248.859 313.249 248.169C313.86 247.48 314.165 246.532 314.165 245.326L314.142 238.346C314.11 237.187 313.797 236.31 313.202 235.714C312.622 235.119 311.886 234.821 310.993 234.821H309.465V249.203H310.828ZM325.034 250.754C324.799 251.224 324.493 251.593 324.117 251.859C323.757 252.125 323.209 252.259 322.472 252.259C321.752 252.259 321.109 252.071 320.545 251.694C319.981 251.303 319.535 250.77 319.206 250.096C318.892 249.407 318.736 248.616 318.736 247.723C318.736 247.441 318.759 247.135 318.806 246.806C318.963 245.459 319.527 244.394 320.498 243.61C321.485 242.827 322.762 242.435 324.329 242.435H324.893V240.179C324.893 239.678 324.814 239.271 324.658 238.957C324.501 238.644 324.188 238.487 323.718 238.487C323.248 238.487 322.919 238.628 322.731 238.91C322.558 239.192 322.457 239.592 322.425 240.109V241.049H319.347V240.085C319.425 238.957 319.856 238.064 320.639 237.406C321.423 236.733 322.48 236.396 323.812 236.396C325.316 236.396 326.412 236.717 327.102 237.359C327.807 237.986 328.167 238.871 328.183 240.015V252H325.034V250.754ZM324.282 244.362C323.373 244.362 322.754 244.613 322.425 245.114C322.096 245.616 321.932 246.329 321.932 247.253C321.932 248.036 322.049 248.679 322.284 249.18C322.519 249.666 322.887 249.908 323.389 249.908C323.937 249.908 324.329 249.713 324.564 249.321C324.814 248.929 324.94 248.279 324.94 247.37V244.362H324.282ZM334.438 248.263C334.438 248.53 334.532 248.757 334.72 248.945C334.908 249.133 335.128 249.227 335.378 249.227H337.493V252H334.109C333.326 252 332.652 251.726 332.088 251.177C331.54 250.629 331.266 249.955 331.266 249.156V239.545H329.127V236.725H331.266V233.529H334.438V236.725H337.164V239.545H334.438V248.263ZM344.839 250.754C344.604 251.224 344.298 251.593 343.922 251.859C343.562 252.125 343.014 252.259 342.277 252.259C341.557 252.259 340.914 252.071 340.35 251.694C339.786 251.303 339.34 250.77 339.011 250.096C338.698 249.407 338.541 248.616 338.541 247.723C338.541 247.441 338.564 247.135 338.611 246.806C338.768 245.459 339.332 244.394 340.303 243.61C341.29 242.827 342.567 242.435 344.134 242.435H344.698V240.179C344.698 239.678 344.62 239.271 344.463 238.957C344.306 238.644 343.993 238.487 343.523 238.487C343.053 238.487 342.724 238.628 342.536 238.91C342.364 239.192 342.262 239.592 342.23 240.109V241.049H339.152V240.085C339.23 238.957 339.661 238.064 340.444 237.406C341.228 236.733 342.285 236.396 343.617 236.396C345.121 236.396 346.218 236.717 346.907 237.359C347.612 237.986 347.972 238.871 347.988 240.015V252H344.839V250.754ZM344.087 244.362C343.178 244.362 342.559 244.613 342.23 245.114C341.901 245.616 341.737 246.329 341.737 247.253C341.737 248.036 341.854 248.679 342.089 249.18C342.324 249.666 342.693 249.908 343.194 249.908C343.742 249.908 344.134 249.713 344.369 249.321C344.62 248.929 344.745 248.279 344.745 247.37V244.362H344.087ZM364.94 236.443C366.365 236.443 367.462 236.811 368.23 237.547C368.997 238.268 369.381 239.31 369.381 240.673V252H366.232V240.461C366.232 240.038 366.076 239.686 365.762 239.404C365.449 239.106 365.065 238.957 364.611 238.957C364.188 238.957 363.812 239.106 363.483 239.404C363.169 239.686 363.013 240.038 363.013 240.461V252H359.864L359.84 240.414C359.84 240.007 359.691 239.662 359.394 239.38C359.096 239.083 358.728 238.934 358.289 238.934C357.866 238.934 357.498 239.083 357.185 239.38C356.887 239.662 356.738 240.007 356.738 240.414V252H353.613V236.725H355.822V237.994C356.041 237.508 356.394 237.132 356.879 236.866C357.365 236.584 357.905 236.443 358.501 236.443C359.206 236.443 359.848 236.631 360.428 237.007C361.007 237.383 361.352 237.876 361.462 238.487C361.697 237.814 362.175 237.305 362.895 236.96C363.632 236.615 364.313 236.443 364.94 236.443ZM376.072 236.396C377.67 236.396 378.884 236.835 379.715 237.712C380.545 238.574 380.96 239.819 380.96 241.448V247.934C380.96 248.796 380.756 249.564 380.349 250.237C379.957 250.895 379.393 251.412 378.657 251.788C377.936 252.149 377.098 252.329 376.143 252.329C375.156 252.329 374.278 252.125 373.511 251.718C372.759 251.311 372.171 250.754 371.748 250.049C371.325 249.344 371.114 248.561 371.114 247.699V241.378C371.114 239.764 371.544 238.534 372.406 237.688C373.268 236.827 374.49 236.396 376.072 236.396ZM377.999 241.049C377.999 240.375 377.85 239.85 377.553 239.474C377.255 239.083 376.793 238.887 376.166 238.887C375.539 238.887 375.077 239.091 374.78 239.498C374.482 239.89 374.333 240.422 374.333 241.096V247.84C374.333 248.357 374.513 248.796 374.874 249.156C375.234 249.501 375.68 249.673 376.213 249.673C376.699 249.673 377.114 249.493 377.459 249.133C377.819 248.773 377.999 248.342 377.999 247.84V241.049ZM392.667 252H390.082V250.214C389.769 250.872 389.315 251.373 388.719 251.718C388.124 252.047 387.45 252.212 386.698 252.212C385.978 252.212 385.304 252.024 384.677 251.647C384.066 251.271 383.581 250.77 383.22 250.143C382.86 249.501 382.68 248.812 382.68 248.075V241.401C382.68 239.897 382.985 238.691 383.596 237.782C384.207 236.874 385.194 236.419 386.557 236.419C387.247 236.419 387.85 236.6 388.367 236.96C388.884 237.305 389.252 237.751 389.471 238.299V231.625H392.667V252ZM387.685 249.532C388.187 249.532 388.61 249.36 388.954 249.015C389.299 248.671 389.471 248.256 389.471 247.77V240.861C389.471 240.36 389.299 239.937 388.954 239.592C388.61 239.247 388.187 239.075 387.685 239.075C387.184 239.075 386.761 239.247 386.416 239.592C386.087 239.937 385.923 240.36 385.923 240.861V247.77C385.923 248.256 386.095 248.671 386.44 249.015C386.785 249.36 387.2 249.532 387.685 249.532ZM399.709 252.282C398.801 252.282 397.962 252.086 397.195 251.694C396.443 251.287 395.847 250.739 395.409 250.049C394.986 249.36 394.774 248.608 394.774 247.793V241.284C394.774 239.702 395.189 238.503 396.02 237.688C396.866 236.858 398.096 236.443 399.709 236.443C401.292 236.443 402.482 236.866 403.281 237.712C404.096 238.558 404.503 239.78 404.503 241.378V245.185H397.994V247.958C397.994 248.428 398.166 248.827 398.511 249.156C398.855 249.47 399.286 249.626 399.803 249.626C400.273 249.626 400.681 249.462 401.025 249.133C401.37 248.804 401.542 248.412 401.542 247.958V246.971H404.503V247.793C404.503 248.655 404.307 249.431 403.916 250.12C403.524 250.794 402.96 251.326 402.224 251.718C401.503 252.094 400.665 252.282 399.709 252.282ZM401.542 240.79C401.542 240.164 401.386 239.678 401.072 239.333C400.775 238.989 400.344 238.816 399.78 238.816C399.169 238.816 398.714 239.004 398.417 239.38C398.135 239.741 397.994 240.234 397.994 240.861V243.281H401.542V240.79ZM406.626 232.025H409.681V252H406.626V232.025ZM414.247 234.375C413.698 234.375 413.22 234.187 412.813 233.811C412.421 233.419 412.226 232.941 412.226 232.377C412.226 231.813 412.421 231.336 412.813 230.944C413.22 230.537 413.698 230.333 414.247 230.333C414.795 230.333 415.273 230.537 415.68 230.944C416.087 231.336 416.291 231.813 416.291 232.377C416.291 232.941 416.087 233.419 415.68 233.811C415.288 234.187 414.811 234.375 414.247 234.375ZM415.704 236.725V252H412.649V236.725H415.704ZM425.345 236.443C426.504 236.443 427.366 236.842 427.93 237.641C428.494 238.425 428.776 239.427 428.776 240.649V252H425.533V240.931C425.533 240.461 425.361 240.062 425.016 239.733C424.687 239.404 424.28 239.239 423.794 239.239C423.277 239.239 422.846 239.404 422.501 239.733C422.172 240.062 422.008 240.461 422.008 240.931V252H418.788V236.725H422.078V238.534C422.266 237.986 422.627 237.5 423.159 237.077C423.708 236.654 424.436 236.443 425.345 236.443ZM440.47 253.504C440.47 254.35 440.258 255.11 439.835 255.784C439.428 256.473 438.856 257.006 438.12 257.382C437.383 257.773 436.545 257.969 435.605 257.969C434.665 257.969 433.827 257.773 433.091 257.382C432.37 256.99 431.806 256.457 431.399 255.784C431.007 255.11 430.811 254.35 430.811 253.504V252.682H433.702V253.669C433.702 254.139 433.874 254.53 434.219 254.844C434.579 255.173 435.018 255.337 435.535 255.337C436.02 255.337 436.435 255.173 436.78 254.844C437.14 254.515 437.321 254.123 437.321 253.669V250.12C437.101 250.684 436.725 251.154 436.193 251.53C435.676 251.906 435.08 252.094 434.407 252.094C433.044 252.094 432.057 251.64 431.446 250.731C430.835 249.807 430.529 248.592 430.529 247.088V240.626C430.529 239.89 430.709 239.208 431.07 238.581C431.446 237.939 431.939 237.43 432.55 237.054C433.177 236.678 433.858 236.49 434.595 236.49C435.315 236.49 435.965 236.662 436.545 237.007C437.14 237.336 437.595 237.837 437.908 238.511V236.725H440.47V253.504ZM437.321 240.908C437.321 240.422 437.14 240.007 436.78 239.662C436.42 239.302 435.997 239.122 435.511 239.122C435.01 239.122 434.587 239.302 434.242 239.662C433.897 240.007 433.725 240.422 433.725 240.908V247.629C433.725 248.115 433.897 248.538 434.242 248.898C434.587 249.258 435.01 249.438 435.511 249.438C435.997 249.438 436.412 249.266 436.757 248.921C437.117 248.577 437.297 248.177 437.297 247.723L437.321 240.908Z" fill="black"/>
<line x1="295.435" y1="227" x2="295.435" y2="259" stroke="black" stroke-width="0.870068"/>
<rect x="281" y="137" width="241" height="58" rx="2" fill="#FC7F70"/>
<path d="M316.938 162.229C316.938 163.216 316.68 164.164 316.163 165.072C315.646 165.965 314.98 166.623 314.165 167.046L317.573 176H314.212L311.298 168.057L309.489 168.08V175.976H306.316V156.025H311.228C312.277 156.025 313.233 156.291 314.095 156.824C314.972 157.357 315.661 158.093 316.163 159.033C316.68 159.973 316.938 161.038 316.938 162.229ZM310.805 165.331C311.76 165.331 312.489 165.025 312.99 164.414C313.507 163.803 313.766 163.083 313.766 162.252C313.766 161.203 313.484 160.365 312.92 159.738C312.356 159.111 311.651 158.798 310.805 158.798H309.489V165.331H310.805ZM323.334 176.282C322.426 176.282 321.587 176.086 320.82 175.694C320.068 175.287 319.472 174.739 319.034 174.049C318.611 173.36 318.399 172.608 318.399 171.793V165.284C318.399 163.702 318.814 162.503 319.645 161.688C320.491 160.858 321.721 160.443 323.334 160.443C324.917 160.443 326.107 160.866 326.906 161.712C327.721 162.558 328.128 163.78 328.128 165.378V169.185H321.619V171.958C321.619 172.428 321.791 172.827 322.136 173.156C322.48 173.47 322.911 173.626 323.428 173.626C323.898 173.626 324.306 173.462 324.65 173.133C324.995 172.804 325.167 172.412 325.167 171.958V170.971H328.128V171.793C328.128 172.655 327.932 173.431 327.541 174.12C327.149 174.794 326.585 175.326 325.849 175.718C325.128 176.094 324.29 176.282 323.334 176.282ZM325.167 164.79C325.167 164.164 325.011 163.678 324.697 163.333C324.4 162.989 323.969 162.816 323.405 162.816C322.794 162.816 322.339 163.004 322.042 163.38C321.76 163.741 321.619 164.234 321.619 164.861V167.281H325.167V164.79ZM332.375 176L328.873 160.631H332.375L334.889 174.096L337.427 160.631H340.905L337.427 176H332.375ZM346.582 176.282C345.673 176.282 344.835 176.086 344.067 175.694C343.315 175.287 342.72 174.739 342.281 174.049C341.858 173.36 341.647 172.608 341.647 171.793V165.284C341.647 163.702 342.062 162.503 342.892 161.688C343.738 160.858 344.968 160.443 346.582 160.443C348.164 160.443 349.355 160.866 350.154 161.712C350.968 162.558 351.376 163.78 351.376 165.378V169.185H344.866V171.958C344.866 172.428 345.039 172.827 345.383 173.156C345.728 173.47 346.159 173.626 346.676 173.626C347.146 173.626 347.553 173.462 347.898 173.133C348.242 172.804 348.415 172.412 348.415 171.958V170.971H351.376V171.793C351.376 172.655 351.18 173.431 350.788 174.12C350.397 174.794 349.833 175.326 349.096 175.718C348.376 176.094 347.537 176.282 346.582 176.282ZM348.415 164.79C348.415 164.164 348.258 163.678 347.945 163.333C347.647 162.989 347.216 162.816 346.652 162.816C346.041 162.816 345.587 163.004 345.289 163.38C345.007 163.741 344.866 164.234 344.866 164.861V167.281H348.415V164.79ZM355.895 162.558C356.224 161.884 356.804 161.359 357.634 160.983C358.465 160.607 359.295 160.427 360.125 160.443V163.31C359.906 163.279 359.734 163.263 359.608 163.263C358.841 163.263 358.167 163.506 357.587 163.991C357.023 164.461 356.718 165.049 356.671 165.754V176H353.475V160.725H355.895V162.558ZM365.056 176.329C364.289 176.329 363.584 176.141 362.941 175.765C362.315 175.389 361.821 174.88 361.461 174.237C361.1 173.579 360.92 172.859 360.92 172.075V171.629H363.74V172.075C363.74 172.389 363.85 172.702 364.069 173.015C364.289 173.313 364.618 173.462 365.056 173.462C365.526 173.462 365.863 173.329 366.067 173.062C366.27 172.796 366.372 172.467 366.372 172.075C366.372 171.558 366.317 171.159 366.208 170.877C366.098 170.579 365.902 170.344 365.62 170.172C365.495 170.078 365.283 169.976 364.986 169.866C364.704 169.741 364.516 169.663 364.422 169.631C363.231 169.146 362.346 168.449 361.766 167.54C361.202 166.616 360.92 165.582 360.92 164.438C360.92 163.702 361.1 163.028 361.461 162.417C361.821 161.806 362.315 161.328 362.941 160.983C363.568 160.623 364.257 160.443 365.009 160.443C366.263 160.443 367.257 160.874 367.994 161.735C368.73 162.581 369.098 163.756 369.098 165.26H366.278C366.278 164.555 366.169 164.046 365.949 163.733C365.746 163.42 365.432 163.263 365.009 163.263C364.665 163.263 364.367 163.373 364.116 163.592C363.866 163.796 363.74 164.078 363.74 164.438C363.74 165.065 363.873 165.582 364.14 165.989C364.422 166.396 364.853 166.717 365.432 166.952L366.067 167.258C366.631 167.524 366.983 167.704 367.124 167.798C367.876 168.253 368.409 168.825 368.722 169.514C369.036 170.188 369.192 171.041 369.192 172.075C369.192 172.89 369.012 173.626 368.652 174.284C368.307 174.927 367.821 175.428 367.195 175.788C366.568 176.149 365.855 176.329 365.056 176.329ZM375.681 176.282C374.773 176.282 373.935 176.086 373.167 175.694C372.415 175.287 371.82 174.739 371.381 174.049C370.958 173.36 370.746 172.608 370.746 171.793V165.284C370.746 163.702 371.162 162.503 371.992 161.688C372.838 160.858 374.068 160.443 375.681 160.443C377.264 160.443 378.454 160.866 379.253 161.712C380.068 162.558 380.475 163.78 380.475 165.378V169.185H373.966V171.958C373.966 172.428 374.138 172.827 374.483 173.156C374.828 173.47 375.258 173.626 375.775 173.626C376.245 173.626 376.653 173.462 376.997 173.133C377.342 172.804 377.514 172.412 377.514 171.958V170.971H380.475V171.793C380.475 172.655 380.28 173.431 379.888 174.12C379.496 174.794 378.932 175.326 378.196 175.718C377.475 176.094 376.637 176.282 375.681 176.282ZM377.514 164.79C377.514 164.164 377.358 163.678 377.044 163.333C376.747 162.989 376.316 162.816 375.752 162.816C375.141 162.816 374.687 163.004 374.389 163.38C374.107 163.741 373.966 164.234 373.966 164.861V167.281H377.514V164.79ZM389.385 167.939V170.571H382.452V167.939H389.385ZM400.736 173.227V176H391.595V156.001H400.689V158.798H394.767V164.72H399.914V167.469H394.767V173.227H400.736ZM412.691 158.845H408.743V176H405.547V158.845H401.505V156.025H412.691V158.845ZM414.154 176V156.025H417.35V173.203H423.531V176H414.154Z" fill="black"/>
<line x1="295.435" y1="151" x2="295.435" y2="183" stroke="black" stroke-width="0.870068"/>
<rect x="281" y="289" width="241" height="58" rx="2" fill="#70E8A6"/>
<path d="M306.316 308.025H311.486C312.677 308.025 313.711 308.307 314.588 308.871C315.465 309.419 316.139 310.203 316.609 311.221C317.095 312.239 317.345 313.43 317.361 314.793L317.385 320.926C317.385 322.321 317.142 323.551 316.656 324.616C316.17 325.681 315.473 326.512 314.565 327.107C313.656 327.702 312.575 328 311.322 328H306.316V308.025ZM310.828 325.203C311.846 325.203 312.653 324.859 313.249 324.169C313.86 323.48 314.165 322.532 314.165 321.326L314.142 314.346C314.11 313.187 313.797 312.31 313.202 311.714C312.622 311.119 311.886 310.821 310.993 310.821H309.465V325.203H310.828ZM325.034 326.754C324.799 327.224 324.493 327.593 324.117 327.859C323.757 328.125 323.209 328.259 322.472 328.259C321.752 328.259 321.109 328.071 320.545 327.694C319.981 327.303 319.535 326.77 319.206 326.096C318.892 325.407 318.736 324.616 318.736 323.723C318.736 323.441 318.759 323.135 318.806 322.806C318.963 321.459 319.527 320.394 320.498 319.61C321.485 318.827 322.762 318.435 324.329 318.435H324.893V316.179C324.893 315.678 324.814 315.271 324.658 314.957C324.501 314.644 324.188 314.487 323.718 314.487C323.248 314.487 322.919 314.628 322.731 314.91C322.558 315.192 322.457 315.592 322.425 316.109V317.049H319.347V316.085C319.425 314.957 319.856 314.064 320.639 313.406C321.423 312.733 322.48 312.396 323.812 312.396C325.316 312.396 326.412 312.717 327.102 313.359C327.807 313.986 328.167 314.871 328.183 316.015V328H325.034V326.754ZM324.282 320.362C323.373 320.362 322.754 320.613 322.425 321.114C322.096 321.616 321.932 322.329 321.932 323.253C321.932 324.036 322.049 324.679 322.284 325.18C322.519 325.666 322.887 325.908 323.389 325.908C323.937 325.908 324.329 325.713 324.564 325.321C324.814 324.929 324.94 324.279 324.94 323.37V320.362H324.282ZM334.438 324.263C334.438 324.53 334.532 324.757 334.72 324.945C334.908 325.133 335.128 325.227 335.378 325.227H337.493V328H334.109C333.326 328 332.652 327.726 332.088 327.177C331.54 326.629 331.266 325.955 331.266 325.156V315.545H329.127V312.725H331.266V309.529H334.438V312.725H337.164V315.545H334.438V324.263ZM344.839 326.754C344.604 327.224 344.298 327.593 343.922 327.859C343.562 328.125 343.014 328.259 342.277 328.259C341.557 328.259 340.914 328.071 340.35 327.694C339.786 327.303 339.34 326.77 339.011 326.096C338.698 325.407 338.541 324.616 338.541 323.723C338.541 323.441 338.564 323.135 338.611 322.806C338.768 321.459 339.332 320.394 340.303 319.61C341.29 318.827 342.567 318.435 344.134 318.435H344.698V316.179C344.698 315.678 344.62 315.271 344.463 314.957C344.306 314.644 343.993 314.487 343.523 314.487C343.053 314.487 342.724 314.628 342.536 314.91C342.364 315.192 342.262 315.592 342.23 316.109V317.049H339.152V316.085C339.23 314.957 339.661 314.064 340.444 313.406C341.228 312.733 342.285 312.396 343.617 312.396C345.121 312.396 346.218 312.717 346.907 313.359C347.612 313.986 347.972 314.871 347.988 316.015V328H344.839V326.754ZM344.087 320.362C343.178 320.362 342.559 320.613 342.23 321.114C341.901 321.616 341.737 322.329 341.737 323.253C341.737 324.036 341.854 324.679 342.089 325.18C342.324 325.666 342.693 325.908 343.194 325.908C343.742 325.908 344.134 325.713 344.369 325.321C344.62 324.929 344.745 324.279 344.745 323.37V320.362H344.087ZM355.875 328L352.373 312.631H355.875L358.389 326.096L360.927 312.631H364.405L360.927 328H355.875ZM367.958 310.375C367.41 310.375 366.932 310.187 366.524 309.811C366.133 309.419 365.937 308.941 365.937 308.377C365.937 307.813 366.133 307.336 366.524 306.944C366.932 306.537 367.41 306.333 367.958 306.333C368.506 306.333 368.984 306.537 369.391 306.944C369.799 307.336 370.002 307.813 370.002 308.377C370.002 308.941 369.799 309.419 369.391 309.811C369 310.187 368.522 310.375 367.958 310.375ZM369.415 312.725V328H366.36V312.725H369.415ZM376.072 328.329C375.304 328.329 374.599 328.141 373.957 327.765C373.33 327.389 372.837 326.88 372.476 326.237C372.116 325.579 371.936 324.859 371.936 324.075V323.629H374.756V324.075C374.756 324.389 374.866 324.702 375.085 325.015C375.304 325.313 375.633 325.462 376.072 325.462C376.542 325.462 376.879 325.329 377.082 325.062C377.286 324.796 377.388 324.467 377.388 324.075C377.388 323.558 377.333 323.159 377.223 322.877C377.114 322.579 376.918 322.344 376.636 322.172C376.511 322.078 376.299 321.976 376.001 321.866C375.719 321.741 375.531 321.663 375.437 321.631C374.247 321.146 373.362 320.449 372.782 319.54C372.218 318.616 371.936 317.582 371.936 316.438C371.936 315.702 372.116 315.028 372.476 314.417C372.837 313.806 373.33 313.328 373.957 312.983C374.584 312.623 375.273 312.443 376.025 312.443C377.278 312.443 378.273 312.874 379.009 313.735C379.746 314.581 380.114 315.756 380.114 317.26H377.294C377.294 316.555 377.184 316.046 376.965 315.733C376.761 315.42 376.448 315.263 376.025 315.263C375.68 315.263 375.383 315.373 375.132 315.592C374.881 315.796 374.756 316.078 374.756 316.438C374.756 317.065 374.889 317.582 375.155 317.989C375.437 318.396 375.868 318.717 376.448 318.952L377.082 319.258C377.646 319.524 377.999 319.704 378.14 319.798C378.892 320.253 379.425 320.825 379.738 321.514C380.051 322.188 380.208 323.041 380.208 324.075C380.208 324.89 380.028 325.626 379.667 326.284C379.323 326.927 378.837 327.428 378.21 327.788C377.584 328.149 376.871 328.329 376.072 328.329ZM385.593 328.282C384.433 328.282 383.572 327.89 383.008 327.107C382.459 326.308 382.185 325.29 382.185 324.052V312.725H385.428V323.793C385.428 324.263 385.593 324.663 385.922 324.992C386.266 325.321 386.681 325.485 387.167 325.485C387.684 325.485 388.107 325.321 388.436 324.992C388.781 324.663 388.953 324.263 388.953 323.793V312.725H392.173V328H388.883V326.19C388.679 326.739 388.303 327.224 387.755 327.647C387.222 328.07 386.501 328.282 385.593 328.282ZM400.261 326.754C400.026 327.224 399.721 327.593 399.345 327.859C398.984 328.125 398.436 328.259 397.7 328.259C396.979 328.259 396.337 328.071 395.773 327.694C395.209 327.303 394.762 326.77 394.433 326.096C394.12 325.407 393.963 324.616 393.963 323.723C393.963 323.441 393.987 323.135 394.034 322.806C394.19 321.459 394.754 320.394 395.726 319.61C396.713 318.827 397.99 318.435 399.556 318.435H400.12V316.179C400.12 315.678 400.042 315.271 399.885 314.957C399.729 314.644 399.415 314.487 398.945 314.487C398.475 314.487 398.146 314.628 397.958 314.91C397.786 315.192 397.684 315.592 397.653 316.109V317.049H394.574V316.085C394.653 314.957 395.083 314.064 395.867 313.406C396.65 312.733 397.708 312.396 399.039 312.396C400.543 312.396 401.64 312.717 402.329 313.359C403.034 313.986 403.395 314.871 403.41 316.015V328H400.261V326.754ZM399.509 320.362C398.601 320.362 397.982 320.613 397.653 321.114C397.324 321.616 397.159 322.329 397.159 323.253C397.159 324.036 397.277 324.679 397.512 325.18C397.747 325.666 398.115 325.908 398.616 325.908C399.165 325.908 399.556 325.713 399.791 325.321C400.042 324.929 400.167 324.279 400.167 323.37V320.362H399.509ZM405.662 308.025H408.717V328H405.662V308.025ZM413.283 310.375C412.734 310.375 412.257 310.187 411.849 309.811C411.458 309.419 411.262 308.941 411.262 308.377C411.262 307.813 411.458 307.336 411.849 306.944C412.257 306.537 412.734 306.333 413.283 306.333C413.831 306.333 414.309 306.537 414.716 306.944C415.124 307.336 415.327 307.813 415.327 308.377C415.327 308.941 415.124 309.419 414.716 309.811C414.325 310.187 413.847 310.375 413.283 310.375ZM414.74 312.725V328H411.685V312.725H414.74ZM421.397 328.329C420.629 328.329 419.924 328.141 419.282 327.765C418.655 327.389 418.161 326.88 417.801 326.237C417.441 325.579 417.261 324.859 417.261 324.075V323.629H420.081V324.075C420.081 324.389 420.19 324.702 420.41 325.015C420.629 325.313 420.958 325.462 421.397 325.462C421.867 325.462 422.203 325.329 422.407 325.062C422.611 324.796 422.713 324.467 422.713 324.075C422.713 323.558 422.658 323.159 422.548 322.877C422.438 322.579 422.243 322.344 421.961 322.172C421.835 322.078 421.624 321.976 421.326 321.866C421.044 321.741 420.856 321.663 420.762 321.631C419.571 321.146 418.686 320.449 418.107 319.54C417.543 318.616 417.261 317.582 417.261 316.438C417.261 315.702 417.441 315.028 417.801 314.417C418.161 313.806 418.655 313.328 419.282 312.983C419.908 312.623 420.598 312.443 421.35 312.443C422.603 312.443 423.598 312.874 424.334 313.735C425.07 314.581 425.439 315.756 425.439 317.26H422.619C422.619 316.555 422.509 316.046 422.29 315.733C422.086 315.42 421.773 315.263 421.35 315.263C421.005 315.263 420.707 315.373 420.457 315.592C420.206 315.796 420.081 316.078 420.081 316.438C420.081 317.065 420.214 317.582 420.48 317.989C420.762 318.396 421.193 318.717 421.773 318.952L422.407 319.258C422.971 319.524 423.324 319.704 423.465 319.798C424.217 320.253 424.749 320.825 425.063 321.514C425.376 322.188 425.533 323.041 425.533 324.075C425.533 324.89 425.352 325.626 424.992 326.284C424.647 326.927 424.162 327.428 423.535 327.788C422.908 328.149 422.196 328.329 421.397 328.329ZM433.079 326.754C432.844 327.224 432.538 327.593 432.162 327.859C431.802 328.125 431.254 328.259 430.517 328.259C429.797 328.259 429.154 328.071 428.59 327.694C428.026 327.303 427.58 326.77 427.251 326.096C426.937 325.407 426.781 324.616 426.781 323.723C426.781 323.441 426.804 323.135 426.851 322.806C427.008 321.459 427.572 320.394 428.543 319.61C429.53 318.827 430.807 318.435 432.374 318.435H432.938V316.179C432.938 315.678 432.859 315.271 432.703 314.957C432.546 314.644 432.233 314.487 431.763 314.487C431.293 314.487 430.964 314.628 430.776 314.91C430.603 315.192 430.502 315.592 430.47 316.109V317.049H427.392V316.085C427.47 314.957 427.901 314.064 428.684 313.406C429.468 312.733 430.525 312.396 431.857 312.396C433.361 312.396 434.457 312.717 435.147 313.359C435.852 313.986 436.212 314.871 436.228 316.015V328H433.079V326.754ZM432.327 320.362C431.418 320.362 430.799 320.613 430.47 321.114C430.141 321.616 429.977 322.329 429.977 323.253C429.977 324.036 430.094 324.679 430.329 325.18C430.564 325.666 430.932 325.908 431.434 325.908C431.982 325.908 432.374 325.713 432.609 325.321C432.859 324.929 432.985 324.279 432.985 323.37V320.362H432.327ZM442.483 324.263C442.483 324.53 442.577 324.757 442.765 324.945C442.953 325.133 443.173 325.227 443.423 325.227H445.538V328H442.154C441.371 328 440.697 327.726 440.133 327.177C439.585 326.629 439.311 325.955 439.311 325.156V315.545H437.172V312.725H439.311V309.529H442.483V312.725H445.209V315.545H442.483V324.263ZM449.382 310.375C448.833 310.375 448.356 310.187 447.948 309.811C447.557 309.419 447.361 308.941 447.361 308.377C447.361 307.813 447.557 307.336 447.948 306.944C448.356 306.537 448.833 306.333 449.382 306.333C449.93 306.333 450.408 306.537 450.815 306.944C451.223 307.336 451.426 307.813 451.426 308.377C451.426 308.941 451.223 309.419 450.815 309.811C450.424 310.187 449.946 310.375 449.382 310.375ZM450.839 312.725V328H447.784V312.725H450.839ZM458.483 312.396C460.081 312.396 461.295 312.835 462.125 313.712C462.956 314.574 463.371 315.819 463.371 317.448V323.934C463.371 324.796 463.167 325.564 462.76 326.237C462.368 326.895 461.804 327.412 461.068 327.788C460.347 328.149 459.509 328.329 458.553 328.329C457.566 328.329 456.689 328.125 455.921 327.718C455.169 327.311 454.582 326.754 454.159 326.049C453.736 325.344 453.524 324.561 453.524 323.699V317.378C453.524 315.764 453.955 314.534 454.817 313.688C455.678 312.827 456.9 312.396 458.483 312.396ZM460.41 317.049C460.41 316.375 460.261 315.85 459.963 315.474C459.666 315.083 459.203 314.887 458.577 314.887C457.95 314.887 457.488 315.091 457.19 315.498C456.893 315.89 456.744 316.422 456.744 317.096V323.84C456.744 324.357 456.924 324.796 457.284 325.156C457.645 325.501 458.091 325.673 458.624 325.673C459.109 325.673 459.525 325.493 459.869 325.133C460.23 324.773 460.41 324.342 460.41 323.84V317.049ZM472.047 312.443C473.206 312.443 474.068 312.842 474.632 313.641C475.196 314.425 475.478 315.427 475.478 316.649V328H472.235V316.931C472.235 316.461 472.062 316.062 471.718 315.733C471.389 315.404 470.981 315.239 470.496 315.239C469.979 315.239 469.548 315.404 469.203 315.733C468.874 316.062 468.71 316.461 468.71 316.931V328H465.49V312.725H468.78V314.534C468.968 313.986 469.328 313.5 469.861 313.077C470.409 312.654 471.138 312.443 472.047 312.443Z" fill="black"/>
<line x1="295.435" y1="303" x2="295.435" y2="335" stroke="black" stroke-width="0.870068"/>
<rect x="281" y="441" width="241" height="58" rx="2" fill="#FFDA69"/>
<path d="M317.479 474.501C317.479 475.331 317.306 476.115 316.962 476.851C316.633 477.572 316.155 478.206 315.528 478.754L316.609 480.517L314.729 481.622L313.648 479.812C312.959 480.141 312.309 480.306 311.698 480.306C310.632 480.306 309.653 480.047 308.76 479.53C307.883 478.997 307.186 478.292 306.669 477.415C306.152 476.522 305.893 475.551 305.893 474.501V465.594C305.893 464.529 306.152 463.55 306.669 462.657C307.186 461.764 307.883 461.059 308.76 460.542C309.653 460.009 310.632 459.743 311.698 459.743C312.747 459.743 313.711 460.009 314.588 460.542C315.481 461.059 316.186 461.764 316.703 462.657C317.22 463.55 317.479 464.529 317.479 465.594V474.501ZM313.954 476.052C314.173 475.707 314.283 475.316 314.283 474.877V465.171C314.283 464.466 314.032 463.855 313.531 463.338C313.029 462.821 312.426 462.563 311.721 462.563C311 462.563 310.382 462.821 309.865 463.338C309.363 463.855 309.113 464.466 309.113 465.171V474.877C309.113 475.535 309.332 476.13 309.771 476.663C310.209 477.18 310.734 477.438 311.345 477.438C311.643 477.438 311.886 477.344 312.074 477.156L310.617 474.689L312.473 473.584L313.954 476.052ZM322.62 480.282C321.461 480.282 320.599 479.89 320.035 479.107C319.487 478.308 319.212 477.29 319.212 476.052V464.725H322.455V475.793C322.455 476.263 322.62 476.663 322.949 476.992C323.294 477.321 323.709 477.485 324.194 477.485C324.711 477.485 325.134 477.321 325.463 476.992C325.808 476.663 325.98 476.263 325.98 475.793V464.725H329.2V480H325.91V478.19C325.706 478.739 325.33 479.224 324.782 479.647C324.249 480.07 323.529 480.282 322.62 480.282ZM336.255 480.282C335.346 480.282 334.508 480.086 333.74 479.694C332.988 479.287 332.393 478.739 331.954 478.049C331.531 477.36 331.32 476.608 331.32 475.793V469.284C331.32 467.702 331.735 466.503 332.565 465.688C333.411 464.858 334.641 464.443 336.255 464.443C337.837 464.443 339.028 464.866 339.827 465.712C340.641 466.558 341.049 467.78 341.049 469.378V473.185H334.539V475.958C334.539 476.428 334.711 476.827 335.056 477.156C335.401 477.47 335.832 477.626 336.349 477.626C336.819 477.626 337.226 477.462 337.571 477.133C337.915 476.804 338.088 476.412 338.088 475.958V474.971H341.049V475.793C341.049 476.655 340.853 477.431 340.461 478.12C340.069 478.794 339.505 479.326 338.769 479.718C338.048 480.094 337.21 480.282 336.255 480.282ZM338.088 468.79C338.088 468.164 337.931 467.678 337.618 467.333C337.32 466.989 336.889 466.816 336.325 466.816C335.714 466.816 335.26 467.004 334.962 467.38C334.68 467.741 334.539 468.234 334.539 468.861V471.281H338.088V468.79ZM345.568 466.558C345.897 465.884 346.477 465.359 347.307 464.983C348.138 464.607 348.968 464.427 349.798 464.443V467.31C349.579 467.279 349.407 467.263 349.281 467.263C348.514 467.263 347.84 467.506 347.26 467.991C346.696 468.461 346.391 469.049 346.344 469.754V480H343.148V464.725H345.568V466.558ZM359.676 482.092C359.472 483.094 359.033 483.893 358.36 484.489C357.702 485.084 356.879 485.382 355.892 485.382H352.955V482.773H355.211C355.602 482.773 355.947 482.656 356.245 482.421C356.558 482.186 356.746 481.88 356.809 481.504L357.161 479.882H354.999L351.521 464.725H354.976L357.537 477.908L360.052 464.725H363.553L359.676 482.092ZM372.414 466.299C372.633 465.751 372.994 465.305 373.495 464.96C374.012 464.615 374.623 464.443 375.328 464.443C376.691 464.443 377.67 464.889 378.266 465.782C378.877 466.675 379.182 467.882 379.182 469.401V476.075C379.182 476.812 379.002 477.501 378.642 478.143C378.281 478.786 377.796 479.303 377.185 479.694C376.574 480.071 375.908 480.259 375.187 480.259C374.451 480.259 373.777 480.086 373.166 479.741C372.571 479.381 372.109 478.872 371.78 478.214V480H369.218V460.025H372.414V466.299ZM374.2 477.532C374.701 477.532 375.117 477.36 375.446 477.015C375.79 476.671 375.963 476.256 375.963 475.77V468.861C375.963 468.36 375.79 467.937 375.446 467.592C375.117 467.247 374.701 467.075 374.2 467.075C373.699 467.075 373.276 467.247 372.931 467.592C372.586 467.937 372.414 468.36 372.414 468.861V475.77C372.414 476.256 372.586 476.671 372.931 477.015C373.276 477.36 373.699 477.532 374.2 477.532ZM384.72 480.282C383.561 480.282 382.699 479.89 382.135 479.107C381.587 478.308 381.313 477.29 381.313 476.052V464.725H384.556V475.793C384.556 476.263 384.72 476.663 385.049 476.992C385.394 477.321 385.809 477.485 386.295 477.485C386.812 477.485 387.235 477.321 387.564 476.992C387.909 476.663 388.081 476.263 388.081 475.793V464.725H391.3V480H388.01V478.19C387.807 478.739 387.431 479.224 386.882 479.647C386.35 480.07 385.629 480.282 384.72 480.282ZM395.864 462.375C395.316 462.375 394.838 462.187 394.431 461.811C394.039 461.419 393.843 460.941 393.843 460.377C393.843 459.813 394.039 459.336 394.431 458.944C394.838 458.537 395.316 458.333 395.864 458.333C396.413 458.333 396.89 458.537 397.298 458.944C397.705 459.336 397.909 459.813 397.909 460.377C397.909 460.941 397.705 461.419 397.298 461.811C396.906 462.187 396.428 462.375 395.864 462.375ZM397.321 464.725V480H394.266V464.725H397.321ZM400.43 460.025H403.485V480H400.43V460.025ZM415.479 480H412.894V478.214C412.581 478.872 412.126 479.373 411.531 479.718C410.936 480.047 410.262 480.212 409.51 480.212C408.789 480.212 408.116 480.024 407.489 479.647C406.878 479.271 406.392 478.77 406.032 478.143C405.672 477.501 405.492 476.812 405.492 476.075V469.401C405.492 467.897 405.797 466.691 406.408 465.782C407.019 464.874 408.006 464.419 409.369 464.419C410.058 464.419 410.662 464.6 411.179 464.96C411.696 465.305 412.064 465.751 412.283 466.299V459.625H415.479V480ZM410.497 477.532C410.998 477.532 411.421 477.36 411.766 477.015C412.111 476.671 412.283 476.256 412.283 475.77V468.861C412.283 468.36 412.111 467.937 411.766 467.592C411.421 467.247 410.998 467.075 410.497 467.075C409.996 467.075 409.573 467.247 409.228 467.592C408.899 467.937 408.735 468.36 408.735 468.861V475.77C408.735 476.256 408.907 476.671 409.252 477.015C409.596 477.36 410.011 477.532 410.497 477.532ZM422.521 480.282C421.612 480.282 420.774 480.086 420.006 479.694C419.254 479.287 418.659 478.739 418.22 478.049C417.797 477.36 417.586 476.608 417.586 475.793V469.284C417.586 467.702 418.001 466.503 418.831 465.688C419.677 464.858 420.907 464.443 422.521 464.443C424.103 464.443 425.294 464.866 426.093 465.712C426.907 466.558 427.315 467.78 427.315 469.378V473.185H420.805V475.958C420.805 476.428 420.978 476.827 421.322 477.156C421.667 477.47 422.098 477.626 422.615 477.626C423.085 477.626 423.492 477.462 423.837 477.133C424.181 476.804 424.354 476.412 424.354 475.958V474.971H427.315V475.793C427.315 476.655 427.119 477.431 426.727 478.12C426.336 478.794 425.772 479.326 425.035 479.718C424.315 480.094 423.476 480.282 422.521 480.282ZM424.354 468.79C424.354 468.164 424.197 467.678 423.884 467.333C423.586 466.989 423.155 466.816 422.591 466.816C421.98 466.816 421.526 467.004 421.228 467.38C420.946 467.741 420.805 468.234 420.805 468.861V471.281H424.354V468.79ZM431.834 466.558C432.163 465.884 432.743 465.359 433.573 464.983C434.404 464.607 435.234 464.427 436.064 464.443V467.31C435.845 467.279 435.673 467.263 435.547 467.263C434.78 467.263 434.106 467.506 433.526 467.991C432.962 468.461 432.657 469.049 432.61 469.754V480H429.414V464.725H431.834V466.558Z" fill="black"/>
<line x1="295.435" y1="455" x2="295.435" y2="487" stroke="black" stroke-width="0.870068"/>
<rect x="281" y="365" width="241" height="58" rx="2" fill="#66A9F8"/>
<path d="M321.239 404H318.301V387.268L315.293 404H312.215L309.324 387.174V404H306.316V383.978H311.087L313.742 400.122L316.539 383.978H321.239V404ZM328.337 404.282C327.428 404.282 326.59 404.086 325.823 403.694C325.071 403.287 324.475 402.739 324.037 402.049C323.614 401.36 323.402 400.608 323.402 399.793V393.284C323.402 391.702 323.817 390.503 324.648 389.688C325.494 388.858 326.723 388.443 328.337 388.443C329.919 388.443 331.11 388.866 331.909 389.712C332.724 390.558 333.131 391.78 333.131 393.378V397.185H326.622V399.958C326.622 400.428 326.794 400.827 327.139 401.156C327.483 401.47 327.914 401.626 328.431 401.626C328.901 401.626 329.308 401.462 329.653 401.133C329.998 400.804 330.17 400.412 330.17 399.958V398.971H333.131V399.793C333.131 400.655 332.935 401.431 332.544 402.12C332.152 402.794 331.588 403.326 330.852 403.718C330.131 404.094 329.293 404.282 328.337 404.282ZM330.17 392.79C330.17 392.164 330.013 391.678 329.7 391.333C329.402 390.989 328.972 390.816 328.408 390.816C327.797 390.816 327.342 391.004 327.045 391.38C326.763 391.741 326.622 392.234 326.622 392.861V395.281H330.17V392.79ZM339.395 400.263C339.395 400.53 339.489 400.757 339.677 400.945C339.865 401.133 340.085 401.227 340.335 401.227H342.45V404H339.066C338.283 404 337.609 403.726 337.045 403.177C336.497 402.629 336.223 401.955 336.223 401.156V391.545H334.084V388.725H336.223V385.529H339.395V388.725H342.121V391.545H339.395V400.263ZM346.67 390.558C346.999 389.884 347.579 389.359 348.409 388.983C349.239 388.607 350.07 388.427 350.9 388.443V391.31C350.681 391.279 350.508 391.263 350.383 391.263C349.615 391.263 348.942 391.506 348.362 391.991C347.798 392.461 347.492 393.049 347.445 393.754V404H344.249V388.725H346.67V390.558ZM354.418 386.375C353.87 386.375 353.392 386.187 352.984 385.811C352.593 385.419 352.397 384.941 352.397 384.377C352.397 383.813 352.593 383.336 352.984 382.944C353.392 382.537 353.87 382.333 354.418 382.333C354.966 382.333 355.444 382.537 355.851 382.944C356.259 383.336 356.462 383.813 356.462 384.377C356.462 384.941 356.259 385.419 355.851 385.811C355.46 386.187 354.982 386.375 354.418 386.375ZM355.875 388.725V404H352.82V388.725H355.875ZM363.589 404.329C362.602 404.329 361.725 404.125 360.957 403.718C360.205 403.311 359.618 402.754 359.195 402.049C358.772 401.344 358.56 400.561 358.56 399.699V393.378C358.56 391.764 358.991 390.534 359.853 389.688C360.715 388.827 361.937 388.396 363.519 388.396C365.117 388.396 366.331 388.835 367.161 389.712C367.992 390.574 368.407 391.819 368.407 393.448V394.365H365.446V393.072C365.446 392.399 365.297 391.866 364.999 391.474C364.702 391.083 364.24 390.887 363.613 390.887C362.986 390.887 362.524 391.091 362.226 391.498C361.929 391.905 361.78 392.446 361.78 393.119V399.817C361.78 400.334 361.96 400.773 362.32 401.133C362.681 401.493 363.127 401.673 363.66 401.673C364.161 401.673 364.584 401.493 364.929 401.133C365.274 400.773 365.446 400.334 365.446 399.817V398.571H368.407V399.934C368.407 400.796 368.203 401.564 367.796 402.237C367.404 402.895 366.84 403.412 366.104 403.788C365.383 404.149 364.545 404.329 363.589 404.329ZM373.961 404.329C373.193 404.329 372.488 404.141 371.846 403.765C371.219 403.389 370.725 402.88 370.365 402.237C370.005 401.579 369.825 400.859 369.825 400.075V399.629H372.645V400.075C372.645 400.389 372.754 400.702 372.974 401.015C373.193 401.313 373.522 401.462 373.961 401.462C374.431 401.462 374.767 401.329 374.971 401.062C375.175 400.796 375.277 400.467 375.277 400.075C375.277 399.558 375.222 399.159 375.112 398.877C375.002 398.579 374.807 398.344 374.525 398.172C374.399 398.078 374.188 397.976 373.89 397.866C373.608 397.741 373.42 397.663 373.326 397.631C372.135 397.146 371.25 396.449 370.671 395.54C370.107 394.616 369.825 393.582 369.825 392.438C369.825 391.702 370.005 391.028 370.365 390.417C370.725 389.806 371.219 389.328 371.846 388.983C372.472 388.623 373.162 388.443 373.914 388.443C375.167 388.443 376.162 388.874 376.898 389.735C377.634 390.581 378.003 391.756 378.003 393.26H375.183C375.183 392.555 375.073 392.046 374.854 391.733C374.65 391.42 374.337 391.263 373.914 391.263C373.569 391.263 373.271 391.373 373.021 391.592C372.77 391.796 372.645 392.078 372.645 392.438C372.645 393.065 372.778 393.582 373.044 393.989C373.326 394.396 373.757 394.717 374.337 394.952L374.971 395.258C375.535 395.524 375.888 395.704 376.029 395.798C376.781 396.253 377.313 396.825 377.627 397.514C377.94 398.188 378.097 399.041 378.097 400.075C378.097 400.89 377.916 401.626 377.556 402.284C377.211 402.927 376.726 403.428 376.099 403.788C375.472 404.149 374.76 404.329 373.961 404.329ZM387.019 404.329C386.251 404.329 385.546 404.141 384.904 403.765C384.277 403.389 383.784 402.88 383.423 402.237C383.063 401.579 382.883 400.859 382.883 400.075V399.629H385.703V400.075C385.703 400.389 385.812 400.702 386.032 401.015C386.251 401.313 386.58 401.462 387.019 401.462C387.489 401.462 387.826 401.329 388.029 401.062C388.233 400.796 388.335 400.467 388.335 400.075C388.335 399.558 388.28 399.159 388.17 398.877C388.061 398.579 387.865 398.344 387.583 398.172C387.457 398.078 387.246 397.976 386.948 397.866C386.666 397.741 386.478 397.663 386.384 397.631C385.194 397.146 384.308 396.449 383.729 395.54C383.165 394.616 382.883 393.582 382.883 392.438C382.883 391.702 383.063 391.028 383.423 390.417C383.784 389.806 384.277 389.328 384.904 388.983C385.53 388.623 386.22 388.443 386.972 388.443C388.225 388.443 389.22 388.874 389.956 389.735C390.693 390.581 391.061 391.756 391.061 393.26H388.241C388.241 392.555 388.131 392.046 387.912 391.733C387.708 391.42 387.395 391.263 386.972 391.263C386.627 391.263 386.329 391.373 386.079 391.592C385.828 391.796 385.703 392.078 385.703 392.438C385.703 393.065 385.836 393.582 386.102 393.989C386.384 394.396 386.815 394.717 387.395 394.952L388.029 395.258C388.593 395.524 388.946 395.704 389.087 395.798C389.839 396.253 390.371 396.825 390.685 397.514C390.998 398.188 391.155 399.041 391.155 400.075C391.155 400.89 390.975 401.626 390.614 402.284C390.27 402.927 389.784 403.428 389.157 403.788C388.531 404.149 387.818 404.329 387.019 404.329ZM397.457 400.263C397.457 400.53 397.551 400.757 397.739 400.945C397.927 401.133 398.146 401.227 398.397 401.227H400.512V404H397.128C396.345 404 395.671 403.726 395.107 403.177C394.559 402.629 394.284 401.955 394.284 401.156V391.545H392.146V388.725H394.284V385.529H397.457V388.725H400.183V391.545H397.457V400.263ZM406.663 388.396C408.261 388.396 409.476 388.835 410.306 389.712C411.136 390.574 411.551 391.819 411.551 393.448V399.934C411.551 400.796 411.348 401.564 410.94 402.237C410.549 402.895 409.985 403.412 409.248 403.788C408.528 404.149 407.69 404.329 406.734 404.329C405.747 404.329 404.87 404.125 404.102 403.718C403.35 403.311 402.762 402.754 402.339 402.049C401.916 401.344 401.705 400.561 401.705 399.699V393.378C401.705 391.764 402.136 390.534 402.997 389.688C403.859 388.827 405.081 388.396 406.663 388.396ZM408.59 393.049C408.59 392.375 408.442 391.85 408.144 391.474C407.846 391.083 407.384 390.887 406.757 390.887C406.131 390.887 405.669 391.091 405.371 391.498C405.073 391.89 404.924 392.422 404.924 393.096V399.84C404.924 400.357 405.105 400.796 405.465 401.156C405.825 401.501 406.272 401.673 406.804 401.673C407.29 401.673 407.705 401.493 408.05 401.133C408.41 400.773 408.59 400.342 408.59 399.84V393.049ZM416.091 390.558C416.42 389.884 417 389.359 417.83 388.983C418.661 388.607 419.491 388.427 420.321 388.443V391.31C420.102 391.279 419.93 391.263 419.804 391.263C419.037 391.263 418.363 391.506 417.783 391.991C417.219 392.461 416.914 393.049 416.867 393.754V404H413.671V388.725H416.091V390.558ZM425.917 404.282C425.009 404.282 424.17 404.086 423.403 403.694C422.651 403.287 422.055 402.739 421.617 402.049C421.194 401.36 420.982 400.608 420.982 399.793V393.284C420.982 391.702 421.397 390.503 422.228 389.688C423.074 388.858 424.304 388.443 425.917 388.443C427.5 388.443 428.69 388.866 429.489 389.712C430.304 390.558 430.711 391.78 430.711 393.378V397.185H424.202V399.958C424.202 400.428 424.374 400.827 424.719 401.156C425.063 401.47 425.494 401.626 426.011 401.626C426.481 401.626 426.889 401.462 427.233 401.133C427.578 400.804 427.75 400.412 427.75 399.958V398.971H430.711V399.793C430.711 400.655 430.515 401.431 430.124 402.12C429.732 402.794 429.168 403.326 428.432 403.718C427.711 404.094 426.873 404.282 425.917 404.282ZM427.75 392.79C427.75 392.164 427.594 391.678 427.28 391.333C426.983 390.989 426.552 390.816 425.988 390.816C425.377 390.816 424.922 391.004 424.625 391.38C424.343 391.741 424.202 392.234 424.202 392.861V395.281H427.75V392.79Z" fill="black"/>
<line x1="295.435" y1="379" x2="295.435" y2="411" stroke="black" stroke-width="0.870068"/>
<path opacity="0.7" d="M144 280C187.232 280 218 470.298 255 470.298" stroke="#FFDA69" stroke-width="10" stroke-linecap="square" stroke-linejoin="round"/>
<path opacity="0.7" d="M144 280C187.232 280 218 470.298 255 470.298" stroke="#FFDA69" stroke-linecap="square" stroke-linejoin="round"/>
</svg>
