<svg width="560" height="560" viewBox="0 0 560 560" fill="none" xmlns="http://www.w3.org/2000/svg">
<mask id="mask0_2300_23987" style="mask-type:alpha" maskUnits="userSpaceOnUse" x="0" y="0" width="560" height="560">
<rect width="560" height="560" rx="2" fill="#3E3F41"/>
</mask>
<g mask="url(#mask0_2300_23987)">
<rect width="560" height="560" rx="2" fill="#262627"/>
</g>
<rect x="81" y="158" width="397" height="244" rx="2" fill="black"/>
<path d="M249.746 364.2H245.504V366.118L247.898 366.132V374H249.746V364.2ZM263.406 366.832C262.342 366.832 261.39 367.406 261.04 368.218C260.732 367.406 259.85 366.832 258.856 366.832C257.89 366.832 257.022 367.336 256.658 368.05V367H254.866V374H256.7V369.982C256.7 369.156 257.232 368.47 258.072 368.47C258.828 368.47 259.444 369.1 259.444 369.982V374H261.264V369.982C261.264 369.156 261.824 368.47 262.664 368.47C263.42 368.47 264.008 369.1 264.008 369.982V374H265.842V369.492C265.842 367.98 264.834 366.832 263.406 366.832ZM271.078 374.168C273.332 374.168 274.872 372.628 274.872 370.43C274.872 368.316 273.36 366.832 271.12 366.832C268.838 366.832 267.284 368.316 267.284 370.43C267.284 372.656 268.81 374.168 271.078 374.168ZM271.078 372.6C269.916 372.6 269.132 371.732 269.132 370.472C269.132 369.212 269.944 368.358 271.12 368.358C272.254 368.358 273.038 369.226 273.038 370.472C273.038 371.732 272.24 372.6 271.078 372.6ZM280.46 366.832C279.48 366.832 278.57 367.322 278.164 368.106V367H276.386V374H278.206L278.192 369.954C278.192 369.128 278.864 368.47 279.676 368.47C280.502 368.47 281.146 369.128 281.146 369.954V374H282.98V369.324C282.98 367.938 281.86 366.832 280.46 366.832ZM287.049 374H289.205V372.362H287.413C287.301 372.362 287.231 372.292 287.231 372.18V368.61H289.191V367H287.231V364.76H285.397V367H284.067V368.61H285.397V372.334C285.397 373.258 286.125 374 287.049 374ZM294.747 366.86C293.725 366.86 292.829 367.28 292.493 367.924V364.2H290.673V374H292.493V369.954C292.493 369.03 293.137 368.344 294.033 368.344C294.845 368.344 295.461 368.974 295.461 369.828V374H297.281V369.366C297.281 367.896 296.231 366.86 294.747 366.86Z" fill="white"/>
<path d="M456.196 286.204C456.196 284.342 455.37 282.788 453.732 281.99L452.78 283.516C453.788 284.02 454.432 285 454.432 286.204C454.432 288.192 452.976 289.34 451.114 289.34C449.238 289.34 447.796 288.15 447.796 286.204C447.796 285.014 448.454 284.034 449.42 283.53L448.51 281.99C446.942 282.844 446.018 284.342 446.018 286.204C446.018 289.41 448.272 291.3 451.114 291.3C453.942 291.3 456.196 289.48 456.196 286.204ZM454.082 274.814L456 274.072L456 272.07L446.2 275.934L446.2 277.922L456 281.674L456 279.658L454.082 278.944L454.082 274.814ZM452.458 275.388L452.458 278.342L448.048 276.872L452.458 275.388ZM456.196 266.599C456.196 264.737 455.37 263.183 453.732 262.385L452.78 263.911C453.788 264.415 454.432 265.395 454.432 266.599C454.432 268.587 452.976 269.735 451.114 269.735C449.238 269.735 447.796 268.545 447.796 266.599C447.796 265.409 448.454 264.429 449.42 263.925L448.51 262.385C446.942 263.239 446.018 264.737 446.018 266.599C446.018 269.805 448.272 271.695 451.114 271.695C453.942 271.695 456.196 269.875 456.196 266.599Z" fill="white"/>
<path d="M116.75 279.286L116.75 283.962L108.7 283.962L108.7 285.852L118.5 285.852L118.5 279.286L116.75 279.286ZM110.45 277.311L118.5 277.311L118.5 275.435L110.45 275.435L110.45 272.411L108.7 272.411L108.7 280.349L110.45 280.349L110.45 277.311ZM108.7 262.36L108.7 264.39L116.288 267.008L108.7 269.654L108.7 271.684L118.5 268.114L118.5 265.902L108.7 262.36Z" fill="white"/>
<path d="M121.006 210.252C120.068 210.252 119.2 210.021 118.402 209.559C117.618 209.097 116.988 208.474 116.512 207.69C116.05 206.892 115.819 206.024 115.819 205.086V197.064C115.819 196.126 116.05 195.265 116.512 194.481C116.988 193.683 117.618 193.053 118.402 192.591C119.2 192.129 120.068 191.898 121.006 191.898C121.958 191.898 122.826 192.129 123.61 192.591C124.408 193.053 125.031 193.676 125.479 194.46C125.941 195.244 126.172 196.112 126.172 197.064V198.492H123.337V196.707C123.337 196.077 123.106 195.538 122.644 195.09C122.196 194.628 121.65 194.397 121.006 194.397C120.376 194.397 119.837 194.628 119.389 195.09C118.955 195.538 118.738 196.077 118.738 196.707V205.443C118.738 206.073 118.955 206.619 119.389 207.081C119.837 207.529 120.376 207.753 121.006 207.753C121.65 207.753 122.196 207.529 122.644 207.081C123.106 206.619 123.337 206.073 123.337 205.443V203.553H126.172V205.086C126.172 206.024 125.941 206.892 125.479 207.69C125.031 208.474 124.408 209.097 123.61 209.559C122.826 210.021 121.958 210.252 121.006 210.252ZM134.612 205.275H130.538L129.509 210H126.716L130.643 192.15H134.549L138.539 210H135.704L134.612 205.275ZM134.171 202.839L132.596 194.628L131.021 202.839H134.171ZM144.139 210.252C143.201 210.252 142.333 210.021 141.535 209.559C140.751 209.097 140.121 208.474 139.645 207.69C139.183 206.892 138.952 206.024 138.952 205.086V197.064C138.952 196.126 139.183 195.265 139.645 194.481C140.121 193.683 140.751 193.053 141.535 192.591C142.333 192.129 143.201 191.898 144.139 191.898C145.091 191.898 145.959 192.129 146.743 192.591C147.541 193.053 148.164 193.676 148.612 194.46C149.074 195.244 149.305 196.112 149.305 197.064V198.492H146.47V196.707C146.47 196.077 146.239 195.538 145.777 195.09C145.329 194.628 144.783 194.397 144.139 194.397C143.509 194.397 142.97 194.628 142.522 195.09C142.088 195.538 141.871 196.077 141.871 196.707V205.443C141.871 206.073 142.088 206.619 142.522 207.081C142.97 207.529 143.509 207.753 144.139 207.753C144.783 207.753 145.329 207.529 145.777 207.081C146.239 206.619 146.47 206.073 146.47 205.443V203.553H149.305V205.086C149.305 206.024 149.074 206.892 148.612 207.69C148.164 208.474 147.541 209.097 146.743 209.559C145.959 210.021 145.091 210.252 144.139 210.252ZM162.495 208.11C161.949 208.852 161.368 209.398 160.752 209.748C160.136 210.098 159.338 210.273 158.358 210.273C156.888 210.273 155.754 209.853 154.956 209.013C154.158 208.159 153.759 207.004 153.759 205.548C153.759 204.582 153.962 203.749 154.368 203.049C154.788 202.335 155.502 201.628 156.51 200.928C155.992 200.228 155.593 199.57 155.313 198.954C155.047 198.338 154.914 197.652 154.914 196.896C154.914 196.182 155.061 195.517 155.355 194.901C155.663 194.271 156.125 193.76 156.741 193.368C157.371 192.976 158.148 192.78 159.072 192.78C159.954 192.78 160.696 192.955 161.298 193.305C161.914 193.641 162.376 194.103 162.684 194.691C162.992 195.265 163.146 195.902 163.146 196.602C163.146 197.582 162.915 198.408 162.453 199.08C161.991 199.752 161.249 200.41 160.227 201.054L162.453 203.784L164.595 199.815H167.493L164.091 205.695L167.745 210.042H164.049L162.495 208.11ZM159.093 194.901C158.645 194.901 158.302 195.069 158.064 195.405C157.84 195.741 157.728 196.189 157.728 196.749C157.728 197.225 157.826 197.68 158.022 198.114C158.218 198.548 158.519 199.017 158.925 199.521C159.541 199.045 159.947 198.597 160.143 198.177C160.339 197.757 160.437 197.253 160.437 196.665C160.437 195.489 159.989 194.901 159.093 194.901ZM158.694 207.9C159.156 207.9 159.541 207.781 159.849 207.543C160.171 207.305 160.521 206.878 160.899 206.262L157.896 202.545C157.462 202.951 157.154 203.371 156.972 203.805C156.79 204.225 156.699 204.715 156.699 205.275C156.699 206.101 156.867 206.745 157.203 207.207C157.553 207.669 158.05 207.9 158.694 207.9ZM172.244 210V192.15H175.1V207.501H180.623V210H172.244ZM188.43 194.67H184.902V210H182.046V194.67H178.434V192.15H188.43V194.67ZM192.542 210L189.245 192.15H192.206L194.663 208.047L197.204 192.15H200.165L196.763 210H192.542ZM208.166 196.056C209.594 196.056 210.679 196.448 211.421 197.232C212.163 198.002 212.534 199.115 212.534 200.571V206.367C212.534 207.137 212.352 207.823 211.988 208.425C211.638 209.013 211.134 209.475 210.476 209.811C209.832 210.133 209.083 210.294 208.229 210.294C207.347 210.294 206.563 210.112 205.877 209.748C205.205 209.384 204.68 208.887 204.302 208.257C203.924 207.627 203.735 206.927 203.735 206.157V200.508C203.735 199.066 204.12 197.967 204.89 197.211C205.66 196.441 206.752 196.056 208.166 196.056ZM209.888 200.214C209.888 199.612 209.755 199.143 209.489 198.807C209.223 198.457 208.81 198.282 208.25 198.282C207.69 198.282 207.277 198.464 207.011 198.828C206.745 199.178 206.612 199.654 206.612 200.256V206.283C206.612 206.745 206.773 207.137 207.095 207.459C207.417 207.767 207.816 207.921 208.292 207.921C208.726 207.921 209.097 207.76 209.405 207.438C209.727 207.116 209.888 206.731 209.888 206.283V200.214ZM216.346 210L213.217 196.266H216.346L218.593 208.299L220.861 196.266H223.969L220.861 210H216.346ZM229.042 210.252C228.23 210.252 227.481 210.077 226.795 209.727C226.123 209.363 225.591 208.873 225.199 208.257C224.821 207.641 224.632 206.969 224.632 206.241V200.424C224.632 199.01 225.003 197.939 225.745 197.211C226.501 196.469 227.6 196.098 229.042 196.098C230.456 196.098 231.52 196.476 232.234 197.232C232.962 197.988 233.326 199.08 233.326 200.508V203.91H227.509V206.388C227.509 206.808 227.663 207.165 227.971 207.459C228.279 207.739 228.664 207.879 229.126 207.879C229.546 207.879 229.91 207.732 230.218 207.438C230.526 207.144 230.68 206.794 230.68 206.388V205.506H233.326V206.241C233.326 207.011 233.151 207.704 232.801 208.32C232.451 208.922 231.947 209.398 231.289 209.748C230.645 210.084 229.896 210.252 229.042 210.252ZM230.68 199.983C230.68 199.423 230.54 198.989 230.26 198.681C229.994 198.373 229.609 198.219 229.105 198.219C228.559 198.219 228.153 198.387 227.887 198.723C227.635 199.045 227.509 199.486 227.509 200.046V202.209H230.68V199.983ZM237.365 197.988C237.659 197.386 238.177 196.917 238.919 196.581C239.661 196.245 240.403 196.084 241.145 196.098V198.66C240.949 198.632 240.795 198.618 240.683 198.618C239.997 198.618 239.395 198.835 238.877 199.269C238.373 199.689 238.1 200.214 238.058 200.844V210H235.202V196.35H237.365V197.988ZM249.116 206.661C249.116 206.899 249.2 207.102 249.368 207.27C249.536 207.438 249.732 207.522 249.956 207.522H251.846V210H248.822C248.122 210 247.52 209.755 247.016 209.265C246.526 208.775 246.281 208.173 246.281 207.459V198.87H244.37V196.35H246.281V193.494H249.116V196.35H251.552V198.87H249.116V206.661ZM255.281 194.25C254.791 194.25 254.364 194.082 254 193.746C253.65 193.396 253.475 192.969 253.475 192.465C253.475 191.961 253.65 191.534 254 191.184C254.364 190.82 254.791 190.638 255.281 190.638C255.771 190.638 256.198 190.82 256.562 191.184C256.926 191.534 257.108 191.961 257.108 192.465C257.108 192.969 256.926 193.396 256.562 193.746C256.212 194.082 255.785 194.25 255.281 194.25ZM256.583 196.35V210H253.853V196.35H256.583ZM269.462 196.098C270.736 196.098 271.716 196.427 272.402 197.085C273.088 197.729 273.431 198.66 273.431 199.878V210H270.617V199.689C270.617 199.311 270.477 198.996 270.197 198.744C269.917 198.478 269.574 198.345 269.168 198.345C268.79 198.345 268.454 198.478 268.16 198.744C267.88 198.996 267.74 199.311 267.74 199.689V210H264.926L264.905 199.647C264.905 199.283 264.772 198.975 264.506 198.723C264.24 198.457 263.911 198.324 263.519 198.324C263.141 198.324 262.812 198.457 262.532 198.723C262.266 198.975 262.133 199.283 262.133 199.647V210H259.34V196.35H261.314V197.484C261.51 197.05 261.825 196.714 262.259 196.476C262.693 196.224 263.176 196.098 263.708 196.098C264.338 196.098 264.912 196.266 265.43 196.602C265.948 196.938 266.256 197.379 266.354 197.925C266.564 197.323 266.991 196.868 267.635 196.56C268.293 196.252 268.902 196.098 269.462 196.098ZM279.389 210.252C278.577 210.252 277.828 210.077 277.142 209.727C276.47 209.363 275.938 208.873 275.546 208.257C275.168 207.641 274.979 206.969 274.979 206.241V200.424C274.979 199.01 275.35 197.939 276.092 197.211C276.848 196.469 277.947 196.098 279.389 196.098C280.803 196.098 281.867 196.476 282.581 197.232C283.309 197.988 283.673 199.08 283.673 200.508V203.91H277.856V206.388C277.856 206.808 278.01 207.165 278.318 207.459C278.626 207.739 279.011 207.879 279.473 207.879C279.893 207.879 280.257 207.732 280.565 207.438C280.873 207.144 281.027 206.794 281.027 206.388V205.506H283.673V206.241C283.673 207.011 283.498 207.704 283.148 208.32C282.798 208.922 282.294 209.398 281.636 209.748C280.992 210.084 280.243 210.252 279.389 210.252ZM281.027 199.983C281.027 199.423 280.887 198.989 280.607 198.681C280.341 198.373 279.956 198.219 279.452 198.219C278.906 198.219 278.5 198.387 278.234 198.723C277.982 199.045 277.856 199.486 277.856 200.046V202.209H281.027V199.983Z" fill="white"/>
<rect x="161.896" y="300.113" width="36.637" height="35.8871" rx="2" fill="#4DE390"/>
<rect x="203.989" y="277.146" width="36.637" height="58.8548" rx="2" fill="#4DE390"/>
<rect x="246.082" y="321.646" width="36.637" height="14.3548" rx="2" fill="#4DE390"/>
<rect x="288.176" y="247" width="36.637" height="89" rx="2" fill="#4DE390"/>
<rect x="330.27" y="277.146" width="36.637" height="58.8548" rx="2" fill="#4DE390"/>
<rect x="372.363" y="292.936" width="36.637" height="43.0645" rx="2" fill="#4DE390"/>
<path d="M161 268L177.116 283L221.433 261.5L264.856 305.5L304.697 280.5L349.462 261.5L391.094 283L408.552 273" stroke="white"/>
<path d="M478 119L482.845 139.918L497.5 124.225L491.237 144.763L511.775 138.5L496.082 153.155L517 158L496.082 162.845L511.775 177.5L491.237 171.237L497.5 191.775L482.845 176.082L478 197L473.155 176.082L458.5 191.775L464.763 171.237L444.225 177.5L459.918 162.845L439 158L459.918 153.155L444.225 138.5L464.763 144.763L458.5 124.225L473.155 139.918L478 119Z" fill="#0070F4"/>
</svg>
