<svg width="560" height="560" viewBox="0 0 560 560" fill="none" xmlns="http://www.w3.org/2000/svg">
<rect width="560" height="560" rx="2" fill="#262627"/>
<rect x="61.8447" y="128.355" width="436.723" height="49.5187" rx="1.78105" fill="white"/>
<rect opacity="0.5" x="72.3877" y="137.301" width="56.5471" height="31.9475" rx="4.79213" fill="#99C5FA"/>
<path d="M88.8295 152.961C88.8295 153.953 88.648 154.806 88.2849 155.52C87.9219 156.231 87.4242 156.778 86.7919 157.163C86.1627 157.544 85.4472 157.734 84.6455 157.734C83.8407 157.734 83.1222 157.544 82.4899 157.163C81.8606 156.778 81.3645 156.229 81.0015 155.515C80.6384 154.801 80.4569 153.95 80.4569 152.961C80.4569 151.968 80.6384 151.117 81.0015 150.406C81.3645 149.692 81.8606 149.144 82.4899 148.763C83.1222 148.379 83.8407 148.187 84.6455 148.187C85.4472 148.187 86.1627 148.379 86.7919 148.763C87.4242 149.144 87.9219 149.692 88.2849 150.406C88.648 151.117 88.8295 151.968 88.8295 152.961ZM87.4409 152.961C87.4409 152.204 87.3183 151.567 87.0733 151.05C86.8313 150.53 86.4985 150.136 86.0749 149.87C85.6544 149.601 85.1779 149.466 84.6455 149.466C84.11 149.466 83.632 149.601 83.2115 149.87C82.7909 150.136 82.4582 150.53 82.2131 151.05C81.9711 151.567 81.8501 152.204 81.8501 152.961C81.8501 153.717 81.9711 154.355 82.2131 154.876C82.4582 155.393 82.7909 155.786 83.2115 156.055C83.632 156.322 84.11 156.455 84.6455 156.455C85.1779 156.455 85.6544 156.322 86.0749 156.055C86.4985 155.786 86.8313 155.393 87.0733 154.876C87.3183 154.355 87.4409 153.717 87.4409 152.961ZM90.4689 157.607V150.637H91.7803V151.744H91.8529C91.98 151.369 92.2039 151.074 92.5246 150.859C92.8483 150.642 93.2143 150.533 93.6228 150.533C93.7075 150.533 93.8073 150.536 93.9223 150.542C94.0403 150.548 94.1325 150.555 94.1991 150.564V151.862C94.1446 151.847 94.0478 151.831 93.9087 151.812C93.7695 151.791 93.6303 151.781 93.4912 151.781C93.1705 151.781 92.8846 151.849 92.6335 151.985C92.3854 152.118 92.1888 152.304 92.0435 152.543C91.8983 152.779 91.8257 153.048 91.8257 153.351V157.607H90.4689ZM97.7331 157.744C97.1703 157.744 96.6681 157.6 96.2264 157.312C95.7878 157.022 95.4429 156.609 95.1918 156.074C94.9437 155.535 94.8197 154.889 94.8197 154.136C94.8197 153.383 94.9452 152.738 95.1963 152.203C95.4504 151.667 95.7984 151.257 96.2401 150.973C96.6818 150.688 97.1824 150.546 97.7421 150.546C98.1748 150.546 98.5227 150.619 98.7859 150.764C99.0521 150.906 99.2578 151.073 99.403 151.263C99.5513 151.454 99.6662 151.622 99.7479 151.767H99.8296V148.314H101.186V157.607H99.8614V156.523H99.7479C99.6662 156.671 99.5483 156.84 99.394 157.031C99.2427 157.222 99.034 157.388 98.7677 157.53C98.5015 157.672 98.1566 157.744 97.7331 157.744ZM98.0326 156.586C98.4228 156.586 98.7526 156.484 99.0219 156.278C99.2941 156.069 99.4999 155.78 99.639 155.411C99.7812 155.042 99.8523 154.612 99.8523 154.122C99.8523 153.638 99.7827 153.215 99.6436 152.852C99.5044 152.489 99.3002 152.206 99.0309 152.003C98.7617 151.8 98.4289 151.699 98.0326 151.699C97.6241 151.699 97.2838 151.805 97.0115 152.017C96.7392 152.228 96.5335 152.517 96.3943 152.883C96.2582 153.249 96.1901 153.662 96.1901 154.122C96.1901 154.588 96.2597 155.007 96.3989 155.379C96.5381 155.751 96.7438 156.046 97.0161 156.264C97.2914 156.479 97.6302 156.586 98.0326 156.586ZM106.127 157.748C105.44 157.748 104.849 157.601 104.353 157.308C103.86 157.011 103.479 156.595 103.209 156.06C102.943 155.521 102.81 154.891 102.81 154.168C102.81 153.454 102.943 152.824 103.209 152.28C103.479 151.735 103.854 151.31 104.335 151.005C104.819 150.699 105.385 150.546 106.032 150.546C106.425 150.546 106.806 150.611 107.176 150.741C107.545 150.872 107.876 151.076 108.169 151.354C108.463 151.632 108.694 151.994 108.864 152.439C109.033 152.88 109.118 153.417 109.118 154.05V154.531H103.577V153.514H107.788C107.788 153.157 107.716 152.841 107.57 152.566C107.425 152.287 107.221 152.068 106.958 151.908C106.697 151.747 106.392 151.667 106.041 151.667C105.66 151.667 105.327 151.761 105.043 151.949C104.761 152.133 104.543 152.375 104.389 152.675C104.238 152.971 104.162 153.293 104.162 153.641V154.435C104.162 154.901 104.244 155.298 104.407 155.624C104.574 155.951 104.805 156.201 105.102 156.373C105.398 156.543 105.745 156.627 106.141 156.627C106.398 156.627 106.632 156.591 106.844 156.518C107.056 156.443 107.239 156.331 107.393 156.182C107.548 156.034 107.666 155.851 107.747 155.633L109.032 155.865C108.929 156.243 108.744 156.574 108.478 156.859C108.215 157.14 107.883 157.359 107.484 157.517C107.088 157.671 106.635 157.748 106.127 157.748ZM110.623 157.607V150.637H111.935V151.744H112.007C112.134 151.369 112.358 151.074 112.679 150.859C113.003 150.642 113.369 150.533 113.777 150.533C113.862 150.533 113.962 150.536 114.077 150.542C114.195 150.548 114.287 150.555 114.353 150.564V151.862C114.299 151.847 114.202 151.831 114.063 151.812C113.924 151.791 113.785 151.781 113.646 151.781C113.325 151.781 113.039 151.849 112.788 151.985C112.54 152.118 112.343 152.304 112.198 152.543C112.053 152.779 111.98 153.048 111.98 153.351V157.607H110.623ZM120.751 152.339L119.521 152.557C119.47 152.399 119.388 152.25 119.276 152.107C119.167 151.965 119.019 151.849 118.831 151.758C118.644 151.667 118.409 151.622 118.128 151.622C117.744 151.622 117.423 151.708 117.166 151.88C116.909 152.05 116.78 152.269 116.78 152.538C116.78 152.771 116.866 152.959 117.039 153.101C117.211 153.243 117.49 153.36 117.874 153.451L118.981 153.705C119.622 153.853 120.1 154.081 120.415 154.39C120.73 154.699 120.887 155.099 120.887 155.593C120.887 156.01 120.766 156.382 120.524 156.709C120.285 157.033 119.951 157.287 119.521 157.471C119.095 157.656 118.6 157.748 118.037 157.748C117.257 157.748 116.62 157.582 116.127 157.249C115.634 156.913 115.331 156.437 115.219 155.819L116.531 155.62C116.612 155.962 116.78 156.22 117.034 156.396C117.288 156.568 117.62 156.654 118.028 156.654C118.473 156.654 118.828 156.562 119.095 156.378C119.361 156.19 119.494 155.962 119.494 155.692C119.494 155.475 119.412 155.292 119.249 155.143C119.089 154.995 118.842 154.883 118.509 154.807L117.329 154.549C116.679 154.401 116.198 154.165 115.886 153.841C115.578 153.517 115.423 153.107 115.423 152.611C115.423 152.2 115.538 151.84 115.768 151.531C115.998 151.222 116.316 150.982 116.721 150.809C117.127 150.634 117.591 150.546 118.114 150.546C118.868 150.546 119.461 150.71 119.893 151.036C120.326 151.36 120.612 151.794 120.751 152.339Z" fill="#0070F4"/>
<rect x="61.8447" y="241.254" width="436.723" height="49.5187" rx="1.78105" fill="white"/>
<circle cx="155.451" cy="266.173" r="9.58426" fill="#66A9F8"/>
<circle cx="165.035" cy="266.173" r="9.58426" fill="#0070F4"/>
<circle cx="421.405" cy="153.346" r="9.58426" fill="#99C5FA"/>
<circle cx="430.989" cy="153.346" r="9.58426" fill="#0070F4"/>
<circle cx="440.996" cy="153.346" r="9.58426" fill="#0059C3"/>
<circle cx="450.58" cy="153.346" r="9.58426" fill="#002C61"/>
<rect x="61.8447" y="355.043" width="186.254" height="49.5187" rx="1.78105" fill="white"/>
<path d="M225.033 379.082V372.626H224.143V379.082H217.687V379.973H224.143V386.429H225.033V379.973H231.49V379.082H225.033Z" fill="black"/>
<rect x="312.313" y="355.043" width="186.254" height="49.5187" rx="1.78105" fill="white"/>
<path d="M63.3942 97.1803H68.8175C70.8657 97.1803 72.4687 97.8571 73.6263 99.2106C74.784 100.564 75.3807 102.461 75.4163 104.901L75.443 110.966C75.443 113.512 74.8375 115.525 73.6263 117.003C72.4152 118.482 70.7232 119.221 68.5504 119.221H63.3942V97.1803ZM68.0962 116.496C69.432 116.496 70.465 116.05 71.1952 115.16C71.9433 114.252 72.3173 112.978 72.3173 111.34L72.2906 104.474C72.2371 102.889 71.8453 101.731 71.1151 101.001C70.4027 100.27 69.4765 99.9053 68.3366 99.9053H66.4665V116.496H68.0962ZM83.9893 117.671C83.7222 118.241 83.3749 118.695 82.9474 119.034C82.5378 119.354 81.9144 119.515 81.0773 119.515C79.884 119.515 78.9133 119.06 78.1653 118.152C77.4351 117.244 77.07 116.077 77.07 114.652C77.07 114.439 77.0878 114.136 77.1234 113.744C77.2659 112.284 77.8536 111.117 78.8866 110.244C79.9196 109.372 81.2999 108.935 83.0276 108.935H83.8557V106.317C83.8557 105.711 83.7578 105.213 83.5619 104.821C83.366 104.429 82.9563 104.233 82.333 104.233C81.7452 104.233 81.3356 104.411 81.104 104.768C80.8903 105.106 80.7656 105.596 80.73 106.237V107.145H77.7111V106.21C77.8002 104.999 78.2544 104.028 79.0736 103.298C79.8929 102.55 81.015 102.176 82.4398 102.176C84.0428 102.176 85.2093 102.532 85.9396 103.245C86.6698 103.957 87.0349 104.928 87.0349 106.157L87.0616 119.221H83.9893V117.671ZM82.9741 110.832C81.9055 110.832 81.1664 111.126 80.7567 111.714C80.3649 112.284 80.169 113.103 80.169 114.171C80.169 115.062 80.3115 115.792 80.5964 116.362C80.8992 116.932 81.3445 117.217 81.9322 117.217C82.6446 117.217 83.1522 116.968 83.455 116.469C83.7578 115.952 83.9092 115.115 83.9092 113.958V110.832H82.9741ZM93.6533 115.427C93.6533 115.73 93.7602 115.988 93.9739 116.202C94.1876 116.416 94.437 116.522 94.7219 116.522H97.0195V119.221H93.5197C92.7005 119.221 91.9969 118.936 91.4092 118.366C90.8393 117.778 90.5543 117.075 90.5543 116.255V105.275H88.1499V102.523H90.5543V98.7565H93.6533V102.523H96.779V105.275H93.6533V115.427ZM105.148 117.671C104.881 118.241 104.533 118.695 104.106 119.034C103.696 119.354 103.073 119.515 102.236 119.515C101.043 119.515 100.072 119.06 99.3239 118.152C98.5937 117.244 98.2286 116.077 98.2286 114.652C98.2286 114.439 98.2464 114.136 98.282 113.744C98.4245 112.284 99.0122 111.117 100.045 110.244C101.078 109.372 102.459 108.935 104.186 108.935H105.014V106.317C105.014 105.711 104.916 105.213 104.72 104.821C104.525 104.429 104.115 104.233 103.492 104.233C102.904 104.233 102.494 104.411 102.263 104.768C102.049 105.106 101.924 105.596 101.889 106.237V107.145H98.8698V106.21C98.9588 104.999 99.413 104.028 100.232 103.298C101.052 102.55 102.174 102.176 103.598 102.176C105.201 102.176 106.368 102.532 107.098 103.245C107.828 103.957 108.194 104.928 108.194 106.157L108.22 119.221H105.148V117.671ZM104.133 110.832C103.064 110.832 102.325 111.126 101.915 111.714C101.524 112.284 101.328 113.103 101.328 114.171C101.328 115.062 101.47 115.792 101.755 116.362C102.058 116.932 102.503 117.217 103.091 117.217C103.803 117.217 104.311 116.968 104.614 116.469C104.916 115.952 105.068 115.115 105.068 113.958V110.832H104.133Z" fill="white"/>
<path d="M64.6499 229.859C64.2046 229.859 63.7237 229.806 63.2072 229.699C62.7085 229.61 62.2633 229.494 61.8714 229.352L62.2455 226.44C63.0647 226.849 63.7594 227.054 64.3293 227.054C64.5608 227.054 64.7389 227.018 64.8636 226.947C65.2198 226.858 65.5226 226.609 65.7719 226.199C66.0213 225.79 66.146 225.326 66.146 224.81V207.605H69.2183V225.05C69.2183 226.475 68.7908 227.633 67.9359 228.523C67.0988 229.414 66.0035 229.859 64.6499 229.859ZM77.099 212.601C78.8088 212.601 80.1178 213.073 81.0262 214.017C81.9345 214.961 82.3887 216.297 82.3887 218.024V225.184C82.3887 226.11 82.1661 226.938 81.7208 227.669C81.2933 228.399 80.6789 228.969 79.8774 229.378C79.0937 229.788 78.1854 229.993 77.1524 229.993C76.1194 229.993 75.1933 229.779 74.374 229.352C73.5547 228.906 72.9135 228.301 72.4504 227.535C71.9874 226.769 71.7558 225.914 71.7558 224.97V217.944C71.7558 216.234 72.2278 214.916 73.1718 213.99C74.1157 213.064 75.4248 212.601 77.099 212.601ZM79.5034 217.65C79.5034 216.849 79.3075 216.208 78.9156 215.727C78.5238 215.246 77.9539 215.005 77.2058 215.005C76.44 215.005 75.8611 215.255 75.4693 215.753C75.0775 216.252 74.8816 216.902 74.8816 217.704V225.104C74.8816 225.745 75.1042 226.297 75.5495 226.76C76.0125 227.205 76.5736 227.428 77.2326 227.428C77.8559 227.428 78.3902 227.205 78.8355 226.76C79.2808 226.297 79.5034 225.745 79.5034 225.104V217.65ZM86.8684 210.143C86.334 210.143 85.8621 209.947 85.4524 209.555C85.0606 209.163 84.8647 208.691 84.8647 208.139C84.8647 207.587 85.0606 207.115 85.4524 206.723C85.8621 206.314 86.334 206.109 86.8684 206.109C87.4205 206.109 87.8925 206.314 88.2843 206.723C88.6939 207.115 88.8988 207.587 88.8988 208.139C88.8988 208.691 88.7028 209.163 88.311 209.555C87.9192 209.947 87.4383 210.143 86.8684 210.143ZM88.2843 212.948V229.646H85.3188V212.948H88.2843ZM98.6953 212.628C99.9598 212.628 100.913 213.055 101.554 213.91C102.213 214.765 102.542 215.86 102.542 217.196V229.646H99.3899V217.436C99.3899 216.849 99.1762 216.359 98.7487 215.967C98.3391 215.557 97.8226 215.353 97.1992 215.353C96.558 215.353 96.0237 215.557 95.5963 215.967C95.1688 216.359 94.9551 216.849 94.9551 217.436V229.646H91.8293V212.948H95.0085V214.898C95.2757 214.275 95.712 213.741 96.3176 213.296C96.9231 212.85 97.7157 212.628 98.6953 212.628ZM119.359 229.646H116.821V227.642C116.465 228.39 115.958 228.951 115.299 229.325C114.64 229.699 113.901 229.886 113.081 229.886C112.28 229.886 111.541 229.681 110.864 229.271C110.187 228.862 109.644 228.31 109.234 227.615C108.842 226.903 108.646 226.146 108.646 225.344V217.944C108.646 216.341 108.994 215.05 109.688 214.07C110.383 213.091 111.461 212.601 112.921 212.601C113.687 212.601 114.364 212.797 114.951 213.189C115.539 213.58 115.967 214.088 116.234 214.711V207.231H119.359V229.646ZM113.99 227.268C114.613 227.268 115.138 227.054 115.566 226.627C116.011 226.199 116.234 225.674 116.234 225.05V217.436C116.234 216.813 116.011 216.288 115.566 215.86C115.138 215.415 114.613 215.192 113.99 215.192C113.366 215.192 112.841 215.415 112.413 215.86C111.986 216.288 111.772 216.813 111.772 217.436V225.05C111.772 225.656 111.986 226.181 112.413 226.627C112.859 227.054 113.384 227.268 113.99 227.268ZM128.394 228.096C128.127 228.666 127.779 229.12 127.352 229.458C126.942 229.779 126.319 229.939 125.482 229.939C124.288 229.939 123.318 229.485 122.57 228.577C121.839 227.669 121.474 226.502 121.474 225.077C121.474 224.863 121.492 224.561 121.528 224.169C121.67 222.708 122.258 221.542 123.291 220.669C124.324 219.796 125.704 219.36 127.432 219.36H128.26V216.742C128.26 216.136 128.162 215.638 127.966 215.246C127.77 214.854 127.361 214.658 126.737 214.658C126.15 214.658 125.74 214.836 125.508 215.192C125.295 215.531 125.17 216.021 125.134 216.662V217.57H122.116V216.635C122.205 215.424 122.659 214.453 123.478 213.723C124.297 212.975 125.419 212.601 126.844 212.601C128.447 212.601 129.614 212.957 130.344 213.67C131.074 214.382 131.439 215.353 131.439 216.582L131.466 229.646H128.394V228.096ZM127.379 221.257C126.31 221.257 125.571 221.551 125.161 222.138C124.769 222.708 124.573 223.528 124.573 224.596C124.573 225.487 124.716 226.217 125.001 226.787C125.304 227.357 125.749 227.642 126.337 227.642C127.049 227.642 127.557 227.392 127.859 226.894C128.162 226.377 128.314 225.54 128.314 224.383V221.257H127.379ZM138.058 225.852C138.058 226.155 138.165 226.413 138.378 226.627C138.592 226.84 138.841 226.947 139.126 226.947H141.424V229.646H137.924C137.105 229.646 136.401 229.361 135.814 228.791C135.244 228.203 134.959 227.499 134.959 226.68V215.7H132.554V212.948H134.959V209.181H138.058V212.948H141.183V215.7H138.058V225.852ZM149.552 228.096C149.285 228.666 148.938 229.12 148.51 229.458C148.101 229.779 147.477 229.939 146.64 229.939C145.447 229.939 144.476 229.485 143.728 228.577C142.998 227.669 142.633 226.502 142.633 225.077C142.633 224.863 142.651 224.561 142.686 224.169C142.829 222.708 143.417 221.542 144.45 220.669C145.483 219.796 146.863 219.36 148.591 219.36H149.419V216.742C149.419 216.136 149.321 215.638 149.125 215.246C148.929 214.854 148.519 214.658 147.896 214.658C147.308 214.658 146.899 214.836 146.667 215.192C146.453 215.531 146.329 216.021 146.293 216.662V217.57H143.274V216.635C143.363 215.424 143.817 214.453 144.637 213.723C145.456 212.975 146.578 212.601 148.003 212.601C149.606 212.601 150.772 212.957 151.503 213.67C152.233 214.382 152.598 215.353 152.598 216.582L152.625 229.646H149.552V228.096ZM148.537 221.257C147.469 221.257 146.729 221.551 146.32 222.138C145.928 222.708 145.732 223.528 145.732 224.596C145.732 225.487 145.874 226.217 146.159 226.787C146.462 227.357 146.908 227.642 147.495 227.642C148.208 227.642 148.715 227.392 149.018 226.894C149.321 226.377 149.472 225.54 149.472 224.383V221.257H148.537Z" fill="white"/>
<path d="M68.0161 340.418C66.983 340.418 66.0391 340.168 65.1842 339.67C64.3293 339.153 63.6525 338.458 63.1538 337.586C62.6729 336.695 62.4325 335.707 62.4325 334.62V334.113H65.1842V334.62C65.1842 335.101 65.2911 335.573 65.5048 336.036C65.7363 336.499 66.0658 336.882 66.4933 337.185C66.9207 337.488 67.4283 337.639 68.0161 337.639C69.0491 337.639 69.7704 337.328 70.18 336.704C70.6075 336.063 70.8212 335.368 70.8212 334.62C70.8212 333.748 70.7143 333.053 70.5006 332.536C70.3047 332.02 69.8862 331.566 69.245 331.174C69.0312 331.014 68.5058 330.747 67.6687 330.373L67.0543 330.105C65.7719 329.482 64.6766 328.654 63.7683 327.621C62.8777 326.57 62.4325 325.145 62.4325 323.346C62.4325 322.278 62.6729 321.316 63.1538 320.461C63.6525 319.606 64.3204 318.938 65.1575 318.457C65.9946 317.959 66.9296 317.709 67.9626 317.709C69.6902 317.709 71.0349 318.306 71.9967 319.499C72.9763 320.675 73.4661 322.322 73.4661 324.442H70.6876C70.6876 323.106 70.465 322.117 70.0197 321.476C69.5745 320.817 68.8888 320.488 67.9626 320.488C67.1612 320.488 66.4933 320.755 65.9589 321.289C65.4424 321.806 65.1842 322.491 65.1842 323.346C65.1842 324.468 65.4157 325.332 65.8788 325.938C66.3597 326.525 67.0899 327.051 68.0695 327.514C68.1585 327.55 68.5147 327.701 69.1381 327.968C69.7615 328.217 70.2602 328.449 70.6342 328.663C71.685 329.286 72.442 330.096 72.905 331.094C73.3681 332.091 73.5996 333.267 73.5996 334.62C73.5996 335.653 73.377 336.615 72.9317 337.506C72.4865 338.378 71.8453 339.082 71.0082 339.616C70.1711 340.15 69.1737 340.418 68.0161 340.418ZM79.5798 340.391C78.3152 340.391 77.3624 339.963 76.7212 339.109C76.08 338.236 75.7594 337.14 75.7594 335.823V323.373H78.8852V335.582C78.8852 336.152 79.0989 336.642 79.5263 337.051C79.9538 337.461 80.4703 337.666 81.0759 337.666C81.7348 337.666 82.2692 337.47 82.6788 337.078C83.1062 336.669 83.32 336.17 83.32 335.582V323.373H86.4457V340.07H83.2665V338.12C82.9994 338.743 82.563 339.278 81.9575 339.723C81.3697 340.168 80.5772 340.391 79.5798 340.391ZM101.853 323.052C103.385 323.052 104.569 323.453 105.406 324.255C106.243 325.038 106.662 326.16 106.662 327.621V340.07H103.59V327.407C103.59 326.891 103.385 326.445 102.975 326.071C102.583 325.697 102.102 325.51 101.533 325.51C100.98 325.51 100.5 325.697 100.09 326.071C99.6981 326.445 99.5022 326.891 99.5022 327.407V340.07H96.4299L96.4031 327.354C96.4031 326.837 96.2072 326.401 95.8154 326.045C95.4414 325.688 94.9783 325.51 94.4262 325.51C93.8563 325.51 93.3754 325.688 92.9835 326.045C92.6095 326.401 92.4225 326.837 92.4225 327.354V340.07H89.3769V323.373H91.5409V324.789C91.808 324.255 92.2177 323.836 92.7698 323.533C93.3219 323.213 93.9275 323.052 94.5865 323.052C95.4058 323.052 96.136 323.266 96.7772 323.694C97.4362 324.103 97.8369 324.646 97.9794 325.323C98.2465 324.593 98.7719 324.032 99.5556 323.64C100.357 323.248 101.123 323.052 101.853 323.052ZM121.733 323.052C123.265 323.052 124.449 323.453 125.287 324.255C126.124 325.038 126.542 326.16 126.542 327.621V340.07H123.47V327.407C123.47 326.891 123.265 326.445 122.855 326.071C122.464 325.697 121.983 325.51 121.413 325.51C120.861 325.51 120.38 325.697 119.97 326.071C119.578 326.445 119.382 326.891 119.382 327.407V340.07H116.31L116.283 327.354C116.283 326.837 116.087 326.401 115.696 326.045C115.322 325.688 114.859 325.51 114.306 325.51C113.736 325.51 113.256 325.688 112.864 326.045C112.49 326.401 112.303 326.837 112.303 327.354V340.07H109.257V323.373H111.421V324.789C111.688 324.255 112.098 323.836 112.65 323.533C113.202 323.213 113.808 323.052 114.467 323.052C115.286 323.052 116.016 323.266 116.657 323.694C117.316 324.103 117.717 324.646 117.86 325.323C118.127 324.593 118.652 324.032 119.436 323.64C120.237 323.248 121.003 323.052 121.733 323.052ZM135.255 338.521C134.988 339.091 134.641 339.545 134.213 339.883C133.804 340.204 133.18 340.364 132.343 340.364C131.15 340.364 130.179 339.91 129.431 339.002C128.701 338.093 128.336 336.927 128.336 335.502C128.336 335.288 128.354 334.985 128.389 334.594C128.532 333.133 129.12 331.967 130.153 331.094C131.186 330.221 132.566 329.785 134.294 329.785H135.122V327.167C135.122 326.561 135.024 326.062 134.828 325.671C134.632 325.279 134.222 325.083 133.599 325.083C133.011 325.083 132.602 325.261 132.37 325.617C132.156 325.956 132.032 326.445 131.996 327.086V327.995H128.977V327.06C129.066 325.849 129.52 324.878 130.34 324.148C131.159 323.4 132.281 323.026 133.706 323.026C135.309 323.026 136.475 323.382 137.206 324.094C137.936 324.807 138.301 325.777 138.301 327.006L138.328 340.07H135.255V338.521ZM134.24 331.682C133.171 331.682 132.432 331.975 132.023 332.563C131.631 333.133 131.435 333.952 131.435 335.021C131.435 335.912 131.577 336.642 131.862 337.212C132.165 337.782 132.61 338.067 133.198 338.067C133.911 338.067 134.418 337.817 134.721 337.319C135.024 336.802 135.175 335.965 135.175 334.807V331.682H134.24ZM143.334 325.537C143.69 324.753 144.322 324.139 145.23 323.694C146.139 323.248 147.056 323.035 147.982 323.052V325.831C147.893 325.813 147.751 325.804 147.555 325.804C146.664 325.804 145.872 326.089 145.177 326.659C144.5 327.211 144.126 327.924 144.055 328.796V340.07H140.956V323.373H143.334V325.537ZM151.727 320.568C151.193 320.568 150.721 320.372 150.311 319.98C149.919 319.588 149.723 319.116 149.723 318.564C149.723 318.012 149.919 317.54 150.311 317.148C150.721 316.739 151.193 316.534 151.727 316.534C152.279 316.534 152.751 316.739 153.143 317.148C153.553 317.54 153.757 318.012 153.757 318.564C153.757 319.116 153.561 319.588 153.17 319.98C152.778 320.372 152.297 320.568 151.727 320.568ZM153.143 323.373V340.07H150.177V323.373H153.143ZM161.523 325.991H156.127V323.373H164.783V325.884L158.986 337.425H164.997L164.97 340.07H155.673V337.586L161.523 325.991ZM171.333 340.391C170.371 340.391 169.48 340.177 168.661 339.75C167.86 339.322 167.227 338.743 166.764 338.013C166.301 337.283 166.07 336.49 166.07 335.636V328.155C166.07 326.517 166.524 325.261 167.432 324.388C168.34 323.498 169.641 323.052 171.333 323.052C172.989 323.052 174.262 323.507 175.153 324.415C176.043 325.323 176.489 326.606 176.489 328.262V332.483H169.169V335.769C169.169 336.339 169.382 336.82 169.81 337.212C170.237 337.604 170.772 337.799 171.413 337.799C172.018 337.799 172.535 337.604 172.962 337.212C173.407 336.802 173.63 336.321 173.63 335.769V334.567H176.489V335.636C176.489 336.544 176.275 337.363 175.847 338.093C175.42 338.806 174.814 339.367 174.031 339.776C173.247 340.186 172.348 340.391 171.333 340.391ZM173.63 327.701C173.63 326.989 173.425 326.427 173.016 326.018C172.624 325.59 172.089 325.377 171.413 325.377C170.682 325.377 170.121 325.599 169.73 326.045C169.356 326.472 169.169 327.042 169.169 327.754V330.586H173.63V327.701Z" fill="white"/>
<path d="M274.026 377.998C274.216 377.582 274.501 377.25 274.881 377.001C275.272 376.739 275.724 376.609 276.234 376.609C277.208 376.609 277.926 376.935 278.389 377.588C278.852 378.23 279.084 379.084 279.084 380.153V385.087C279.084 385.621 278.947 386.126 278.674 386.601C278.413 387.064 278.057 387.438 277.606 387.723C277.166 387.996 276.679 388.132 276.145 388.132C275.599 388.132 275.106 388.008 274.667 387.758C274.227 387.497 273.883 387.117 273.634 386.618V387.954H271.96V373.26H274.026V377.998ZM275.522 386.369C275.937 386.369 276.288 386.226 276.573 385.942C276.857 385.657 277 385.306 277 384.891V379.815C277 379.399 276.857 379.049 276.573 378.764C276.288 378.467 275.937 378.319 275.522 378.319C275.106 378.319 274.75 378.467 274.453 378.764C274.168 379.049 274.026 379.399 274.026 379.815V384.891C274.026 385.294 274.168 385.645 274.453 385.942C274.75 386.226 275.106 386.369 275.522 386.369ZM285.933 389.628C285.779 390.329 285.459 390.887 284.972 391.302C284.497 391.73 283.915 391.944 283.226 391.944H281.089V390.252H282.799C283.108 390.252 283.381 390.157 283.618 389.967C283.856 389.789 284.004 389.551 284.063 389.254L284.402 387.812H283.03L280.377 376.823H282.603L284.687 386.494L286.699 376.823H288.961L285.933 389.628Z" fill="white"/>
<path d="M318.253 340.418C317.22 340.418 316.276 340.168 315.421 339.67C314.567 339.153 313.89 338.458 313.391 337.586C312.91 336.695 312.67 335.707 312.67 334.62V334.113H315.421V334.62C315.421 335.101 315.528 335.573 315.742 336.036C315.974 336.499 316.303 336.882 316.731 337.185C317.158 337.488 317.666 337.639 318.253 337.639C319.286 337.639 320.008 337.328 320.417 336.704C320.845 336.063 321.059 335.368 321.059 334.62C321.059 333.748 320.952 333.053 320.738 332.536C320.542 332.02 320.123 331.566 319.482 331.174C319.269 331.014 318.743 330.747 317.906 330.373L317.292 330.105C316.009 329.482 314.914 328.654 314.006 327.621C313.115 326.57 312.67 325.145 312.67 323.346C312.67 322.278 312.91 321.316 313.391 320.461C313.89 319.606 314.558 318.938 315.395 318.457C316.232 317.959 317.167 317.709 318.2 317.709C319.928 317.709 321.272 318.306 322.234 319.499C323.214 320.675 323.703 322.322 323.703 324.442H320.925C320.925 323.106 320.702 322.117 320.257 321.476C319.812 320.817 319.126 320.488 318.2 320.488C317.398 320.488 316.731 320.755 316.196 321.289C315.68 321.806 315.421 322.491 315.421 323.346C315.421 324.468 315.653 325.332 316.116 325.938C316.597 326.525 317.327 327.051 318.307 327.514C318.396 327.55 318.752 327.701 319.375 327.968C319.999 328.217 320.497 328.449 320.871 328.663C321.922 329.286 322.679 330.096 323.142 331.094C323.605 332.091 323.837 333.267 323.837 334.62C323.837 335.653 323.614 336.615 323.169 337.506C322.724 338.378 322.083 339.082 321.246 339.616C320.408 340.15 319.411 340.418 318.253 340.418ZM329.817 340.391C328.553 340.391 327.6 339.963 326.959 339.109C326.317 338.236 325.997 337.14 325.997 335.823V323.373H329.122V335.582C329.122 336.152 329.336 336.642 329.764 337.051C330.191 337.461 330.708 337.666 331.313 337.666C331.972 337.666 332.506 337.47 332.916 337.078C333.344 336.669 333.557 336.17 333.557 335.582V323.373H336.683V340.07H333.504V338.12C333.237 338.743 332.8 339.278 332.195 339.723C331.607 340.168 330.814 340.391 329.817 340.391ZM352.09 323.052C353.622 323.052 354.807 323.453 355.644 324.255C356.481 325.038 356.899 326.16 356.899 327.621V340.07H353.827V327.407C353.827 326.891 353.622 326.445 353.213 326.071C352.821 325.697 352.34 325.51 351.77 325.51C351.218 325.51 350.737 325.697 350.327 326.071C349.935 326.445 349.739 326.891 349.739 327.407V340.07H346.667L346.64 327.354C346.64 326.837 346.445 326.401 346.053 326.045C345.679 325.688 345.216 325.51 344.663 325.51C344.094 325.51 343.613 325.688 343.221 326.045C342.847 326.401 342.66 326.837 342.66 327.354V340.07H339.614V323.373H341.778V324.789C342.045 324.255 342.455 323.836 343.007 323.533C343.559 323.213 344.165 323.052 344.824 323.052C345.643 323.052 346.373 323.266 347.014 323.694C347.673 324.103 348.074 324.646 348.217 325.323C348.484 324.593 349.009 324.032 349.793 323.64C350.594 323.248 351.36 323.052 352.09 323.052ZM371.971 323.052C373.502 323.052 374.687 323.453 375.524 324.255C376.361 325.038 376.78 326.16 376.78 327.621V340.07H373.707V327.407C373.707 326.891 373.502 326.445 373.093 326.071C372.701 325.697 372.22 325.51 371.65 325.51C371.098 325.51 370.617 325.697 370.207 326.071C369.816 326.445 369.62 326.891 369.62 327.407V340.07H366.547L366.521 327.354C366.521 326.837 366.325 326.401 365.933 326.045C365.559 325.688 365.096 325.51 364.544 325.51C363.974 325.51 363.493 325.688 363.101 326.045C362.727 326.401 362.54 326.837 362.54 327.354V340.07H359.494V323.373H361.658V324.789C361.926 324.255 362.335 323.836 362.887 323.533C363.439 323.213 364.045 323.052 364.704 323.052C365.523 323.052 366.254 323.266 366.895 323.694C367.554 324.103 367.954 324.646 368.097 325.323C368.364 324.593 368.889 324.032 369.673 323.64C370.475 323.248 371.24 323.052 371.971 323.052ZM385.493 338.521C385.225 339.091 384.878 339.545 384.451 339.883C384.041 340.204 383.418 340.364 382.581 340.364C381.387 340.364 380.417 339.91 379.669 339.002C378.938 338.093 378.573 336.927 378.573 335.502C378.573 335.288 378.591 334.985 378.627 334.594C378.769 333.133 379.357 331.967 380.39 331.094C381.423 330.221 382.803 329.785 384.531 329.785H385.359V327.167C385.359 326.561 385.261 326.062 385.065 325.671C384.869 325.279 384.46 325.083 383.836 325.083C383.248 325.083 382.839 325.261 382.607 325.617C382.394 325.956 382.269 326.445 382.233 327.086V327.995H379.214V327.06C379.303 325.849 379.758 324.878 380.577 324.148C381.396 323.4 382.518 323.026 383.943 323.026C385.546 323.026 386.713 323.382 387.443 324.094C388.173 324.807 388.538 325.777 388.538 327.006L388.565 340.07H385.493V338.521ZM384.477 331.682C383.409 331.682 382.67 331.975 382.26 332.563C381.868 333.133 381.672 333.952 381.672 335.021C381.672 335.912 381.815 336.642 382.1 337.212C382.402 337.782 382.848 338.067 383.435 338.067C384.148 338.067 384.656 337.817 384.958 337.319C385.261 336.802 385.412 335.965 385.412 334.807V331.682H384.477ZM393.571 325.537C393.927 324.753 394.559 324.139 395.468 323.694C396.376 323.248 397.293 323.035 398.219 323.052V325.831C398.13 325.813 397.988 325.804 397.792 325.804C396.902 325.804 396.109 326.089 395.414 326.659C394.738 327.211 394.364 327.924 394.292 328.796V340.07H391.193V323.373H393.571V325.537ZM401.964 320.568C401.43 320.568 400.958 320.372 400.548 319.98C400.157 319.588 399.961 319.116 399.961 318.564C399.961 318.012 400.157 317.54 400.548 317.148C400.958 316.739 401.43 316.534 401.964 316.534C402.516 316.534 402.988 316.739 403.38 317.148C403.79 317.54 403.995 318.012 403.995 318.564C403.995 319.116 403.799 319.588 403.407 319.98C403.015 320.372 402.534 320.568 401.964 320.568ZM403.38 323.373V340.07H400.415V323.373H403.38ZM411.761 325.991H406.364V323.373H415.02V325.884L409.223 337.425H415.234L415.207 340.07H405.91V337.586L411.761 325.991ZM421.57 340.391C420.608 340.391 419.718 340.177 418.898 339.75C418.097 339.322 417.465 338.743 417.001 338.013C416.538 337.283 416.307 336.49 416.307 335.636V328.155C416.307 326.517 416.761 325.261 417.669 324.388C418.578 323.498 419.878 323.052 421.57 323.052C423.226 323.052 424.5 323.507 425.39 324.415C426.281 325.323 426.726 326.606 426.726 328.262V332.483H419.406V335.769C419.406 336.339 419.62 336.82 420.047 337.212C420.475 337.604 421.009 337.799 421.65 337.799C422.256 337.799 422.772 337.604 423.2 337.212C423.645 336.802 423.867 336.321 423.867 335.769V334.567H426.726V335.636C426.726 336.544 426.512 337.363 426.085 338.093C425.657 338.806 425.052 339.367 424.268 339.776C423.484 340.186 422.585 340.391 421.57 340.391ZM423.867 327.701C423.867 326.989 423.663 326.427 423.253 326.018C422.861 325.59 422.327 325.377 421.65 325.377C420.92 325.377 420.359 325.599 419.967 326.045C419.593 326.472 419.406 327.042 419.406 327.754V330.586H423.867V327.701Z" fill="white"/>
<rect opacity="0.5" x="72.3877" y="250.199" width="56.5471" height="31.9475" rx="4.79213" fill="#99C5FA"/>
<rect opacity="0.6" x="72.3877" y="363.988" width="92.6478" height="31.9475" rx="4.79213" fill="#94EEBC"/>
<rect x="61.8447" y="437.052" width="137.055" height="31.9475" rx="1.78105" fill="#0070F4"/>
<rect opacity="0.6" x="324.134" y="363.988" width="122.359" height="31.9475" rx="4.79213" fill="#94EEBC"/>
<rect opacity="0.5" x="191.552" y="250.199" width="56.5471" height="31.9475" rx="4.79213" fill="#99C5FA"/>
<rect opacity="0.5" x="327.648" y="250.199" width="56.5471" height="31.9475" rx="4.79213" fill="#99C5FA"/>
<rect opacity="0.5" x="426.686" y="250.199" width="26.8359" height="31.9475" rx="4.79213" fill="#99C5FA"/>
<path d="M88.8295 265.858C88.8295 266.85 88.648 267.703 88.2849 268.417C87.9219 269.128 87.4242 269.676 86.7919 270.06C86.1627 270.441 85.4472 270.632 84.6455 270.632C83.8407 270.632 83.1222 270.441 82.4899 270.06C81.8606 269.676 81.3645 269.127 81.0015 268.413C80.6384 267.699 80.4569 266.847 80.4569 265.858C80.4569 264.866 80.6384 264.014 81.0015 263.303C81.3645 262.589 81.8606 262.042 82.4899 261.66C83.1222 261.276 83.8407 261.084 84.6455 261.084C85.4472 261.084 86.1627 261.276 86.7919 261.66C87.4242 262.042 87.9219 262.589 88.2849 263.303C88.648 264.014 88.8295 264.866 88.8295 265.858ZM87.4409 265.858C87.4409 265.102 87.3183 264.465 87.0733 263.947C86.8313 263.427 86.4985 263.034 86.0749 262.768C85.6544 262.498 85.1779 262.364 84.6455 262.364C84.11 262.364 83.632 262.498 83.2115 262.768C82.7909 263.034 82.4582 263.427 82.2131 263.947C81.9711 264.465 81.8501 265.102 81.8501 265.858C81.8501 266.614 81.9711 267.253 82.2131 267.773C82.4582 268.29 82.7909 268.684 83.2115 268.953C83.632 269.219 84.11 269.352 84.6455 269.352C85.1779 269.352 85.6544 269.219 86.0749 268.953C86.4985 268.684 86.8313 268.29 87.0733 267.773C87.3183 267.253 87.4409 266.614 87.4409 265.858ZM90.4689 270.505V263.535H91.7803V264.642H91.8529C91.98 264.267 92.2039 263.972 92.5246 263.757C92.8483 263.539 93.2143 263.43 93.6228 263.43C93.7075 263.43 93.8073 263.433 93.9223 263.439C94.0403 263.445 94.1325 263.453 94.1991 263.462V264.76C94.1446 264.745 94.0478 264.728 93.9087 264.71C93.7695 264.689 93.6303 264.678 93.4912 264.678C93.1705 264.678 92.8846 264.746 92.6335 264.882C92.3854 265.015 92.1888 265.201 92.0435 265.44C91.8983 265.676 91.8257 265.946 91.8257 266.248V270.505H90.4689ZM97.7331 270.641C97.1703 270.641 96.6681 270.497 96.2264 270.21C95.7878 269.919 95.4429 269.507 95.1918 268.971C94.9437 268.433 94.8197 267.787 94.8197 267.033C94.8197 266.28 94.9452 265.636 95.1963 265.1C95.4504 264.565 95.7984 264.155 96.2401 263.87C96.6818 263.586 97.1824 263.444 97.7421 263.444C98.1748 263.444 98.5227 263.516 98.7859 263.662C99.0521 263.804 99.2578 263.97 99.403 264.161C99.5513 264.351 99.6662 264.519 99.7479 264.664H99.8296V261.211H101.186V270.505H99.8614V269.42H99.7479C99.6662 269.569 99.5483 269.738 99.394 269.929C99.2427 270.119 99.034 270.286 98.7677 270.428C98.5015 270.57 98.1566 270.641 97.7331 270.641ZM98.0326 269.484C98.4228 269.484 98.7526 269.381 99.0219 269.175C99.2941 268.967 99.4999 268.678 99.639 268.308C99.7812 267.939 99.8523 267.51 99.8523 267.02C99.8523 266.536 99.7827 266.112 99.6436 265.749C99.5044 265.386 99.3002 265.103 99.0309 264.9C98.7617 264.698 98.4289 264.596 98.0326 264.596C97.6241 264.596 97.2838 264.702 97.0115 264.914C96.7392 265.126 96.5335 265.415 96.3943 265.781C96.2582 266.147 96.1901 266.56 96.1901 267.02C96.1901 267.486 96.2597 267.905 96.3989 268.277C96.5381 268.649 96.7438 268.944 97.0161 269.162C97.2914 269.376 97.6302 269.484 98.0326 269.484ZM106.127 270.646C105.44 270.646 104.849 270.499 104.353 270.205C103.86 269.909 103.479 269.493 103.209 268.957C102.943 268.419 102.81 267.788 102.81 267.065C102.81 266.351 102.943 265.722 103.209 265.177C103.479 264.633 103.854 264.208 104.335 263.902C104.819 263.597 105.385 263.444 106.032 263.444C106.425 263.444 106.806 263.509 107.176 263.639C107.545 263.769 107.876 263.973 108.169 264.252C108.463 264.53 108.694 264.891 108.864 265.336C109.033 265.778 109.118 266.315 109.118 266.947V267.428H103.577V266.412H107.788C107.788 266.055 107.716 265.738 107.57 265.463C107.425 265.185 107.221 264.965 106.958 264.805C106.697 264.645 106.392 264.565 106.041 264.565C105.66 264.565 105.327 264.658 105.043 264.846C104.761 265.031 104.543 265.273 104.389 265.572C104.238 265.869 104.162 266.191 104.162 266.539V267.333C104.162 267.799 104.244 268.195 104.407 268.522C104.574 268.849 104.805 269.098 105.102 269.271C105.398 269.44 105.745 269.525 106.141 269.525C106.398 269.525 106.632 269.488 106.844 269.416C107.056 269.34 107.239 269.228 107.393 269.08C107.548 268.932 107.666 268.749 107.747 268.531L109.032 268.762C108.929 269.14 108.744 269.472 108.478 269.756C108.215 270.037 107.883 270.257 107.484 270.414C107.088 270.568 106.635 270.646 106.127 270.646ZM110.623 270.505V263.535H111.935V264.642H112.007C112.134 264.267 112.358 263.972 112.679 263.757C113.003 263.539 113.369 263.43 113.777 263.43C113.862 263.43 113.962 263.433 114.077 263.439C114.195 263.445 114.287 263.453 114.353 263.462V264.76C114.299 264.745 114.202 264.728 114.063 264.71C113.924 264.689 113.785 264.678 113.646 264.678C113.325 264.678 113.039 264.746 112.788 264.882C112.54 265.015 112.343 265.201 112.198 265.44C112.053 265.676 111.98 265.946 111.98 266.248V270.505H110.623ZM120.751 265.236L119.521 265.454C119.47 265.297 119.388 265.147 119.276 265.005C119.167 264.863 119.019 264.746 118.831 264.655C118.644 264.565 118.409 264.519 118.128 264.519C117.744 264.519 117.423 264.605 117.166 264.778C116.909 264.947 116.78 265.167 116.78 265.436C116.78 265.669 116.866 265.856 117.039 265.999C117.211 266.141 117.49 266.257 117.874 266.348L118.981 266.602C119.622 266.75 120.1 266.979 120.415 267.287C120.73 267.596 120.887 267.997 120.887 268.49C120.887 268.908 120.766 269.28 120.524 269.606C120.285 269.93 119.951 270.184 119.521 270.369C119.095 270.553 118.6 270.646 118.037 270.646C117.257 270.646 116.62 270.479 116.127 270.146C115.634 269.811 115.331 269.334 115.219 268.717L116.531 268.517C116.612 268.859 116.78 269.118 117.034 269.293C117.288 269.466 117.62 269.552 118.028 269.552C118.473 269.552 118.828 269.46 119.095 269.275C119.361 269.088 119.494 268.859 119.494 268.59C119.494 268.372 119.412 268.189 119.249 268.041C119.089 267.893 118.842 267.781 118.509 267.705L117.329 267.446C116.679 267.298 116.198 267.062 115.886 266.738C115.578 266.415 115.423 266.005 115.423 265.509C115.423 265.097 115.538 264.737 115.768 264.429C115.998 264.12 116.316 263.879 116.721 263.707C117.127 263.531 117.591 263.444 118.114 263.444C118.868 263.444 119.461 263.607 119.893 263.934C120.326 264.258 120.612 264.692 120.751 265.236Z" fill="#0070F4"/>
<path d="M87.7423 377.442C87.6939 377.012 87.4943 376.679 87.1433 376.443C86.7924 376.204 86.3507 376.085 85.8182 376.085C85.437 376.085 85.1073 376.145 84.8289 376.266C84.5506 376.384 84.3343 376.548 84.18 376.756C84.0287 376.962 83.9531 377.197 83.9531 377.46C83.9531 377.681 84.0045 377.871 84.1074 378.032C84.2133 378.192 84.3509 378.326 84.5204 378.435C84.6928 378.541 84.8773 378.631 85.074 378.703C85.2706 378.773 85.4597 378.83 85.6412 378.876L86.5488 379.112C86.8453 379.184 87.1494 379.282 87.461 379.407C87.7726 379.531 88.0615 379.694 88.3277 379.897C88.594 380.099 88.8088 380.35 88.9721 380.65C89.1385 380.949 89.2217 381.308 89.2217 381.725C89.2217 382.252 89.0856 382.719 88.8133 383.128C88.5441 383.536 88.1523 383.858 87.638 384.094C87.1267 384.33 86.508 384.448 85.7819 384.448C85.0861 384.448 84.4841 384.338 83.9758 384.117C83.4675 383.896 83.0697 383.583 82.7823 383.178C82.4949 382.769 82.3361 382.285 82.3058 381.725H83.7126C83.7398 382.061 83.8487 382.341 84.0393 382.565C84.233 382.786 84.4795 382.951 84.779 383.06C85.0816 383.165 85.4128 383.218 85.7728 383.218C86.1692 383.218 86.5216 383.156 86.8302 383.032C87.1418 382.905 87.3869 382.73 87.5654 382.506C87.7439 382.279 87.8331 382.014 87.8331 381.712C87.8331 381.437 87.7544 381.211 87.5971 381.036C87.4428 380.86 87.2326 380.715 86.9663 380.6C86.7031 380.485 86.4051 380.384 86.0724 380.296L84.9742 379.996C84.2299 379.794 83.64 379.496 83.2043 379.102C82.7717 378.709 82.5554 378.189 82.5554 377.541C82.5554 377.006 82.7006 376.539 82.9911 376.139C83.2815 375.74 83.6748 375.43 84.1709 375.209C84.6671 374.985 85.2268 374.873 85.85 374.873C86.4793 374.873 87.0344 374.983 87.5154 375.204C87.9995 375.425 88.3807 375.729 88.659 376.116C88.9373 376.501 89.0826 376.942 89.0947 377.442H87.7423ZM95.2039 381.403V377.324H96.5653V384.294H95.2312V383.087H95.1586C94.9982 383.459 94.7411 383.769 94.3871 384.017C94.0362 384.262 93.599 384.385 93.0756 384.385C92.6279 384.385 92.2316 384.286 91.8867 384.09C91.5448 383.89 91.2756 383.595 91.0789 383.205C90.8853 382.815 90.7885 382.332 90.7885 381.757V377.324H92.1453V381.594C92.1453 382.069 92.2769 382.447 92.5401 382.728C92.8033 383.01 93.1452 383.15 93.5657 383.15C93.8199 383.15 94.0725 383.087 94.3236 382.96C94.5777 382.833 94.788 382.641 94.9544 382.383C95.1238 382.126 95.207 381.8 95.2039 381.403ZM98.3885 384.294V377.324H99.6909V378.458H99.7771C99.9223 378.074 100.16 377.774 100.49 377.56C100.819 377.342 101.214 377.233 101.674 377.233C102.14 377.233 102.53 377.342 102.845 377.56C103.162 377.777 103.397 378.077 103.548 378.458H103.621C103.787 378.086 104.052 377.789 104.415 377.569C104.778 377.345 105.211 377.233 105.713 377.233C106.345 377.233 106.861 377.431 107.26 377.827C107.663 378.224 107.864 378.821 107.864 379.62V384.294H106.507V379.747C106.507 379.275 106.378 378.933 106.121 378.721C105.864 378.51 105.557 378.404 105.2 378.404C104.758 378.404 104.415 378.54 104.17 378.812C103.925 379.081 103.802 379.428 103.802 379.851V384.294H102.45V379.661C102.45 379.282 102.332 378.978 102.096 378.749C101.86 378.519 101.553 378.404 101.175 378.404C100.918 378.404 100.68 378.472 100.462 378.608C100.248 378.741 100.074 378.927 99.9405 379.166C99.8104 379.405 99.7453 379.682 99.7453 379.996V384.294H98.3885ZM116 384.435C115.347 384.435 114.777 384.285 114.29 383.985C113.803 383.686 113.424 383.267 113.155 382.728C112.886 382.19 112.751 381.561 112.751 380.841C112.751 380.117 112.886 379.485 113.155 378.944C113.424 378.402 113.803 377.982 114.29 377.682C114.777 377.383 115.347 377.233 116 377.233C116.654 377.233 117.224 377.383 117.711 377.682C118.198 377.982 118.577 378.402 118.846 378.944C119.115 379.485 119.25 380.117 119.25 380.841C119.25 381.561 119.115 382.19 118.846 382.728C118.577 383.267 118.198 383.686 117.711 383.985C117.224 384.285 116.654 384.435 116 384.435ZM116.005 383.296C116.429 383.296 116.779 383.184 117.058 382.96C117.336 382.736 117.542 382.438 117.675 382.066C117.811 381.694 117.879 381.284 117.879 380.836C117.879 380.391 117.811 379.983 117.675 379.611C117.542 379.236 117.336 378.935 117.058 378.708C116.779 378.481 116.429 378.367 116.005 378.367C115.578 378.367 115.224 378.481 114.943 378.708C114.665 378.935 114.458 379.236 114.321 379.611C114.188 379.983 114.122 380.391 114.122 380.836C114.122 381.284 114.188 381.694 114.321 382.066C114.458 382.438 114.665 382.736 114.943 382.96C115.224 383.184 115.578 383.296 116.005 383.296ZM124.082 377.324V378.413H120.143V377.324H124.082ZM121.223 384.294V376.516C121.223 376.08 121.318 375.719 121.508 375.431C121.699 375.141 121.952 374.924 122.266 374.782C122.581 374.637 122.923 374.564 123.292 374.564C123.564 374.564 123.797 374.587 123.991 374.633C124.184 374.675 124.328 374.714 124.422 374.751L124.104 375.849C124.041 375.831 123.959 375.809 123.859 375.785C123.759 375.758 123.638 375.744 123.496 375.744C123.166 375.744 122.93 375.826 122.788 375.989C122.649 376.153 122.579 376.389 122.579 376.697V384.294H121.223ZM132.117 377.324V378.413H128.31V377.324H132.117ZM129.331 375.654H130.688V382.247C130.688 382.511 130.727 382.709 130.806 382.842C130.884 382.972 130.986 383.061 131.11 383.11C131.237 383.155 131.374 383.178 131.523 383.178C131.632 383.178 131.727 383.17 131.809 383.155C131.89 383.14 131.954 383.128 131.999 383.119L132.244 384.239C132.166 384.27 132.054 384.3 131.908 384.33C131.763 384.364 131.582 384.382 131.364 384.385C131.007 384.391 130.674 384.327 130.366 384.194C130.057 384.061 129.807 383.855 129.617 383.577C129.426 383.299 129.331 382.949 129.331 382.529V375.654ZM136.479 384.435C135.826 384.435 135.256 384.285 134.768 383.985C134.281 383.686 133.903 383.267 133.634 382.728C133.365 382.19 133.23 381.561 133.23 380.841C133.23 380.117 133.365 379.485 133.634 378.944C133.903 378.402 134.281 377.982 134.768 377.682C135.256 377.383 135.826 377.233 136.479 377.233C137.133 377.233 137.703 377.383 138.19 377.682C138.677 377.982 139.055 378.402 139.325 378.944C139.594 379.485 139.729 380.117 139.729 380.841C139.729 381.561 139.594 382.19 139.325 382.728C139.055 383.267 138.677 383.686 138.19 383.985C137.703 384.285 137.133 384.435 136.479 384.435ZM136.484 383.296C136.907 383.296 137.258 383.184 137.537 382.96C137.815 382.736 138.021 382.438 138.154 382.066C138.29 381.694 138.358 381.284 138.358 380.836C138.358 380.391 138.29 379.983 138.154 379.611C138.021 379.236 137.815 378.935 137.537 378.708C137.258 378.481 136.907 378.367 136.484 378.367C136.057 378.367 135.703 378.481 135.422 378.708C135.144 378.935 134.936 379.236 134.8 379.611C134.667 379.983 134.601 380.391 134.601 380.836C134.601 381.284 134.667 381.694 134.8 382.066C134.936 382.438 135.144 382.736 135.422 382.96C135.703 383.184 136.057 383.296 136.484 383.296ZM144.497 377.324V378.413H140.689V377.324H144.497ZM141.711 375.654H143.067V382.247C143.067 382.511 143.107 382.709 143.185 382.842C143.264 382.972 143.365 383.061 143.489 383.11C143.616 383.155 143.754 383.178 143.902 383.178C144.011 383.178 144.107 383.17 144.188 383.155C144.27 383.14 144.333 383.128 144.379 383.119L144.624 384.239C144.545 384.27 144.433 384.3 144.288 384.33C144.143 384.364 143.961 384.382 143.744 384.385C143.387 384.391 143.054 384.327 142.745 384.194C142.437 384.061 142.187 383.855 141.996 383.577C141.806 383.299 141.711 382.949 141.711 382.529V375.654ZM148.026 384.448C147.585 384.448 147.185 384.367 146.828 384.203C146.471 384.037 146.188 383.796 145.98 383.482C145.774 383.167 145.671 382.781 145.671 382.324C145.671 381.931 145.747 381.607 145.898 381.353C146.049 381.099 146.253 380.898 146.511 380.75C146.768 380.602 147.055 380.49 147.373 380.414C147.69 380.338 148.014 380.281 148.344 380.242C148.761 380.193 149.1 380.154 149.36 380.124C149.621 380.09 149.81 380.037 149.928 379.965C150.046 379.892 150.105 379.774 150.105 379.611V379.579C150.105 379.183 149.993 378.876 149.769 378.658C149.548 378.44 149.218 378.331 148.78 378.331C148.323 378.331 147.963 378.432 147.7 378.635C147.439 378.835 147.259 379.057 147.16 379.302L145.884 379.012C146.036 378.588 146.256 378.246 146.547 377.986C146.84 377.723 147.178 377.532 147.559 377.414C147.94 377.293 148.341 377.233 148.761 377.233C149.04 377.233 149.335 377.266 149.646 377.333C149.961 377.396 150.254 377.514 150.527 377.687C150.802 377.859 151.027 378.106 151.203 378.426C151.378 378.744 151.466 379.157 151.466 379.665V384.294H150.141V383.341H150.087C149.999 383.516 149.867 383.689 149.692 383.858C149.516 384.028 149.291 384.168 149.016 384.28C148.74 384.392 148.41 384.448 148.026 384.448ZM148.321 383.359C148.696 383.359 149.017 383.285 149.283 383.137C149.553 382.989 149.757 382.795 149.896 382.556C150.038 382.314 150.109 382.055 150.109 381.78V380.881C150.061 380.93 149.967 380.975 149.828 381.018C149.692 381.057 149.536 381.092 149.36 381.122C149.185 381.149 149.014 381.175 148.848 381.199C148.681 381.22 148.542 381.238 148.43 381.253C148.167 381.287 147.926 381.343 147.709 381.421C147.494 381.5 147.321 381.613 147.191 381.762C147.064 381.907 147.001 382.101 147.001 382.343C147.001 382.678 147.125 382.933 147.373 383.105C147.621 383.274 147.937 383.359 148.321 383.359ZM154.63 375V384.294H153.273V375H154.63Z" fill="#3DB573"/>
<path d="M104.89 448.065L107.477 455.634H107.581L110.168 448.065H111.683L108.339 457.358H106.719L103.374 448.065H104.89ZM112.917 457.358V450.388H114.273V457.358H112.917ZM113.602 449.313C113.366 449.313 113.163 449.234 112.994 449.077C112.827 448.916 112.744 448.726 112.744 448.505C112.744 448.281 112.827 448.09 112.994 447.933C113.163 447.773 113.366 447.692 113.602 447.692C113.838 447.692 114.039 447.773 114.205 447.933C114.375 448.09 114.46 448.281 114.46 448.505C114.46 448.726 114.375 448.916 114.205 449.077C114.039 449.234 113.838 449.313 113.602 449.313ZM121.322 452.09L120.092 452.308C120.041 452.15 119.959 452.001 119.847 451.858C119.738 451.716 119.59 451.6 119.403 451.509C119.215 451.418 118.98 451.373 118.699 451.373C118.315 451.373 117.994 451.459 117.737 451.631C117.48 451.801 117.351 452.02 117.351 452.289C117.351 452.522 117.438 452.71 117.61 452.852C117.782 452.994 118.061 453.111 118.445 453.202L119.552 453.456C120.194 453.604 120.672 453.832 120.986 454.141C121.301 454.45 121.458 454.85 121.458 455.344C121.458 455.761 121.337 456.133 121.095 456.46C120.856 456.784 120.522 457.038 120.092 457.222C119.666 457.407 119.171 457.499 118.608 457.499C117.828 457.499 117.191 457.333 116.698 457C116.205 456.664 115.902 456.188 115.79 455.57L117.102 455.371C117.183 455.713 117.351 455.971 117.605 456.147C117.86 456.319 118.191 456.405 118.599 456.405C119.044 456.405 119.399 456.313 119.666 456.129C119.932 455.941 120.065 455.713 120.065 455.443C120.065 455.226 119.983 455.043 119.82 454.894C119.66 454.746 119.413 454.634 119.08 454.558L117.9 454.3C117.25 454.152 116.769 453.916 116.457 453.592C116.149 453.268 115.994 452.858 115.994 452.362C115.994 451.951 116.109 451.591 116.339 451.282C116.569 450.973 116.887 450.733 117.292 450.56C117.698 450.385 118.162 450.297 118.686 450.297C119.439 450.297 120.032 450.461 120.464 450.787C120.897 451.111 121.183 451.545 121.322 452.09ZM127.366 454.468V450.388H128.727V457.358H127.393V456.151H127.32C127.16 456.523 126.903 456.834 126.549 457.082C126.198 457.327 125.761 457.449 125.237 457.449C124.79 457.449 124.393 457.351 124.048 457.154C123.706 456.955 123.437 456.66 123.241 456.269C123.047 455.879 122.95 455.396 122.95 454.822V450.388H124.307V454.658C124.307 455.133 124.439 455.511 124.702 455.793C124.965 456.074 125.307 456.215 125.727 456.215C125.981 456.215 126.234 456.151 126.485 456.024C126.739 455.897 126.95 455.705 127.116 455.448C127.285 455.191 127.369 454.864 127.366 454.468ZM132.579 457.513C132.137 457.513 131.738 457.431 131.381 457.268C131.024 457.101 130.741 456.861 130.532 456.546C130.326 456.231 130.223 455.846 130.223 455.389C130.223 454.996 130.299 454.672 130.45 454.418C130.602 454.164 130.806 453.962 131.063 453.814C131.32 453.666 131.607 453.554 131.925 453.478C132.243 453.403 132.566 453.345 132.896 453.306C133.314 453.258 133.653 453.218 133.913 453.188C134.173 453.155 134.362 453.102 134.48 453.029C134.598 452.957 134.657 452.839 134.657 452.675V452.643C134.657 452.247 134.545 451.94 134.321 451.722C134.1 451.504 133.771 451.395 133.332 451.395C132.875 451.395 132.515 451.497 132.252 451.7C131.992 451.899 131.812 452.122 131.712 452.367L130.437 452.076C130.588 451.653 130.809 451.311 131.099 451.051C131.393 450.787 131.73 450.597 132.111 450.479C132.492 450.358 132.893 450.297 133.314 450.297C133.592 450.297 133.887 450.331 134.199 450.397C134.513 450.461 134.807 450.579 135.079 450.751C135.354 450.924 135.58 451.17 135.755 451.491C135.931 451.808 136.018 452.221 136.018 452.73V457.358H134.693V456.405H134.639C134.551 456.581 134.42 456.753 134.244 456.923C134.069 457.092 133.843 457.233 133.568 457.345C133.293 457.457 132.963 457.513 132.579 457.513ZM132.874 456.424C133.249 456.424 133.569 456.349 133.836 456.201C134.105 456.053 134.309 455.859 134.448 455.62C134.59 455.378 134.662 455.12 134.662 454.844V453.946C134.613 453.994 134.519 454.04 134.38 454.082C134.244 454.121 134.088 454.156 133.913 454.186C133.737 454.214 133.566 454.239 133.4 454.263C133.234 454.285 133.094 454.303 132.982 454.318C132.719 454.351 132.479 454.407 132.261 454.486C132.046 454.565 131.874 454.678 131.744 454.826C131.617 454.971 131.553 455.165 131.553 455.407C131.553 455.743 131.677 455.997 131.925 456.169C132.173 456.339 132.489 456.424 132.874 456.424ZM139.183 448.065V457.358H137.826V448.065H139.183ZM141.008 457.358V450.388H142.365V457.358H141.008ZM141.693 449.313C141.457 449.313 141.254 449.234 141.085 449.077C140.919 448.916 140.835 448.726 140.835 448.505C140.835 448.281 140.919 448.09 141.085 447.933C141.254 447.773 141.457 447.692 141.693 447.692C141.929 447.692 142.13 447.773 142.297 447.933C142.466 448.09 142.551 448.281 142.551 448.505C142.551 448.726 142.466 448.916 142.297 449.077C142.13 449.234 141.929 449.313 141.693 449.313ZM144.045 457.358V456.428L147.821 451.631V451.568H144.168V450.388H149.513V451.377L145.883 456.115V456.179H149.64V457.358H144.045ZM154.046 457.499C153.359 457.499 152.767 457.352 152.271 457.059C151.778 456.762 151.397 456.346 151.128 455.811C150.861 455.272 150.728 454.642 150.728 453.919C150.728 453.205 150.861 452.575 151.128 452.031C151.397 451.486 151.772 451.061 152.253 450.756C152.737 450.45 153.303 450.297 153.95 450.297C154.344 450.297 154.725 450.362 155.094 450.492C155.463 450.622 155.794 450.827 156.088 451.105C156.381 451.383 156.613 451.745 156.782 452.19C156.951 452.631 157.036 453.168 157.036 453.801V454.282H151.495V453.265H155.707C155.707 452.908 155.634 452.592 155.489 452.317C155.343 452.038 155.139 451.819 154.876 451.659C154.616 451.498 154.31 451.418 153.959 451.418C153.578 451.418 153.245 451.512 152.961 451.7C152.68 451.884 152.462 452.126 152.308 452.426C152.156 452.722 152.081 453.044 152.081 453.392V454.186C152.081 454.652 152.162 455.049 152.326 455.375C152.492 455.702 152.724 455.952 153.02 456.124C153.317 456.293 153.663 456.378 154.059 456.378C154.316 456.378 154.551 456.342 154.763 456.269C154.974 456.194 155.157 456.082 155.312 455.933C155.466 455.785 155.584 455.602 155.666 455.384L156.95 455.616C156.847 455.994 156.663 456.325 156.396 456.61C156.133 456.891 155.802 457.11 155.402 457.268C155.006 457.422 154.554 457.499 154.046 457.499Z" fill="white"/>
<path d="M334.739 384.294V375H338.052C338.775 375 339.374 375.132 339.849 375.395C340.324 375.658 340.679 376.018 340.915 376.475C341.151 376.929 341.269 377.44 341.269 378.009C341.269 378.581 341.15 379.095 340.911 379.552C340.675 380.006 340.318 380.366 339.84 380.632C339.365 380.895 338.767 381.027 338.047 381.027H335.769V379.838H337.92C338.377 379.838 338.747 379.759 339.032 379.602C339.316 379.441 339.525 379.223 339.658 378.948C339.791 378.673 339.858 378.36 339.858 378.009C339.858 377.658 339.791 377.346 339.658 377.074C339.525 376.802 339.315 376.588 339.027 376.434C338.743 376.28 338.368 376.203 337.902 376.203H336.141V384.294H334.739ZM345.721 384.435C345.034 384.435 344.443 384.288 343.946 383.994C343.453 383.698 343.072 383.282 342.803 382.746C342.537 382.208 342.404 381.577 342.404 380.854C342.404 380.14 342.537 379.511 342.803 378.966C343.072 378.422 343.447 377.997 343.928 377.691C344.412 377.386 344.978 377.233 345.625 377.233C346.019 377.233 346.4 377.298 346.769 377.428C347.138 377.558 347.469 377.762 347.763 378.041C348.056 378.319 348.288 378.68 348.457 379.125C348.627 379.567 348.711 380.104 348.711 380.736V381.217H343.17V380.201H347.382C347.382 379.844 347.309 379.528 347.164 379.252C347.019 378.974 346.814 378.755 346.551 378.594C346.291 378.434 345.985 378.354 345.635 378.354C345.253 378.354 344.921 378.447 344.636 378.635C344.355 378.82 344.137 379.062 343.983 379.361C343.831 379.658 343.756 379.98 343.756 380.328V381.122C343.756 381.588 343.838 381.984 344.001 382.311C344.167 382.638 344.399 382.887 344.695 383.06C344.992 383.229 345.338 383.314 345.734 383.314C345.992 383.314 346.226 383.277 346.438 383.205C346.65 383.129 346.833 383.017 346.987 382.869C347.141 382.721 347.259 382.538 347.341 382.32L348.625 382.551C348.522 382.93 348.338 383.261 348.071 383.545C347.808 383.827 347.477 384.046 347.078 384.203C346.681 384.357 346.229 384.435 345.721 384.435ZM353.153 384.435C352.499 384.435 351.929 384.285 351.442 383.985C350.955 383.686 350.577 383.267 350.308 382.728C350.038 382.19 349.904 381.561 349.904 380.841C349.904 380.117 350.038 379.485 350.308 378.944C350.577 378.402 350.955 377.982 351.442 377.682C351.929 377.383 352.499 377.233 353.153 377.233C353.806 377.233 354.377 377.383 354.864 377.682C355.351 377.982 355.729 378.402 355.998 378.944C356.267 379.485 356.402 380.117 356.402 380.841C356.402 381.561 356.267 382.19 355.998 382.728C355.729 383.267 355.351 383.686 354.864 383.985C354.377 384.285 353.806 384.435 353.153 384.435ZM353.157 383.296C353.581 383.296 353.932 383.184 354.21 382.96C354.489 382.736 354.694 382.438 354.827 382.066C354.964 381.694 355.032 381.284 355.032 380.836C355.032 380.391 354.964 379.983 354.827 379.611C354.694 379.236 354.489 378.935 354.21 378.708C353.932 378.481 353.581 378.367 353.157 378.367C352.731 378.367 352.377 378.481 352.096 378.708C351.817 378.935 351.61 379.236 351.474 379.611C351.341 379.983 351.274 380.391 351.274 380.836C351.274 381.284 351.341 381.694 351.474 382.066C351.61 382.438 351.817 382.736 352.096 382.96C352.377 383.184 352.731 383.296 353.157 383.296ZM357.917 386.908V377.324H359.242V378.454H359.355C359.434 378.308 359.547 378.14 359.696 377.95C359.844 377.759 360.05 377.593 360.313 377.451C360.576 377.305 360.924 377.233 361.356 377.233C361.919 377.233 362.421 377.375 362.863 377.659C363.305 377.944 363.651 378.354 363.902 378.889C364.156 379.425 364.283 380.069 364.283 380.822C364.283 381.576 364.158 382.222 363.907 382.76C363.656 383.296 363.311 383.709 362.872 383.999C362.433 384.286 361.933 384.43 361.37 384.43C360.947 384.43 360.6 384.359 360.331 384.217C360.065 384.075 359.856 383.908 359.705 383.718C359.553 383.527 359.437 383.358 359.355 383.209H359.274V386.908H357.917ZM359.246 380.809C359.246 381.299 359.317 381.728 359.46 382.098C359.602 382.467 359.807 382.756 360.077 382.964C360.346 383.17 360.676 383.273 361.066 383.273C361.471 383.273 361.81 383.165 362.083 382.951C362.355 382.733 362.561 382.438 362.7 382.066C362.842 381.694 362.913 381.275 362.913 380.809C362.913 380.349 362.843 379.936 362.704 379.57C362.568 379.204 362.362 378.915 362.087 378.703C361.815 378.491 361.474 378.385 361.066 378.385C360.673 378.385 360.34 378.487 360.068 378.69C359.798 378.892 359.594 379.175 359.455 379.538C359.316 379.901 359.246 380.325 359.246 380.809ZM367.161 375V384.294H365.804V375H367.161ZM371.99 384.435C371.303 384.435 370.712 384.288 370.216 383.994C369.723 383.698 369.341 383.282 369.072 382.746C368.806 382.208 368.673 381.577 368.673 380.854C368.673 380.14 368.806 379.511 369.072 378.966C369.341 378.422 369.717 377.997 370.198 377.691C370.682 377.386 371.247 377.233 371.895 377.233C372.288 377.233 372.669 377.298 373.038 377.428C373.408 377.558 373.739 377.762 374.032 378.041C374.326 378.319 374.557 378.68 374.727 379.125C374.896 379.567 374.981 380.104 374.981 380.736V381.217H369.44V380.201H373.651C373.651 379.844 373.578 379.528 373.433 379.252C373.288 378.974 373.084 378.755 372.821 378.594C372.56 378.434 372.255 378.354 371.904 378.354C371.523 378.354 371.19 378.447 370.906 378.635C370.624 378.82 370.406 379.062 370.252 379.361C370.101 379.658 370.025 379.98 370.025 380.328V381.122C370.025 381.588 370.107 381.984 370.27 382.311C370.437 382.638 370.668 382.887 370.965 383.06C371.261 383.229 371.607 383.314 372.004 383.314C372.261 383.314 372.495 383.277 372.707 383.205C372.919 383.129 373.102 383.017 373.256 382.869C373.411 382.721 373.529 382.538 373.61 382.32L374.894 382.551C374.792 382.93 374.607 383.261 374.341 383.545C374.078 383.827 373.746 384.046 373.347 384.203C372.951 384.357 372.498 384.435 371.99 384.435ZM385.659 383.881L384.842 383.073L387.678 380.237H380.553V379.057H387.678L384.842 376.225L385.659 375.413L389.893 379.647L385.659 383.881ZM403.271 378.022H401.855C401.8 377.72 401.699 377.454 401.551 377.224C401.402 376.994 401.221 376.799 401.006 376.638C400.791 376.478 400.551 376.357 400.285 376.275C400.021 376.194 399.742 376.153 399.445 376.153C398.91 376.153 398.43 376.287 398.006 376.557C397.586 376.826 397.253 377.221 397.008 377.741C396.766 378.261 396.645 378.897 396.645 379.647C396.645 380.403 396.766 381.042 397.008 381.562C397.253 382.082 397.587 382.476 398.011 382.742C398.435 383.008 398.911 383.141 399.44 383.141C399.734 383.141 400.012 383.102 400.275 383.023C400.542 382.942 400.782 382.822 400.997 382.665C401.212 382.507 401.393 382.315 401.542 382.088C401.693 381.859 401.797 381.595 401.855 381.299L403.271 381.303C403.195 381.76 403.048 382.181 402.83 382.565C402.616 382.946 402.339 383.276 402 383.554C401.664 383.83 401.28 384.043 400.847 384.194C400.415 384.345 399.943 384.421 399.431 384.421C398.627 384.421 397.91 384.23 397.28 383.849C396.651 383.465 396.155 382.916 395.792 382.202C395.432 381.488 395.252 380.636 395.252 379.647C395.252 378.655 395.433 377.803 395.796 377.092C396.16 376.378 396.656 375.831 397.285 375.449C397.914 375.065 398.63 374.873 399.431 374.873C399.925 374.873 400.384 374.944 400.811 375.086C401.241 375.226 401.626 375.431 401.968 375.704C402.31 375.973 402.593 376.303 402.817 376.693C403.041 377.08 403.192 377.523 403.271 378.022ZM407.776 384.435C407.122 384.435 406.552 384.285 406.065 383.985C405.578 383.686 405.2 383.267 404.93 382.728C404.661 382.19 404.526 381.561 404.526 380.841C404.526 380.117 404.661 379.485 404.93 378.944C405.2 378.402 405.578 377.982 406.065 377.682C406.552 377.383 407.122 377.233 407.776 377.233C408.429 377.233 408.999 377.383 409.486 377.682C409.974 377.982 410.352 378.402 410.621 378.944C410.89 379.485 411.025 380.117 411.025 380.841C411.025 381.561 410.89 382.19 410.621 382.728C410.352 383.267 409.974 383.686 409.486 383.985C408.999 384.285 408.429 384.435 407.776 384.435ZM407.78 383.296C408.204 383.296 408.555 383.184 408.833 382.96C409.111 382.736 409.317 382.438 409.45 382.066C409.586 381.694 409.654 381.284 409.654 380.836C409.654 380.391 409.586 379.983 409.45 379.611C409.317 379.236 409.111 378.935 408.833 378.708C408.555 378.481 408.204 378.367 407.78 378.367C407.354 378.367 407 378.481 406.718 378.708C406.44 378.935 406.233 379.236 406.097 379.611C405.963 379.983 405.897 380.391 405.897 380.836C405.897 381.284 405.963 381.694 406.097 382.066C406.233 382.438 406.44 382.736 406.718 382.96C407 383.184 407.354 383.296 407.78 383.296ZM413.896 380.155V384.294H412.539V375H413.878V378.458H413.964C414.128 378.083 414.377 377.785 414.713 377.564C415.049 377.343 415.488 377.233 416.029 377.233C416.507 377.233 416.925 377.331 417.282 377.528C417.642 377.724 417.92 378.018 418.117 378.408C418.316 378.795 418.416 379.279 418.416 379.86V384.294H417.059V380.024C417.059 379.512 416.928 379.116 416.664 378.835C416.401 378.55 416.035 378.408 415.566 378.408C415.246 378.408 414.958 378.476 414.704 378.612C414.453 378.749 414.255 378.948 414.11 379.211C413.967 379.472 413.896 379.786 413.896 380.155ZM423.163 384.435C422.509 384.435 421.939 384.285 421.452 383.985C420.965 383.686 420.587 383.267 420.318 382.728C420.048 382.19 419.914 381.561 419.914 380.841C419.914 380.117 420.048 379.485 420.318 378.944C420.587 378.402 420.965 377.982 421.452 377.682C421.939 377.383 422.509 377.233 423.163 377.233C423.816 377.233 424.387 377.383 424.874 377.682C425.361 377.982 425.739 378.402 426.008 378.944C426.277 379.485 426.412 380.117 426.412 380.841C426.412 381.561 426.277 382.19 426.008 382.728C425.739 383.267 425.361 383.686 424.874 383.985C424.387 384.285 423.816 384.435 423.163 384.435ZM423.167 383.296C423.591 383.296 423.942 383.184 424.22 382.96C424.499 382.736 424.704 382.438 424.837 382.066C424.974 381.694 425.042 381.284 425.042 380.836C425.042 380.391 424.974 379.983 424.837 379.611C424.704 379.236 424.499 378.935 424.22 378.708C423.942 378.481 423.591 378.367 423.167 378.367C422.741 378.367 422.387 378.481 422.106 378.708C421.827 378.935 421.62 379.236 421.484 379.611C421.351 379.983 421.284 380.391 421.284 380.836C421.284 381.284 421.351 381.694 421.484 382.066C421.62 382.438 421.827 382.736 422.106 382.96C422.387 383.184 422.741 383.296 423.167 383.296ZM427.927 384.294V377.324H429.238V378.431H429.311C429.438 378.056 429.662 377.761 429.982 377.546C430.306 377.328 430.672 377.219 431.081 377.219C431.165 377.219 431.265 377.222 431.38 377.228C431.498 377.234 431.59 377.242 431.657 377.251V378.549C431.602 378.534 431.506 378.517 431.366 378.499C431.227 378.478 431.088 378.467 430.949 378.467C430.628 378.467 430.342 378.535 430.091 378.671C429.843 378.804 429.647 378.991 429.501 379.23C429.356 379.466 429.284 379.735 429.284 380.037V384.294H427.927ZM436.497 377.324V378.413H432.689V377.324H436.497ZM433.71 375.654H435.067V382.247C435.067 382.511 435.107 382.709 435.185 382.842C435.264 382.972 435.365 383.061 435.489 383.11C435.616 383.155 435.754 383.178 435.902 383.178C436.011 383.178 436.106 383.17 436.188 383.155C436.27 383.14 436.333 383.128 436.379 383.119L436.624 384.239C436.545 384.27 436.433 384.3 436.288 384.33C436.143 384.364 435.961 384.382 435.743 384.385C435.386 384.391 435.054 384.327 434.745 384.194C434.436 384.061 434.187 383.855 433.996 383.577C433.806 383.299 433.71 382.949 433.71 382.529V375.654Z" fill="#3DB573"/>
<path d="M199.92 270.505V261.211H203.233C203.956 261.211 204.555 261.343 205.03 261.606C205.505 261.869 205.861 262.229 206.097 262.686C206.333 263.14 206.451 263.651 206.451 264.22C206.451 264.792 206.331 265.306 206.092 265.763C205.856 266.216 205.499 266.576 205.021 266.843C204.546 267.106 203.949 267.238 203.229 267.238H200.951V266.049H203.102C203.558 266.049 203.929 265.97 204.213 265.813C204.498 265.652 204.707 265.434 204.84 265.159C204.973 264.884 205.039 264.571 205.039 264.22C205.039 263.869 204.973 263.557 204.84 263.285C204.707 263.013 204.496 262.799 204.209 262.645C203.924 262.491 203.549 262.414 203.083 262.414H201.323V270.505H199.92ZM210.902 270.646C210.216 270.646 209.624 270.499 209.128 270.205C208.635 269.909 208.254 269.493 207.984 268.957C207.718 268.419 207.585 267.788 207.585 267.065C207.585 266.351 207.718 265.722 207.984 265.177C208.254 264.633 208.629 264.208 209.11 263.902C209.594 263.597 210.16 263.444 210.807 263.444C211.2 263.444 211.582 263.509 211.951 263.639C212.32 263.769 212.651 263.973 212.945 264.252C213.238 264.53 213.469 264.891 213.639 265.336C213.808 265.778 213.893 266.315 213.893 266.947V267.428H208.352V266.412H212.563C212.563 266.055 212.491 265.738 212.346 265.463C212.2 265.185 211.996 264.965 211.733 264.805C211.473 264.645 211.167 264.565 210.816 264.565C210.435 264.565 210.102 264.658 209.818 264.846C209.536 265.031 209.319 265.273 209.164 265.572C209.013 265.869 208.937 266.191 208.937 266.539V267.333C208.937 267.799 209.019 268.195 209.183 268.522C209.349 268.849 209.58 269.098 209.877 269.271C210.173 269.44 210.52 269.525 210.916 269.525C211.173 269.525 211.408 269.488 211.619 269.416C211.831 269.34 212.014 269.228 212.169 269.08C212.323 268.932 212.441 268.749 212.522 268.531L213.807 268.762C213.704 269.14 213.519 269.472 213.253 269.756C212.99 270.037 212.659 270.257 212.259 270.414C211.863 270.568 211.411 270.646 210.902 270.646ZM218.335 270.646C217.681 270.646 217.111 270.496 216.624 270.196C216.137 269.897 215.758 269.478 215.489 268.939C215.22 268.401 215.085 267.771 215.085 267.051C215.085 266.328 215.22 265.696 215.489 265.155C215.758 264.613 216.137 264.193 216.624 263.893C217.111 263.594 217.681 263.444 218.335 263.444C218.988 263.444 219.558 263.594 220.045 263.893C220.532 264.193 220.911 264.613 221.18 265.155C221.449 265.696 221.584 266.328 221.584 267.051C221.584 267.771 221.449 268.401 221.18 268.939C220.911 269.478 220.532 269.897 220.045 270.196C219.558 270.496 218.988 270.646 218.335 270.646ZM218.339 269.507C218.763 269.507 219.114 269.395 219.392 269.171C219.67 268.947 219.876 268.649 220.009 268.277C220.145 267.905 220.213 267.495 220.213 267.047C220.213 266.602 220.145 266.194 220.009 265.822C219.876 265.447 219.67 265.146 219.392 264.919C219.114 264.692 218.763 264.578 218.339 264.578C217.912 264.578 217.559 264.692 217.277 264.919C216.999 265.146 216.792 265.447 216.655 265.822C216.522 266.194 216.456 266.602 216.456 267.047C216.456 267.495 216.522 267.905 216.655 268.277C216.792 268.649 216.999 268.947 217.277 269.171C217.559 269.395 217.912 269.507 218.339 269.507ZM223.098 273.119V263.535H224.423V264.664H224.537C224.616 264.519 224.729 264.351 224.877 264.161C225.025 263.97 225.231 263.804 225.494 263.662C225.758 263.516 226.105 263.444 226.538 263.444C227.101 263.444 227.603 263.586 228.045 263.87C228.486 264.155 228.833 264.565 229.084 265.1C229.338 265.636 229.465 266.28 229.465 267.033C229.465 267.787 229.34 268.433 229.088 268.971C228.837 269.507 228.492 269.919 228.054 270.21C227.615 270.497 227.114 270.641 226.552 270.641C226.128 270.641 225.782 270.57 225.513 270.428C225.246 270.286 225.038 270.119 224.886 269.929C224.735 269.738 224.619 269.569 224.537 269.42H224.455V273.119H223.098ZM224.428 267.02C224.428 267.51 224.499 267.939 224.641 268.308C224.783 268.678 224.989 268.967 225.258 269.175C225.528 269.381 225.857 269.484 226.248 269.484C226.653 269.484 226.992 269.376 227.264 269.162C227.536 268.944 227.742 268.649 227.881 268.277C228.024 267.905 228.095 267.486 228.095 267.02C228.095 266.56 228.025 266.147 227.886 265.781C227.75 265.415 227.544 265.126 227.269 264.914C226.996 264.702 226.656 264.596 226.248 264.596C225.854 264.596 225.522 264.698 225.249 264.9C224.98 265.103 224.776 265.386 224.637 265.749C224.498 266.112 224.428 266.536 224.428 267.02ZM232.342 261.211V270.505H230.985V261.211H232.342ZM237.172 270.646C236.485 270.646 235.894 270.499 235.397 270.205C234.904 269.909 234.523 269.493 234.254 268.957C233.988 268.419 233.854 267.788 233.854 267.065C233.854 266.351 233.988 265.722 234.254 265.177C234.523 264.633 234.898 264.208 235.379 263.902C235.863 263.597 236.429 263.444 237.076 263.444C237.47 263.444 237.851 263.509 238.22 263.639C238.589 263.769 238.92 263.973 239.214 264.252C239.507 264.53 239.739 264.891 239.908 265.336C240.078 265.778 240.162 266.315 240.162 266.947V267.428H234.621V266.412H238.833C238.833 266.055 238.76 265.738 238.615 265.463C238.47 265.185 238.265 264.965 238.002 264.805C237.742 264.645 237.436 264.565 237.086 264.565C236.704 264.565 236.372 264.658 236.087 264.846C235.806 265.031 235.588 265.273 235.434 265.572C235.282 265.869 235.207 266.191 235.207 266.539V267.333C235.207 267.799 235.289 268.195 235.452 268.522C235.618 268.849 235.85 269.098 236.146 269.271C236.443 269.44 236.789 269.525 237.185 269.525C237.443 269.525 237.677 269.488 237.889 269.416C238.101 269.34 238.284 269.228 238.438 269.08C238.592 268.932 238.71 268.749 238.792 268.531L240.076 268.762C239.973 269.14 239.789 269.472 239.522 269.756C239.259 270.037 238.928 270.257 238.529 270.414C238.132 270.568 237.68 270.646 237.172 270.646Z" fill="#0070F4"/>
<path d="M340.452 261.345H341.858V267.458C341.858 268.108 341.706 268.684 341.4 269.187C341.095 269.686 340.665 270.079 340.111 270.366C339.558 270.651 338.909 270.793 338.165 270.793C337.423 270.793 336.776 270.651 336.222 270.366C335.669 270.079 335.239 269.686 334.933 269.187C334.628 268.684 334.475 268.108 334.475 267.458V261.345H335.877V267.344C335.877 267.765 335.97 268.138 336.154 268.465C336.342 268.792 336.606 269.049 336.948 269.236C337.29 269.421 337.696 269.513 338.165 269.513C338.636 269.513 339.043 269.421 339.385 269.236C339.73 269.049 339.993 268.792 340.175 268.465C340.359 268.138 340.452 267.765 340.452 267.344V261.345ZM349.012 265.37L347.782 265.588C347.73 265.431 347.649 265.281 347.537 265.139C347.428 264.996 347.279 264.88 347.092 264.789C346.904 264.698 346.67 264.653 346.389 264.653C346.004 264.653 345.684 264.739 345.426 264.912C345.169 265.081 345.041 265.3 345.041 265.57C345.041 265.803 345.127 265.99 345.299 266.132C345.472 266.275 345.75 266.391 346.134 266.482L347.242 266.736C347.883 266.884 348.361 267.113 348.676 267.421C348.99 267.73 349.148 268.131 349.148 268.624C349.148 269.041 349.027 269.413 348.785 269.74C348.546 270.064 348.211 270.318 347.782 270.503C347.355 270.687 346.86 270.779 346.298 270.779C345.517 270.779 344.88 270.613 344.387 270.28C343.894 269.944 343.592 269.468 343.48 268.851L344.791 268.651C344.873 268.993 345.041 269.252 345.295 269.427C345.549 269.599 345.88 269.686 346.289 269.686C346.733 269.686 347.089 269.593 347.355 269.409C347.621 269.221 347.754 268.993 347.754 268.724C347.754 268.506 347.673 268.323 347.509 268.175C347.349 268.026 347.103 267.914 346.77 267.839L345.59 267.58C344.939 267.432 344.458 267.196 344.147 266.872C343.838 266.548 343.684 266.138 343.684 265.642C343.684 265.231 343.799 264.871 344.029 264.562C344.259 264.254 344.576 264.013 344.982 263.841C345.387 263.665 345.852 263.578 346.375 263.578C347.128 263.578 347.721 263.741 348.154 264.068C348.586 264.391 348.872 264.825 349.012 265.37ZM353.644 270.779C352.957 270.779 352.365 270.633 351.869 270.339C351.376 270.043 350.995 269.627 350.726 269.091C350.459 268.553 350.326 267.922 350.326 267.199C350.326 266.485 350.459 265.856 350.726 265.311C350.995 264.766 351.37 264.341 351.851 264.036C352.335 263.73 352.901 263.578 353.548 263.578C353.942 263.578 354.323 263.643 354.692 263.773C355.061 263.903 355.392 264.107 355.686 264.385C355.979 264.664 356.211 265.025 356.38 265.47C356.549 265.912 356.634 266.449 356.634 267.081V267.562H351.093V266.545H355.305C355.305 266.188 355.232 265.872 355.087 265.597C354.942 265.319 354.737 265.099 354.474 264.939C354.214 264.779 353.908 264.698 353.557 264.698C353.176 264.698 352.843 264.792 352.559 264.98C352.278 265.164 352.06 265.406 351.906 265.706C351.754 266.002 351.679 266.325 351.679 266.672V267.467C351.679 267.933 351.76 268.329 351.924 268.656C352.09 268.982 352.322 269.232 352.618 269.404C352.915 269.574 353.261 269.658 353.657 269.658C353.914 269.658 354.149 269.622 354.361 269.55C354.572 269.474 354.755 269.362 354.91 269.214C355.064 269.065 355.182 268.882 355.264 268.665L356.548 268.896C356.445 269.274 356.261 269.606 355.994 269.89C355.731 270.171 355.4 270.391 355.001 270.548C354.604 270.702 354.152 270.779 353.644 270.779ZM358.14 270.639V263.668H359.451V264.776H359.524C359.651 264.4 359.875 264.105 360.195 263.891C360.519 263.673 360.885 263.564 361.294 263.564C361.378 263.564 361.478 263.567 361.593 263.573C361.711 263.579 361.803 263.587 361.87 263.596V264.894C361.815 264.878 361.719 264.862 361.579 264.844C361.44 264.822 361.301 264.812 361.162 264.812C360.841 264.812 360.555 264.88 360.304 265.016C360.056 265.149 359.86 265.335 359.714 265.574C359.569 265.81 359.497 266.079 359.497 266.382V270.639H358.14ZM367.937 261.345V270.639H366.535V261.345H367.937ZM372.988 270.639H369.979V261.345H373.083C373.994 261.345 374.776 261.531 375.429 261.903C376.083 262.272 376.584 262.803 376.932 263.496C377.282 264.186 377.458 265.013 377.458 265.978C377.458 266.946 377.281 267.778 376.927 268.474C376.576 269.17 376.068 269.705 375.402 270.08C374.737 270.453 373.932 270.639 372.988 270.639ZM371.382 269.413H372.911C373.619 269.413 374.207 269.28 374.676 269.014C375.145 268.745 375.496 268.356 375.729 267.848C375.962 267.337 376.078 266.713 376.078 265.978C376.078 265.249 375.962 264.63 375.729 264.122C375.499 263.614 375.156 263.228 374.699 262.965C374.242 262.702 373.675 262.57 372.997 262.57H371.382V269.413Z" fill="#0070F4"/>
<path d="M436.137 261.211V270.505H434.735V261.211H436.137ZM441.188 270.505H438.179V261.211H441.283C442.194 261.211 442.976 261.397 443.629 261.769C444.283 262.138 444.784 262.669 445.131 263.362C445.482 264.052 445.658 264.879 445.658 265.844C445.658 266.812 445.481 267.644 445.127 268.34C444.776 269.036 444.268 269.572 443.602 269.947C442.937 270.319 442.132 270.505 441.188 270.505ZM439.582 269.28H441.111C441.819 269.28 442.407 269.147 442.876 268.88C443.345 268.611 443.696 268.222 443.929 267.714C444.162 267.203 444.278 266.58 444.278 265.844C444.278 265.115 444.162 264.497 443.929 263.988C443.699 263.48 443.356 263.094 442.899 262.831C442.442 262.568 441.875 262.436 441.197 262.436H439.582V269.28Z" fill="#0070F4"/>
<path d="M267.845 270.505L265.304 261.211H266.447L268.389 268.78H268.48L270.459 261.211H271.729L273.708 268.78H273.799L275.741 261.211H276.885L274.343 270.505H273.181L271.13 263.099H271.058L269.007 270.505H267.845ZM278.287 270.505V261.211H279.412V265.35H284.368V261.211H285.493V270.505H284.368V266.348H279.412V270.505H278.287ZM287.746 270.505V261.211H293.355V262.209H288.872V265.35H293.065V266.348H288.872V269.507H293.428V270.505H287.746ZM295.384 270.505V261.211H298.524C299.25 261.211 299.846 261.335 300.312 261.583C300.778 261.828 301.123 262.166 301.347 262.595C301.57 263.025 301.682 263.513 301.682 264.061C301.682 264.609 301.57 265.094 301.347 265.518C301.123 265.941 300.779 266.274 300.316 266.516C299.854 266.755 299.262 266.874 298.542 266.874H296.001V265.858H298.506C299.002 265.858 299.401 265.785 299.704 265.64C300.009 265.495 300.23 265.289 300.366 265.023C300.506 264.754 300.575 264.433 300.575 264.061C300.575 263.689 300.506 263.364 300.366 263.085C300.227 262.807 300.005 262.592 299.699 262.441C299.394 262.287 298.99 262.209 298.488 262.209H296.509V270.505H295.384ZM299.758 266.33L302.045 270.505H300.739L298.488 266.33H299.758ZM303.558 270.505V261.211H309.167V262.209H304.683V265.35H308.876V266.348H304.683V269.507H309.239V270.505H303.558Z" fill="black"/>
<path d="M402.475 266.044V264.851H408.288V266.044H402.475ZM402.475 268.839V267.646H408.288V268.839H402.475Z" fill="black"/>
<path d="M472.599 379.082V372.626H471.708V379.082H465.252V379.973H471.708V386.429H472.599V379.973H479.055V379.082H472.599Z" fill="black"/>
</svg>
