<svg width="1611" height="1334" viewBox="0 0 1611 1334" fill="none" xmlns="http://www.w3.org/2000/svg">
<rect width="1611" height="1334" fill="#262627"/>
<path d="M394.239 631.924L460.435 565.729L483.059 588.352L416.098 655.312H511.551V687.306H415.404L481.611 756.406L458.51 778.541L394.239 711.461V803.551H362.245V709.164L295.285 776.124L272.662 753.501L338.856 687.306H246V655.312H340.44L274.795 586.796L297.896 564.661L362.245 631.822V538H394.239V631.924Z" fill="#0070F4"/>
<path d="M1214.16 551.001C1222.95 533.666 1247.8 533.666 1256.59 551.001V551.001C1262.54 562.73 1276.94 567.391 1288.67 561.386V561.386C1306.01 552.511 1326.11 567.062 1323 586.236V586.236C1320.89 599.209 1329.79 611.41 1342.83 613.423V613.423C1362.09 616.398 1369.77 639.941 1355.94 653.63V653.63C1346.58 662.892 1346.58 677.974 1355.94 687.236V687.236C1369.77 700.925 1362.09 724.468 1342.83 727.443V727.443C1329.79 729.456 1320.89 741.657 1323 754.63V754.63C1326.11 773.805 1306.01 788.355 1288.67 779.48V779.48C1276.94 773.475 1262.54 778.136 1256.59 789.865V789.865C1247.8 807.2 1222.95 807.2 1214.16 789.865V789.865C1208.21 778.136 1193.81 773.475 1182.08 779.48V779.48C1164.74 788.355 1144.64 773.805 1147.75 754.63V754.63C1149.86 741.657 1140.96 729.456 1127.92 727.443V727.443C1108.66 724.468 1100.98 700.925 1114.81 687.236V687.236C1124.17 677.974 1124.17 662.892 1114.81 653.63V653.63C1100.98 639.941 1108.66 616.398 1127.92 613.423V613.423C1140.96 611.41 1149.86 599.209 1147.75 586.236V586.236C1144.64 567.062 1164.74 552.511 1182.08 561.386V561.386C1193.81 567.391 1208.21 562.73 1214.16 551.001V551.001Z" fill="white"/>
<path d="M806.143 539.781C807.159 538.79 808.779 538.79 809.795 539.781L846.4 575.49C846.882 575.96 847.526 576.226 848.199 576.233L899.432 576.762C900.854 576.777 902.004 577.927 902.019 579.35L902.551 630.355C902.558 631.032 902.827 631.679 903.301 632.161L939.135 668.6C940.136 669.617 940.136 671.249 939.135 672.267L903.301 708.705C902.827 709.187 902.558 709.834 902.551 710.511L902.019 761.516C902.004 762.939 900.854 764.089 899.432 764.104L848.199 764.633C847.526 764.64 846.882 764.906 846.4 765.376L809.795 801.085C808.779 802.076 807.159 802.076 806.143 801.085L769.538 765.376C769.056 764.906 768.412 764.64 767.739 764.633L716.507 764.104C715.084 764.089 713.934 762.939 713.919 761.516L713.388 710.511C713.381 709.834 713.112 709.187 712.637 708.705L676.803 672.267C675.802 671.249 675.802 669.617 676.803 668.6L712.637 632.161C713.112 631.679 713.381 631.032 713.388 630.355L713.919 579.35C713.934 577.927 715.084 576.777 716.507 576.762L767.739 576.233C768.412 576.226 769.056 575.96 769.538 575.49L806.143 539.781Z" fill="#4DE390"/>
<path d="M808.433 211L850.573 301.293L940.866 343.433L850.573 385.573L808.433 475.866L766.293 385.573L676 343.433L766.293 301.293L808.433 211Z" fill="white"/>
<path d="M1230.94 211L1237.92 326.304L1323.06 249.789L1247.79 336.338L1361.23 343.433L1247.79 350.528L1323.06 437.077L1237.92 360.562L1230.94 475.866L1223.96 360.562L1138.81 437.077L1214.08 350.528L1100.65 343.433L1214.08 336.338L1138.81 249.789L1223.96 326.304L1230.94 211Z" fill="#F9CF57"/>
<path d="M375.752 211L388.597 330.323L505.504 343.433L388.597 356.543L375.752 475.866L362.907 356.543L246 343.433L362.907 330.323L375.752 211Z" fill="#FC604D"/>
<path d="M1235.88 972.687L1257.46 868.205L1262.68 869.283L1241.43 972.2L1281.94 875.23L1286.86 877.286L1245.51 976.253L1306.42 887.967L1310.8 890.994L1252.04 976.179L1325.22 903.004L1328.99 906.774L1254.35 981.417L1342.06 922.685L1345.03 927.115L1257.99 985.395L1354.45 944.569L1356.53 949.479L1258.53 990.956L1362.85 969.942L1363.9 975.17L1259.96 996.108H1365.99V1001.44H1259.79L1363.88 1022.54L1362.82 1027.76L1258.9 1006.7L1356.62 1047.85L1354.55 1052.77L1256.21 1011.35L1344.12 1071.82L1341.1 1076.22L1255.66 1017.44L1328.99 1090.78L1325.22 1094.55L1250.22 1019.55L1308.91 1107.89L1304.47 1110.84L1246.07 1022.94L1286.32 1120.5L1281.39 1122.53L1241.1 1024.87L1261.61 1128.51L1256.38 1129.54L1235.88 1025.98V1131.55H1230.55V1024.86L1208.97 1129.34L1203.75 1128.27L1225.01 1025.34L1184.5 1122.32L1179.58 1120.26L1220.92 1021.3L1160.02 1109.58L1155.63 1106.56L1214.38 1021.38L1141.22 1094.55L1137.45 1090.78L1212.1 1016.12L1124.38 1074.87L1121.41 1070.43L1208.44 1012.16L1111.98 1052.98L1109.9 1048.07L1207.9 1006.59L1103.58 1027.61L1102.53 1022.38L1206.48 1001.44H1100.44V996.108H1206.64L1102.56 975.012L1103.62 969.786L1207.51 990.844L1109.82 949.698L1111.89 944.784L1210.24 986.207L1122.31 925.725L1125.33 921.332L1210.77 980.096L1137.45 906.774L1141.22 903.004L1216.21 977.999L1157.52 889.659L1161.96 886.709L1220.37 974.615L1180.11 877.052L1185.04 875.018L1225.33 972.678L1204.83 869.043L1210.06 868.008L1230.55 971.566V866H1235.88V972.687Z" fill="#33C894"/>
<path d="M373.711 891.736C444.244 891.736 501.422 916.654 501.422 947.392C501.422 970.816 468.215 990.86 421.197 999.073C468.215 1007.28 501.422 1027.33 501.422 1050.75C501.422 1081.49 444.244 1106.41 373.711 1106.41C303.178 1106.41 246 1081.49 246 1050.75C246 1027.33 279.206 1007.28 326.224 999.073C279.206 990.86 246 970.816 246 947.392C246 916.654 303.178 891.736 373.711 891.736Z" fill="#F9CF57"/>
<path d="M942.74 952.213L874.478 997.247L942.74 1037.78L811.985 1124.04L674 1037.78L746.036 997.247L674 952.213L811.985 874.579L942.74 952.213Z" fill="#FC604D"/>
<rect x="66.2698" y="55.2698" width="319.093" height="77.4605" rx="13.9675" fill="#3B3B3B"/>
<rect x="66.2698" y="55.2698" width="319.093" height="77.4605" rx="13.9675" stroke="#494949" stroke-width="2.53955"/>
<path d="M88.3601 107.5V79.7959H98.5056C100.472 79.7959 102.099 80.1205 103.389 80.7698C104.679 81.4101 105.644 82.2804 106.284 83.3806C106.924 84.4718 107.244 85.7028 107.244 87.0736C107.244 88.2279 107.032 89.2019 106.609 89.9955C106.185 90.7801 105.617 91.4114 104.904 91.8894C104.201 92.3583 103.425 92.701 102.577 92.9174V93.188C103.497 93.2331 104.395 93.5307 105.269 94.0808C106.153 94.6219 106.884 95.393 107.461 96.394C108.038 97.395 108.327 98.6125 108.327 100.046C108.327 101.462 107.993 102.734 107.326 103.861C106.667 104.979 105.648 105.868 104.268 106.526C102.889 107.175 101.125 107.5 98.9791 107.5H88.3601ZM92.54 103.915H98.5733C100.575 103.915 102.009 103.527 102.875 102.752C103.741 101.976 104.174 101.007 104.174 99.8435C104.174 98.9687 103.953 98.1661 103.511 97.4356C103.069 96.7051 102.438 96.1234 101.617 95.6906C100.805 95.2577 99.8403 95.0413 98.7221 95.0413H92.54V103.915ZM92.54 91.7811H98.1404C99.0783 91.7811 99.9215 91.6008 100.67 91.24C101.428 90.8793 102.027 90.3743 102.469 89.725C102.92 89.0666 103.146 88.2911 103.146 87.3983C103.146 86.2529 102.744 85.2925 101.942 84.5169C101.139 83.7414 99.908 83.3536 98.2486 83.3536H92.54V91.7811ZM112.96 107.5V86.7219H116.869V90.0226H117.086C117.464 88.9043 118.132 88.025 119.088 87.3847C120.053 86.7354 121.144 86.4108 122.361 86.4108C122.614 86.4108 122.911 86.4198 123.254 86.4378C123.606 86.4559 123.881 86.4784 124.079 86.5055V90.3743C123.917 90.3292 123.628 90.2796 123.213 90.2255C122.799 90.1624 122.384 90.1308 121.969 90.1308C121.013 90.1308 120.161 90.3337 119.412 90.7395C118.673 91.1363 118.087 91.691 117.654 92.4034C117.221 93.1068 117.004 93.9095 117.004 94.8113V107.5H112.96ZM133.44 107.96C132.124 107.96 130.933 107.716 129.869 107.229C128.805 106.733 127.962 106.016 127.339 105.079C126.726 104.141 126.419 102.991 126.419 101.629C126.419 100.457 126.645 99.4918 127.096 98.7342C127.547 97.9767 128.155 97.377 128.922 96.9351C129.689 96.4932 130.545 96.1595 131.492 95.9341C132.439 95.7086 133.404 95.5373 134.387 95.42C135.632 95.2757 136.642 95.1585 137.417 95.0683C138.193 94.9691 138.756 94.8113 139.108 94.5948C139.46 94.3784 139.636 94.0267 139.636 93.5397V93.445C139.636 92.2636 139.302 91.3483 138.635 90.699C137.976 90.0496 136.993 89.725 135.686 89.725C134.324 89.725 133.251 90.0271 132.466 90.6313C131.691 91.2265 131.154 91.8894 130.856 92.6198L127.055 91.7541C127.506 90.4915 128.164 89.4725 129.03 88.6969C129.905 87.9123 130.911 87.3442 132.047 86.9924C133.183 86.6317 134.378 86.4513 135.632 86.4513C136.461 86.4513 137.341 86.5505 138.269 86.7489C139.207 86.9383 140.082 87.29 140.894 87.8041C141.714 88.3181 142.386 89.0531 142.909 90.0091C143.432 90.956 143.694 92.187 143.694 93.702V107.5H139.744V104.659H139.582C139.32 105.182 138.928 105.696 138.405 106.201C137.882 106.706 137.21 107.126 136.389 107.459C135.568 107.793 134.586 107.96 133.44 107.96ZM134.319 104.713C135.438 104.713 136.394 104.492 137.187 104.051C137.99 103.609 138.599 103.031 139.013 102.319C139.437 101.598 139.649 100.826 139.649 100.006V97.3274C139.505 97.4717 139.225 97.607 138.811 97.7332C138.405 97.8504 137.94 97.9542 137.417 98.0443C136.894 98.1255 136.385 98.2022 135.889 98.2743C135.393 98.3374 134.978 98.3915 134.644 98.4366C133.86 98.5358 133.143 98.7027 132.493 98.9371C131.853 99.1716 131.339 99.5098 130.951 99.9517C130.572 100.385 130.383 100.962 130.383 101.683C130.383 102.684 130.753 103.442 131.492 103.956C132.232 104.461 133.174 104.713 134.319 104.713ZM153.126 95.163V107.5H149.081V86.7219H152.964V90.1037H153.221C153.699 89.0035 154.447 88.1197 155.466 87.4524C156.494 86.785 157.788 86.4513 159.349 86.4513C160.764 86.4513 162.004 86.7489 163.069 87.3442C164.133 87.9303 164.958 88.8051 165.544 89.9685C166.13 91.1318 166.423 92.5702 166.423 94.2837V107.5H162.379V94.7707C162.379 93.2647 161.986 92.0878 161.202 91.24C160.417 90.3833 159.34 89.9549 157.969 89.9549C157.031 89.9549 156.197 90.1579 155.466 90.5637C154.745 90.9695 154.172 91.5647 153.748 92.3493C153.333 93.1249 153.126 94.0628 153.126 95.163ZM179.626 107.906C177.949 107.906 176.452 107.477 175.135 106.621C173.827 105.755 172.799 104.524 172.051 102.928C171.311 101.322 170.942 99.3971 170.942 97.1515C170.942 94.906 171.316 92.9851 172.064 91.3889C172.822 89.7926 173.859 88.5706 175.176 87.7229C176.492 86.8752 177.985 86.4513 179.653 86.4513C180.943 86.4513 181.98 86.6678 182.765 87.1007C183.558 87.5245 184.171 88.0205 184.604 88.5887C185.046 89.1568 185.389 89.6573 185.632 90.0902H185.876V79.7959H189.921V107.5H185.971V104.267H185.632C185.389 104.709 185.037 105.214 184.577 105.782C184.126 106.35 183.504 106.846 182.71 107.27C181.917 107.694 180.889 107.906 179.626 107.906ZM180.519 104.456C181.682 104.456 182.665 104.15 183.468 103.536C184.28 102.914 184.893 102.053 185.308 100.953C185.732 99.8525 185.943 98.5719 185.943 97.1109C185.943 95.668 185.736 94.4055 185.321 93.3233C184.906 92.2411 184.298 91.3979 183.495 90.7936C182.692 90.1894 181.7 89.8873 180.519 89.8873C179.301 89.8873 178.287 90.2029 177.475 90.8342C176.664 91.4655 176.05 92.3268 175.636 93.418C175.23 94.5092 175.027 95.7402 175.027 97.1109C175.027 98.4998 175.234 99.7488 175.649 100.858C176.064 101.967 176.677 102.847 177.489 103.496C178.309 104.136 179.32 104.456 180.519 104.456ZM218.017 91.8894V95.4065H205.734V91.8894H218.017ZM248.924 87.0736C248.779 85.793 248.184 84.801 247.138 84.0976C246.092 83.3851 244.775 83.0289 243.188 83.0289C242.052 83.0289 241.069 83.2093 240.239 83.57C239.409 83.9217 238.765 84.4087 238.305 85.031C237.854 85.6442 237.628 86.3431 237.628 87.1277C237.628 87.786 237.782 88.3542 238.088 88.8322C238.404 89.3101 238.814 89.7115 239.319 90.0361C239.833 90.3517 240.383 90.6178 240.97 90.8342C241.556 91.0416 242.119 91.213 242.661 91.3483L245.366 92.0517C246.25 92.2681 247.156 92.5612 248.085 92.931C249.014 93.3007 249.875 93.7877 250.669 94.3919C251.462 94.9962 252.103 95.7447 252.59 96.6375C253.086 97.5303 253.334 98.599 253.334 99.8435C253.334 101.413 252.928 102.806 252.116 104.023C251.314 105.241 250.146 106.201 248.613 106.905C247.088 107.608 245.244 107.96 243.08 107.96C241.006 107.96 239.211 107.631 237.696 106.972C236.181 106.314 234.995 105.381 234.138 104.172C233.282 102.955 232.808 101.512 232.718 99.8435H236.911C236.993 100.845 237.317 101.679 237.885 102.346C238.463 103.004 239.198 103.496 240.09 103.821C240.992 104.136 241.98 104.294 243.053 104.294C244.234 104.294 245.285 104.109 246.205 103.739C247.134 103.361 247.864 102.838 248.396 102.17C248.928 101.494 249.194 100.705 249.194 99.8029C249.194 98.9822 248.96 98.3104 248.491 97.7873C248.031 97.2643 247.404 96.8314 246.611 96.4887C245.826 96.146 244.938 95.8439 243.946 95.5823L240.672 94.6895C238.453 94.0853 236.695 93.197 235.396 92.0246C234.107 90.8523 233.462 89.3011 233.462 87.3712C233.462 85.775 233.895 84.3816 234.761 83.1912C235.626 82.0008 236.799 81.0765 238.278 80.4181C239.757 79.7508 241.425 79.4171 243.283 79.4171C245.159 79.4171 246.813 79.7463 248.247 80.4046C249.69 81.0629 250.827 81.9693 251.656 83.1236C252.486 84.2689 252.919 85.5856 252.955 87.0736H248.924ZM262.049 95.163V107.5H258.004V79.7959H261.995V90.1037H262.252C262.739 88.9855 263.483 88.0972 264.484 87.4388C265.485 86.7805 266.792 86.4513 268.407 86.4513C269.831 86.4513 271.076 86.7444 272.14 87.3306C273.213 87.9168 274.043 88.7916 274.629 89.9549C275.224 91.1093 275.522 92.5522 275.522 94.2837V107.5H271.477V94.7707C271.477 93.2466 271.085 92.0652 270.3 91.2265C269.516 90.3788 268.425 89.9549 267.027 89.9549C266.071 89.9549 265.214 90.1579 264.457 90.5637C263.708 90.9695 263.117 91.5647 262.684 92.3493C262.261 93.1249 262.049 94.0628 262.049 95.163ZM286.966 107.96C285.65 107.96 284.459 107.716 283.395 107.229C282.331 106.733 281.488 106.016 280.865 105.079C280.252 104.141 279.945 102.991 279.945 101.629C279.945 100.457 280.171 99.4918 280.622 98.7342C281.073 97.9767 281.681 97.377 282.448 96.9351C283.215 96.4932 284.071 96.1595 285.018 95.9341C285.965 95.7086 286.93 95.5373 287.913 95.42C289.158 95.2757 290.168 95.1585 290.943 95.0683C291.719 94.9691 292.282 94.8113 292.634 94.5948C292.986 94.3784 293.162 94.0267 293.162 93.5397V93.445C293.162 92.2636 292.828 91.3483 292.161 90.699C291.502 90.0496 290.519 89.725 289.212 89.725C287.85 89.725 286.777 90.0271 285.992 90.6313C285.217 91.2265 284.68 91.8894 284.382 92.6198L280.581 91.7541C281.032 90.4915 281.69 89.4725 282.556 88.6969C283.431 87.9123 284.437 87.3442 285.573 86.9924C286.709 86.6317 287.904 86.4513 289.158 86.4513C289.987 86.4513 290.867 86.5505 291.795 86.7489C292.733 86.9383 293.608 87.29 294.42 87.8041C295.24 88.3181 295.912 89.0531 296.435 90.0091C296.958 90.956 297.22 92.187 297.22 93.702V107.5H293.27V104.659H293.108C292.846 105.182 292.454 105.696 291.931 106.201C291.408 106.706 290.736 107.126 289.915 107.459C289.094 107.793 288.111 107.96 286.966 107.96ZM287.845 104.713C288.964 104.713 289.92 104.492 290.713 104.051C291.516 103.609 292.125 103.031 292.539 102.319C292.963 101.598 293.175 100.826 293.175 100.006V97.3274C293.031 97.4717 292.751 97.607 292.337 97.7332C291.931 97.8504 291.466 97.9542 290.943 98.0443C290.42 98.1255 289.911 98.2022 289.415 98.2743C288.919 98.3374 288.504 98.3915 288.17 98.4366C287.386 98.5358 286.669 98.7027 286.019 98.9371C285.379 99.1716 284.865 99.5098 284.477 99.9517C284.098 100.385 283.909 100.962 283.909 101.683C283.909 102.684 284.279 103.442 285.018 103.956C285.758 104.461 286.7 104.713 287.845 104.713ZM302.607 115.292V86.7219H306.557V90.0902H306.895C307.13 89.6573 307.468 89.1568 307.91 88.5887C308.352 88.0205 308.965 87.5245 309.75 87.1007C310.534 86.6678 311.571 86.4513 312.861 86.4513C314.538 86.4513 316.035 86.8752 317.352 87.7229C318.669 88.5706 319.701 89.7926 320.45 91.3889C321.207 92.9851 321.586 94.906 321.586 97.1515C321.586 99.3971 321.212 101.322 320.463 102.928C319.715 104.524 318.687 105.755 317.379 106.621C316.072 107.477 314.579 107.906 312.902 107.906C311.639 107.906 310.606 107.694 309.804 107.27C309.01 106.846 308.388 106.35 307.937 105.782C307.486 105.214 307.139 104.709 306.895 104.267H306.652V115.292H302.607ZM306.571 97.1109C306.571 98.5719 306.783 99.8525 307.207 100.953C307.63 102.053 308.244 102.914 309.046 103.536C309.849 104.15 310.832 104.456 311.995 104.456C313.204 104.456 314.214 104.136 315.025 103.496C315.837 102.847 316.45 101.967 316.865 100.858C317.289 99.7488 317.501 98.4998 317.501 97.1109C317.501 95.7402 317.294 94.5092 316.879 93.418C316.473 92.3268 315.86 91.4655 315.039 90.8342C314.227 90.2029 313.213 89.8873 311.995 89.8873C310.823 89.8873 309.831 90.1894 309.019 90.7936C308.217 91.3979 307.608 92.2411 307.193 93.3233C306.778 94.4055 306.571 95.668 306.571 97.1109ZM335.073 107.919C333.026 107.919 331.263 107.482 329.784 106.607C328.314 105.723 327.178 104.483 326.375 102.887C325.581 101.282 325.185 99.4016 325.185 97.2462C325.185 95.1179 325.581 93.2421 326.375 91.6188C327.178 89.9955 328.296 88.7285 329.73 87.8176C331.173 86.9068 332.859 86.4513 334.789 86.4513C335.961 86.4513 337.098 86.6452 338.198 87.033C339.298 87.4208 340.286 88.0295 341.16 88.8592C342.035 89.6889 342.725 90.7666 343.23 92.0923C343.735 93.4089 343.988 95.0097 343.988 96.8945V98.3284H327.471V95.2983H340.024C340.024 94.2341 339.808 93.2917 339.375 92.471C338.942 91.6414 338.333 90.9875 337.549 90.5096C336.773 90.0316 335.862 89.7926 334.816 89.7926C333.68 89.7926 332.688 90.0722 331.84 90.6313C331.001 91.1814 330.352 91.9029 329.892 92.7957C329.441 93.6795 329.216 94.6399 329.216 95.677V98.0443C329.216 99.4332 329.459 100.615 329.946 101.589C330.442 102.562 331.132 103.307 332.016 103.821C332.9 104.326 333.932 104.578 335.114 104.578C335.88 104.578 336.579 104.47 337.21 104.253C337.842 104.028 338.387 103.694 338.847 103.252C339.307 102.81 339.659 102.265 339.902 101.616L343.731 102.305C343.424 103.433 342.874 104.42 342.08 105.268C341.296 106.107 340.308 106.761 339.118 107.229C337.936 107.689 336.588 107.919 335.073 107.919ZM364.045 91.7947L360.379 92.444C360.226 91.975 359.983 91.5286 359.649 91.1048C359.324 90.6809 358.882 90.3337 358.323 90.0632C357.764 89.7926 357.065 89.6573 356.227 89.6573C355.081 89.6573 354.125 89.9144 353.359 90.4284C352.592 90.9334 352.209 91.5873 352.209 92.3899C352.209 93.0843 352.466 93.6434 352.98 94.0673C353.494 94.4911 354.324 94.8383 355.469 95.1089L358.77 95.8664C360.682 96.3083 362.106 96.9892 363.044 97.9091C363.982 98.8289 364.451 100.024 364.451 101.494C364.451 102.738 364.09 103.848 363.369 104.822C362.657 105.787 361.66 106.544 360.379 107.094C359.108 107.644 357.633 107.919 355.956 107.919C353.629 107.919 351.731 107.423 350.261 106.431C348.791 105.43 347.889 104.01 347.555 102.17L351.465 101.575C351.708 102.594 352.209 103.365 352.966 103.888C353.724 104.402 354.711 104.659 355.929 104.659C357.255 104.659 358.314 104.384 359.108 103.834C359.901 103.275 360.298 102.594 360.298 101.791C360.298 101.142 360.055 100.597 359.568 100.155C359.09 99.7127 358.355 99.379 357.363 99.1536L353.846 98.3825C351.907 97.9406 350.473 97.2372 349.544 96.2722C348.624 95.3073 348.164 94.0853 348.164 92.6063C348.164 91.3798 348.507 90.3067 349.192 89.3868C349.878 88.4669 350.825 87.75 352.033 87.2359C353.241 86.7129 354.626 86.4513 356.186 86.4513C358.432 86.4513 360.199 86.9383 361.489 87.9123C362.778 88.8773 363.631 90.1714 364.045 91.7947Z" fill="white"/>
</svg>
