<svg width="1611" height="1334" viewBox="0 0 1611 1334" fill="none" xmlns="http://www.w3.org/2000/svg">
<rect width="1611" height="1334" fill="#262627"/>
<path d="M68.1705 499V472.818H77.3239C79.1477 472.818 80.652 473.134 81.8366 473.764C83.0213 474.386 83.9034 475.226 84.483 476.283C85.0625 477.331 85.3523 478.494 85.3523 479.773C85.3523 480.898 85.152 481.827 84.7514 482.56C84.3594 483.293 83.8395 483.872 83.1918 484.298C82.5526 484.724 81.858 485.04 81.108 485.244V485.5C81.9091 485.551 82.7145 485.832 83.5241 486.344C84.3338 486.855 85.0114 487.588 85.5568 488.543C86.1023 489.497 86.375 490.665 86.375 492.045C86.375 493.358 86.0767 494.538 85.4801 495.587C84.8835 496.635 83.9418 497.466 82.6548 498.08C81.3679 498.693 79.6932 499 77.6307 499H68.1705ZM71.3409 496.188H77.6307C79.7017 496.188 81.1719 495.787 82.0412 494.986C82.919 494.176 83.358 493.196 83.358 492.045C83.358 491.159 83.1321 490.341 82.6804 489.591C82.2287 488.832 81.5852 488.227 80.75 487.776C79.9148 487.315 78.9261 487.085 77.7841 487.085H71.3409V496.188ZM71.3409 484.324H77.2216C78.1761 484.324 79.0369 484.136 79.804 483.761C80.5795 483.386 81.1932 482.858 81.6449 482.176C82.1051 481.494 82.3352 480.693 82.3352 479.773C82.3352 478.622 81.9347 477.646 81.1335 476.845C80.3324 476.036 79.0625 475.631 77.3239 475.631H71.3409V484.324ZM94.1925 472.818V499H91.1754V472.818H94.1925ZM112.093 490.972V479.364H115.11V499H112.093V495.676H111.889C111.429 496.673 110.713 497.521 109.741 498.22C108.77 498.911 107.542 499.256 106.059 499.256C104.832 499.256 103.741 498.987 102.787 498.45C101.832 497.905 101.082 497.087 100.537 495.996C99.9911 494.896 99.7184 493.511 99.7184 491.841V479.364H102.735V491.636C102.735 493.068 103.136 494.21 103.937 495.062C104.747 495.915 105.778 496.341 107.031 496.341C107.781 496.341 108.544 496.149 109.319 495.766C110.103 495.382 110.76 494.794 111.288 494.001C111.825 493.209 112.093 492.199 112.093 490.972ZM128.869 499.409C126.977 499.409 125.345 498.991 123.973 498.156C122.609 497.312 121.557 496.136 120.815 494.628C120.082 493.111 119.716 491.347 119.716 489.335C119.716 487.324 120.082 485.551 120.815 484.017C121.557 482.474 122.588 481.273 123.909 480.412C125.239 479.543 126.79 479.108 128.562 479.108C129.585 479.108 130.595 479.278 131.592 479.619C132.589 479.96 133.497 480.514 134.315 481.281C135.134 482.04 135.786 483.045 136.271 484.298C136.757 485.551 137 487.094 137 488.926V490.205H121.864V487.597H133.932C133.932 486.489 133.71 485.5 133.267 484.631C132.832 483.761 132.21 483.075 131.401 482.572C130.599 482.07 129.653 481.818 128.562 481.818C127.361 481.818 126.321 482.116 125.443 482.713C124.574 483.301 123.905 484.068 123.436 485.014C122.967 485.96 122.733 486.974 122.733 488.057V489.795C122.733 491.278 122.989 492.536 123.5 493.567C124.02 494.589 124.74 495.369 125.661 495.906C126.581 496.435 127.651 496.699 128.869 496.699C129.662 496.699 130.378 496.588 131.017 496.366C131.665 496.136 132.223 495.795 132.692 495.344C133.161 494.884 133.523 494.312 133.778 493.631L136.693 494.449C136.386 495.438 135.871 496.307 135.146 497.057C134.422 497.798 133.527 498.378 132.462 498.795C131.396 499.205 130.199 499.409 128.869 499.409Z" fill="white"/>
<path d="M256.691 392.358C255.191 392.358 253.84 392.06 252.638 391.463C251.437 390.866 250.474 390.048 249.749 389.009C249.025 387.969 248.628 386.784 248.56 385.455H251.628C251.748 386.639 252.285 387.619 253.239 388.395C254.202 389.162 255.353 389.545 256.691 389.545C257.765 389.545 258.719 389.294 259.555 388.791C260.398 388.288 261.059 387.598 261.536 386.72C262.022 385.834 262.265 384.832 262.265 383.716C262.265 382.574 262.013 381.555 261.51 380.661C261.016 379.757 260.334 379.045 259.465 378.526C258.596 378.006 257.603 377.741 256.486 377.733C255.685 377.724 254.863 377.848 254.019 378.104C253.175 378.351 252.481 378.67 251.935 379.062L248.969 378.705L250.555 365.818H264.157V368.631H253.214L252.293 376.352H252.447C252.983 375.926 253.657 375.572 254.466 375.291C255.276 375.01 256.12 374.869 256.998 374.869C258.6 374.869 260.028 375.253 261.28 376.02C262.542 376.778 263.53 377.818 264.246 379.139C264.971 380.46 265.333 381.969 265.333 383.665C265.333 385.335 264.958 386.827 264.208 388.139C263.466 389.443 262.444 390.474 261.14 391.233C259.836 391.983 258.353 392.358 256.691 392.358ZM278.951 392.358C277.025 392.358 275.384 391.834 274.029 390.786C272.674 389.729 271.639 388.199 270.923 386.196C270.207 384.185 269.849 381.756 269.849 378.909C269.849 376.08 270.207 373.663 270.923 371.661C271.647 369.649 272.687 368.115 274.042 367.058C275.406 365.993 277.042 365.46 278.951 365.46C280.86 365.46 282.492 365.993 283.847 367.058C285.211 368.115 286.251 369.649 286.967 371.661C287.691 373.663 288.053 376.08 288.053 378.909C288.053 381.756 287.695 384.185 286.98 386.196C286.264 388.199 285.228 389.729 283.873 390.786C282.518 391.834 280.877 392.358 278.951 392.358ZM278.951 389.545C280.86 389.545 282.343 388.625 283.4 386.784C284.457 384.943 284.985 382.318 284.985 378.909C284.985 376.642 284.742 374.712 284.257 373.118C283.779 371.524 283.089 370.31 282.186 369.474C281.291 368.639 280.213 368.222 278.951 368.222C277.059 368.222 275.58 369.155 274.515 371.021C273.45 372.879 272.917 375.509 272.917 378.909C272.917 381.176 273.156 383.102 273.633 384.688C274.11 386.273 274.796 387.479 275.691 388.305C276.595 389.132 277.681 389.545 278.951 389.545Z" fill="white"/>
<path d="M385.048 365.818V392H381.877V369.142H381.724L375.332 373.386V370.165L381.877 365.818H385.048ZM401.117 392.358C399.191 392.358 397.55 391.834 396.195 390.786C394.84 389.729 393.805 388.199 393.089 386.196C392.373 384.185 392.015 381.756 392.015 378.909C392.015 376.08 392.373 373.663 393.089 371.661C393.813 369.649 394.853 368.115 396.208 367.058C397.572 365.993 399.208 365.46 401.117 365.46C403.026 365.46 404.658 365.993 406.013 367.058C407.377 368.115 408.417 369.649 409.133 371.661C409.857 373.663 410.219 376.08 410.219 378.909C410.219 381.756 409.862 384.185 409.146 386.196C408.43 388.199 407.394 389.729 406.039 390.786C404.684 391.834 403.043 392.358 401.117 392.358ZM401.117 389.545C403.026 389.545 404.509 388.625 405.566 386.784C406.623 384.943 407.151 382.318 407.151 378.909C407.151 376.642 406.908 374.712 406.423 373.118C405.945 371.524 405.255 370.31 404.352 369.474C403.457 368.639 402.379 368.222 401.117 368.222C399.225 368.222 397.746 369.155 396.681 371.021C395.616 372.879 395.083 375.509 395.083 378.909C395.083 381.176 395.322 383.102 395.799 384.688C396.276 386.273 396.962 387.479 397.857 388.305C398.761 389.132 399.847 389.545 401.117 389.545ZM423.617 392.358C421.691 392.358 420.05 391.834 418.695 390.786C417.34 389.729 416.305 388.199 415.589 386.196C414.873 384.185 414.515 381.756 414.515 378.909C414.515 376.08 414.873 373.663 415.589 371.661C416.313 369.649 417.353 368.115 418.708 367.058C420.072 365.993 421.708 365.46 423.617 365.46C425.526 365.46 427.158 365.993 428.513 367.058C429.877 368.115 430.917 369.649 431.633 371.661C432.357 373.663 432.719 376.08 432.719 378.909C432.719 381.756 432.362 384.185 431.646 386.196C430.93 388.199 429.894 389.729 428.539 390.786C427.184 391.834 425.543 392.358 423.617 392.358ZM423.617 389.545C425.526 389.545 427.009 388.625 428.066 386.784C429.123 384.943 429.651 382.318 429.651 378.909C429.651 376.642 429.408 374.712 428.923 373.118C428.445 371.524 427.755 370.31 426.852 369.474C425.957 368.639 424.879 368.222 423.617 368.222C421.725 368.222 420.246 369.155 419.181 371.021C418.116 372.879 417.583 375.509 417.583 378.909C417.583 381.176 417.822 383.102 418.299 384.688C418.776 386.273 419.462 387.479 420.357 388.305C421.261 389.132 422.347 389.545 423.617 389.545Z" fill="white"/>
<path d="M509.312 392V389.699L517.954 380.239C518.968 379.131 519.803 378.168 520.46 377.349C521.116 376.523 521.602 375.747 521.917 375.023C522.241 374.29 522.403 373.523 522.403 372.722C522.403 371.801 522.181 371.004 521.738 370.331C521.303 369.658 520.707 369.138 519.948 368.771C519.19 368.405 518.337 368.222 517.391 368.222C516.386 368.222 515.508 368.43 514.758 368.848C514.016 369.257 513.441 369.832 513.032 370.574C512.631 371.315 512.431 372.185 512.431 373.182H509.414C509.414 371.648 509.768 370.301 510.475 369.142C511.183 367.983 512.146 367.08 513.364 366.432C514.592 365.784 515.968 365.46 517.494 365.46C519.028 365.46 520.387 365.784 521.572 366.432C522.756 367.08 523.685 367.953 524.359 369.053C525.032 370.152 525.369 371.375 525.369 372.722C525.369 373.685 525.194 374.626 524.844 375.547C524.504 376.459 523.907 377.477 523.055 378.602C522.211 379.719 521.039 381.082 519.539 382.693L513.658 388.983V389.188H525.829V392H509.312ZM539.648 392.358C537.722 392.358 536.082 391.834 534.727 390.786C533.371 389.729 532.336 388.199 531.62 386.196C530.904 384.185 530.546 381.756 530.546 378.909C530.546 376.08 530.904 373.663 531.62 371.661C532.344 369.649 533.384 368.115 534.739 367.058C536.103 365.993 537.739 365.46 539.648 365.46C541.558 365.46 543.19 365.993 544.545 367.058C545.908 368.115 546.948 369.649 547.664 371.661C548.388 373.663 548.751 376.08 548.751 378.909C548.751 381.756 548.393 384.185 547.677 386.196C546.961 388.199 545.925 389.729 544.57 390.786C543.215 391.834 541.575 392.358 539.648 392.358ZM539.648 389.545C541.558 389.545 543.04 388.625 544.097 386.784C545.154 384.943 545.683 382.318 545.683 378.909C545.683 376.642 545.44 374.712 544.954 373.118C544.477 371.524 543.786 370.31 542.883 369.474C541.988 368.639 540.91 368.222 539.648 368.222C537.756 368.222 536.278 369.155 535.212 371.021C534.147 372.879 533.614 375.509 533.614 378.909C533.614 381.176 533.853 383.102 534.33 384.688C534.808 386.273 535.494 387.479 536.388 388.305C537.292 389.132 538.379 389.545 539.648 389.545ZM562.148 392.358C560.222 392.358 558.582 391.834 557.227 390.786C555.871 389.729 554.836 388.199 554.12 386.196C553.404 384.185 553.046 381.756 553.046 378.909C553.046 376.08 553.404 373.663 554.12 371.661C554.844 369.649 555.884 368.115 557.239 367.058C558.603 365.993 560.239 365.46 562.148 365.46C564.058 365.46 565.69 365.993 567.045 367.058C568.408 368.115 569.448 369.649 570.164 371.661C570.888 373.663 571.251 376.08 571.251 378.909C571.251 381.756 570.893 384.185 570.177 386.196C569.461 388.199 568.425 389.729 567.07 390.786C565.715 391.834 564.075 392.358 562.148 392.358ZM562.148 389.545C564.058 389.545 565.54 388.625 566.597 386.784C567.654 384.943 568.183 382.318 568.183 378.909C568.183 376.642 567.94 374.712 567.454 373.118C566.977 371.524 566.286 370.31 565.383 369.474C564.488 368.639 563.41 368.222 562.148 368.222C560.256 368.222 558.778 369.155 557.712 371.021C556.647 372.879 556.114 375.509 556.114 378.909C556.114 381.176 556.353 383.102 556.83 384.688C557.308 386.273 557.994 387.479 558.888 388.305C559.792 389.132 560.879 389.545 562.148 389.545Z" fill="white"/>
<path d="M653.596 392.358C651.908 392.358 650.404 392.068 649.083 391.489C647.771 390.909 646.727 390.104 645.951 389.072C645.184 388.033 644.766 386.827 644.698 385.455H647.92C647.988 386.298 648.278 387.027 648.789 387.641C649.3 388.246 649.969 388.714 650.796 389.047C651.623 389.379 652.539 389.545 653.545 389.545C654.67 389.545 655.667 389.349 656.536 388.957C657.406 388.565 658.087 388.02 658.582 387.321C659.076 386.622 659.323 385.812 659.323 384.892C659.323 383.929 659.085 383.081 658.607 382.348C658.13 381.607 657.431 381.027 656.511 380.609C655.59 380.192 654.465 379.983 653.136 379.983H651.039V377.17H653.136C654.175 377.17 655.087 376.983 655.871 376.608C656.664 376.233 657.282 375.705 657.725 375.023C658.177 374.341 658.403 373.54 658.403 372.619C658.403 371.733 658.207 370.962 657.815 370.305C657.423 369.649 656.869 369.138 656.153 368.771C655.445 368.405 654.61 368.222 653.647 368.222C652.744 368.222 651.891 368.388 651.09 368.72C650.298 369.044 649.65 369.517 649.147 370.139C648.644 370.753 648.371 371.494 648.329 372.364H645.261C645.312 370.991 645.725 369.79 646.501 368.759C647.276 367.719 648.29 366.909 649.543 366.33C650.805 365.75 652.19 365.46 653.698 365.46C655.317 365.46 656.707 365.788 657.866 366.445C659.025 367.092 659.915 367.949 660.538 369.014C661.16 370.08 661.471 371.23 661.471 372.466C661.471 373.94 661.083 375.197 660.308 376.237C659.54 377.277 658.496 377.997 657.175 378.398V378.602C658.829 378.875 660.12 379.578 661.049 380.712C661.978 381.837 662.442 383.23 662.442 384.892C662.442 386.315 662.055 387.594 661.279 388.727C660.512 389.852 659.464 390.739 658.134 391.386C656.805 392.034 655.292 392.358 653.596 392.358ZM676.211 392.358C674.285 392.358 672.644 391.834 671.289 390.786C669.934 389.729 668.898 388.199 668.183 386.196C667.467 384.185 667.109 381.756 667.109 378.909C667.109 376.08 667.467 373.663 668.183 371.661C668.907 369.649 669.947 368.115 671.302 367.058C672.665 365.993 674.302 365.46 676.211 365.46C678.12 365.46 679.752 365.993 681.107 367.058C682.471 368.115 683.511 369.649 684.227 371.661C684.951 373.663 685.313 376.08 685.313 378.909C685.313 381.756 684.955 384.185 684.239 386.196C683.523 388.199 682.488 389.729 681.133 390.786C679.778 391.834 678.137 392.358 676.211 392.358ZM676.211 389.545C678.12 389.545 679.603 388.625 680.66 386.784C681.717 384.943 682.245 382.318 682.245 378.909C682.245 376.642 682.002 374.712 681.516 373.118C681.039 371.524 680.349 370.31 679.445 369.474C678.55 368.639 677.472 368.222 676.211 368.222C674.319 368.222 672.84 369.155 671.775 371.021C670.71 372.879 670.177 375.509 670.177 378.909C670.177 381.176 670.415 383.102 670.893 384.688C671.37 386.273 672.056 387.479 672.951 388.305C673.854 389.132 674.941 389.545 676.211 389.545ZM698.711 392.358C696.785 392.358 695.144 391.834 693.789 390.786C692.434 389.729 691.398 388.199 690.683 386.196C689.967 384.185 689.609 381.756 689.609 378.909C689.609 376.08 689.967 373.663 690.683 371.661C691.407 369.649 692.447 368.115 693.802 367.058C695.165 365.993 696.802 365.46 698.711 365.46C700.62 365.46 702.252 365.993 703.607 367.058C704.971 368.115 706.011 369.649 706.727 371.661C707.451 373.663 707.813 376.08 707.813 378.909C707.813 381.756 707.455 384.185 706.739 386.196C706.023 388.199 704.988 389.729 703.633 390.786C702.278 391.834 700.637 392.358 698.711 392.358ZM698.711 389.545C700.62 389.545 702.103 388.625 703.16 386.784C704.217 384.943 704.745 382.318 704.745 378.909C704.745 376.642 704.502 374.712 704.016 373.118C703.539 371.524 702.849 370.31 701.945 369.474C701.05 368.639 699.972 368.222 698.711 368.222C696.819 368.222 695.34 369.155 694.275 371.021C693.21 372.879 692.677 375.509 692.677 378.909C692.677 381.176 692.915 383.102 693.393 384.688C693.87 386.273 694.556 387.479 695.451 388.305C696.354 389.132 697.441 389.545 698.711 389.545Z" fill="white"/>
<path d="M780.048 386.631V384.023L791.553 365.818H793.445V369.858H792.167L783.474 383.614V383.818H798.968V386.631H780.048ZM792.372 392V385.838V384.624V365.818H795.389V392H792.372ZM812.299 392.358C810.373 392.358 808.732 391.834 807.377 390.786C806.022 389.729 804.986 388.199 804.27 386.196C803.555 384.185 803.197 381.756 803.197 378.909C803.197 376.08 803.555 373.663 804.27 371.661C804.995 369.649 806.035 368.115 807.39 367.058C808.753 365.993 810.39 365.46 812.299 365.46C814.208 365.46 815.84 365.993 817.195 367.058C818.559 368.115 819.599 369.649 820.314 371.661C821.039 373.663 821.401 376.08 821.401 378.909C821.401 381.756 821.043 384.185 820.327 386.196C819.611 388.199 818.576 389.729 817.221 390.786C815.866 391.834 814.225 392.358 812.299 392.358ZM812.299 389.545C814.208 389.545 815.691 388.625 816.748 386.784C817.805 384.943 818.333 382.318 818.333 378.909C818.333 376.642 818.09 374.712 817.604 373.118C817.127 371.524 816.437 370.31 815.533 369.474C814.638 368.639 813.56 368.222 812.299 368.222C810.407 368.222 808.928 369.155 807.863 371.021C806.797 372.879 806.265 375.509 806.265 378.909C806.265 381.176 806.503 383.102 806.981 384.688C807.458 386.273 808.144 387.479 809.039 388.305C809.942 389.132 811.029 389.545 812.299 389.545ZM834.799 392.358C832.873 392.358 831.232 391.834 829.877 390.786C828.522 389.729 827.486 388.199 826.77 386.196C826.055 384.185 825.697 381.756 825.697 378.909C825.697 376.08 826.055 373.663 826.77 371.661C827.495 369.649 828.535 368.115 829.89 367.058C831.253 365.993 832.89 365.46 834.799 365.46C836.708 365.46 838.34 365.993 839.695 367.058C841.059 368.115 842.099 369.649 842.814 371.661C843.539 373.663 843.901 376.08 843.901 378.909C843.901 381.756 843.543 384.185 842.827 386.196C842.111 388.199 841.076 389.729 839.721 390.786C838.366 391.834 836.725 392.358 834.799 392.358ZM834.799 389.545C836.708 389.545 838.191 388.625 839.248 386.784C840.305 384.943 840.833 382.318 840.833 378.909C840.833 376.642 840.59 374.712 840.104 373.118C839.627 371.524 838.937 370.31 838.033 369.474C837.138 368.639 836.06 368.222 834.799 368.222C832.907 368.222 831.428 369.155 830.363 371.021C829.297 372.879 828.765 375.509 828.765 378.909C828.765 381.176 829.003 383.102 829.481 384.688C829.958 386.273 830.644 387.479 831.539 388.305C832.442 389.132 833.529 389.545 834.799 389.545Z" fill="white"/>
<path d="M925.441 392.358C923.941 392.358 922.59 392.06 921.388 391.463C920.187 390.866 919.224 390.048 918.499 389.009C917.775 387.969 917.378 386.784 917.31 385.455H920.378C920.498 386.639 921.035 387.619 921.989 388.395C922.952 389.162 924.103 389.545 925.441 389.545C926.515 389.545 927.469 389.294 928.305 388.791C929.148 388.288 929.809 387.598 930.286 386.72C930.772 385.834 931.015 384.832 931.015 383.716C931.015 382.574 930.763 381.555 930.26 380.661C929.766 379.757 929.084 379.045 928.215 378.526C927.346 378.006 926.353 377.741 925.236 377.733C924.435 377.724 923.613 377.848 922.769 378.104C921.925 378.351 921.231 378.67 920.685 379.062L917.719 378.705L919.305 365.818H932.907V368.631H921.964L921.043 376.352H921.197C921.733 375.926 922.407 375.572 923.216 375.291C924.026 375.01 924.87 374.869 925.748 374.869C927.35 374.869 928.778 375.253 930.03 376.02C931.292 376.778 932.28 377.818 932.996 379.139C933.721 380.46 934.083 381.969 934.083 383.665C934.083 385.335 933.708 386.827 932.958 388.139C932.216 389.443 931.194 390.474 929.89 391.233C928.586 391.983 927.103 392.358 925.441 392.358ZM947.701 392.358C945.775 392.358 944.134 391.834 942.779 390.786C941.424 389.729 940.389 388.199 939.673 386.196C938.957 384.185 938.599 381.756 938.599 378.909C938.599 376.08 938.957 373.663 939.673 371.661C940.397 369.649 941.437 368.115 942.792 367.058C944.156 365.993 945.792 365.46 947.701 365.46C949.61 365.46 951.242 365.993 952.597 367.058C953.961 368.115 955.001 369.649 955.717 371.661C956.441 373.663 956.803 376.08 956.803 378.909C956.803 381.756 956.445 384.185 955.73 386.196C955.014 388.199 953.978 389.729 952.623 390.786C951.268 391.834 949.627 392.358 947.701 392.358ZM947.701 389.545C949.61 389.545 951.093 388.625 952.15 386.784C953.207 384.943 953.735 382.318 953.735 378.909C953.735 376.642 953.492 374.712 953.007 373.118C952.529 371.524 951.839 370.31 950.936 369.474C950.041 368.639 948.963 368.222 947.701 368.222C945.809 368.222 944.33 369.155 943.265 371.021C942.2 372.879 941.667 375.509 941.667 378.909C941.667 381.176 941.906 383.102 942.383 384.688C942.86 386.273 943.546 387.479 944.441 388.305C945.345 389.132 946.431 389.545 947.701 389.545ZM970.201 392.358C968.275 392.358 966.634 391.834 965.279 390.786C963.924 389.729 962.889 388.199 962.173 386.196C961.457 384.185 961.099 381.756 961.099 378.909C961.099 376.08 961.457 373.663 962.173 371.661C962.897 369.649 963.937 368.115 965.292 367.058C966.656 365.993 968.292 365.46 970.201 365.46C972.11 365.46 973.742 365.993 975.097 367.058C976.461 368.115 977.501 369.649 978.217 371.661C978.941 373.663 979.303 376.08 979.303 378.909C979.303 381.756 978.945 384.185 978.23 386.196C977.514 388.199 976.478 389.729 975.123 390.786C973.768 391.834 972.127 392.358 970.201 392.358ZM970.201 389.545C972.11 389.545 973.593 388.625 974.65 386.784C975.707 384.943 976.235 382.318 976.235 378.909C976.235 376.642 975.992 374.712 975.507 373.118C975.029 371.524 974.339 370.31 973.436 369.474C972.541 368.639 971.463 368.222 970.201 368.222C968.309 368.222 966.83 369.155 965.765 371.021C964.7 372.879 964.167 375.509 964.167 378.909C964.167 381.176 964.406 383.102 964.883 384.688C965.36 386.273 966.046 387.479 966.941 388.305C967.845 389.132 968.931 389.545 970.201 389.545Z" fill="white"/>
<path d="M1061.67 392.358C1060.6 392.341 1059.52 392.136 1058.45 391.744C1057.38 391.352 1056.4 390.692 1055.51 389.763C1054.62 388.825 1053.91 387.56 1053.37 385.966C1052.84 384.364 1052.57 382.352 1052.57 379.932C1052.57 377.614 1052.79 375.56 1053.22 373.77C1053.66 371.972 1054.29 370.459 1055.11 369.232C1055.94 367.996 1056.94 367.058 1058.1 366.419C1059.28 365.78 1060.61 365.46 1062.08 365.46C1063.55 365.46 1064.85 365.754 1065.99 366.342C1067.14 366.922 1068.08 367.732 1068.8 368.771C1069.53 369.811 1070 371.009 1070.21 372.364H1067.09C1066.8 371.187 1066.24 370.212 1065.4 369.436C1064.57 368.661 1063.46 368.273 1062.08 368.273C1060.05 368.273 1058.45 369.155 1057.29 370.919C1056.13 372.683 1055.54 375.159 1055.53 378.347H1055.74C1056.22 377.622 1056.78 377.004 1057.44 376.493C1058.1 375.973 1058.84 375.572 1059.64 375.291C1060.44 375.01 1061.29 374.869 1062.18 374.869C1063.68 374.869 1065.05 375.244 1066.3 375.994C1067.54 376.736 1068.54 377.763 1069.29 379.075C1070.04 380.379 1070.42 381.875 1070.42 383.562C1070.42 385.182 1070.05 386.665 1069.33 388.011C1068.6 389.349 1067.59 390.415 1066.27 391.207C1064.97 391.991 1063.44 392.375 1061.67 392.358ZM1061.67 389.545C1062.74 389.545 1063.71 389.277 1064.56 388.74C1065.42 388.203 1066.1 387.483 1066.59 386.58C1067.1 385.676 1067.35 384.67 1067.35 383.562C1067.35 382.48 1067.1 381.496 1066.62 380.609C1066.14 379.714 1065.48 379.003 1064.64 378.474C1063.8 377.946 1062.85 377.682 1061.77 377.682C1060.96 377.682 1060.21 377.844 1059.51 378.168C1058.81 378.483 1058.2 378.918 1057.67 379.472C1057.15 380.026 1056.74 380.661 1056.44 381.376C1056.14 382.084 1055.99 382.83 1055.99 383.614C1055.99 384.653 1056.24 385.625 1056.72 386.528C1057.22 387.432 1057.89 388.161 1058.74 388.714C1059.6 389.268 1060.58 389.545 1061.67 389.545ZM1083.98 392.358C1082.06 392.358 1080.42 391.834 1079.06 390.786C1077.71 389.729 1076.67 388.199 1075.95 386.196C1075.24 384.185 1074.88 381.756 1074.88 378.909C1074.88 376.08 1075.24 373.663 1075.95 371.661C1076.68 369.649 1077.72 368.115 1079.07 367.058C1080.44 365.993 1082.07 365.46 1083.98 365.46C1085.89 365.46 1087.52 365.993 1088.88 367.058C1090.24 368.115 1091.28 369.649 1092 371.661C1092.72 373.663 1093.08 376.08 1093.08 378.909C1093.08 381.756 1092.73 384.185 1092.01 386.196C1091.29 388.199 1090.26 389.729 1088.9 390.786C1087.55 391.834 1085.91 392.358 1083.98 392.358ZM1083.98 389.545C1085.89 389.545 1087.37 388.625 1088.43 386.784C1089.49 384.943 1090.02 382.318 1090.02 378.909C1090.02 376.642 1089.77 374.712 1089.29 373.118C1088.81 371.524 1088.12 370.31 1087.22 369.474C1086.32 368.639 1085.24 368.222 1083.98 368.222C1082.09 368.222 1080.61 369.155 1079.55 371.021C1078.48 372.879 1077.95 375.509 1077.95 378.909C1077.95 381.176 1078.19 383.102 1078.66 384.688C1079.14 386.273 1079.83 387.479 1080.72 388.305C1081.63 389.132 1082.71 389.545 1083.98 389.545ZM1106.48 392.358C1104.56 392.358 1102.92 391.834 1101.56 390.786C1100.21 389.729 1099.17 388.199 1098.45 386.196C1097.74 384.185 1097.38 381.756 1097.38 378.909C1097.38 376.08 1097.74 373.663 1098.45 371.661C1099.18 369.649 1100.22 368.115 1101.57 367.058C1102.94 365.993 1104.57 365.46 1106.48 365.46C1108.39 365.46 1110.02 365.993 1111.38 367.058C1112.74 368.115 1113.78 369.649 1114.5 371.661C1115.22 373.663 1115.58 376.08 1115.58 378.909C1115.58 381.756 1115.23 384.185 1114.51 386.196C1113.79 388.199 1112.76 389.729 1111.4 390.786C1110.05 391.834 1108.41 392.358 1106.48 392.358ZM1106.48 389.545C1108.39 389.545 1109.87 388.625 1110.93 386.784C1111.99 384.943 1112.52 382.318 1112.52 378.909C1112.52 376.642 1112.27 374.712 1111.79 373.118C1111.31 371.524 1110.62 370.31 1109.72 369.474C1108.82 368.639 1107.74 368.222 1106.48 368.222C1104.59 368.222 1103.11 369.155 1102.05 371.021C1100.98 372.879 1100.45 375.509 1100.45 378.909C1100.45 381.176 1100.69 383.102 1101.16 384.688C1101.64 386.273 1102.33 387.479 1103.22 388.305C1104.13 389.132 1105.21 389.545 1106.48 389.545Z" fill="white"/>
<path d="M1191.03 392L1202.74 368.835V368.631H1189.24V365.818H1206.01V368.784L1194.35 392H1191.03ZM1218.75 392.358C1216.83 392.358 1215.19 391.834 1213.83 390.786C1212.47 389.729 1211.44 388.199 1210.72 386.196C1210.01 384.185 1209.65 381.756 1209.65 378.909C1209.65 376.08 1210.01 373.663 1210.72 371.661C1211.45 369.649 1212.49 368.115 1213.84 367.058C1215.21 365.993 1216.84 365.46 1218.75 365.46C1220.66 365.46 1222.29 365.993 1223.65 367.058C1225.01 368.115 1226.05 369.649 1226.77 371.661C1227.49 373.663 1227.85 376.08 1227.85 378.909C1227.85 381.756 1227.5 384.185 1226.78 386.196C1226.06 388.199 1225.03 389.729 1223.67 390.786C1222.32 391.834 1220.68 392.358 1218.75 392.358ZM1218.75 389.545C1220.66 389.545 1222.14 388.625 1223.2 386.784C1224.26 384.943 1224.79 382.318 1224.79 378.909C1224.79 376.642 1224.54 374.712 1224.06 373.118C1223.58 371.524 1222.89 370.31 1221.99 369.474C1221.09 368.639 1220.01 368.222 1218.75 368.222C1216.86 368.222 1215.38 369.155 1214.32 371.021C1213.25 372.879 1212.72 375.509 1212.72 378.909C1212.72 381.176 1212.96 383.102 1213.43 384.688C1213.91 386.273 1214.6 387.479 1215.49 388.305C1216.4 389.132 1217.48 389.545 1218.75 389.545ZM1241.25 392.358C1239.33 392.358 1237.69 391.834 1236.33 390.786C1234.97 389.729 1233.94 388.199 1233.22 386.196C1232.51 384.185 1232.15 381.756 1232.15 378.909C1232.15 376.08 1232.51 373.663 1233.22 371.661C1233.95 369.649 1234.99 368.115 1236.34 367.058C1237.71 365.993 1239.34 365.46 1241.25 365.46C1243.16 365.46 1244.79 365.993 1246.15 367.058C1247.51 368.115 1248.55 369.649 1249.27 371.661C1249.99 373.663 1250.35 376.08 1250.35 378.909C1250.35 381.756 1250 384.185 1249.28 386.196C1248.56 388.199 1247.53 389.729 1246.17 390.786C1244.82 391.834 1243.18 392.358 1241.25 392.358ZM1241.25 389.545C1243.16 389.545 1244.64 388.625 1245.7 386.784C1246.76 384.943 1247.29 382.318 1247.29 378.909C1247.29 376.642 1247.04 374.712 1246.56 373.118C1246.08 371.524 1245.39 370.31 1244.49 369.474C1243.59 368.639 1242.51 368.222 1241.25 368.222C1239.36 368.222 1237.88 369.155 1236.82 371.021C1235.75 372.879 1235.22 375.509 1235.22 378.909C1235.22 381.176 1235.46 383.102 1235.93 384.688C1236.41 386.273 1237.1 387.479 1237.99 388.305C1238.9 389.132 1239.98 389.545 1241.25 389.545Z" fill="white"/>
<path d="M1333.5 392.358C1331.75 392.358 1330.2 392.047 1328.85 391.425C1327.51 390.794 1326.47 389.929 1325.72 388.83C1324.97 387.722 1324.6 386.46 1324.61 385.045C1324.6 383.937 1324.82 382.915 1325.26 381.977C1325.7 381.031 1326.31 380.243 1327.07 379.612C1327.85 378.973 1328.72 378.568 1329.67 378.398V378.244C1328.42 377.92 1327.42 377.217 1326.68 376.135C1325.94 375.044 1325.57 373.804 1325.58 372.415C1325.57 371.085 1325.91 369.896 1326.59 368.848C1327.27 367.8 1328.21 366.973 1329.4 366.368C1330.6 365.763 1331.97 365.46 1333.5 365.46C1335.02 365.46 1336.38 365.763 1337.57 366.368C1338.76 366.973 1339.7 367.8 1340.38 368.848C1341.07 369.896 1341.42 371.085 1341.43 372.415C1341.42 373.804 1341.04 375.044 1340.29 376.135C1339.55 377.217 1338.57 377.92 1337.34 378.244V378.398C1338.29 378.568 1339.14 378.973 1339.9 379.612C1340.66 380.243 1341.26 381.031 1341.71 381.977C1342.16 382.915 1342.39 383.937 1342.4 385.045C1342.39 386.46 1342.01 387.722 1341.25 388.83C1340.5 389.929 1339.46 390.794 1338.12 391.425C1336.79 392.047 1335.25 392.358 1333.5 392.358ZM1333.5 389.545C1334.69 389.545 1335.71 389.354 1336.57 388.97C1337.43 388.587 1338.1 388.045 1338.57 387.347C1339.04 386.648 1339.27 385.83 1339.28 384.892C1339.27 383.903 1339.02 383.03 1338.52 382.271C1338.01 381.513 1337.33 380.916 1336.46 380.482C1335.6 380.047 1334.61 379.83 1333.5 379.83C1332.39 379.83 1331.39 380.047 1330.51 380.482C1329.64 380.916 1328.96 381.513 1328.46 382.271C1327.96 383.03 1327.72 383.903 1327.73 384.892C1327.72 385.83 1327.94 386.648 1328.4 387.347C1328.87 388.045 1329.54 388.587 1330.41 388.97C1331.28 389.354 1332.31 389.545 1333.5 389.545ZM1333.5 377.119C1334.44 377.119 1335.27 376.932 1336 376.557C1336.73 376.182 1337.31 375.658 1337.72 374.984C1338.14 374.311 1338.35 373.523 1338.36 372.619C1338.35 371.733 1338.15 370.962 1337.74 370.305C1337.33 369.641 1336.76 369.129 1336.04 368.771C1335.31 368.405 1334.47 368.222 1333.5 368.222C1332.52 368.222 1331.67 368.405 1330.94 368.771C1330.2 369.129 1329.64 369.641 1329.23 370.305C1328.83 370.962 1328.64 371.733 1328.65 372.619C1328.64 373.523 1328.84 374.311 1329.25 374.984C1329.67 375.658 1330.24 376.182 1330.97 376.557C1331.71 376.932 1332.55 377.119 1333.5 377.119ZM1355.84 392.358C1353.92 392.358 1352.28 391.834 1350.92 390.786C1349.56 389.729 1348.53 388.199 1347.81 386.196C1347.1 384.185 1346.74 381.756 1346.74 378.909C1346.74 376.08 1347.1 373.663 1347.81 371.661C1348.54 369.649 1349.58 368.115 1350.93 367.058C1352.3 365.993 1353.93 365.46 1355.84 365.46C1357.75 365.46 1359.38 365.993 1360.74 367.058C1362.1 368.115 1363.14 369.649 1363.86 371.661C1364.58 373.663 1364.94 376.08 1364.94 378.909C1364.94 381.756 1364.59 384.185 1363.87 386.196C1363.15 388.199 1362.12 389.729 1360.76 390.786C1359.41 391.834 1357.77 392.358 1355.84 392.358ZM1355.84 389.545C1357.75 389.545 1359.23 388.625 1360.29 386.784C1361.35 384.943 1361.88 382.318 1361.88 378.909C1361.88 376.642 1361.63 374.712 1361.15 373.118C1360.67 371.524 1359.98 370.31 1359.08 369.474C1358.18 368.639 1357.1 368.222 1355.84 368.222C1353.95 368.222 1352.47 369.155 1351.41 371.021C1350.34 372.879 1349.81 375.509 1349.81 378.909C1349.81 381.176 1350.05 383.102 1350.52 384.688C1351 386.273 1351.69 387.479 1352.58 388.305C1353.49 389.132 1354.57 389.545 1355.84 389.545ZM1378.34 392.358C1376.42 392.358 1374.78 391.834 1373.42 390.786C1372.06 389.729 1371.03 388.199 1370.31 386.196C1369.6 384.185 1369.24 381.756 1369.24 378.909C1369.24 376.08 1369.6 373.663 1370.31 371.661C1371.04 369.649 1372.08 368.115 1373.43 367.058C1374.8 365.993 1376.43 365.46 1378.34 365.46C1380.25 365.46 1381.88 365.993 1383.24 367.058C1384.6 368.115 1385.64 369.649 1386.36 371.661C1387.08 373.663 1387.44 376.08 1387.44 378.909C1387.44 381.756 1387.09 384.185 1386.37 386.196C1385.65 388.199 1384.62 389.729 1383.26 390.786C1381.91 391.834 1380.27 392.358 1378.34 392.358ZM1378.34 389.545C1380.25 389.545 1381.73 388.625 1382.79 386.784C1383.85 384.943 1384.38 382.318 1384.38 378.909C1384.38 376.642 1384.13 374.712 1383.65 373.118C1383.17 371.524 1382.48 370.31 1381.58 369.474C1380.68 368.639 1379.6 368.222 1378.34 368.222C1376.45 368.222 1374.97 369.155 1373.91 371.021C1372.84 372.879 1372.31 375.509 1372.31 378.909C1372.31 381.176 1372.55 383.102 1373.02 384.688C1373.5 386.273 1374.19 387.479 1375.08 388.305C1375.99 389.132 1377.07 389.545 1378.34 389.545Z" fill="white"/>
<path d="M1469.31 365.46C1470.39 365.469 1471.46 365.673 1472.53 366.074C1473.61 366.474 1474.59 367.139 1475.47 368.068C1476.36 368.989 1477.07 370.246 1477.61 371.839C1478.15 373.433 1478.42 375.432 1478.42 377.835C1478.42 380.162 1478.19 382.229 1477.75 384.036C1477.32 385.834 1476.69 387.351 1475.86 388.587C1475.04 389.822 1474.04 390.76 1472.87 391.399C1471.7 392.038 1470.38 392.358 1468.9 392.358C1467.44 392.358 1466.13 392.068 1464.98 391.489C1463.84 390.901 1462.9 390.087 1462.17 389.047C1461.44 387.999 1460.98 386.784 1460.77 385.403H1463.89C1464.17 386.605 1464.73 387.598 1465.57 388.382C1466.41 389.158 1467.52 389.545 1468.9 389.545C1470.92 389.545 1472.52 388.663 1473.69 386.899C1474.86 385.135 1475.45 382.642 1475.45 379.42H1475.24C1474.77 380.136 1474.2 380.754 1473.54 381.274C1472.89 381.794 1472.16 382.195 1471.36 382.476C1470.56 382.757 1469.71 382.898 1468.8 382.898C1467.3 382.898 1465.93 382.527 1464.67 381.786C1463.43 381.036 1462.43 380.009 1461.68 378.705C1460.94 377.392 1460.57 375.892 1460.57 374.205C1460.57 372.602 1460.93 371.136 1461.64 369.807C1462.37 368.469 1463.38 367.403 1464.69 366.611C1466 365.818 1467.54 365.435 1469.31 365.46ZM1469.31 368.273C1468.24 368.273 1467.27 368.541 1466.41 369.078C1465.56 369.607 1464.88 370.322 1464.38 371.226C1463.88 372.121 1463.64 373.114 1463.64 374.205C1463.64 375.295 1463.88 376.288 1464.35 377.183C1464.84 378.07 1465.5 378.777 1466.33 379.305C1467.18 379.825 1468.14 380.085 1469.21 380.085C1470.02 380.085 1470.77 379.928 1471.47 379.612C1472.17 379.288 1472.78 378.849 1473.3 378.295C1473.83 377.733 1474.24 377.098 1474.54 376.391C1474.84 375.675 1474.99 374.929 1474.99 374.153C1474.99 373.131 1474.74 372.172 1474.25 371.277C1473.76 370.382 1473.09 369.658 1472.23 369.104C1471.38 368.55 1470.4 368.273 1469.31 368.273ZM1491.98 392.358C1490.06 392.358 1488.42 391.834 1487.06 390.786C1485.71 389.729 1484.67 388.199 1483.95 386.196C1483.24 384.185 1482.88 381.756 1482.88 378.909C1482.88 376.08 1483.24 373.663 1483.95 371.661C1484.68 369.649 1485.72 368.115 1487.07 367.058C1488.44 365.993 1490.07 365.46 1491.98 365.46C1493.89 365.46 1495.52 365.993 1496.88 367.058C1498.24 368.115 1499.28 369.649 1500 371.661C1500.72 373.663 1501.08 376.08 1501.08 378.909C1501.08 381.756 1500.73 384.185 1500.01 386.196C1499.29 388.199 1498.26 389.729 1496.9 390.786C1495.55 391.834 1493.91 392.358 1491.98 392.358ZM1491.98 389.545C1493.89 389.545 1495.37 388.625 1496.43 386.784C1497.49 384.943 1498.02 382.318 1498.02 378.909C1498.02 376.642 1497.77 374.712 1497.29 373.118C1496.81 371.524 1496.12 370.31 1495.22 369.474C1494.32 368.639 1493.24 368.222 1491.98 368.222C1490.09 368.222 1488.61 369.155 1487.55 371.021C1486.48 372.879 1485.95 375.509 1485.95 378.909C1485.95 381.176 1486.19 383.102 1486.66 384.688C1487.14 386.273 1487.83 387.479 1488.72 388.305C1489.63 389.132 1490.71 389.545 1491.98 389.545ZM1514.48 392.358C1512.56 392.358 1510.92 391.834 1509.56 390.786C1508.21 389.729 1507.17 388.199 1506.45 386.196C1505.74 384.185 1505.38 381.756 1505.38 378.909C1505.38 376.08 1505.74 373.663 1506.45 371.661C1507.18 369.649 1508.22 368.115 1509.57 367.058C1510.94 365.993 1512.57 365.46 1514.48 365.46C1516.39 365.46 1518.02 365.993 1519.38 367.058C1520.74 368.115 1521.78 369.649 1522.5 371.661C1523.22 373.663 1523.58 376.08 1523.58 378.909C1523.58 381.756 1523.23 384.185 1522.51 386.196C1521.79 388.199 1520.76 389.729 1519.4 390.786C1518.05 391.834 1516.41 392.358 1514.48 392.358ZM1514.48 389.545C1516.39 389.545 1517.87 388.625 1518.93 386.784C1519.99 384.943 1520.52 382.318 1520.52 378.909C1520.52 376.642 1520.27 374.712 1519.79 373.118C1519.31 371.524 1518.62 370.31 1517.72 369.474C1516.82 368.639 1515.74 368.222 1514.48 368.222C1512.59 368.222 1511.11 369.155 1510.05 371.021C1508.98 372.879 1508.45 375.509 1508.45 378.909C1508.45 381.176 1508.69 383.102 1509.16 384.688C1509.64 386.273 1510.33 387.479 1511.22 388.305C1512.13 389.132 1513.21 389.545 1514.48 389.545Z" fill="white"/>
<path d="M68.1705 616V589.818H77.017C79.071 589.818 80.75 590.189 82.054 590.93C83.3665 591.663 84.3381 592.656 84.9688 593.909C85.5994 595.162 85.9148 596.56 85.9148 598.102C85.9148 599.645 85.5994 601.047 84.9688 602.308C84.3466 603.57 83.3835 604.575 82.0795 605.325C80.7756 606.067 79.1051 606.438 77.0682 606.438H70.7273V603.625H76.9659C78.3722 603.625 79.5014 603.382 80.3537 602.896C81.206 602.411 81.8239 601.754 82.2074 600.928C82.5994 600.092 82.7955 599.151 82.7955 598.102C82.7955 597.054 82.5994 596.116 82.2074 595.29C81.8239 594.463 81.2017 593.815 80.3409 593.347C79.4801 592.869 78.3381 592.631 76.9148 592.631H71.3409V616H68.1705ZM102.988 607.972V596.364H106.005V616H102.988V612.676H102.783C102.323 613.673 101.607 614.521 100.636 615.22C99.6641 615.911 98.4368 616.256 96.9538 616.256C95.7266 616.256 94.6357 615.987 93.6811 615.45C92.7266 614.905 91.9766 614.087 91.4311 612.996C90.8857 611.896 90.6129 610.511 90.6129 608.841V596.364H93.63V608.636C93.63 610.068 94.0305 611.21 94.8317 612.062C95.6413 612.915 96.6726 613.341 97.9254 613.341C98.6754 613.341 99.4382 613.149 100.214 612.766C100.998 612.382 101.654 611.794 102.183 611.001C102.719 610.209 102.988 609.199 102.988 607.972ZM111.531 616V596.364H114.446V599.33H114.65C115.008 598.358 115.656 597.57 116.593 596.964C117.531 596.359 118.588 596.057 119.764 596.057C119.985 596.057 120.262 596.061 120.595 596.07C120.927 596.078 121.179 596.091 121.349 596.108V599.176C121.247 599.151 121.012 599.112 120.646 599.061C120.288 599.001 119.909 598.972 119.508 598.972C118.554 598.972 117.701 599.172 116.951 599.572C116.21 599.964 115.622 600.51 115.187 601.209C114.761 601.899 114.548 602.687 114.548 603.574V616H111.531ZM124.925 623.364V596.364H127.84V599.483H128.198C128.42 599.142 128.727 598.707 129.119 598.179C129.519 597.642 130.09 597.165 130.832 596.747C131.582 596.321 132.596 596.108 133.874 596.108C135.528 596.108 136.985 596.521 138.246 597.348C139.508 598.175 140.492 599.347 141.2 600.864C141.907 602.381 142.261 604.17 142.261 606.233C142.261 608.312 141.907 610.115 141.2 611.641C140.492 613.158 139.512 614.334 138.259 615.169C137.006 615.996 135.562 616.409 133.925 616.409C132.664 616.409 131.654 616.2 130.896 615.783C130.137 615.357 129.553 614.875 129.144 614.338C128.735 613.793 128.42 613.341 128.198 612.983H127.942V623.364H124.925ZM127.891 606.182C127.891 607.665 128.109 608.973 128.543 610.107C128.978 611.232 129.613 612.114 130.448 612.753C131.283 613.384 132.306 613.699 133.516 613.699C134.778 613.699 135.83 613.366 136.674 612.702C137.526 612.028 138.165 611.125 138.592 609.991C139.026 608.849 139.244 607.58 139.244 606.182C139.244 604.801 139.031 603.557 138.604 602.449C138.187 601.332 137.552 600.45 136.7 599.803C135.856 599.146 134.795 598.818 133.516 598.818C132.289 598.818 131.258 599.129 130.423 599.751C129.587 600.365 128.957 601.226 128.531 602.334C128.104 603.433 127.891 604.716 127.891 606.182ZM149.88 589.818V616H146.863V589.818H149.88ZM163.639 616.409C161.747 616.409 160.115 615.991 158.743 615.156C157.379 614.312 156.326 613.136 155.585 611.628C154.852 610.111 154.485 608.347 154.485 606.335C154.485 604.324 154.852 602.551 155.585 601.017C156.326 599.474 157.358 598.273 158.679 597.412C160.008 596.543 161.559 596.108 163.332 596.108C164.355 596.108 165.365 596.278 166.362 596.619C167.359 596.96 168.267 597.514 169.085 598.281C169.903 599.04 170.555 600.045 171.041 601.298C171.527 602.551 171.77 604.094 171.77 605.926V607.205H156.633V604.597H168.701C168.701 603.489 168.48 602.5 168.037 601.631C167.602 600.761 166.98 600.075 166.17 599.572C165.369 599.07 164.423 598.818 163.332 598.818C162.13 598.818 161.091 599.116 160.213 599.713C159.343 600.301 158.674 601.068 158.206 602.014C157.737 602.96 157.502 603.974 157.502 605.057V606.795C157.502 608.278 157.758 609.536 158.27 610.567C158.789 611.589 159.51 612.369 160.43 612.906C161.35 613.435 162.42 613.699 163.639 613.699C164.431 613.699 165.147 613.588 165.787 613.366C166.434 613.136 166.993 612.795 167.461 612.344C167.93 611.884 168.292 611.312 168.548 610.631L171.463 611.449C171.156 612.438 170.64 613.307 169.916 614.057C169.191 614.798 168.297 615.378 167.231 615.795C166.166 616.205 164.968 616.409 163.639 616.409Z" fill="white"/>
<path d="M86.0682 715C85.7869 714.139 85.4162 713.368 84.956 712.686C84.5043 711.996 83.9631 711.408 83.3324 710.922C82.7102 710.436 82.0028 710.065 81.2102 709.81C80.4176 709.554 79.5483 709.426 78.6023 709.426C77.0511 709.426 75.6406 709.827 74.3707 710.628C73.1009 711.429 72.0909 712.609 71.3409 714.169C70.5909 715.729 70.2159 717.642 70.2159 719.909C70.2159 722.176 70.5952 724.089 71.3537 725.649C72.1122 727.209 73.1392 728.389 74.4347 729.19C75.7301 729.991 77.1875 730.392 78.8068 730.392C80.3068 730.392 81.6278 730.072 82.7699 729.433C83.9205 728.786 84.8153 727.874 85.4545 726.697C86.1023 725.513 86.4261 724.119 86.4261 722.517L87.3977 722.722H79.5227V719.909H89.4943V722.722C89.4943 724.878 89.0341 726.753 88.1136 728.347C87.2017 729.94 85.9403 731.176 84.3295 732.054C82.7273 732.923 80.8864 733.358 78.8068 733.358C76.4886 733.358 74.4517 732.812 72.696 731.722C70.9489 730.631 69.5852 729.08 68.6051 727.068C67.6335 725.057 67.1477 722.67 67.1477 719.909C67.1477 717.838 67.4247 715.976 67.9787 714.322C68.5412 712.661 69.3338 711.246 70.3565 710.078C71.3793 708.911 72.5895 708.016 73.9872 707.393C75.3849 706.771 76.9233 706.46 78.6023 706.46C79.983 706.46 81.2699 706.669 82.4631 707.087C83.6648 707.496 84.7344 708.08 85.6719 708.838C86.6179 709.588 87.4063 710.487 88.0369 711.536C88.6676 712.575 89.1023 713.73 89.3409 715H86.0682ZM94.5153 733V713.364H97.43V716.33H97.6346C97.9925 715.358 98.6403 714.57 99.5778 713.964C100.515 713.359 101.572 713.057 102.748 713.057C102.97 713.057 103.247 713.061 103.579 713.07C103.912 713.078 104.163 713.091 104.333 713.108V716.176C104.231 716.151 103.997 716.112 103.63 716.061C103.272 716.001 102.893 715.972 102.493 715.972C101.538 715.972 100.686 716.172 99.9357 716.572C99.1942 716.964 98.6062 717.51 98.1715 718.209C97.7454 718.899 97.5323 719.687 97.5323 720.574V733H94.5153ZM115.545 733.409C113.653 733.409 112.021 732.991 110.649 732.156C109.285 731.312 108.233 730.136 107.491 728.628C106.758 727.111 106.392 725.347 106.392 723.335C106.392 721.324 106.758 719.551 107.491 718.017C108.233 716.474 109.264 715.273 110.585 714.412C111.914 713.543 113.466 713.108 115.238 713.108C116.261 713.108 117.271 713.278 118.268 713.619C119.265 713.96 120.173 714.514 120.991 715.281C121.809 716.04 122.461 717.045 122.947 718.298C123.433 719.551 123.676 721.094 123.676 722.926V724.205H108.539V721.597H120.608C120.608 720.489 120.386 719.5 119.943 718.631C119.508 717.761 118.886 717.075 118.076 716.572C117.275 716.07 116.329 715.818 115.238 715.818C114.037 715.818 112.997 716.116 112.119 716.713C111.25 717.301 110.581 718.068 110.112 719.014C109.643 719.96 109.409 720.974 109.409 722.057V723.795C109.409 725.278 109.664 726.536 110.176 727.567C110.696 728.589 111.416 729.369 112.336 729.906C113.257 730.435 114.326 730.699 115.545 730.699C116.338 730.699 117.054 730.588 117.693 730.366C118.341 730.136 118.899 729.795 119.368 729.344C119.836 728.884 120.199 728.312 120.454 727.631L123.369 728.449C123.062 729.438 122.547 730.307 121.822 731.057C121.098 731.798 120.203 732.378 119.137 732.795C118.072 733.205 116.875 733.409 115.545 733.409ZM136.498 733.409C134.606 733.409 132.974 732.991 131.602 732.156C130.238 731.312 129.186 730.136 128.444 728.628C127.711 727.111 127.345 725.347 127.345 723.335C127.345 721.324 127.711 719.551 128.444 718.017C129.186 716.474 130.217 715.273 131.538 714.412C132.868 713.543 134.419 713.108 136.191 713.108C137.214 713.108 138.224 713.278 139.221 713.619C140.218 713.96 141.126 714.514 141.944 715.281C142.762 716.04 143.414 717.045 143.9 718.298C144.386 719.551 144.629 721.094 144.629 722.926V724.205H129.493V721.597H141.561C141.561 720.489 141.339 719.5 140.896 718.631C140.461 717.761 139.839 717.075 139.029 716.572C138.228 716.07 137.282 715.818 136.191 715.818C134.99 715.818 133.95 716.116 133.072 716.713C132.203 717.301 131.534 718.068 131.065 719.014C130.596 719.96 130.362 720.974 130.362 722.057V723.795C130.362 725.278 130.618 726.536 131.129 727.567C131.649 728.589 132.369 729.369 133.289 729.906C134.21 730.435 135.279 730.699 136.498 730.699C137.291 730.699 138.007 730.588 138.646 730.366C139.294 730.136 139.852 729.795 140.321 729.344C140.789 728.884 141.152 728.312 141.407 727.631L144.322 728.449C144.015 729.438 143.5 730.307 142.775 731.057C142.051 731.798 141.156 732.378 140.091 732.795C139.025 733.205 137.828 733.409 136.498 733.409ZM152.235 721.188V733H149.218V713.364H152.133V716.432H152.389C152.849 715.435 153.548 714.634 154.485 714.028C155.423 713.415 156.633 713.108 158.116 713.108C159.446 713.108 160.609 713.381 161.606 713.926C162.603 714.463 163.379 715.281 163.933 716.381C164.487 717.472 164.764 718.852 164.764 720.523V733H161.747V720.727C161.747 719.185 161.346 717.983 160.545 717.122C159.744 716.253 158.645 715.818 157.247 715.818C156.284 715.818 155.423 716.027 154.664 716.445C153.914 716.862 153.322 717.472 152.887 718.273C152.453 719.074 152.235 720.045 152.235 721.188Z" fill="white"/>
<path d="M68.1705 850V823.818H77.017C79.0625 823.818 80.7415 824.168 82.054 824.866C83.3665 825.557 84.3381 826.507 84.9688 827.717C85.5994 828.928 85.9148 830.304 85.9148 831.847C85.9148 833.389 85.5994 834.757 84.9688 835.95C84.3381 837.143 83.3707 838.081 82.0668 838.763C80.7628 839.436 79.0966 839.773 77.0682 839.773H69.9091V836.909H76.9659C78.3636 836.909 79.4886 836.705 80.3409 836.295C81.2017 835.886 81.8239 835.307 82.2074 834.557C82.5994 833.798 82.7955 832.895 82.7955 831.847C82.7955 830.798 82.5994 829.882 82.2074 829.098C81.8153 828.314 81.1889 827.709 80.3281 827.283C79.4673 826.848 78.3295 826.631 76.9148 826.631H71.3409V850H68.1705ZM80.4943 838.239L86.9375 850H83.2557L76.9148 838.239H80.4943ZM98.8107 850.409C96.9187 850.409 95.2866 849.991 93.9144 849.156C92.5508 848.312 91.4982 847.136 90.7567 845.628C90.0238 844.111 89.6573 842.347 89.6573 840.335C89.6573 838.324 90.0238 836.551 90.7567 835.017C91.4982 833.474 92.5295 832.273 93.8505 831.412C95.18 830.543 96.7312 830.108 98.5039 830.108C99.5266 830.108 100.537 830.278 101.534 830.619C102.531 830.96 103.439 831.514 104.257 832.281C105.075 833.04 105.727 834.045 106.213 835.298C106.699 836.551 106.941 838.094 106.941 839.926V841.205H91.805V838.597H103.873C103.873 837.489 103.652 836.5 103.208 835.631C102.774 834.761 102.152 834.075 101.342 833.572C100.541 833.07 99.5948 832.818 98.5039 832.818C97.3022 832.818 96.2624 833.116 95.3846 833.713C94.5153 834.301 93.8462 835.068 93.3775 836.014C92.9087 836.96 92.6744 837.974 92.6744 839.057V840.795C92.6744 842.278 92.93 843.536 93.4414 844.567C93.9613 845.589 94.6815 846.369 95.6019 846.906C96.5224 847.435 97.592 847.699 98.8107 847.699C99.6033 847.699 100.319 847.588 100.958 847.366C101.606 847.136 102.164 846.795 102.633 846.344C103.102 845.884 103.464 845.312 103.72 844.631L106.635 845.449C106.328 846.438 105.812 847.307 105.088 848.057C104.363 848.798 103.468 849.378 102.403 849.795C101.338 850.205 100.14 850.409 98.8107 850.409ZM118.946 850.409C117.309 850.409 115.865 849.996 114.612 849.169C113.359 848.334 112.379 847.158 111.672 845.641C110.964 844.115 110.61 842.312 110.61 840.233C110.61 838.17 110.964 836.381 111.672 834.864C112.379 833.347 113.363 832.175 114.625 831.348C115.886 830.521 117.343 830.108 118.997 830.108C120.275 830.108 121.285 830.321 122.027 830.747C122.777 831.165 123.348 831.642 123.74 832.179C124.14 832.707 124.451 833.142 124.673 833.483H124.929V823.818H127.946V850H125.031V846.983H124.673C124.451 847.341 124.136 847.793 123.727 848.338C123.318 848.875 122.734 849.357 121.975 849.783C121.217 850.2 120.207 850.409 118.946 850.409ZM119.355 847.699C120.565 847.699 121.588 847.384 122.423 846.753C123.258 846.114 123.893 845.232 124.328 844.107C124.762 842.973 124.98 841.665 124.98 840.182C124.98 838.716 124.767 837.433 124.341 836.334C123.914 835.226 123.284 834.365 122.449 833.751C121.613 833.129 120.582 832.818 119.355 832.818C118.076 832.818 117.011 833.146 116.159 833.803C115.315 834.45 114.68 835.332 114.254 836.449C113.836 837.557 113.627 838.801 113.627 840.182C113.627 841.58 113.841 842.849 114.267 843.991C114.701 845.125 115.341 846.028 116.184 846.702C117.037 847.366 118.093 847.699 119.355 847.699Z" fill="white"/>
<path d="M65.9205 940.818H69.5511L76.8125 953.04H77.1193L84.3807 940.818H88.0114L78.5511 956.21V967H75.3807V956.21L65.9205 940.818ZM97.1584 967.409C95.2663 967.409 93.6342 966.991 92.2621 966.156C90.8984 965.312 89.8459 964.136 89.1044 962.628C88.3714 961.111 88.005 959.347 88.005 957.335C88.005 955.324 88.3714 953.551 89.1044 952.017C89.8459 950.474 90.8771 949.273 92.1982 948.412C93.5277 947.543 95.0788 947.108 96.8516 947.108C97.8743 947.108 98.8842 947.278 99.8814 947.619C100.879 947.96 101.786 948.514 102.604 949.281C103.423 950.04 104.075 951.045 104.56 952.298C105.046 953.551 105.289 955.094 105.289 956.926V958.205H90.1527V955.597H102.221C102.221 954.489 101.999 953.5 101.556 952.631C101.121 951.761 100.499 951.075 99.6896 950.572C98.8885 950.07 97.9425 949.818 96.8516 949.818C95.6499 949.818 94.6101 950.116 93.7322 950.713C92.8629 951.301 92.1939 952.068 91.7251 953.014C91.2564 953.96 91.022 954.974 91.022 956.057V957.795C91.022 959.278 91.2777 960.536 91.7891 961.567C92.3089 962.589 93.0291 963.369 93.9496 963.906C94.87 964.435 95.9396 964.699 97.1584 964.699C97.951 964.699 98.6669 964.588 99.3061 964.366C99.9538 964.136 100.512 963.795 100.981 963.344C101.45 962.884 101.812 962.312 102.067 961.631L104.982 962.449C104.675 963.438 104.16 964.307 103.435 965.057C102.711 965.798 101.816 966.378 100.751 966.795C99.6854 967.205 98.4879 967.409 97.1584 967.409ZM112.896 940.818V967H109.879V940.818H112.896ZM121.439 940.818V967H118.422V940.818H121.439ZM134.942 967.409C133.169 967.409 131.614 966.987 130.276 966.143C128.946 965.3 127.906 964.119 127.156 962.602C126.415 961.085 126.044 959.312 126.044 957.284C126.044 955.239 126.415 953.453 127.156 951.928C127.906 950.402 128.946 949.217 130.276 948.374C131.614 947.53 133.169 947.108 134.942 947.108C136.714 947.108 138.266 947.53 139.595 948.374C140.933 949.217 141.973 950.402 142.714 951.928C143.464 953.453 143.839 955.239 143.839 957.284C143.839 959.312 143.464 961.085 142.714 962.602C141.973 964.119 140.933 965.3 139.595 966.143C138.266 966.987 136.714 967.409 134.942 967.409ZM134.942 964.699C136.288 964.699 137.396 964.354 138.266 963.663C139.135 962.973 139.778 962.065 140.196 960.94C140.614 959.815 140.822 958.597 140.822 957.284C140.822 955.972 140.614 954.749 140.196 953.615C139.778 952.482 139.135 951.565 138.266 950.866C137.396 950.168 136.288 949.818 134.942 949.818C133.595 949.818 132.487 950.168 131.618 950.866C130.749 951.565 130.105 952.482 129.688 953.615C129.27 954.749 129.061 955.972 129.061 957.284C129.061 958.597 129.27 959.815 129.688 960.94C130.105 962.065 130.749 962.973 131.618 963.663C132.487 964.354 133.595 964.699 134.942 964.699ZM152.226 967L146.243 947.364H149.413L153.658 962.398H153.862L158.055 947.364H161.277L165.419 962.347H165.624L169.868 947.364H173.038L167.055 967H164.089L159.794 951.915H159.487L155.192 967H152.226Z" fill="white"/>
<rect x="228" y="445" width="80.2759" height="80.2759" rx="40.138" fill="#E5F0FD"/>
<rect x="364" y="445" width="80.2759" height="80.2759" rx="40.138" fill="#CCE2FC"/>
<rect x="500" y="445" width="80.2759" height="80.2759" rx="40.138" fill="#99C5FA"/>
<rect x="636" y="445" width="80.2759" height="80.2759" rx="40.138" fill="#66A9F8"/>
<rect x="772" y="445" width="80.2759" height="80.2759" rx="40.138" fill="#328CF6"/>
<rect x="908" y="445" width="80.2759" height="80.2759" fill="#0070F4"/>
<rect x="1044" y="445" width="80.2759" height="80.2759" rx="40.138" fill="#0059C3"/>
<rect x="1180" y="445" width="80.2759" height="80.2759" rx="40.138" fill="#004392"/>
<rect x="1316" y="445" width="80.2759" height="80.2759" rx="40.138" fill="#002C61"/>
<rect x="1452" y="445" width="80.2759" height="80.2759" rx="40.138" fill="#001C3E"/>
<rect x="228" y="679" width="80.2759" height="80.2759" rx="40.138" fill="#EDFCF3"/>
<rect x="364" y="679" width="80.2759" height="80.2759" rx="40.138" fill="#DBF9E8"/>
<rect x="500" y="679" width="80.2759" height="80.2759" rx="40.138" fill="#B7F3D2"/>
<rect x="636" y="679" width="80.2759" height="80.2759" rx="40.138" fill="#94EEBC"/>
<rect x="772" y="679" width="80.2759" height="80.2759" rx="40.138" fill="#70E8A6"/>
<rect x="908" y="679" width="80.2759" height="80.2759" fill="#4DE390"/>
<rect x="1044" y="679" width="80.2759" height="80.2759" rx="40.138" fill="#3DB573"/>
<rect x="1180" y="679" width="80.2759" height="80.2759" rx="40.138" fill="#2E8856"/>
<rect x="1316" y="679" width="80.2759" height="80.2759" rx="40.138" fill="#246C44"/>
<rect x="1452" y="679" width="80.2759" height="80.2759" rx="40.138" fill="#184F30"/>
<rect x="228" y="796" width="80.2759" height="80.2759" rx="40.138" fill="#FEEFED"/>
<rect x="364" y="796" width="80.2759" height="80.2759" rx="40.138" fill="#FEDFDB"/>
<rect x="500" y="796" width="80.2759" height="80.2759" rx="40.138" fill="#FDBFB7"/>
<rect x="636" y="796" width="80.2759" height="80.2759" rx="40.138" fill="#FD9F94"/>
<rect x="772" y="796" width="80.2759" height="80.2759" rx="40.138" fill="#FC7F70"/>
<rect x="908" y="796" width="80.2759" height="80.2759" fill="#FC604D"/>
<rect x="1044" y="796" width="80.2759" height="80.2759" rx="40.138" fill="#C94C3D"/>
<rect x="1180" y="796" width="80.2759" height="80.2759" rx="40.138" fill="#B14133"/>
<rect x="1316" y="796" width="80.2759" height="80.2759" rx="40.138" fill="#A03A2D"/>
<rect x="1452" y="796" width="80.2759" height="80.2759" rx="40.138" fill="#882D22"/>
<rect x="228" y="913" width="80.2759" height="80.2759" rx="40.138" fill="#FFF9E6"/>
<rect x="364" y="913" width="80.2759" height="80.2759" rx="40.138" fill="#FFF6D9"/>
<rect x="500" y="913" width="80.2759" height="80.2759" rx="40.138" fill="#FFEEB1"/>
<rect x="636" y="913" width="80.2759" height="80.2759" rx="40.138" fill="#FFE68E"/>
<rect x="772" y="913" width="80.2759" height="80.2759" rx="40.138" fill="#FFDA69"/>
<rect x="908" y="913" width="80.2759" height="80.2759" fill="#FFD644"/>
<rect x="1044" y="913" width="80.2759" height="80.2759" rx="40.138" fill="#E0BC3D"/>
<rect x="1180" y="913" width="80.2759" height="80.2759" rx="40.138" fill="#CBA930"/>
<rect x="1316" y="913" width="80.2759" height="80.2759" rx="40.138" fill="#A78B28"/>
<rect x="1452" y="913" width="80.2759" height="80.2759" rx="40.138" fill="#8A7321"/>
<rect x="228" y="562" width="80.2759" height="80.2759" rx="40.138" fill="#F1F3FF"/>
<rect x="364" y="562" width="80.2759" height="80.2759" rx="40.138" fill="#ECEEFE"/>
<rect x="500" y="562" width="80.2759" height="80.2759" rx="40.138" fill="#E4E6FD"/>
<rect x="636" y="562" width="80.2759" height="80.2759" rx="40.138" fill="#E0E3FF"/>
<rect x="772" y="562" width="80.2759" height="80.2759" rx="40.138" fill="#D6DAFF"/>
<rect x="908" y="562" width="80.2759" height="80.2759" fill="#CED2FF"/>
<rect x="1044" y="562" width="80.2759" height="80.2759" rx="40.138" fill="#A4A8CC"/>
<rect x="1180" y="562" width="80.2759" height="80.2759" rx="40.138" fill="#8285A5"/>
<rect x="1316" y="562" width="80.2759" height="80.2759" rx="40.138" fill="#525466"/>
<rect x="1452" y="562" width="80.2759" height="80.2759" rx="40.138" fill="#3B3C49"/>
<rect x="66.2698" y="55.2698" width="302.093" height="77.4605" rx="13.9675" fill="#3B3B3B"/>
<rect x="66.2698" y="55.2698" width="302.093" height="77.4605" rx="13.9675" stroke="#494949" stroke-width="2.53955"/>
<path d="M88.3601 107.5V79.7959H98.5056C100.472 79.7959 102.099 80.1205 103.389 80.7698C104.679 81.4101 105.644 82.2804 106.284 83.3806C106.924 84.4718 107.244 85.7028 107.244 87.0736C107.244 88.2279 107.032 89.2019 106.609 89.9955C106.185 90.7801 105.617 91.4114 104.904 91.8894C104.201 92.3583 103.425 92.701 102.577 92.9174V93.188C103.497 93.2331 104.395 93.5307 105.269 94.0808C106.153 94.6219 106.884 95.393 107.461 96.394C108.038 97.395 108.327 98.6125 108.327 100.046C108.327 101.462 107.993 102.734 107.326 103.861C106.667 104.979 105.648 105.868 104.268 106.526C102.889 107.175 101.125 107.5 98.9791 107.5H88.3601ZM92.54 103.915H98.5733C100.575 103.915 102.009 103.527 102.875 102.752C103.741 101.976 104.174 101.007 104.174 99.8435C104.174 98.9687 103.953 98.1661 103.511 97.4356C103.069 96.7051 102.438 96.1234 101.617 95.6906C100.805 95.2577 99.8403 95.0413 98.7221 95.0413H92.54V103.915ZM92.54 91.7811H98.1404C99.0783 91.7811 99.9215 91.6008 100.67 91.24C101.428 90.8793 102.027 90.3743 102.469 89.725C102.92 89.0666 103.146 88.2911 103.146 87.3983C103.146 86.2529 102.744 85.2925 101.942 84.5169C101.139 83.7414 99.908 83.3536 98.2486 83.3536H92.54V91.7811ZM112.96 107.5V86.7219H116.869V90.0226H117.086C117.464 88.9043 118.132 88.025 119.088 87.3847C120.053 86.7354 121.144 86.4108 122.361 86.4108C122.614 86.4108 122.911 86.4198 123.254 86.4378C123.606 86.4559 123.881 86.4784 124.079 86.5055V90.3743C123.917 90.3292 123.628 90.2796 123.213 90.2255C122.799 90.1624 122.384 90.1308 121.969 90.1308C121.013 90.1308 120.161 90.3337 119.412 90.7395C118.673 91.1363 118.087 91.691 117.654 92.4034C117.221 93.1068 117.004 93.9095 117.004 94.8113V107.5H112.96ZM133.44 107.96C132.124 107.96 130.933 107.716 129.869 107.229C128.805 106.733 127.962 106.016 127.339 105.079C126.726 104.141 126.419 102.991 126.419 101.629C126.419 100.457 126.645 99.4918 127.096 98.7342C127.547 97.9767 128.155 97.377 128.922 96.9351C129.689 96.4932 130.545 96.1595 131.492 95.9341C132.439 95.7086 133.404 95.5373 134.387 95.42C135.632 95.2757 136.642 95.1585 137.417 95.0683C138.193 94.9691 138.756 94.8113 139.108 94.5948C139.46 94.3784 139.636 94.0267 139.636 93.5397V93.445C139.636 92.2636 139.302 91.3483 138.635 90.699C137.976 90.0496 136.993 89.725 135.686 89.725C134.324 89.725 133.251 90.0271 132.466 90.6313C131.691 91.2265 131.154 91.8894 130.856 92.6198L127.055 91.7541C127.506 90.4915 128.164 89.4725 129.03 88.6969C129.905 87.9123 130.911 87.3442 132.047 86.9924C133.183 86.6317 134.378 86.4513 135.632 86.4513C136.461 86.4513 137.341 86.5505 138.269 86.7489C139.207 86.9383 140.082 87.29 140.894 87.8041C141.714 88.3181 142.386 89.0531 142.909 90.0091C143.432 90.956 143.694 92.187 143.694 93.702V107.5H139.744V104.659H139.582C139.32 105.182 138.928 105.696 138.405 106.201C137.882 106.706 137.21 107.126 136.389 107.459C135.568 107.793 134.586 107.96 133.44 107.96ZM134.319 104.713C135.438 104.713 136.394 104.492 137.187 104.051C137.99 103.609 138.599 103.031 139.013 102.319C139.437 101.598 139.649 100.826 139.649 100.006V97.3274C139.505 97.4717 139.225 97.607 138.811 97.7332C138.405 97.8504 137.94 97.9542 137.417 98.0443C136.894 98.1255 136.385 98.2022 135.889 98.2743C135.393 98.3374 134.978 98.3915 134.644 98.4366C133.86 98.5358 133.143 98.7027 132.493 98.9371C131.853 99.1716 131.339 99.5098 130.951 99.9517C130.572 100.385 130.383 100.962 130.383 101.683C130.383 102.684 130.753 103.442 131.492 103.956C132.232 104.461 133.174 104.713 134.319 104.713ZM153.126 95.163V107.5H149.081V86.7219H152.964V90.1037H153.221C153.699 89.0035 154.447 88.1197 155.466 87.4524C156.494 86.785 157.788 86.4513 159.349 86.4513C160.764 86.4513 162.004 86.7489 163.069 87.3442C164.133 87.9303 164.958 88.8051 165.544 89.9685C166.13 91.1318 166.423 92.5702 166.423 94.2837V107.5H162.379V94.7707C162.379 93.2647 161.986 92.0878 161.202 91.24C160.417 90.3833 159.34 89.9549 157.969 89.9549C157.031 89.9549 156.197 90.1579 155.466 90.5637C154.745 90.9695 154.172 91.5647 153.748 92.3493C153.333 93.1249 153.126 94.0628 153.126 95.163ZM179.626 107.906C177.949 107.906 176.452 107.477 175.135 106.621C173.827 105.755 172.799 104.524 172.051 102.928C171.311 101.322 170.942 99.3971 170.942 97.1515C170.942 94.906 171.316 92.9851 172.064 91.3889C172.822 89.7926 173.859 88.5706 175.176 87.7229C176.492 86.8752 177.985 86.4513 179.653 86.4513C180.943 86.4513 181.98 86.6678 182.765 87.1007C183.558 87.5245 184.171 88.0205 184.604 88.5887C185.046 89.1568 185.389 89.6573 185.632 90.0902H185.876V79.7959H189.921V107.5H185.971V104.267H185.632C185.389 104.709 185.037 105.214 184.577 105.782C184.126 106.35 183.504 106.846 182.71 107.27C181.917 107.694 180.889 107.906 179.626 107.906ZM180.519 104.456C181.682 104.456 182.665 104.15 183.468 103.536C184.28 102.914 184.893 102.053 185.308 100.953C185.732 99.8525 185.943 98.5719 185.943 97.1109C185.943 95.668 185.736 94.4055 185.321 93.3233C184.906 92.2411 184.298 91.3979 183.495 90.7936C182.692 90.1894 181.7 89.8873 180.519 89.8873C179.301 89.8873 178.287 90.2029 177.475 90.8342C176.664 91.4655 176.05 92.3268 175.636 93.418C175.23 94.5092 175.027 95.7402 175.027 97.1109C175.027 98.4998 175.234 99.7488 175.649 100.858C176.064 101.967 176.677 102.847 177.489 103.496C178.309 104.136 179.32 104.456 180.519 104.456ZM218.017 91.8894V95.4065H205.734V91.8894H218.017ZM256.824 88.8051H252.603C252.441 87.9033 252.139 87.1097 251.697 86.4243C251.255 85.7389 250.714 85.1572 250.074 84.6793C249.433 84.2013 248.716 83.8406 247.923 83.5971C247.138 83.3536 246.304 83.2318 245.42 83.2318C243.824 83.2318 242.394 83.6331 241.132 84.4358C239.878 85.2384 238.886 86.4153 238.156 87.9664C237.434 89.5176 237.074 91.4114 237.074 93.6479C237.074 95.9025 237.434 97.8054 238.156 99.3565C238.886 100.908 239.883 102.08 241.145 102.874C242.408 103.667 243.828 104.064 245.407 104.064C246.281 104.064 247.111 103.947 247.896 103.712C248.689 103.469 249.406 103.113 250.046 102.644C250.687 102.175 251.228 101.602 251.67 100.926C252.121 100.24 252.432 99.4557 252.603 98.5719L256.824 98.5854C256.598 99.9472 256.161 101.201 255.512 102.346C254.871 103.482 254.046 104.465 253.036 105.295C252.035 106.116 250.89 106.751 249.6 107.202C248.31 107.653 246.904 107.879 245.38 107.879C242.981 107.879 240.843 107.311 238.968 106.174C237.092 105.029 235.613 103.392 234.531 101.264C233.457 99.1355 232.921 96.5969 232.921 93.6479C232.921 90.6899 233.462 88.1513 234.544 86.032C235.626 83.9037 237.105 82.2714 238.981 81.1351C240.857 79.9897 242.99 79.4171 245.38 79.4171C246.85 79.4171 248.22 79.629 249.492 80.0529C250.772 80.4677 251.922 81.081 252.941 81.8926C253.96 82.6952 254.804 83.6782 255.471 84.8416C256.138 85.9959 256.589 87.3171 256.824 88.8051ZM270.253 107.919C268.305 107.919 266.605 107.473 265.153 106.58C263.701 105.687 262.574 104.438 261.771 102.833C260.969 101.228 260.567 99.352 260.567 97.2056C260.567 95.0503 260.969 93.1654 261.771 91.5512C262.574 89.9369 263.701 88.6834 265.153 87.7906C266.605 86.8977 268.305 86.4513 270.253 86.4513C272.201 86.4513 273.901 86.8977 275.353 87.7906C276.805 88.6834 277.932 89.9369 278.735 91.5512C279.537 93.1654 279.939 95.0503 279.939 97.2056C279.939 99.352 279.537 101.228 278.735 102.833C277.932 104.438 276.805 105.687 275.353 106.58C273.901 107.473 272.201 107.919 270.253 107.919ZM270.267 104.524C271.529 104.524 272.575 104.19 273.405 103.523C274.235 102.856 274.848 101.967 275.245 100.858C275.651 99.7488 275.853 98.5268 275.853 97.1921C275.853 95.8664 275.651 94.649 275.245 93.5397C274.848 92.4214 274.235 91.5241 273.405 90.8478C272.575 90.1714 271.529 89.8332 270.267 89.8332C268.995 89.8332 267.94 90.1714 267.101 90.8478C266.271 91.5241 265.654 92.4214 265.248 93.5397C264.851 94.649 264.653 95.8664 264.653 97.1921C264.653 98.5268 264.851 99.7488 265.248 100.858C265.654 101.967 266.271 102.856 267.101 103.523C267.94 104.19 268.995 104.524 270.267 104.524ZM288.498 79.7959V107.5H284.453V79.7959H288.498ZM302.692 107.919C300.744 107.919 299.044 107.473 297.592 106.58C296.14 105.687 295.013 104.438 294.21 102.833C293.407 101.228 293.006 99.352 293.006 97.2056C293.006 95.0503 293.407 93.1654 294.21 91.5512C295.013 89.9369 296.14 88.6834 297.592 87.7906C299.044 86.8977 300.744 86.4513 302.692 86.4513C304.64 86.4513 306.34 86.8977 307.792 87.7906C309.244 88.6834 310.371 89.9369 311.173 91.5512C311.976 93.1654 312.377 95.0503 312.377 97.2056C312.377 99.352 311.976 101.228 311.173 102.833C310.371 104.438 309.244 105.687 307.792 106.58C306.34 107.473 304.64 107.919 302.692 107.919ZM302.705 104.524C303.968 104.524 305.014 104.19 305.844 103.523C306.673 102.856 307.287 101.967 307.683 100.858C308.089 99.7488 308.292 98.5268 308.292 97.1921C308.292 95.8664 308.089 94.649 307.683 93.5397C307.287 92.4214 306.673 91.5241 305.844 90.8478C305.014 90.1714 303.968 89.8332 302.705 89.8332C301.434 89.8332 300.379 90.1714 299.54 90.8478C298.71 91.5241 298.092 92.4214 297.687 93.5397C297.29 94.649 297.091 95.8664 297.091 97.1921C297.091 98.5268 297.29 99.7488 297.687 100.858C298.092 101.967 298.71 102.856 299.54 103.523C300.379 104.19 301.434 104.524 302.705 104.524ZM316.892 107.5V86.7219H320.802V90.0226H321.018C321.397 88.9043 322.064 88.025 323.02 87.3847C323.985 86.7354 325.076 86.4108 326.294 86.4108C326.546 86.4108 326.844 86.4198 327.187 86.4378C327.538 86.4559 327.813 86.4784 328.012 86.5055V90.3743C327.849 90.3292 327.561 90.2796 327.146 90.2255C326.731 90.1624 326.316 90.1308 325.901 90.1308C324.946 90.1308 324.093 90.3337 323.345 90.7395C322.605 91.1363 322.019 91.691 321.586 92.4034C321.153 93.1068 320.937 93.9095 320.937 94.8113V107.5H316.892ZM347.082 91.7947L343.416 92.444C343.263 91.975 343.019 91.5286 342.686 91.1048C342.361 90.6809 341.919 90.3337 341.36 90.0632C340.801 89.7926 340.102 89.6573 339.263 89.6573C338.118 89.6573 337.162 89.9144 336.395 90.4284C335.629 90.9334 335.246 91.5873 335.246 92.3899C335.246 93.0843 335.503 93.6434 336.017 94.0673C336.531 94.4911 337.36 94.8383 338.506 95.1089L341.806 95.8664C343.718 96.3083 345.143 96.9892 346.081 97.9091C347.019 98.8289 347.488 100.024 347.488 101.494C347.488 102.738 347.127 103.848 346.406 104.822C345.693 105.787 344.697 106.544 343.416 107.094C342.144 107.644 340.67 107.919 338.993 107.919C336.666 107.919 334.768 107.423 333.298 106.431C331.828 105.43 330.926 104.01 330.592 102.17L334.502 101.575C334.745 102.594 335.246 103.365 336.003 103.888C336.761 104.402 337.748 104.659 338.966 104.659C340.291 104.659 341.351 104.384 342.144 103.834C342.938 103.275 343.335 102.594 343.335 101.791C343.335 101.142 343.091 100.597 342.604 100.155C342.126 99.7127 341.391 99.379 340.399 99.1536L336.882 98.3825C334.943 97.9406 333.509 97.2372 332.581 96.2722C331.661 95.3073 331.201 94.0853 331.201 92.6063C331.201 91.3798 331.544 90.3067 332.229 89.3868C332.914 88.4669 333.861 87.75 335.07 87.2359C336.278 86.7129 337.662 86.4513 339.223 86.4513C341.468 86.4513 343.236 86.9383 344.525 87.9123C345.815 88.8773 346.667 90.1714 347.082 91.7947Z" fill="white"/>
</svg>
