<?xml version="1.0" encoding="UTF-8"?> <svg xmlns="http://www.w3.org/2000/svg" width="1965" height="1716" viewBox="0 0 1965 1716" fill="none"><rect width="1965" height="1716" fill="#F5F5F5"></rect><rect width="680" height="507" transform="translate(521 600)" fill="#18181B"></rect><path d="M700.042 832.407L701.79 843H695.073L693.763 834.045C692.998 828.748 690.814 826.236 685.9 826.236H673.122V843H666.843V802.866H686.883C696.165 802.866 701.244 807.179 701.244 814.223C701.244 819.356 698.459 822.578 694.2 823.888C697.421 825.144 699.278 827.601 700.042 832.407ZM673.122 808.326V821.049H686.5C691.961 821.049 694.746 818.974 694.746 814.715C694.746 810.401 691.961 808.326 686.5 808.326H673.122ZM727.993 844.092C715.543 844.092 706.806 834.973 706.806 823.069C706.806 811.111 715.925 801.773 728.212 801.773C740.716 801.773 749.398 810.892 749.398 822.796C749.398 834.755 740.334 844.092 727.993 844.092ZM728.102 838.304C736.784 838.304 742.9 831.697 742.9 822.905C742.9 814.223 736.73 807.562 728.102 807.562C719.475 807.562 713.359 814.223 713.359 822.96C713.359 831.697 719.529 838.304 728.102 838.304ZM793.362 843H785.881L772.066 821.486L763.876 829.24V843H757.596V802.866H763.876V822.196L784.625 802.811H792.434L777.035 817.445L793.362 843ZM815.6 844.092C803.15 844.092 794.414 834.973 794.414 823.069C794.414 811.111 803.533 801.773 815.819 801.773C828.323 801.773 837.005 810.892 837.005 822.796C837.005 834.755 827.941 844.092 815.6 844.092ZM815.709 838.304C824.392 838.304 830.507 831.697 830.507 822.905C830.507 814.223 824.337 807.562 815.709 807.562C807.082 807.562 800.966 814.223 800.966 822.96C800.966 831.697 807.137 838.304 815.709 838.304ZM880.969 843H873.488L859.673 821.486L851.483 829.24V843H845.203V802.866H851.483V822.196L872.233 802.811H880.041L864.643 817.445L880.969 843ZM903.207 844.092C890.758 844.092 882.021 834.973 882.021 823.069C882.021 811.111 891.14 801.773 903.426 801.773C915.93 801.773 924.612 810.892 924.612 822.796C924.612 834.755 915.548 844.092 903.207 844.092ZM903.317 838.304C911.999 838.304 918.115 831.697 918.115 822.905C918.115 814.223 911.944 807.562 903.317 807.562C894.689 807.562 888.573 814.223 888.573 822.96C888.573 831.697 894.744 838.304 903.317 838.304ZM707.305 862.866V903H701.134L701.244 868.381H700.861L689.34 892.079H684.589L673.068 868.381H672.685L672.795 903H666.843V862.866H676.835L687.156 883.943L697.476 862.866H707.305ZM730.188 904.092C721.015 904.092 714.244 897.758 714.244 888.857C714.244 879.902 721.233 873.404 730.298 873.404C739.471 873.404 746.242 879.684 746.242 888.639C746.242 897.54 739.198 904.092 730.188 904.092ZM730.243 898.795C736.249 898.795 740.126 894.209 740.126 888.748C740.126 883.288 736.249 878.701 730.243 878.701C724.236 878.701 720.305 883.288 720.305 888.748C720.305 894.209 724.236 898.795 730.243 898.795ZM769.954 874.496V879.738H759.634V891.97C759.634 897.43 761.436 898.522 764.821 898.522C766.623 898.522 768.425 898.14 769.681 897.703V902.836C768.371 903.273 766.35 903.655 763.948 903.655C757.013 903.655 753.682 900.816 753.682 892.516V879.738H747.184V874.496H753.682V862.866H759.634V874.496H769.954ZM776.966 869.582C774.782 869.582 773.034 867.889 773.034 865.65C773.034 863.466 774.782 861.719 776.966 861.719C779.205 861.719 780.952 863.466 780.952 865.65C780.952 867.889 779.205 869.582 776.966 869.582ZM779.969 903H774.017V874.496H779.969V903ZM801.715 904.092C792.542 904.092 785.771 897.758 785.771 888.857C785.771 879.902 792.76 873.404 801.825 873.404C810.998 873.404 817.769 879.684 817.769 888.639C817.769 897.54 810.725 904.092 801.715 904.092ZM801.77 898.795C807.776 898.795 811.653 894.209 811.653 888.748C811.653 883.288 807.776 878.701 801.77 878.701C795.763 878.701 791.832 883.288 791.832 888.748C791.832 894.209 795.763 898.795 801.77 898.795ZM839.44 873.404C847.959 873.404 851.781 878.974 851.781 886.892V903H845.829V887.547C845.829 881.923 843.481 878.865 838.239 878.865C832.888 878.865 829.502 882.25 829.502 887.547V903H823.55V874.496H828.847V880.448C830.431 876.189 833.761 873.404 839.44 873.404ZM880.883 862.866V897.267H901.961V903H874.604V862.866H880.883ZM908.904 869.582C906.72 869.582 904.973 867.889 904.973 865.65C904.973 863.466 906.72 861.719 908.904 861.719C911.143 861.719 912.89 863.466 912.89 865.65C912.89 867.889 911.143 869.582 908.904 869.582ZM911.908 903H905.956V874.496H911.908V903ZM936.548 873.404C944.629 873.404 951.237 879.684 951.237 888.639C951.237 897.54 944.411 904.092 936.329 904.092C930.814 904.092 927.101 901.471 925.354 897.048V903H920.057V862.866H926.009V879.302C927.975 875.752 931.579 873.404 936.548 873.404ZM935.456 898.795C941.244 898.795 945.121 894.209 945.121 888.748C945.121 883.288 941.244 878.701 935.456 878.701C929.941 878.701 926.009 882.578 926.009 887.055V890.441C926.009 894.919 929.941 898.795 935.456 898.795ZM971.669 873.841C972.816 873.841 973.908 873.95 973.908 873.95V879.629C973.908 879.629 972.434 879.356 971.123 879.356C966.209 879.356 962.987 882.25 962.987 888.639V903H957.035V874.496H962.332V880.721C963.752 876.353 966.7 873.841 971.669 873.841ZM1004.32 898.959C1005.63 898.959 1006.83 898.686 1006.83 898.686V903.491C1006.83 903.491 1005.36 903.928 1003.17 903.928C998.803 903.928 996.728 902.181 996.455 897.43C994.817 901.198 991.267 904.092 985.643 904.092C978.872 904.092 975.159 900.816 975.159 895.847C975.159 890.714 979.09 887.383 989.738 886.564L995.799 886.073V884.707C995.799 880.284 993.888 878.264 989.302 878.264C985.152 878.264 982.694 880.175 981.711 884.216L976.196 882.141C978.053 876.244 983.131 873.404 989.684 873.404C999.076 873.404 1001.75 878.428 1001.75 884.489V895.847C1001.75 898.359 1002.57 898.959 1004.32 898.959ZM986.79 899.178C991.813 899.178 995.799 895.738 995.799 892.461V890.059L990.612 890.496C983.186 891.042 981.275 892.734 981.275 895.246C981.275 897.54 982.967 899.178 986.79 899.178ZM1025.15 873.841C1026.3 873.841 1027.39 873.95 1027.39 873.95V879.629C1027.39 879.629 1025.91 879.356 1024.6 879.356C1019.69 879.356 1016.47 882.25 1016.47 888.639V903H1010.51V874.496H1015.81V880.721C1017.23 876.353 1020.18 873.841 1025.15 873.841ZM1043.49 897.267L1052.61 874.496H1058.67L1041.64 914.74H1035.41L1040.11 904.037L1027.66 874.496H1034.26L1043.49 897.267Z" fill="#F5F5F5"></path><rect width="680" height="507" transform="translate(1247 600)" fill="white"></rect><path d="M1426.04 832.407L1427.79 843H1421.07L1419.76 834.045C1419 828.748 1416.81 826.236 1411.9 826.236H1399.12V843H1392.84V802.866H1412.88C1422.17 802.866 1427.24 807.179 1427.24 814.223C1427.24 819.356 1424.46 822.578 1420.2 823.888C1423.42 825.144 1425.28 827.601 1426.04 832.407ZM1399.12 808.326V821.049H1412.5C1417.96 821.049 1420.75 818.974 1420.75 814.715C1420.75 810.401 1417.96 808.326 1412.5 808.326H1399.12ZM1453.99 844.092C1441.54 844.092 1432.81 834.973 1432.81 823.069C1432.81 811.111 1441.93 801.773 1454.21 801.773C1466.72 801.773 1475.4 810.892 1475.4 822.796C1475.4 834.755 1466.33 844.092 1453.99 844.092ZM1454.1 838.304C1462.78 838.304 1468.9 831.697 1468.9 822.905C1468.9 814.223 1462.73 807.562 1454.1 807.562C1445.47 807.562 1439.36 814.223 1439.36 822.96C1439.36 831.697 1445.53 838.304 1454.1 838.304ZM1519.36 843H1511.88L1498.07 821.486L1489.88 829.24V843H1483.6V802.866H1489.88V822.196L1510.63 802.811H1518.43L1503.04 817.445L1519.36 843ZM1541.6 844.092C1529.15 844.092 1520.41 834.973 1520.41 823.069C1520.41 811.111 1529.53 801.773 1541.82 801.773C1554.32 801.773 1563.01 810.892 1563.01 822.796C1563.01 834.755 1553.94 844.092 1541.6 844.092ZM1541.71 838.304C1550.39 838.304 1556.51 831.697 1556.51 822.905C1556.51 814.223 1550.34 807.562 1541.71 807.562C1533.08 807.562 1526.97 814.223 1526.97 822.96C1526.97 831.697 1533.14 838.304 1541.71 838.304ZM1606.97 843H1599.49L1585.67 821.486L1577.48 829.24V843H1571.2V802.866H1577.48V822.196L1598.23 802.811H1606.04L1590.64 817.445L1606.97 843ZM1629.21 844.092C1616.76 844.092 1608.02 834.973 1608.02 823.069C1608.02 811.111 1617.14 801.773 1629.43 801.773C1641.93 801.773 1650.61 810.892 1650.61 822.796C1650.61 834.755 1641.55 844.092 1629.21 844.092ZM1629.32 838.304C1638 838.304 1644.11 831.697 1644.11 822.905C1644.11 814.223 1637.94 807.562 1629.32 807.562C1620.69 807.562 1614.57 814.223 1614.57 822.96C1614.57 831.697 1620.74 838.304 1629.32 838.304ZM1433.3 862.866V903H1427.13L1427.24 868.381H1426.86L1415.34 892.079H1410.59L1399.07 868.381H1398.69L1398.79 903H1392.84V862.866H1402.84L1413.16 883.943L1423.48 862.866H1433.3ZM1456.19 904.092C1447.01 904.092 1440.24 897.758 1440.24 888.857C1440.24 879.902 1447.23 873.404 1456.3 873.404C1465.47 873.404 1472.24 879.684 1472.24 888.639C1472.24 897.54 1465.2 904.092 1456.19 904.092ZM1456.24 898.795C1462.25 898.795 1466.13 894.209 1466.13 888.748C1466.13 883.288 1462.25 878.701 1456.24 878.701C1450.24 878.701 1446.3 883.288 1446.3 888.748C1446.3 894.209 1450.24 898.795 1456.24 898.795ZM1495.95 874.496V879.738H1485.63V891.97C1485.63 897.43 1487.44 898.522 1490.82 898.522C1492.62 898.522 1494.43 898.14 1495.68 897.703V902.836C1494.37 903.273 1492.35 903.655 1489.95 903.655C1483.01 903.655 1479.68 900.816 1479.68 892.516V879.738H1473.18V874.496H1479.68V862.866H1485.63V874.496H1495.95ZM1502.97 869.582C1500.78 869.582 1499.03 867.889 1499.03 865.65C1499.03 863.466 1500.78 861.719 1502.97 861.719C1505.2 861.719 1506.95 863.466 1506.95 865.65C1506.95 867.889 1505.2 869.582 1502.97 869.582ZM1505.97 903H1500.02V874.496H1505.97V903ZM1527.72 904.092C1518.54 904.092 1511.77 897.758 1511.77 888.857C1511.77 879.902 1518.76 873.404 1527.82 873.404C1537 873.404 1543.77 879.684 1543.77 888.639C1543.77 897.54 1536.73 904.092 1527.72 904.092ZM1527.77 898.795C1533.78 898.795 1537.65 894.209 1537.65 888.748C1537.65 883.288 1533.78 878.701 1527.77 878.701C1521.76 878.701 1517.83 883.288 1517.83 888.748C1517.83 894.209 1521.76 898.795 1527.77 898.795ZM1565.44 873.404C1573.96 873.404 1577.78 878.974 1577.78 886.892V903H1571.83V887.547C1571.83 881.923 1569.48 878.865 1564.24 878.865C1558.89 878.865 1555.5 882.25 1555.5 887.547V903H1549.55V874.496H1554.85V880.448C1556.43 876.189 1559.76 873.404 1565.44 873.404ZM1606.88 862.866V897.267H1627.96V903H1600.6V862.866H1606.88ZM1634.9 869.582C1632.72 869.582 1630.97 867.889 1630.97 865.65C1630.97 863.466 1632.72 861.719 1634.9 861.719C1637.14 861.719 1638.89 863.466 1638.89 865.65C1638.89 867.889 1637.14 869.582 1634.9 869.582ZM1637.91 903H1631.96V874.496H1637.91V903ZM1662.55 873.404C1670.63 873.404 1677.24 879.684 1677.24 888.639C1677.24 897.54 1670.41 904.092 1662.33 904.092C1656.81 904.092 1653.1 901.471 1651.35 897.048V903H1646.06V862.866H1652.01V879.302C1653.97 875.752 1657.58 873.404 1662.55 873.404ZM1661.46 898.795C1667.24 898.795 1671.12 894.209 1671.12 888.748C1671.12 883.288 1667.24 878.701 1661.46 878.701C1655.94 878.701 1652.01 882.578 1652.01 887.055V890.441C1652.01 894.919 1655.94 898.795 1661.46 898.795ZM1697.67 873.841C1698.82 873.841 1699.91 873.95 1699.91 873.95V879.629C1699.91 879.629 1698.43 879.356 1697.12 879.356C1692.21 879.356 1688.99 882.25 1688.99 888.639V903H1683.04V874.496H1688.33V880.721C1689.75 876.353 1692.7 873.841 1697.67 873.841ZM1730.32 898.959C1731.63 898.959 1732.83 898.686 1732.83 898.686V903.491C1732.83 903.491 1731.36 903.928 1729.17 903.928C1724.8 903.928 1722.73 902.181 1722.45 897.43C1720.82 901.198 1717.27 904.092 1711.64 904.092C1704.87 904.092 1701.16 900.816 1701.16 895.847C1701.16 890.714 1705.09 887.383 1715.74 886.564L1721.8 886.073V884.707C1721.8 880.284 1719.89 878.264 1715.3 878.264C1711.15 878.264 1708.69 880.175 1707.71 884.216L1702.2 882.141C1704.05 876.244 1709.13 873.404 1715.68 873.404C1725.08 873.404 1727.75 878.428 1727.75 884.489V895.847C1727.75 898.359 1728.57 898.959 1730.32 898.959ZM1712.79 899.178C1717.81 899.178 1721.8 895.738 1721.8 892.461V890.059L1716.61 890.496C1709.19 891.042 1707.27 892.734 1707.27 895.246C1707.27 897.54 1708.97 899.178 1712.79 899.178ZM1751.15 873.841C1752.3 873.841 1753.39 873.95 1753.39 873.95V879.629C1753.39 879.629 1751.91 879.356 1750.6 879.356C1745.69 879.356 1742.47 882.25 1742.47 888.639V903H1736.51V874.496H1741.81V880.721C1743.23 876.353 1746.18 873.841 1751.15 873.841ZM1769.49 897.267L1778.61 874.496H1784.67L1767.64 914.74H1761.41L1766.11 904.037L1753.66 874.496H1760.26L1769.49 897.267Z" fill="#18181B"></path><rect width="679" height="507" transform="translate(522 38)" fill="#18181B"></rect><g clip-path="url(#clip0_2321_21799)"><path fill-rule="evenodd" clip-rule="evenodd" d="M695.47 311.941C706.776 311.941 715.941 302.776 715.941 291.47C715.941 280.165 706.776 271 695.47 271C684.165 271 675 280.165 675 291.47C675 302.776 684.165 311.941 695.47 311.941ZM695.471 302.193C701.393 302.193 706.194 297.393 706.194 291.471C706.194 285.549 701.393 280.748 695.471 280.748C689.549 280.748 684.749 285.549 684.749 291.471C684.749 297.393 689.549 302.193 695.471 302.193Z" fill="#F5F5F5"></path></g><path d="M829.856 300.636C829.119 296.093 827.327 293.61 824.324 292.395C828.381 291.127 831.016 288.01 831.016 283.045C831.016 276.23 826.115 272.057 817.158 272.057H797.82V310.884H803.88V294.666H816.209C820.952 294.666 823.059 297.096 823.797 302.221L825.061 310.884H831.542L829.856 300.636ZM803.88 289.648V277.339H816.789C822.058 277.339 824.745 279.347 824.745 283.52C824.745 287.64 822.058 289.648 816.789 289.648H803.88Z" fill="#F5F5F5"></path><path d="M857.199 311.941C868.843 311.941 877.169 302.96 877.169 291.391C877.169 279.875 869.265 271 857.462 271C845.87 271 837.492 279.981 837.492 291.55C837.492 303.066 845.449 311.941 857.199 311.941ZM857.304 306.341C849.032 306.341 843.815 299.896 843.815 291.497C843.815 283.045 849.032 276.6 857.357 276.6C865.682 276.6 870.898 283.045 870.898 291.444C870.898 299.896 865.682 306.341 857.304 306.341Z" fill="#F5F5F5"></path><path d="M913.567 310.884H920.785L905.031 286.161L919.89 272.004H912.355L892.332 290.757V272.057H886.273V310.884H892.332V297.572L900.236 290.07L913.567 310.884Z" fill="#F5F5F5"></path><path d="M942.255 311.941C953.9 311.941 962.225 302.96 962.225 291.391C962.225 279.875 954.321 271 942.519 271C930.927 271 922.549 279.981 922.549 291.55C922.549 303.066 930.505 311.941 942.255 311.941ZM942.361 306.341C934.088 306.341 928.872 299.896 928.872 291.497C928.872 283.045 934.088 276.6 942.413 276.6C950.739 276.6 955.955 283.045 955.955 291.444C955.955 299.896 950.739 306.341 942.361 306.341Z" fill="#F5F5F5"></path><path d="M998.623 310.884H1005.84L990.087 286.161L1004.95 272.004H997.411L977.389 290.757V272.057H971.33V310.884H977.389V297.572L985.293 290.07L998.623 310.884Z" fill="#F5F5F5"></path><path d="M1027.31 311.941C1038.96 311.941 1047.28 302.96 1047.28 291.391C1047.28 279.875 1039.38 271 1027.58 271C1015.98 271 1007.61 279.981 1007.61 291.55C1007.61 303.066 1015.56 311.941 1027.31 311.941ZM1027.42 306.341C1019.14 306.341 1013.93 299.896 1013.93 291.497C1013.93 283.045 1019.14 276.6 1027.47 276.6C1035.8 276.6 1041.01 283.045 1041.01 291.444C1041.01 299.896 1035.8 306.341 1027.42 306.341Z" fill="#F5F5F5"></path><rect width="680" height="507" transform="translate(1247 38)" fill="white"></rect><g clip-path="url(#clip1_2321_21799)"><path fill-rule="evenodd" clip-rule="evenodd" d="M1421.47 311.941C1432.78 311.941 1441.94 302.776 1441.94 291.47C1441.94 280.165 1432.78 271 1421.47 271C1410.16 271 1401 280.165 1401 291.47C1401 302.776 1410.16 311.941 1421.47 311.941ZM1421.47 302.193C1427.39 302.193 1432.19 297.393 1432.19 291.471C1432.19 285.549 1427.39 280.748 1421.47 280.748C1415.55 280.748 1410.75 285.549 1410.75 291.471C1410.75 297.393 1415.55 302.193 1421.47 302.193Z" fill="black"></path></g><path d="M1555.86 300.636C1555.12 296.093 1553.33 293.61 1550.32 292.395C1554.38 291.127 1557.02 288.01 1557.02 283.045C1557.02 276.23 1552.12 272.057 1543.16 272.057H1523.82V310.884H1529.88V294.666H1542.21C1546.95 294.666 1549.06 297.096 1549.8 302.221L1551.06 310.884H1557.54L1555.86 300.636ZM1529.88 289.648V277.339H1542.79C1548.06 277.339 1550.75 279.347 1550.75 283.52C1550.75 287.64 1548.06 289.648 1542.79 289.648H1529.88Z" fill="black"></path><path d="M1583.2 311.941C1594.84 311.941 1603.17 302.96 1603.17 291.391C1603.17 279.875 1595.26 271 1583.46 271C1571.87 271 1563.49 279.981 1563.49 291.55C1563.49 303.066 1571.45 311.941 1583.2 311.941ZM1583.3 306.341C1575.03 306.341 1569.82 299.896 1569.82 291.497C1569.82 283.045 1575.03 276.6 1583.36 276.6C1591.68 276.6 1596.9 283.045 1596.9 291.444C1596.9 299.896 1591.68 306.341 1583.3 306.341Z" fill="black"></path><path d="M1639.57 310.884H1646.79L1631.03 286.161L1645.89 272.004H1638.35L1618.33 290.757V272.057H1612.27V310.884H1618.33V297.572L1626.24 290.07L1639.57 310.884Z" fill="black"></path><path d="M1668.26 311.941C1679.9 311.941 1688.23 302.96 1688.23 291.391C1688.23 279.875 1680.32 271 1668.52 271C1656.93 271 1648.55 279.981 1648.55 291.55C1648.55 303.066 1656.51 311.941 1668.26 311.941ZM1668.36 306.341C1660.09 306.341 1654.87 299.896 1654.87 291.497C1654.87 283.045 1660.09 276.6 1668.41 276.6C1676.74 276.6 1681.95 283.045 1681.95 291.444C1681.95 299.896 1676.74 306.341 1668.36 306.341Z" fill="black"></path><path d="M1724.62 310.884H1731.84L1716.09 286.161L1730.95 272.004H1723.41L1703.39 290.757V272.057H1697.33V310.884H1703.39V297.572L1711.29 290.07L1724.62 310.884Z" fill="black"></path><path d="M1753.31 311.941C1764.96 311.941 1773.28 302.96 1773.28 291.391C1773.28 279.875 1765.38 271 1753.58 271C1741.98 271 1733.61 279.981 1733.61 291.55C1733.61 303.066 1741.56 311.941 1753.31 311.941ZM1753.42 306.341C1745.14 306.341 1739.93 299.896 1739.93 291.497C1739.93 283.045 1745.14 276.6 1753.47 276.6C1761.8 276.6 1767.01 283.045 1767.01 291.444C1767.01 299.896 1761.8 306.341 1753.42 306.341Z" fill="black"></path><rect width="679" height="507" transform="translate(522 1162)" fill="#18181B"></rect><path d="M764.123 1394.6C763.334 1389.64 761.419 1387.11 758.095 1385.81C762.489 1384.46 765.362 1381.14 765.362 1375.84C765.362 1368.58 760.123 1364.13 750.547 1364.13H729.873V1405.53H736.351V1388.24H749.533C754.602 1388.24 756.856 1390.83 757.644 1396.29L758.996 1405.53H765.925L764.123 1394.6ZM736.351 1369.76H750.152C755.785 1369.76 758.658 1371.9 758.658 1376.35C758.658 1380.74 755.785 1382.89 750.152 1382.89H736.351V1369.76Z" fill="#F5F5F5"></path><path d="M792.957 1406.66C805.688 1406.66 815.039 1397.02 815.039 1384.69C815.039 1372.41 806.082 1363 793.183 1363C780.508 1363 771.101 1372.63 771.101 1384.97C771.101 1397.25 780.114 1406.66 792.957 1406.66ZM793.07 1400.69C784.226 1400.69 777.86 1393.87 777.86 1384.86C777.86 1375.84 784.17 1368.97 793.07 1368.97C801.97 1368.97 808.336 1375.84 808.336 1384.8C808.336 1393.87 802.027 1400.69 793.07 1400.69Z" fill="#F5F5F5"></path><path d="M860.394 1405.53L843.55 1379.17L859.436 1364.07H851.381L829.975 1384.07V1364.13H823.496V1405.53H829.975V1391.33L838.424 1383.34L852.676 1405.53H860.394Z" fill="#F5F5F5"></path><path d="M883.335 1406.66C896.066 1406.66 905.417 1397.02 905.417 1384.69C905.417 1372.41 896.46 1363 883.56 1363C870.886 1363 861.478 1372.63 861.478 1384.97C861.478 1397.25 870.491 1406.66 883.335 1406.66ZM883.448 1400.69C874.604 1400.69 868.238 1393.87 868.238 1384.86C868.238 1375.84 874.547 1368.97 883.448 1368.97C892.348 1368.97 898.714 1375.84 898.714 1384.8C898.714 1393.87 892.404 1400.69 883.448 1400.69Z" fill="#F5F5F5"></path><path d="M950.771 1405.53L933.928 1379.17L949.814 1364.07H941.758L920.352 1384.07V1364.13H913.874V1405.53H920.352V1391.33L928.802 1383.34L943.054 1405.53H950.771Z" fill="#F5F5F5"></path><path d="M973.713 1406.66C986.444 1406.66 995.795 1397.02 995.795 1384.69C995.795 1372.41 986.838 1363 973.938 1363C961.264 1363 951.856 1372.63 951.856 1384.97C951.856 1397.25 960.869 1406.66 973.713 1406.66ZM973.826 1400.69C964.982 1400.69 958.616 1393.87 958.616 1384.86C958.616 1375.84 964.925 1368.97 973.826 1368.97C982.726 1368.97 989.091 1375.84 989.091 1384.8C989.091 1393.87 982.782 1400.69 973.826 1400.69Z" fill="#F5F5F5"></path><path d="M746.772 1468.52C757.588 1468.52 764.742 1463.62 764.742 1456.13C764.742 1438.33 735.224 1448.3 735.224 1436.98C735.224 1433.32 738.661 1430.5 745.589 1430.5C753.363 1430.5 756.405 1434.56 757.588 1439.85L764.066 1437.43C762.658 1430.73 756.799 1424.87 745.758 1424.87C735.675 1424.87 728.577 1429.77 728.577 1437.26C728.577 1455.06 758.095 1445.09 758.095 1456.41C758.095 1460.07 754.659 1462.89 746.941 1462.89C738.097 1462.89 734.661 1458.78 733.478 1453.43L727 1455.85C728.408 1462.67 734.267 1468.52 746.772 1468.52Z" fill="#F5F5F5"></path><path d="M790.836 1437.99H780.19V1425.99H774.05V1437.99H767.346V1443.4H774.05V1456.58C774.05 1465.14 777.486 1468.07 784.64 1468.07C787.119 1468.07 789.203 1467.68 790.555 1467.23V1461.93C789.259 1462.38 787.4 1462.78 785.541 1462.78C782.049 1462.78 780.19 1461.65 780.19 1456.02V1443.4H790.836V1437.99Z" fill="#F5F5F5"></path><path d="M817.054 1453.93C817.054 1459.4 813.561 1462.95 808.322 1462.95C803.196 1462.95 800.774 1459.74 800.774 1453.93V1437.99H794.634V1454.61C794.634 1462.78 798.577 1468.52 807.083 1468.52C812.716 1468.52 816.096 1465.65 817.729 1461.26V1467.4H823.194V1437.99H817.054V1453.93Z" fill="#F5F5F5"></path><path d="M855.183 1442.78C853.211 1439.06 849.606 1436.87 844.536 1436.87C836.199 1436.87 829.158 1443.57 829.158 1452.81C829.158 1462.05 835.918 1468.52 844.311 1468.52C850.113 1468.52 854.056 1465.43 855.859 1460.98V1467.4H861.323V1425.99H855.183V1442.78ZM845.438 1463.06C839.466 1463.06 835.411 1458.33 835.411 1452.7C835.411 1447.06 839.466 1442.33 845.438 1442.33C851.071 1442.33 855.183 1446.33 855.183 1450.95V1454.44C855.183 1459.06 851.071 1463.06 845.438 1463.06Z" fill="#F5F5F5"></path><path d="M872.769 1433.43C875.248 1433.43 877.332 1431.4 877.332 1428.87C877.332 1426.39 875.248 1424.36 872.769 1424.36C870.234 1424.36 868.207 1426.39 868.207 1428.87C868.207 1431.4 870.234 1433.43 872.769 1433.43ZM875.868 1467.4V1437.99H869.728V1467.4H875.868Z" fill="#F5F5F5"></path><path d="M898.302 1468.52C907.596 1468.52 914.863 1461.76 914.863 1452.58C914.863 1443.34 907.878 1436.87 898.414 1436.87C889.063 1436.87 881.853 1443.57 881.853 1452.81C881.853 1461.99 888.838 1468.52 898.302 1468.52ZM898.358 1463.06C892.162 1463.06 888.106 1458.33 888.106 1452.7C888.106 1447.06 892.162 1442.33 898.358 1442.33C904.554 1442.33 908.554 1447.06 908.554 1452.7C908.554 1458.33 904.554 1463.06 898.358 1463.06Z" fill="#F5F5F5"></path><rect width="680" height="507" transform="translate(1247 1162)" fill="white"></rect><path d="M1492.04 1382.41L1493.79 1393H1487.07L1485.76 1384.04C1485 1378.75 1482.81 1376.24 1477.9 1376.24H1465.12V1393H1458.84V1352.87H1478.88C1488.17 1352.87 1493.24 1357.18 1493.24 1364.22C1493.24 1369.36 1490.46 1372.58 1486.2 1373.89C1489.42 1375.14 1491.28 1377.6 1492.04 1382.41ZM1465.12 1358.33V1371.05H1478.5C1483.96 1371.05 1486.75 1368.97 1486.75 1364.71C1486.75 1360.4 1483.96 1358.33 1478.5 1358.33H1465.12ZM1519.99 1394.09C1507.54 1394.09 1498.81 1384.97 1498.81 1373.07C1498.81 1361.11 1507.93 1351.77 1520.21 1351.77C1532.72 1351.77 1541.4 1360.89 1541.4 1372.8C1541.4 1384.75 1532.33 1394.09 1519.99 1394.09ZM1520.1 1388.3C1528.78 1388.3 1534.9 1381.7 1534.9 1372.91C1534.9 1364.22 1528.73 1357.56 1520.1 1357.56C1511.47 1357.56 1505.36 1364.22 1505.36 1372.96C1505.36 1381.7 1511.53 1388.3 1520.1 1388.3ZM1585.36 1393H1577.88L1564.07 1371.49L1555.88 1379.24V1393H1549.6V1352.87H1555.88V1372.2L1576.63 1352.81H1584.43L1569.04 1367.45L1585.36 1393ZM1607.6 1394.09C1595.15 1394.09 1586.41 1384.97 1586.41 1373.07C1586.41 1361.11 1595.53 1351.77 1607.82 1351.77C1620.32 1351.77 1629.01 1360.89 1629.01 1372.8C1629.01 1384.75 1619.94 1394.09 1607.6 1394.09ZM1607.71 1388.3C1616.39 1388.3 1622.51 1381.7 1622.51 1372.91C1622.51 1364.22 1616.34 1357.56 1607.71 1357.56C1599.08 1357.56 1592.97 1364.22 1592.97 1372.96C1592.97 1381.7 1599.14 1388.3 1607.71 1388.3ZM1672.97 1393H1665.49L1651.67 1371.49L1643.48 1379.24V1393H1637.2V1352.87H1643.48V1372.2L1664.23 1352.81H1672.04L1656.64 1367.45L1672.97 1393ZM1695.21 1394.09C1682.76 1394.09 1674.02 1384.97 1674.02 1373.07C1674.02 1361.11 1683.14 1351.77 1695.43 1351.77C1707.93 1351.77 1716.61 1360.89 1716.61 1372.8C1716.61 1384.75 1707.55 1394.09 1695.21 1394.09ZM1695.32 1388.3C1704 1388.3 1710.11 1381.7 1710.11 1372.91C1710.11 1364.22 1703.94 1357.56 1695.32 1357.56C1686.69 1357.56 1680.57 1364.22 1680.57 1372.96C1680.57 1381.7 1686.74 1388.3 1695.32 1388.3ZM1475.22 1454.09C1463.1 1454.09 1457.42 1448.41 1456.06 1441.81L1462.34 1439.46C1463.48 1444.65 1466.81 1448.63 1475.39 1448.63C1482.87 1448.63 1486.2 1445.9 1486.2 1442.35C1486.2 1431.38 1457.59 1441.04 1457.59 1423.79C1457.59 1416.52 1464.47 1411.77 1474.24 1411.77C1484.94 1411.77 1490.62 1417.45 1491.99 1423.95L1485.71 1426.3C1484.56 1421.17 1481.61 1417.23 1474.08 1417.23C1467.36 1417.23 1464.03 1419.96 1464.03 1423.51C1464.03 1434.49 1492.64 1424.82 1492.64 1442.08C1492.64 1449.34 1485.71 1454.09 1475.22 1454.09ZM1517.94 1424.5V1429.74H1507.62V1441.97C1507.62 1447.43 1509.42 1448.52 1512.8 1448.52C1514.61 1448.52 1516.41 1448.14 1517.66 1447.7V1452.84C1516.35 1453.27 1514.33 1453.66 1511.93 1453.66C1505 1453.66 1501.67 1450.82 1501.67 1442.52V1429.74H1495.17V1424.5H1501.67V1412.87H1507.62V1424.5H1517.94ZM1543.35 1439.95V1424.5H1549.3V1453H1544.01V1447.05C1542.42 1451.31 1539.15 1454.09 1533.69 1454.09C1525.44 1454.09 1521.62 1448.52 1521.62 1440.6V1424.5H1527.57V1439.95C1527.57 1445.57 1529.92 1448.69 1534.89 1448.69C1539.97 1448.69 1543.35 1445.25 1543.35 1439.95ZM1580.31 1429.14V1412.87H1586.26V1453H1580.97V1446.78C1579.22 1451.09 1575.4 1454.09 1569.77 1454.09C1561.64 1454.09 1555.08 1447.81 1555.08 1438.86C1555.08 1429.9 1561.91 1423.4 1569.99 1423.4C1574.91 1423.4 1578.4 1425.53 1580.31 1429.14ZM1570.86 1448.8C1576.33 1448.8 1580.31 1444.92 1580.31 1440.44V1437.06C1580.31 1432.58 1576.33 1428.7 1570.86 1428.7C1565.08 1428.7 1561.14 1433.29 1561.14 1438.75C1561.14 1444.21 1565.08 1448.8 1570.86 1448.8ZM1597.36 1419.58C1595.17 1419.58 1593.43 1417.89 1593.43 1415.65C1593.43 1413.47 1595.17 1411.72 1597.36 1411.72C1599.6 1411.72 1601.34 1413.47 1601.34 1415.65C1601.34 1417.89 1599.6 1419.58 1597.36 1419.58ZM1600.36 1453H1594.41V1424.5H1600.36V1453ZM1622.11 1454.09C1612.93 1454.09 1606.16 1447.76 1606.16 1438.86C1606.16 1429.9 1613.15 1423.4 1622.22 1423.4C1631.39 1423.4 1638.16 1429.68 1638.16 1438.64C1638.16 1447.54 1631.12 1454.09 1622.11 1454.09ZM1622.16 1448.8C1628.17 1448.8 1632.05 1444.21 1632.05 1438.75C1632.05 1433.29 1628.17 1428.7 1622.16 1428.7C1616.16 1428.7 1612.22 1433.29 1612.22 1438.75C1612.22 1444.21 1616.16 1448.8 1622.16 1448.8Z" fill="#18181B"></path><rect x="45.1601" y="90.2065" width="414.171" height="182.142" rx="16.242" fill="#D4D4D4"></rect><rect x="45.1601" y="90.2065" width="414.171" height="182.142" rx="16.242" stroke="#7F4FFF" stroke-width="2.32028" stroke-dasharray="11.6 11.6"></rect><g clip-path="url(#clip2_2321_21799)"><path fill-rule="evenodd" clip-rule="evenodd" d="M86.5134 156.67C97.8189 156.67 106.984 147.505 106.984 136.2C106.984 124.894 97.8189 115.729 86.5134 115.729C75.2079 115.729 66.043 124.894 66.043 136.2C66.043 147.505 75.2079 156.67 86.5134 156.67ZM86.5143 146.923C92.4363 146.923 97.2369 142.122 97.2369 136.2C97.2369 130.278 92.4363 125.478 86.5143 125.478C80.5924 125.478 75.7917 130.278 75.7917 136.2C75.7917 142.122 80.5924 146.923 86.5143 146.923Z" fill="#F5F5F5"></path></g><path d="M220.899 145.365C220.162 140.822 218.37 138.339 215.367 137.124C219.424 135.857 222.059 132.74 222.059 127.774C222.059 120.959 217.158 116.786 208.201 116.786H188.863V155.614H194.923V139.396H207.252C211.995 139.396 214.102 141.826 214.84 146.95L216.104 155.614H222.585L220.899 145.365ZM194.923 134.377V122.069H207.832C213.101 122.069 215.788 124.076 215.788 128.249C215.788 132.37 213.101 134.377 207.832 134.377H194.923Z" fill="#F5F5F5"></path><path d="M248.242 156.67C259.886 156.67 268.212 147.69 268.212 136.121C268.212 124.604 260.308 115.729 248.505 115.729C236.913 115.729 228.535 124.71 228.535 136.279C228.535 147.795 236.492 156.67 248.242 156.67ZM248.347 151.071C240.075 151.071 234.858 144.626 234.858 136.226C234.858 127.774 240.075 121.329 248.4 121.329C256.725 121.329 261.941 127.774 261.941 136.173C261.941 144.626 256.725 151.071 248.347 151.071Z" fill="#F5F5F5"></path><path d="M304.61 155.614H311.828L296.074 130.891L310.933 116.733H303.398L283.375 135.487V116.786H277.316V155.614H283.375V142.301L291.279 134.8L304.61 155.614Z" fill="#F5F5F5"></path><path d="M333.298 156.67C344.943 156.67 353.268 147.69 353.268 136.121C353.268 124.604 345.364 115.729 333.562 115.729C321.97 115.729 313.592 124.71 313.592 136.279C313.592 147.795 321.548 156.67 333.298 156.67ZM333.404 151.071C325.131 151.071 319.915 144.626 319.915 136.226C319.915 127.774 325.131 121.329 333.456 121.329C341.782 121.329 346.998 127.774 346.998 136.173C346.998 144.626 341.781 151.071 333.404 151.071Z" fill="#F5F5F5"></path><path d="M389.666 155.614H396.885L381.13 130.891L395.989 116.733H388.454L368.432 135.487V116.786H362.372V155.614H368.432V142.301L376.336 134.8L389.666 155.614Z" fill="#F5F5F5"></path><path d="M418.355 156.67C429.999 156.67 438.325 147.69 438.325 136.121C438.325 124.604 430.421 115.729 418.618 115.729C407.026 115.729 398.648 124.71 398.648 136.279C398.648 147.795 406.605 156.67 418.355 156.67ZM418.46 151.071C410.188 151.071 404.971 144.626 404.971 136.226C404.971 127.774 410.188 121.329 418.513 121.329C426.838 121.329 432.054 127.774 432.054 136.173C432.054 144.626 426.838 151.071 418.46 151.071Z" fill="#F5F5F5"></path><g clip-path="url(#clip3_2321_21799)"><path fill-rule="evenodd" clip-rule="evenodd" d="M86.5134 236.72C97.8189 236.72 106.984 227.555 106.984 216.25C106.984 204.944 97.8189 195.779 86.5134 195.779C75.2079 195.779 66.043 204.944 66.043 216.25C66.043 227.555 75.2079 236.72 86.5134 236.72ZM86.5143 226.973C92.4363 226.973 97.2369 222.172 97.2369 216.25C97.2369 210.328 92.4363 205.527 86.5143 205.527C80.5924 205.527 75.7917 210.328 75.7917 216.25C75.7917 222.172 80.5924 226.973 86.5143 226.973Z" fill="black"></path></g><path d="M220.899 225.415C220.162 220.872 218.37 218.389 215.367 217.174C219.424 215.906 222.059 212.79 222.059 207.824C222.059 201.009 217.158 196.836 208.201 196.836H188.863V235.664H194.923V219.446H207.252C211.995 219.446 214.102 221.876 214.84 227L216.104 235.664H222.585L220.899 225.415ZM194.923 214.427V202.119H207.832C213.101 202.119 215.788 204.126 215.788 208.299C215.788 212.42 213.101 214.427 207.832 214.427H194.923Z" fill="black"></path><path d="M248.242 236.72C259.886 236.72 268.212 227.74 268.212 216.17C268.212 204.654 260.308 195.779 248.505 195.779C236.913 195.779 228.535 204.76 228.535 216.329C228.535 227.845 236.492 236.72 248.242 236.72ZM248.347 231.12C240.075 231.12 234.858 224.676 234.858 216.276C234.858 207.824 240.075 201.379 248.4 201.379C256.725 201.379 261.941 207.824 261.941 216.223C261.941 224.676 256.725 231.12 248.347 231.12Z" fill="black"></path><path d="M304.61 235.664H311.828L296.074 210.941L310.933 196.783H303.398L283.375 215.537V196.836H277.316V235.664H283.375V222.351L291.279 214.85L304.61 235.664Z" fill="black"></path><path d="M333.298 236.72C344.943 236.72 353.268 227.74 353.268 216.17C353.268 204.654 345.364 195.779 333.562 195.779C321.97 195.779 313.592 204.76 313.592 216.329C313.592 227.845 321.548 236.72 333.298 236.72ZM333.404 231.12C325.131 231.12 319.915 224.676 319.915 216.276C319.915 207.824 325.131 201.379 333.456 201.379C341.782 201.379 346.998 207.824 346.998 216.223C346.998 224.676 341.781 231.12 333.404 231.12Z" fill="black"></path><path d="M389.666 235.664H396.885L381.13 210.941L395.989 196.783H388.454L368.432 215.537V196.836H362.372V235.664H368.432V222.351L376.336 214.85L389.666 235.664Z" fill="black"></path><path d="M418.355 236.72C429.999 236.72 438.325 227.74 438.325 216.17C438.325 204.654 430.421 195.779 418.618 195.779C407.026 195.779 398.648 204.76 398.648 216.329C398.648 227.845 406.605 236.72 418.355 236.72ZM418.46 231.12C410.188 231.12 404.971 224.676 404.971 216.276C404.971 207.824 410.188 201.379 418.513 201.379C426.838 201.379 432.054 207.824 432.054 216.223C432.054 224.676 426.838 231.12 418.46 231.12Z" fill="black"></path><rect x="58.6914" y="53.6069" width="9.7376" height="9.7376" transform="rotate(45 58.6914 53.6069)" fill="#D2A8FF"></rect><rect x="50.8906" y="45.8037" width="9.7376" height="9.7376" transform="rotate(45 50.8906 45.8037)" fill="#D2A8FF"></rect><rect x="66.4961" y="45.8037" width="9.7376" height="9.7376" transform="rotate(45 66.4961 45.8037)" fill="#D2A8FF"></rect><rect x="58.6914" y="38" width="9.7376" height="9.7376" transform="rotate(45 58.6914 38)" fill="#D2A8FF"></rect><path d="M88.0215 63.689V40.702H91.4898V60.7033H101.906V63.689H88.0215ZM112.855 64.0369C111.239 64.0369 109.828 63.6665 108.623 62.9257C107.419 62.1849 106.483 61.1486 105.817 59.8166C105.151 58.4847 104.818 56.9283 104.818 55.1474C104.818 53.359 105.151 51.7951 105.817 50.4557C106.483 49.1163 107.419 48.0762 108.623 47.3354C109.828 46.5946 111.239 46.2242 112.855 46.2242C114.471 46.2242 115.882 46.5946 117.086 47.3354C118.291 48.0762 119.226 49.1163 119.892 50.4557C120.558 51.7951 120.891 53.359 120.891 55.1474C120.891 56.9283 120.558 58.4847 119.892 59.8166C119.226 61.1486 118.291 62.1849 117.086 62.9257C115.882 63.6665 114.471 64.0369 112.855 64.0369ZM112.866 61.2197C113.914 61.2197 114.782 60.9428 115.47 60.3891C116.159 59.8353 116.667 59.0983 116.997 58.1779C117.333 57.2575 117.502 56.2436 117.502 55.1362C117.502 54.0362 117.333 53.026 116.997 52.1057C116.667 51.1778 116.159 50.4333 115.47 49.8721C114.782 49.3109 113.914 49.0303 112.866 49.0303C111.811 49.0303 110.936 49.3109 110.24 49.8721C109.551 50.4333 109.039 51.1778 108.702 52.1057C108.373 53.026 108.208 54.0362 108.208 55.1362C108.208 56.2436 108.373 57.2575 108.702 58.1779C109.039 59.0983 109.551 59.8353 110.24 60.3891C110.936 60.9428 111.811 61.2197 112.866 61.2197ZM131.866 70.5132C130.496 70.5132 129.318 70.3336 128.33 69.9745C127.35 69.6153 126.549 69.1401 125.928 68.549C125.307 67.9579 124.843 67.3106 124.536 66.6072L127.421 65.4175C127.623 65.7467 127.892 66.0947 128.229 66.4613C128.573 66.8355 129.037 67.1535 129.621 67.4154C130.212 67.6773 130.972 67.8082 131.899 67.8082C133.172 67.8082 134.223 67.4977 135.053 66.8766C135.884 66.263 136.299 65.2828 136.299 63.9359V60.5462H136.086C135.884 60.9129 135.592 61.3207 135.211 61.7696C134.836 62.2186 134.32 62.6077 133.662 62.9369C133.003 63.2662 132.146 63.4308 131.091 63.4308C129.729 63.4308 128.502 63.1128 127.41 62.4768C126.325 61.8332 125.464 60.8867 124.828 59.6371C124.2 58.38 123.885 56.8348 123.885 55.0015C123.885 53.1682 124.196 51.5968 124.817 50.2874C125.446 48.9779 126.306 47.9752 127.399 47.2793C128.491 46.5759 129.729 46.2242 131.114 46.2242C132.184 46.2242 133.048 46.4038 133.707 46.763C134.365 47.1147 134.878 47.5262 135.244 47.9976C135.618 48.469 135.906 48.8843 136.108 49.2435H136.355V46.4487H139.644V64.0706C139.644 65.5522 139.3 66.7681 138.611 67.7184C137.923 68.6687 136.991 69.3721 135.817 69.8286C134.649 70.285 133.332 70.5132 131.866 70.5132ZM131.832 60.6472C132.797 60.6472 133.613 60.4227 134.279 59.9738C134.952 59.5173 135.461 58.8663 135.805 58.0208C136.157 57.1677 136.333 56.1464 136.333 54.9566C136.333 53.7968 136.161 52.7754 135.817 51.8924C135.472 51.0094 134.967 50.321 134.301 49.8272C133.635 49.3258 132.812 49.0752 131.832 49.0752C130.822 49.0752 129.98 49.337 129.307 49.8608C128.633 50.3771 128.124 51.0805 127.78 51.971C127.443 52.8614 127.275 53.8566 127.275 54.9566C127.275 56.0865 127.447 57.078 127.791 57.931C128.136 58.784 128.644 59.45 129.318 59.9289C129.999 60.4078 130.837 60.6472 131.832 60.6472ZM151.407 64.0369C149.791 64.0369 148.38 63.6665 147.175 62.9257C145.971 62.1849 145.035 61.1486 144.369 59.8166C143.703 58.4847 143.37 56.9283 143.37 55.1474C143.37 53.359 143.703 51.7951 144.369 50.4557C145.035 49.1163 145.971 48.0762 147.175 47.3354C148.38 46.5946 149.791 46.2242 151.407 46.2242C153.023 46.2242 154.434 46.5946 155.638 47.3354C156.843 48.0762 157.779 49.1163 158.444 50.4557C159.11 51.7951 159.443 53.359 159.443 55.1474C159.443 56.9283 159.11 58.4847 158.444 59.8166C157.779 61.1486 156.843 62.1849 155.638 62.9257C154.434 63.6665 153.023 64.0369 151.407 64.0369ZM151.418 61.2197C152.466 61.2197 153.334 60.9428 154.022 60.3891C154.711 59.8353 155.219 59.0983 155.549 58.1779C155.885 57.2575 156.054 56.2436 156.054 55.1362C156.054 54.0362 155.885 53.026 155.549 52.1057C155.219 51.1778 154.711 50.4333 154.022 49.8721C153.334 49.3109 152.466 49.0303 151.418 49.0303C150.363 49.0303 149.488 49.3109 148.792 49.8721C148.103 50.4333 147.591 51.1778 147.254 52.1057C146.925 53.026 146.76 54.0362 146.76 55.1362C146.76 56.2436 146.925 57.2575 147.254 58.1779C147.591 59.0983 148.103 59.8353 148.792 60.3891C149.488 60.9428 150.363 61.2197 151.418 61.2197ZM181.712 50.7363V53.6546H171.521V50.7363H181.712ZM194.819 63.689V40.702H198.287V60.7033H208.703V63.689H194.819ZM219.652 64.0369C218.036 64.0369 216.626 63.6665 215.421 62.9257C214.216 62.1849 213.281 61.1486 212.615 59.8166C211.949 58.4847 211.616 56.9283 211.616 55.1474C211.616 53.359 211.949 51.7951 212.615 50.4557C213.281 49.1163 214.216 48.0762 215.421 47.3354C216.626 46.5946 218.036 46.2242 219.652 46.2242C221.269 46.2242 222.679 46.5946 223.884 47.3354C225.089 48.0762 226.024 49.1163 226.69 50.4557C227.356 51.7951 227.689 53.359 227.689 55.1474C227.689 56.9283 227.356 58.4847 226.69 59.8166C226.024 61.1486 225.089 62.1849 223.884 62.9257C222.679 63.6665 221.269 64.0369 219.652 64.0369ZM219.664 61.2197C220.711 61.2197 221.579 60.9428 222.268 60.3891C222.956 59.8353 223.465 59.0983 223.794 58.1779C224.131 57.2575 224.299 56.2436 224.299 55.1362C224.299 54.0362 224.131 53.026 223.794 52.1057C223.465 51.1778 222.956 50.4333 222.268 49.8721C221.579 49.3109 220.711 49.0303 219.664 49.0303C218.609 49.0303 217.733 49.3109 217.037 49.8721C216.349 50.4333 215.836 51.1778 215.5 52.1057C215.17 53.026 215.006 54.0362 215.006 55.1362C215.006 56.2436 215.17 57.2575 215.5 58.1779C215.836 59.0983 216.349 59.8353 217.037 60.3891C217.733 60.9428 218.609 61.2197 219.664 61.2197ZM238.697 64.0369C237.028 64.0369 235.592 63.659 234.387 62.9033C233.19 62.14 232.269 61.0887 231.626 59.7493C230.982 58.4099 230.661 56.8759 230.661 55.1474C230.661 53.3964 230.99 51.8513 231.648 50.5118C232.307 49.1649 233.235 48.1136 234.432 47.3579C235.629 46.6021 237.04 46.2242 238.663 46.2242C239.973 46.2242 241.14 46.4674 242.165 46.9538C243.19 47.4327 244.017 48.1061 244.646 48.9741C245.282 49.8421 245.66 50.856 245.779 52.0159H242.513C242.334 51.2077 241.922 50.5118 241.279 49.9282C240.643 49.3445 239.789 49.0527 238.719 49.0527C237.784 49.0527 236.965 49.2996 236.261 49.7935C235.565 50.2799 235.023 50.9758 234.634 51.8812C234.245 52.7791 234.05 53.8417 234.05 55.0688C234.05 56.3259 234.241 57.4109 234.623 58.3238C235.004 59.2367 235.543 59.9438 236.239 60.4452C236.942 60.9465 237.769 61.1972 238.719 61.1972C239.355 61.1972 239.932 61.0812 240.448 60.8493C240.972 60.6098 241.409 60.2693 241.761 59.8279C242.12 59.3864 242.371 58.8551 242.513 58.234H245.779C245.66 59.349 245.297 60.3442 244.691 61.2197C244.085 62.0951 243.273 62.7836 242.255 63.2849C241.245 63.7862 240.059 64.0369 238.697 64.0369ZM252.455 57.8412L252.433 53.7444H253.016L259.885 46.4487H263.904L256.069 54.7546H255.542L252.455 57.8412ZM249.368 63.689V40.702H252.724V63.689H249.368ZM260.256 63.689L254.082 55.4954L256.395 53.1495L264.375 63.689H260.256ZM277.883 56.5392V46.4487H281.25V63.689H277.951V60.7033H277.771C277.374 61.6237 276.738 62.3907 275.863 63.0043C274.995 63.6104 273.914 63.9134 272.619 63.9134C271.512 63.9134 270.531 63.6703 269.678 63.1839C268.833 62.69 268.167 61.9604 267.681 60.9952C267.202 60.0299 266.962 58.8364 266.962 57.4147V46.4487H270.318V57.0106C270.318 58.1854 270.644 59.1207 271.295 59.8166C271.946 60.5125 272.791 60.8605 273.831 60.8605C274.46 60.8605 275.085 60.7033 275.706 60.3891C276.334 60.0748 276.854 59.5996 277.266 58.9636C277.685 58.3276 277.891 57.5194 277.883 56.5392ZM285.76 70.1541V46.4487H289.037V49.2435H289.318C289.512 48.8843 289.793 48.469 290.16 47.9976C290.526 47.5262 291.035 47.1147 291.686 46.763C292.337 46.4038 293.198 46.2242 294.268 46.2242C295.659 46.2242 296.902 46.5759 297.994 47.2793C299.087 47.9827 299.943 48.9966 300.564 50.321C301.193 51.6455 301.507 53.2393 301.507 55.1025C301.507 56.9657 301.197 58.5633 300.576 59.8952C299.955 61.2197 299.102 62.2411 298.017 62.9594C296.932 63.6703 295.693 64.0257 294.301 64.0257C293.254 64.0257 292.397 63.8498 291.731 63.4982C291.073 63.1465 290.556 62.7349 290.182 62.2635C289.808 61.7921 289.52 61.3731 289.318 61.0064H289.116V70.1541H285.76ZM289.048 55.0688C289.048 56.281 289.224 57.3436 289.576 58.2565C289.928 59.1694 290.436 59.884 291.102 60.4003C291.768 60.9091 292.584 61.1635 293.549 61.1635C294.552 61.1635 295.39 60.8979 296.064 60.3666C296.737 59.8279 297.246 59.0983 297.59 58.1779C297.942 57.2575 298.118 56.2212 298.118 55.0688C298.118 53.9315 297.945 52.9101 297.601 52.0046C297.265 51.0992 296.756 50.3846 296.075 49.8608C295.401 49.337 294.559 49.0752 293.549 49.0752C292.577 49.0752 291.753 49.3258 291.08 49.8272C290.414 50.3285 289.909 51.0281 289.565 51.9261C289.221 52.824 289.048 53.8716 289.048 55.0688Z" fill="black"></path><rect x="45.1601" y="1214.21" width="279.594" height="277.274" rx="16.242" fill="#D4D4D4"></rect><rect x="45.1601" y="1214.21" width="279.594" height="277.274" rx="16.242" stroke="#7F4FFF" stroke-width="2.32028" stroke-dasharray="11.6 11.6"></rect><path d="M95.333 1268.61C94.6122 1264.08 92.8616 1261.77 89.8238 1260.58C93.8399 1259.35 96.4657 1256.31 96.4657 1251.47C96.4657 1244.83 91.6774 1240.76 82.9244 1240.76H64.0282V1278.6H69.9494V1262.8H81.9976C86.6315 1262.8 88.691 1265.16 89.4119 1270.16L90.6476 1278.6H96.9806L95.333 1268.61ZM69.9494 1245.91H82.564C87.7128 1245.91 90.3387 1247.86 90.3387 1251.93C90.3387 1255.95 87.7128 1257.9 82.564 1257.9H69.9494V1245.91Z" fill="#F5F5F5"></path><path d="M121.688 1279.63C133.325 1279.63 141.872 1270.83 141.872 1259.55C141.872 1248.33 133.685 1239.73 121.894 1239.73C110.31 1239.73 101.711 1248.53 101.711 1259.81C101.711 1271.03 109.949 1279.63 121.688 1279.63ZM121.791 1274.17C113.708 1274.17 107.89 1267.94 107.89 1259.71C107.89 1251.47 113.656 1245.19 121.791 1245.19C129.927 1245.19 135.745 1251.47 135.745 1259.66C135.745 1267.94 129.978 1274.17 121.791 1274.17Z" fill="#F5F5F5"></path><path d="M183.327 1278.6L167.932 1254.51L182.451 1240.71H175.088L155.523 1258.99V1240.76H149.602V1278.6H155.523V1265.63L163.246 1258.32L176.273 1278.6H183.327Z" fill="#F5F5F5"></path><path d="M204.296 1279.63C215.932 1279.63 224.479 1270.83 224.479 1259.55C224.479 1248.33 216.292 1239.73 204.501 1239.73C192.917 1239.73 184.318 1248.53 184.318 1259.81C184.318 1271.03 192.556 1279.63 204.296 1279.63ZM204.399 1274.17C196.315 1274.17 190.497 1267.94 190.497 1259.71C190.497 1251.47 196.263 1245.19 204.399 1245.19C212.534 1245.19 218.352 1251.47 218.352 1259.66C218.352 1267.94 212.585 1274.17 204.399 1274.17Z" fill="#F5F5F5"></path><path d="M265.934 1278.6L250.539 1254.51L265.058 1240.71H257.696L238.13 1258.99V1240.76H232.209V1278.6H238.13V1265.63L245.853 1258.32L258.88 1278.6H265.934Z" fill="#F5F5F5"></path><path d="M286.903 1279.63C298.539 1279.63 307.086 1270.83 307.086 1259.55C307.086 1248.33 298.899 1239.73 287.109 1239.73C275.524 1239.73 266.925 1248.53 266.925 1259.81C266.925 1271.03 275.163 1279.63 286.903 1279.63ZM287.006 1274.17C278.922 1274.17 273.104 1267.94 273.104 1259.71C273.104 1251.47 278.87 1245.19 287.006 1245.19C295.141 1245.19 300.959 1251.47 300.959 1259.66C300.959 1267.94 295.192 1274.17 287.006 1274.17Z" fill="#F5F5F5"></path><path d="M79.4747 1336.18C89.3604 1336.18 95.8994 1331.7 95.8994 1324.85C95.8994 1308.58 68.9196 1317.7 68.9196 1307.35C68.9196 1304 72.0604 1301.43 78.3934 1301.43C85.4988 1301.43 88.2791 1305.13 89.3604 1309.97L95.2815 1307.76C93.9943 1301.63 88.6396 1296.28 78.5479 1296.28C69.3315 1296.28 62.844 1300.76 62.844 1307.6C62.844 1323.87 89.8238 1314.76 89.8238 1325.11C89.8238 1328.46 86.683 1331.03 79.6291 1331.03C71.5455 1331.03 68.4047 1327.27 67.3235 1322.38L61.4023 1324.6C62.6895 1330.83 68.0443 1336.18 79.4747 1336.18Z" fill="#F5F5F5"></path><path d="M119.75 1308.27H110.019V1297.31H104.407V1308.27H98.2795V1313.22H104.407V1325.26C104.407 1333.09 107.547 1335.77 114.086 1335.77C116.352 1335.77 118.257 1335.41 119.493 1335V1330.16C118.308 1330.57 116.609 1330.93 114.91 1330.93C111.718 1330.93 110.019 1329.9 110.019 1324.75V1313.22H119.75V1308.27Z" fill="#F5F5F5"></path><path d="M143.713 1322.85C143.713 1327.84 140.521 1331.08 135.732 1331.08C131.047 1331.08 128.833 1328.15 128.833 1322.85V1308.27H123.221V1323.46C123.221 1330.93 126.825 1336.18 134.6 1336.18C139.748 1336.18 142.838 1333.55 144.331 1329.54V1335.15H149.325V1308.27H143.713V1322.85Z" fill="#F5F5F5"></path><path d="M178.564 1312.65C176.762 1309.25 173.467 1307.24 168.833 1307.24C161.212 1307.24 154.776 1313.37 154.776 1321.82C154.776 1330.26 160.955 1336.18 168.627 1336.18C173.93 1336.18 177.534 1333.35 179.182 1329.28V1335.15H184.176V1297.31H178.564V1312.65ZM169.657 1331.19C164.199 1331.19 160.492 1326.86 160.492 1321.71C160.492 1316.56 164.199 1312.24 169.657 1312.24C174.805 1312.24 178.564 1315.89 178.564 1320.12V1323.31C178.564 1327.53 174.805 1331.19 169.657 1331.19Z" fill="#F5F5F5"></path><path d="M194.638 1304.1C196.904 1304.1 198.809 1302.25 198.809 1299.93C198.809 1297.67 196.904 1295.81 194.638 1295.81C192.321 1295.81 190.468 1297.67 190.468 1299.93C190.468 1302.25 192.321 1304.1 194.638 1304.1ZM197.47 1335.15V1308.27H191.858V1335.15H197.47Z" fill="#F5F5F5"></path><path d="M217.975 1336.18C226.471 1336.18 233.113 1330 233.113 1321.61C233.113 1313.17 226.728 1307.24 218.078 1307.24C209.531 1307.24 202.941 1313.37 202.941 1321.82C202.941 1330.21 209.325 1336.18 217.975 1336.18ZM218.027 1331.19C212.363 1331.19 208.656 1326.86 208.656 1321.71C208.656 1316.56 212.363 1312.24 218.027 1312.24C223.69 1312.24 227.346 1316.56 227.346 1321.71C227.346 1326.86 223.69 1331.19 218.027 1331.19Z" fill="#F5F5F5"></path><path d="M95.333 1398.55C94.6122 1394.02 92.8616 1391.7 89.8238 1390.52C93.8399 1389.28 96.4657 1386.24 96.4657 1381.4C96.4657 1374.76 91.6774 1370.7 82.9244 1370.7H64.0282V1408.54H69.9494V1392.73H81.9976C86.6315 1392.73 88.691 1395.1 89.4119 1400.09L90.6476 1408.54H96.9806L95.333 1398.55ZM69.9494 1375.84H82.564C87.7128 1375.84 90.3387 1377.8 90.3387 1381.87C90.3387 1385.88 87.7128 1387.84 82.564 1387.84H69.9494V1375.84Z" fill="black"></path><path d="M121.688 1409.57C133.325 1409.57 141.872 1400.76 141.872 1389.49C141.872 1378.26 133.685 1369.67 121.894 1369.67C110.31 1369.67 101.711 1378.47 101.711 1389.75C101.711 1400.97 109.949 1409.57 121.688 1409.57ZM121.791 1404.11C113.708 1404.11 107.89 1397.88 107.89 1389.64C107.89 1381.4 113.656 1375.12 121.791 1375.12C129.927 1375.12 135.745 1381.4 135.745 1389.59C135.745 1397.88 129.978 1404.11 121.791 1404.11Z" fill="black"></path><path d="M183.327 1408.54L167.932 1384.44L182.451 1370.64H175.088L155.523 1388.92V1370.7H149.602V1408.54H155.523V1395.56L163.246 1388.25L176.273 1408.54H183.327Z" fill="black"></path><path d="M204.296 1409.57C215.932 1409.57 224.479 1400.76 224.479 1389.49C224.479 1378.26 216.292 1369.67 204.501 1369.67C192.917 1369.67 184.318 1378.47 184.318 1389.75C184.318 1400.97 192.556 1409.57 204.296 1409.57ZM204.399 1404.11C196.315 1404.11 190.497 1397.88 190.497 1389.64C190.497 1381.4 196.263 1375.12 204.399 1375.12C212.534 1375.12 218.352 1381.4 218.352 1389.59C218.352 1397.88 212.585 1404.11 204.399 1404.11Z" fill="black"></path><path d="M265.934 1408.54L250.539 1384.44L265.058 1370.64H257.696L238.13 1388.92V1370.7H232.209V1408.54H238.13V1395.56L245.853 1388.25L258.88 1408.54H265.934Z" fill="black"></path><path d="M286.903 1409.57C298.539 1409.57 307.086 1400.76 307.086 1389.49C307.086 1378.26 298.899 1369.67 287.109 1369.67C275.524 1369.67 266.925 1378.47 266.925 1389.75C266.925 1400.97 275.163 1409.57 286.903 1409.57ZM287.006 1404.11C278.922 1404.11 273.104 1397.88 273.104 1389.64C273.104 1381.4 278.87 1375.12 287.006 1375.12C295.141 1375.12 300.959 1381.4 300.959 1389.59C300.959 1397.88 295.192 1404.11 287.006 1404.11Z" fill="black"></path><path d="M79.4747 1466.12C89.3604 1466.12 95.8994 1461.64 95.8994 1454.79C95.8994 1438.52 68.9196 1447.63 68.9196 1437.28C68.9196 1433.94 72.0604 1431.36 78.3934 1431.36C85.4988 1431.36 88.2791 1435.07 89.3604 1439.91L95.2815 1437.7C93.9943 1431.57 88.6396 1426.21 78.5479 1426.21C69.3315 1426.21 62.844 1430.69 62.844 1437.54C62.844 1453.81 89.8238 1444.7 89.8238 1455.05C89.8238 1458.39 86.683 1460.97 79.6291 1460.97C71.5455 1460.97 68.4047 1457.21 67.3235 1452.32L61.4023 1454.53C62.6895 1460.76 68.0443 1466.12 79.4747 1466.12Z" fill="black"></path><path d="M119.75 1438.21H110.019V1427.24H104.407V1438.21H98.2795V1443.15H104.407V1455.2C104.407 1463.03 107.547 1465.7 114.086 1465.7C116.352 1465.7 118.257 1465.34 119.493 1464.93V1460.09C118.308 1460.5 116.609 1460.86 114.91 1460.86C111.718 1460.86 110.019 1459.83 110.019 1454.69V1443.15H119.75V1438.21Z" fill="black"></path><path d="M143.713 1452.78C143.713 1457.78 140.521 1461.02 135.732 1461.02C131.047 1461.02 128.833 1458.08 128.833 1452.78V1438.21H123.221V1453.4C123.221 1460.86 126.825 1466.12 134.6 1466.12C139.748 1466.12 142.838 1463.49 144.331 1459.47V1465.09H149.325V1438.21H143.713V1452.78Z" fill="black"></path><path d="M178.564 1442.59C176.762 1439.19 173.467 1437.18 168.833 1437.18C161.212 1437.18 154.776 1443.31 154.776 1451.75C154.776 1460.2 160.955 1466.12 168.627 1466.12C173.93 1466.12 177.534 1463.28 179.182 1459.22V1465.09H184.176V1427.24H178.564V1442.59ZM169.657 1461.12C164.199 1461.12 160.492 1456.8 160.492 1451.65C160.492 1446.5 164.199 1442.17 169.657 1442.17C174.805 1442.17 178.564 1445.83 178.564 1450.05V1453.24C178.564 1457.47 174.805 1461.12 169.657 1461.12Z" fill="black"></path><path d="M194.638 1434.04C196.904 1434.04 198.809 1432.19 198.809 1429.87C198.809 1427.6 196.904 1425.75 194.638 1425.75C192.321 1425.75 190.468 1427.6 190.468 1429.87C190.468 1432.19 192.321 1434.04 194.638 1434.04ZM197.47 1465.09V1438.21H191.858V1465.09H197.47Z" fill="black"></path><path d="M217.975 1466.12C226.471 1466.12 233.113 1459.94 233.113 1451.55C233.113 1443.1 226.728 1437.18 218.078 1437.18C209.531 1437.18 202.941 1443.31 202.941 1451.75C202.941 1460.14 209.325 1466.12 217.975 1466.12ZM218.027 1461.12C212.363 1461.12 208.656 1456.8 208.656 1451.65C208.656 1446.5 212.363 1442.17 218.027 1442.17C223.69 1442.17 227.346 1446.5 227.346 1451.65C227.346 1456.8 223.69 1461.12 218.027 1461.12Z" fill="black"></path><rect x="58.6914" y="1177.61" width="9.7376" height="9.7376" transform="rotate(45 58.6914 1177.61)" fill="#D2A8FF"></rect><rect x="50.8906" y="1169.8" width="9.7376" height="9.7376" transform="rotate(45 50.8906 1169.8)" fill="#D2A8FF"></rect><rect x="66.4961" y="1169.8" width="9.7376" height="9.7376" transform="rotate(45 66.4961 1169.8)" fill="#D2A8FF"></rect><rect x="58.6914" y="1162" width="9.7376" height="9.7376" transform="rotate(45 58.6914 1162)" fill="#D2A8FF"></rect><path d="M100.559 1170.74C100.439 1169.68 99.9453 1168.86 99.0773 1168.27C98.2093 1167.68 97.1168 1167.38 95.7998 1167.38C94.857 1167.38 94.0414 1167.53 93.353 1167.83C92.6646 1168.13 92.1296 1168.53 91.7479 1169.05C91.3738 1169.55 91.1867 1170.13 91.1867 1170.79C91.1867 1171.33 91.3139 1171.8 91.5683 1172.2C91.8302 1172.6 92.1707 1172.93 92.5897 1173.2C93.0163 1173.46 93.4727 1173.68 93.9591 1173.86C94.4455 1174.03 94.9131 1174.18 95.3621 1174.29L97.6069 1174.87C98.3402 1175.05 99.0923 1175.29 99.863 1175.6C100.634 1175.91 101.348 1176.31 102.007 1176.81C102.665 1177.31 103.197 1177.94 103.601 1178.68C104.012 1179.42 104.218 1180.3 104.218 1181.34C104.218 1182.64 103.881 1183.79 103.208 1184.8C102.542 1185.81 101.573 1186.61 100.301 1187.2C99.0361 1187.78 97.5059 1188.07 95.71 1188.07C93.989 1188.07 92.4999 1187.8 91.2428 1187.25C89.9857 1186.71 89.0018 1185.93 88.2909 1184.93C87.58 1183.92 87.1872 1182.72 87.1124 1181.34H90.5918C90.6592 1182.17 90.9286 1182.86 91.4 1183.41C91.8789 1183.96 92.4887 1184.37 93.2295 1184.64C93.9778 1184.9 94.7972 1185.03 95.6876 1185.03C96.6678 1185.03 97.5396 1184.88 98.3028 1184.57C99.0735 1184.25 99.6796 1183.82 100.121 1183.27C100.563 1182.71 100.783 1182.05 100.783 1181.3C100.783 1180.62 100.589 1180.06 100.2 1179.63C99.8181 1179.2 99.298 1178.84 98.6395 1178.55C97.9885 1178.27 97.2515 1178.02 96.4284 1177.8L93.7122 1177.06C91.8714 1176.56 90.4123 1175.82 89.3347 1174.85C88.2647 1173.88 87.7297 1172.59 87.7297 1170.99C87.7297 1169.66 88.0889 1168.51 88.8072 1167.52C89.5256 1166.53 90.4983 1165.76 91.7255 1165.22C92.9527 1164.66 94.337 1164.39 95.8784 1164.39C97.4348 1164.39 98.8079 1164.66 99.9977 1165.21C101.195 1165.75 102.138 1166.51 102.826 1167.46C103.515 1168.41 103.874 1169.51 103.904 1170.74H100.559ZM116.141 1170.45V1173.14H106.724V1170.45H116.141ZM109.249 1166.32H112.605V1182.63C112.605 1183.28 112.702 1183.77 112.897 1184.1C113.092 1184.42 113.342 1184.64 113.649 1184.76C113.963 1184.87 114.304 1184.93 114.67 1184.93C114.94 1184.93 115.175 1184.91 115.378 1184.87C115.58 1184.83 115.737 1184.8 115.849 1184.78L116.455 1187.55C116.26 1187.63 115.984 1187.7 115.624 1187.78C115.265 1187.86 114.816 1187.91 114.278 1187.91C113.395 1187.93 112.571 1187.77 111.808 1187.44C111.045 1187.11 110.428 1186.6 109.956 1185.92C109.485 1185.23 109.249 1184.36 109.249 1183.32V1166.32ZM130.774 1180.54V1170.45H134.141V1187.69H130.842V1184.7H130.662C130.265 1185.62 129.629 1186.39 128.754 1187C127.886 1187.61 126.805 1187.91 125.51 1187.91C124.403 1187.91 123.422 1187.67 122.569 1187.18C121.724 1186.69 121.058 1185.96 120.571 1185C120.093 1184.03 119.853 1182.84 119.853 1181.41V1170.45H123.209V1181.01C123.209 1182.19 123.535 1183.12 124.186 1183.82C124.837 1184.51 125.682 1184.86 126.722 1184.86C127.351 1184.86 127.976 1184.7 128.597 1184.39C129.225 1184.08 129.745 1183.6 130.157 1182.96C130.576 1182.33 130.782 1181.52 130.774 1180.54ZM145.105 1188.03C143.713 1188.03 142.471 1187.67 141.378 1186.96C140.293 1186.24 139.44 1185.22 138.819 1183.9C138.206 1182.56 137.899 1180.97 137.899 1179.1C137.899 1177.24 138.209 1175.65 138.83 1174.32C139.459 1173 140.319 1171.98 141.412 1171.28C142.504 1170.58 143.743 1170.22 145.127 1170.22C146.197 1170.22 147.058 1170.4 147.709 1170.76C148.367 1171.11 148.876 1171.53 149.235 1172C149.602 1172.47 149.886 1172.88 150.088 1173.24H150.29V1164.7H153.646V1187.69H150.369V1185.01H150.088C149.886 1185.37 149.594 1185.79 149.213 1186.26C148.839 1186.74 148.322 1187.15 147.664 1187.5C147.005 1187.85 146.152 1188.03 145.105 1188.03ZM145.845 1185.16C146.811 1185.16 147.626 1184.91 148.292 1184.4C148.966 1183.88 149.475 1183.17 149.819 1182.26C150.17 1181.34 150.346 1180.28 150.346 1179.07C150.346 1177.87 150.174 1176.82 149.83 1175.93C149.486 1175.03 148.981 1174.33 148.315 1173.83C147.649 1173.33 146.826 1173.08 145.845 1173.08C144.835 1173.08 143.993 1173.34 143.32 1173.86C142.647 1174.38 142.138 1175.1 141.794 1176C141.457 1176.91 141.288 1177.93 141.288 1179.07C141.288 1180.22 141.461 1181.26 141.805 1182.18C142.149 1183.1 142.658 1183.83 143.331 1184.37C144.012 1184.9 144.85 1185.16 145.845 1185.16ZM158.436 1187.69V1170.45H161.792V1187.69H158.436ZM160.131 1167.79C159.547 1167.79 159.046 1167.59 158.627 1167.21C158.215 1166.81 158.01 1166.34 158.01 1165.79C158.01 1165.24 158.215 1164.77 158.627 1164.38C159.046 1163.98 159.547 1163.78 160.131 1163.78C160.715 1163.78 161.212 1163.98 161.624 1164.38C162.043 1164.77 162.252 1165.24 162.252 1165.79C162.252 1166.34 162.043 1166.81 161.624 1167.21C161.212 1167.59 160.715 1167.79 160.131 1167.79ZM173.569 1188.04C171.953 1188.04 170.542 1187.67 169.338 1186.93C168.133 1186.19 167.197 1185.15 166.531 1183.82C165.866 1182.48 165.533 1180.93 165.533 1179.15C165.533 1177.36 165.866 1175.8 166.531 1174.46C167.197 1173.12 168.133 1172.08 169.338 1171.34C170.542 1170.59 171.953 1170.22 173.569 1170.22C175.185 1170.22 176.596 1170.59 177.801 1171.34C179.005 1172.08 179.941 1173.12 180.607 1174.46C181.273 1175.8 181.605 1177.36 181.605 1179.15C181.605 1180.93 181.273 1182.48 180.607 1183.82C179.941 1185.15 179.005 1186.19 177.801 1186.93C176.596 1187.67 175.185 1188.04 173.569 1188.04ZM173.58 1185.22C174.628 1185.22 175.496 1184.94 176.184 1184.39C176.873 1183.84 177.381 1183.1 177.711 1182.18C178.047 1181.26 178.216 1180.24 178.216 1179.14C178.216 1178.04 178.047 1177.03 177.711 1176.11C177.381 1175.18 176.873 1174.43 176.184 1173.87C175.496 1173.31 174.628 1173.03 173.58 1173.03C172.525 1173.03 171.65 1173.31 170.954 1173.87C170.265 1174.43 169.753 1175.18 169.416 1176.11C169.087 1177.03 168.922 1178.04 168.922 1179.14C168.922 1180.24 169.087 1181.26 169.416 1182.18C169.753 1183.1 170.265 1183.84 170.954 1184.39C171.65 1184.94 172.525 1185.22 173.58 1185.22ZM193.986 1187.69V1164.7H197.454V1184.7H207.87V1187.69H193.986ZM218.819 1188.04C217.203 1188.04 215.792 1187.67 214.588 1186.93C213.383 1186.19 212.448 1185.15 211.782 1183.82C211.116 1182.48 210.783 1180.93 210.783 1179.15C210.783 1177.36 211.116 1175.8 211.782 1174.46C212.448 1173.12 213.383 1172.08 214.588 1171.34C215.792 1170.59 217.203 1170.22 218.819 1170.22C220.435 1170.22 221.846 1170.59 223.051 1171.34C224.255 1172.08 225.191 1173.12 225.857 1174.46C226.523 1175.8 226.856 1177.36 226.856 1179.15C226.856 1180.93 226.523 1182.48 225.857 1183.82C225.191 1185.15 224.255 1186.19 223.051 1186.93C221.846 1187.67 220.435 1188.04 218.819 1188.04ZM218.83 1185.22C219.878 1185.22 220.746 1184.94 221.434 1184.39C222.123 1183.84 222.632 1183.1 222.961 1182.18C223.298 1181.26 223.466 1180.24 223.466 1179.14C223.466 1178.04 223.298 1177.03 222.961 1176.11C222.632 1175.18 222.123 1174.43 221.434 1173.87C220.746 1173.31 219.878 1173.03 218.83 1173.03C217.775 1173.03 216.9 1173.31 216.204 1173.87C215.515 1174.43 215.003 1175.18 214.666 1176.11C214.337 1177.03 214.172 1178.04 214.172 1179.14C214.172 1180.24 214.337 1181.26 214.666 1182.18C215.003 1183.1 215.515 1183.84 216.204 1184.39C216.9 1184.94 217.775 1185.22 218.83 1185.22ZM237.83 1194.51C236.461 1194.51 235.282 1194.33 234.294 1193.97C233.314 1193.62 232.513 1193.14 231.892 1192.55C231.271 1191.96 230.807 1191.31 230.501 1190.61L233.385 1189.42C233.587 1189.75 233.857 1190.09 234.193 1190.46C234.538 1190.84 235.001 1191.15 235.585 1191.42C236.176 1191.68 236.936 1191.81 237.864 1191.81C239.136 1191.81 240.187 1191.5 241.018 1190.88C241.848 1190.26 242.263 1189.28 242.263 1187.94V1184.55H242.05C241.848 1184.91 241.556 1185.32 241.175 1185.77C240.801 1186.22 240.284 1186.61 239.626 1186.94C238.967 1187.27 238.111 1187.43 237.055 1187.43C235.694 1187.43 234.466 1187.11 233.374 1186.48C232.289 1185.83 231.428 1184.89 230.792 1183.64C230.164 1182.38 229.85 1180.84 229.85 1179C229.85 1177.17 230.16 1175.6 230.781 1174.29C231.41 1172.98 232.27 1171.98 233.363 1171.28C234.455 1170.58 235.694 1170.22 237.078 1170.22C238.148 1170.22 239.012 1170.4 239.671 1170.76C240.329 1171.11 240.842 1171.53 241.208 1172C241.583 1172.47 241.871 1172.88 242.073 1173.24H242.32V1170.45H245.608V1188.07C245.608 1189.55 245.264 1190.77 244.576 1191.72C243.887 1192.67 242.956 1193.37 241.781 1193.83C240.614 1194.29 239.297 1194.51 237.83 1194.51ZM237.796 1184.65C238.762 1184.65 239.577 1184.42 240.243 1183.97C240.917 1183.52 241.425 1182.87 241.77 1182.02C242.121 1181.17 242.297 1180.15 242.297 1178.96C242.297 1177.8 242.125 1176.78 241.781 1175.89C241.437 1175.01 240.932 1174.32 240.266 1173.83C239.6 1173.33 238.777 1173.08 237.796 1173.08C236.786 1173.08 235.944 1173.34 235.271 1173.86C234.597 1174.38 234.089 1175.08 233.744 1175.97C233.408 1176.86 233.239 1177.86 233.239 1178.96C233.239 1180.09 233.411 1181.08 233.756 1181.93C234.1 1182.78 234.609 1183.45 235.282 1183.93C235.963 1184.41 236.801 1184.65 237.796 1184.65ZM257.371 1188.04C255.755 1188.04 254.344 1187.67 253.14 1186.93C251.935 1186.19 251 1185.15 250.334 1183.82C249.668 1182.48 249.335 1180.93 249.335 1179.15C249.335 1177.36 249.668 1175.8 250.334 1174.46C251 1173.12 251.935 1172.08 253.14 1171.34C254.344 1170.59 255.755 1170.22 257.371 1170.22C258.987 1170.22 260.398 1170.59 261.603 1171.34C262.807 1172.08 263.743 1173.12 264.409 1174.46C265.075 1175.8 265.408 1177.36 265.408 1179.15C265.408 1180.93 265.075 1182.48 264.409 1183.82C263.743 1185.15 262.807 1186.19 261.603 1186.93C260.398 1187.67 258.987 1188.04 257.371 1188.04ZM257.382 1185.22C258.43 1185.22 259.298 1184.94 259.986 1184.39C260.675 1183.84 261.184 1183.1 261.513 1182.18C261.85 1181.26 262.018 1180.24 262.018 1179.14C262.018 1178.04 261.85 1177.03 261.513 1176.11C261.184 1175.18 260.675 1174.43 259.986 1173.87C259.298 1173.31 258.43 1173.03 257.382 1173.03C256.327 1173.03 255.452 1173.31 254.756 1173.87C254.068 1174.43 253.555 1175.18 253.218 1176.11C252.889 1177.03 252.724 1178.04 252.724 1179.14C252.724 1180.24 252.889 1181.26 253.218 1182.18C253.555 1183.1 254.068 1183.84 254.756 1184.39C255.452 1184.94 256.327 1185.22 257.382 1185.22Z" fill="black"></path><rect x="45.1601" y="652.207" width="399.089" height="277.274" rx="16.242" fill="#D4D4D4"></rect><rect x="45.1601" y="652.207" width="399.089" height="277.274" rx="16.242" stroke="#7F4FFF" stroke-width="2.32028" stroke-dasharray="11.6 11.6"></rect><path d="M97.0878 835.862L98.6849 845.544H92.546L91.3481 837.359C90.6494 832.518 88.653 830.222 84.1612 830.222H72.4823V845.544H66.7427V808.861H85.0595C93.5442 808.861 98.1858 812.804 98.1858 819.242C98.1858 823.934 95.6404 826.878 91.7474 828.076C94.6921 829.224 96.389 831.47 97.0878 835.862ZM72.4823 813.852V825.481H84.7102C89.7011 825.481 92.2465 823.584 92.2465 819.691C92.2465 815.748 89.7011 813.852 84.7102 813.852H72.4823ZM122.635 846.543C111.256 846.543 103.27 838.208 103.27 827.327C103.27 816.397 111.605 807.863 122.835 807.863C134.264 807.863 142.2 816.198 142.2 827.078C142.2 838.008 133.915 846.543 122.635 846.543ZM122.735 841.252C130.671 841.252 136.261 835.213 136.261 827.178C136.261 819.242 130.621 813.153 122.735 813.153C114.849 813.153 109.259 819.242 109.259 827.228C109.259 835.213 114.899 841.252 122.735 841.252ZM182.384 845.544H175.546L162.919 825.88L155.433 832.967V845.544H149.693V808.861H155.433V826.529L174.398 808.811H181.535L167.461 822.187L182.384 845.544ZM202.71 846.543C191.33 846.543 183.345 838.208 183.345 827.327C183.345 816.397 191.68 807.863 202.91 807.863C214.339 807.863 222.274 816.198 222.274 827.078C222.274 838.008 213.989 846.543 202.71 846.543ZM202.81 841.252C210.745 841.252 216.335 835.213 216.335 827.178C216.335 819.242 210.695 813.153 202.81 813.153C194.924 813.153 189.334 819.242 189.334 827.228C189.334 835.213 194.974 841.252 202.81 841.252ZM262.458 845.544H255.621L242.994 825.88L235.507 832.967V845.544H229.768V808.861H235.507V826.529L254.473 808.811H261.61L247.535 822.187L262.458 845.544ZM282.784 846.543C271.405 846.543 263.42 838.208 263.42 827.327C263.42 816.397 271.754 807.863 282.984 807.863C294.413 807.863 302.349 816.198 302.349 827.078C302.349 838.008 294.064 846.543 282.784 846.543ZM282.884 841.252C290.82 841.252 296.41 835.213 296.41 827.178C296.41 819.242 290.77 813.153 282.884 813.153C274.999 813.153 269.409 819.242 269.409 827.228C269.409 835.213 275.048 841.252 282.884 841.252ZM103.726 863.861V900.544H98.086L98.1858 868.902H97.8364L87.3055 890.562H82.9633L72.4324 868.902H72.083L72.1828 900.544H66.7427V863.861H75.8761L85.3091 883.126L94.742 863.861H103.726ZM124.642 901.543C116.257 901.543 110.068 895.753 110.068 887.618C110.068 879.433 116.457 873.493 124.742 873.493C133.126 873.493 139.315 879.233 139.315 887.418C139.315 895.553 132.877 901.543 124.642 901.543ZM124.692 896.701C130.182 896.701 133.725 892.509 133.725 887.518C133.725 882.527 130.182 878.335 124.692 878.335C119.202 878.335 115.608 882.527 115.608 887.518C115.608 892.509 119.202 896.701 124.692 896.701ZM160.989 874.492V879.283H151.556V890.463C151.556 895.454 153.203 896.452 156.297 896.452C157.944 896.452 159.591 896.102 160.739 895.703V900.395C159.541 900.794 157.694 901.143 155.498 901.143C149.16 901.143 146.115 898.548 146.115 890.962V879.283H140.176V874.492H146.115V863.861H151.556V874.492H160.989ZM167.397 870C165.401 870 163.804 868.453 163.804 866.406C163.804 864.41 165.401 862.813 167.397 862.813C169.444 862.813 171.041 864.41 171.041 866.406C171.041 868.453 169.444 870 167.397 870ZM170.142 900.544H164.702V874.492H170.142V900.544ZM190.019 901.543C181.634 901.543 175.445 895.753 175.445 887.618C175.445 879.433 181.834 873.493 190.119 873.493C198.503 873.493 204.692 879.233 204.692 887.418C204.692 895.553 198.254 901.543 190.019 901.543ZM190.069 896.701C195.559 896.701 199.102 892.509 199.102 887.518C199.102 882.527 195.559 878.335 190.069 878.335C184.579 878.335 180.985 882.527 180.985 887.518C180.985 892.509 184.579 896.701 190.069 896.701ZM224.5 873.493C232.286 873.493 235.78 878.584 235.78 885.821V900.544H230.34V886.42C230.34 881.279 228.193 878.484 223.402 878.484C218.511 878.484 215.417 881.579 215.417 886.42V900.544H209.976V874.492H214.818V879.932C216.265 876.039 219.31 873.493 224.5 873.493ZM262.38 863.861V895.304H281.645V900.544H256.64V863.861H262.38ZM287.991 870C285.995 870 284.398 868.453 284.398 866.406C284.398 864.41 285.995 862.813 287.991 862.813C290.038 862.813 291.635 864.41 291.635 866.406C291.635 868.453 290.038 870 287.991 870ZM290.736 900.544H285.296V874.492H290.736V900.544ZM313.258 873.493C320.645 873.493 326.684 879.233 326.684 887.418C326.684 895.553 320.445 901.543 313.059 901.543C308.018 901.543 304.624 899.147 303.027 895.104V900.544H298.186V863.861H303.626V878.884C305.422 875.64 308.716 873.493 313.258 873.493ZM312.26 896.701C317.55 896.701 321.094 892.509 321.094 887.518C321.094 882.527 317.55 878.335 312.26 878.335C307.219 878.335 303.626 881.878 303.626 885.971V889.065C303.626 893.158 307.219 896.701 312.26 896.701ZM345.36 873.893C346.408 873.893 347.406 873.992 347.406 873.992V879.183C347.406 879.183 346.059 878.934 344.861 878.934C340.369 878.934 337.424 881.579 337.424 887.418V900.544H331.984V874.492H336.825V880.181C338.123 876.189 340.818 873.893 345.36 873.893ZM375.201 896.851C376.399 896.851 377.497 896.602 377.497 896.602V900.994C377.497 900.994 376.149 901.393 374.153 901.393C370.16 901.393 368.264 899.796 368.014 895.454C366.517 898.897 363.273 901.543 358.132 901.543C351.943 901.543 348.549 898.548 348.549 894.006C348.549 889.315 352.143 886.27 361.875 885.522L367.415 885.072V883.825C367.415 879.782 365.668 877.935 361.476 877.935C357.683 877.935 355.437 879.682 354.539 883.376L349.498 881.479C351.195 876.089 355.836 873.493 361.825 873.493C370.41 873.493 372.855 878.085 372.855 883.625V894.006C372.855 896.302 373.604 896.851 375.201 896.851ZM359.18 897.051C363.772 897.051 367.415 893.906 367.415 890.912V888.716L362.674 889.115C355.886 889.614 354.139 891.161 354.139 893.457C354.139 895.553 355.686 897.051 359.18 897.051ZM394.241 873.893C395.289 873.893 396.287 873.992 396.287 873.992V879.183C396.287 879.183 394.94 878.934 393.742 878.934C389.25 878.934 386.305 881.579 386.305 887.418V900.544H380.865V874.492H385.706V880.181C387.004 876.189 389.699 873.893 394.241 873.893ZM411.008 895.304L419.343 874.492H424.883L409.311 911.275H403.621L407.913 901.493L396.534 874.492H402.573L411.008 895.304Z" fill="black"></path><path d="M97.0878 714.047L98.6849 723.729H92.546L91.3481 715.544C90.6494 710.703 88.653 708.407 84.1612 708.407H72.4823V723.729H66.7427V687.046H85.0595C93.5442 687.046 98.1858 690.989 98.1858 697.427C98.1858 702.119 95.6404 705.063 91.7474 706.261C94.6921 707.409 96.389 709.655 97.0878 714.047ZM72.4823 692.037V703.666H84.7102C89.7011 703.666 92.2465 701.769 92.2465 697.876C92.2465 693.933 89.7011 692.037 84.7102 692.037H72.4823ZM122.635 724.728C111.256 724.728 103.27 716.393 103.27 705.512C103.27 694.582 111.605 686.048 122.835 686.048C134.264 686.048 142.2 694.383 142.2 705.263C142.2 716.193 133.915 724.728 122.635 724.728ZM122.735 719.437C130.671 719.437 136.261 713.398 136.261 705.363C136.261 697.427 130.621 691.338 122.735 691.338C114.849 691.338 109.259 697.427 109.259 705.413C109.259 713.398 114.899 719.437 122.735 719.437ZM182.384 723.729H175.546L162.919 704.065L155.433 711.152V723.729H149.693V687.046H155.433V704.714L174.398 686.996H181.535L167.461 700.372L182.384 723.729ZM202.71 724.728C191.33 724.728 183.345 716.393 183.345 705.512C183.345 694.582 191.68 686.048 202.91 686.048C214.339 686.048 222.274 694.383 222.274 705.263C222.274 716.193 213.989 724.728 202.71 724.728ZM202.81 719.437C210.745 719.437 216.335 713.398 216.335 705.363C216.335 697.427 210.695 691.338 202.81 691.338C194.924 691.338 189.334 697.427 189.334 705.413C189.334 713.398 194.974 719.437 202.81 719.437ZM262.458 723.729H255.621L242.994 704.065L235.507 711.152V723.729H229.768V687.046H235.507V704.714L254.473 686.996H261.61L247.535 700.372L262.458 723.729ZM282.784 724.728C271.405 724.728 263.42 716.393 263.42 705.512C263.42 694.582 271.754 686.048 282.984 686.048C294.413 686.048 302.349 694.383 302.349 705.263C302.349 716.193 294.064 724.728 282.784 724.728ZM282.884 719.437C290.82 719.437 296.41 713.398 296.41 705.363C296.41 697.427 290.77 691.338 282.884 691.338C274.999 691.338 269.409 697.427 269.409 705.413C269.409 713.398 275.048 719.437 282.884 719.437ZM103.726 742.046V778.729H98.086L98.1858 747.087H97.8364L87.3055 768.748H82.9633L72.4324 747.087H72.083L72.1828 778.729H66.7427V742.046H75.8761L85.3091 761.311L94.742 742.046H103.726ZM124.642 779.728C116.257 779.728 110.068 773.938 110.068 765.803C110.068 757.618 116.457 751.678 124.742 751.678C133.126 751.678 139.315 757.418 139.315 765.603C139.315 773.739 132.877 779.728 124.642 779.728ZM124.692 774.886C130.182 774.886 133.725 770.694 133.725 765.703C133.725 760.712 130.182 756.52 124.692 756.52C119.202 756.52 115.608 760.712 115.608 765.703C115.608 770.694 119.202 774.886 124.692 774.886ZM160.989 752.677V757.468H151.556V768.648C151.556 773.639 153.203 774.637 156.297 774.637C157.944 774.637 159.591 774.288 160.739 773.888V778.58C159.541 778.979 157.694 779.328 155.498 779.328C149.16 779.328 146.115 776.733 146.115 769.147V757.468H140.176V752.677H146.115V742.046H151.556V752.677H160.989ZM167.397 748.185C165.401 748.185 163.804 746.638 163.804 744.591C163.804 742.595 165.401 740.998 167.397 740.998C169.444 740.998 171.041 742.595 171.041 744.591C171.041 746.638 169.444 748.185 167.397 748.185ZM170.142 778.729H164.702V752.677H170.142V778.729ZM190.019 779.728C181.634 779.728 175.445 773.938 175.445 765.803C175.445 757.618 181.834 751.678 190.119 751.678C198.503 751.678 204.692 757.418 204.692 765.603C204.692 773.739 198.254 779.728 190.019 779.728ZM190.069 774.886C195.559 774.886 199.102 770.694 199.102 765.703C199.102 760.712 195.559 756.52 190.069 756.52C184.579 756.52 180.985 760.712 180.985 765.703C180.985 770.694 184.579 774.886 190.069 774.886ZM224.5 751.678C232.286 751.678 235.78 756.769 235.78 764.006V778.729H230.34V764.605C230.34 759.464 228.193 756.669 223.402 756.669C218.511 756.669 215.417 759.764 215.417 764.605V778.729H209.976V752.677H214.818V758.117C216.265 754.224 219.31 751.678 224.5 751.678ZM262.38 742.046V773.489H281.645V778.729H256.64V742.046H262.38ZM287.991 748.185C285.995 748.185 284.398 746.638 284.398 744.591C284.398 742.595 285.995 740.998 287.991 740.998C290.038 740.998 291.635 742.595 291.635 744.591C291.635 746.638 290.038 748.185 287.991 748.185ZM290.736 778.729H285.296V752.677H290.736V778.729ZM313.258 751.678C320.645 751.678 326.684 757.418 326.684 765.603C326.684 773.739 320.445 779.728 313.059 779.728C308.018 779.728 304.624 777.332 303.027 773.289V778.729H298.186V742.046H303.626V757.069C305.422 753.825 308.716 751.678 313.258 751.678ZM312.26 774.886C317.55 774.886 321.094 770.694 321.094 765.703C321.094 760.712 317.55 756.52 312.26 756.52C307.219 756.52 303.626 760.063 303.626 764.156V767.25C303.626 771.343 307.219 774.886 312.26 774.886ZM345.36 752.078C346.408 752.078 347.406 752.178 347.406 752.178V757.368C347.406 757.368 346.059 757.119 344.861 757.119C340.369 757.119 337.424 759.764 337.424 765.603V778.729H331.984V752.677H336.825V758.366C338.123 754.374 340.818 752.078 345.36 752.078ZM375.201 775.036C376.399 775.036 377.497 774.787 377.497 774.787V779.179C377.497 779.179 376.149 779.578 374.153 779.578C370.16 779.578 368.264 777.981 368.014 773.639C366.517 777.082 363.273 779.728 358.132 779.728C351.943 779.728 348.549 776.733 348.549 772.191C348.549 767.5 352.143 764.455 361.875 763.707L367.415 763.257V762.01C367.415 757.967 365.668 756.12 361.476 756.12C357.683 756.12 355.437 757.867 354.539 761.561L349.498 759.664C351.195 754.274 355.836 751.678 361.825 751.678C370.41 751.678 372.855 756.27 372.855 761.81V772.191C372.855 774.487 373.604 775.036 375.201 775.036ZM359.18 775.236C363.772 775.236 367.415 772.092 367.415 769.097V766.901L362.674 767.3C355.886 767.799 354.139 769.346 354.139 771.642C354.139 773.739 355.686 775.236 359.18 775.236ZM394.241 752.078C395.289 752.078 396.287 752.178 396.287 752.178V757.368C396.287 757.368 394.94 757.119 393.742 757.119C389.25 757.119 386.305 759.764 386.305 765.603V778.729H380.865V752.677H385.706V758.366C387.004 754.374 389.699 752.078 394.241 752.078ZM411.008 773.489L419.343 752.677H424.883L409.311 789.46H403.621L407.913 779.678L396.534 752.677H402.573L411.008 773.489Z" fill="#F5F5F5"></path><rect x="58.6914" y="615.607" width="9.7376" height="9.7376" transform="rotate(45 58.6914 615.607)" fill="#D2A8FF"></rect><rect x="50.8906" y="607.804" width="9.7376" height="9.7376" transform="rotate(45 50.8906 607.804)" fill="#D2A8FF"></rect><rect x="66.4961" y="607.804" width="9.7376" height="9.7376" transform="rotate(45 66.4961 607.804)" fill="#D2A8FF"></rect><rect x="58.6914" y="600" width="9.7376" height="9.7376" transform="rotate(45 58.6914 600)" fill="#D2A8FF"></rect><path d="M88.0215 602.702H92.2306L99.5487 620.571H99.8181L107.136 602.702H111.345V625.689H108.045V609.055H107.832L101.053 625.655H98.314L91.5347 609.044H91.3214V625.689H88.0215V602.702ZM123.38 626.037C121.764 626.037 120.354 625.667 119.149 624.926C117.944 624.185 117.009 623.149 116.343 621.817C115.677 620.485 115.344 618.928 115.344 617.147C115.344 615.359 115.677 613.795 116.343 612.456C117.009 611.116 117.944 610.076 119.149 609.335C120.354 608.595 121.764 608.224 123.38 608.224C124.997 608.224 126.407 608.595 127.612 609.335C128.817 610.076 129.752 611.116 130.418 612.456C131.084 613.795 131.417 615.359 131.417 617.147C131.417 618.928 131.084 620.485 130.418 621.817C129.752 623.149 128.817 624.185 127.612 624.926C126.407 625.667 124.997 626.037 123.38 626.037ZM123.392 623.22C124.439 623.22 125.307 622.943 125.996 622.389C126.684 621.835 127.193 621.098 127.522 620.178C127.859 619.258 128.027 618.244 128.027 617.136C128.027 616.036 127.859 615.026 127.522 614.106C127.193 613.178 126.684 612.433 125.996 611.872C125.307 611.311 124.439 611.03 123.392 611.03C122.336 611.03 121.461 611.311 120.765 611.872C120.077 612.433 119.564 613.178 119.227 614.106C118.898 615.026 118.734 616.036 118.734 617.136C118.734 618.244 118.898 619.258 119.227 620.178C119.564 621.098 120.077 621.835 120.765 622.389C121.461 622.943 122.336 623.22 123.392 623.22ZM143.211 608.449V611.142H133.794V608.449H143.211ZM136.319 604.318H139.675V620.627C139.675 621.278 139.772 621.768 139.967 622.097C140.161 622.419 140.412 622.64 140.719 622.759C141.033 622.872 141.374 622.928 141.74 622.928C142.01 622.928 142.245 622.909 142.447 622.872C142.649 622.834 142.806 622.804 142.919 622.782L143.525 625.554C143.33 625.629 143.053 625.704 142.694 625.779C142.335 625.861 141.886 625.906 141.347 625.913C140.464 625.928 139.641 625.771 138.878 625.442C138.115 625.113 137.497 624.604 137.026 623.916C136.555 623.227 136.319 622.363 136.319 621.323V604.318ZM146.923 625.689V608.449H150.279V625.689H146.923ZM148.618 605.789C148.034 605.789 147.533 605.594 147.114 605.205C146.702 604.808 146.496 604.337 146.496 603.791C146.496 603.237 146.702 602.766 147.114 602.376C147.533 601.98 148.034 601.782 148.618 601.782C149.201 601.782 149.699 601.98 150.111 602.376C150.53 602.766 150.739 603.237 150.739 603.791C150.739 604.337 150.53 604.808 150.111 605.205C149.699 605.594 149.201 605.789 148.618 605.789ZM162.056 626.037C160.44 626.037 159.029 625.667 157.824 624.926C156.62 624.185 155.684 623.149 155.018 621.817C154.352 620.485 154.019 618.928 154.019 617.147C154.019 615.359 154.352 613.795 155.018 612.456C155.684 611.116 156.62 610.076 157.824 609.335C159.029 608.595 160.44 608.224 162.056 608.224C163.672 608.224 165.083 608.595 166.287 609.335C167.492 610.076 168.427 611.116 169.093 612.456C169.759 613.795 170.092 615.359 170.092 617.147C170.092 618.928 169.759 620.485 169.093 621.817C168.427 623.149 167.492 624.185 166.287 624.926C165.083 625.667 163.672 626.037 162.056 626.037ZM162.067 623.22C163.115 623.22 163.983 622.943 164.671 622.389C165.359 621.835 165.868 621.098 166.198 620.178C166.534 619.258 166.703 618.244 166.703 617.136C166.703 616.036 166.534 615.026 166.198 614.106C165.868 613.178 165.359 612.433 164.671 611.872C163.983 611.311 163.115 611.03 162.067 611.03C161.012 611.03 160.137 611.311 159.441 611.872C158.752 612.433 158.24 613.178 157.903 614.106C157.574 615.026 157.409 616.036 157.409 617.136C157.409 618.244 157.574 619.258 157.903 620.178C158.24 621.098 158.752 621.835 159.441 622.389C160.137 622.943 161.012 623.22 162.067 623.22ZM177.194 615.453V625.689H173.838V608.449H177.06V611.255H177.273C177.67 610.342 178.291 609.609 179.136 609.055C179.989 608.501 181.063 608.224 182.357 608.224C183.532 608.224 184.561 608.471 185.444 608.965C186.327 609.451 187.012 610.177 187.498 611.142C187.985 612.108 188.228 613.301 188.228 614.723V625.689H184.872V615.127C184.872 613.877 184.546 612.901 183.895 612.198C183.244 611.487 182.35 611.131 181.213 611.131C180.434 611.131 179.742 611.3 179.136 611.636C178.538 611.973 178.062 612.467 177.711 613.118C177.367 613.761 177.194 614.54 177.194 615.453ZM201.363 625.689V602.702H204.831V622.703H215.247V625.689H201.363ZM218.934 625.689V608.449H222.29V625.689H218.934ZM220.629 605.789C220.045 605.789 219.544 605.594 219.125 605.205C218.713 604.808 218.508 604.337 218.508 603.791C218.508 603.237 218.713 602.766 219.125 602.376C219.544 601.98 220.045 601.782 220.629 601.782C221.213 601.782 221.71 601.98 222.122 602.376C222.541 602.766 222.75 603.237 222.75 603.791C222.75 604.337 222.541 604.808 222.122 605.205C221.71 605.594 221.213 605.789 220.629 605.789ZM227.074 625.689V602.702H230.43V611.244H230.632C230.827 610.884 231.108 610.469 231.474 609.998C231.841 609.526 232.35 609.115 233.001 608.763C233.652 608.404 234.512 608.224 235.582 608.224C236.974 608.224 238.216 608.576 239.309 609.279C240.401 609.983 241.258 610.997 241.879 612.321C242.508 613.645 242.822 615.239 242.822 617.103C242.822 618.966 242.511 620.563 241.89 621.895C241.269 623.22 240.416 624.241 239.331 624.959C238.246 625.67 237.008 626.026 235.616 626.026C234.568 626.026 233.712 625.85 233.046 625.498C232.387 625.146 231.871 624.735 231.497 624.264C231.123 623.792 230.835 623.373 230.632 623.006H230.352V625.689H227.074ZM230.363 617.069C230.363 618.281 230.539 619.344 230.891 620.256C231.242 621.169 231.751 621.884 232.417 622.4C233.083 622.909 233.899 623.164 234.864 623.164C235.867 623.164 236.705 622.898 237.378 622.367C238.052 621.828 238.56 621.098 238.905 620.178C239.256 619.258 239.432 618.221 239.432 617.069C239.432 615.931 239.26 614.91 238.916 614.005C238.579 613.099 238.07 612.385 237.389 611.861C236.716 611.337 235.874 611.075 234.864 611.075C233.891 611.075 233.068 611.326 232.395 611.827C231.729 612.329 231.224 613.028 230.879 613.926C230.535 614.824 230.363 615.872 230.363 617.069ZM246.59 625.689V608.449H249.834V611.187H250.014C250.328 610.26 250.882 609.53 251.675 608.999C252.476 608.46 253.381 608.191 254.391 608.191C254.601 608.191 254.848 608.198 255.132 608.213C255.424 608.228 255.652 608.247 255.817 608.269V611.479C255.682 611.442 255.442 611.401 255.098 611.356C254.754 611.303 254.41 611.277 254.066 611.277C253.272 611.277 252.565 611.446 251.944 611.782C251.331 612.112 250.844 612.572 250.485 613.163C250.126 613.746 249.946 614.412 249.946 615.161V625.689H246.59ZM263.584 626.071C262.491 626.071 261.504 625.869 260.621 625.464C259.738 625.053 259.038 624.458 258.522 623.68C258.013 622.902 257.758 621.948 257.758 620.818C257.758 619.845 257.945 619.044 258.32 618.416C258.694 617.787 259.199 617.29 259.835 616.923C260.471 616.556 261.182 616.279 261.967 616.092C262.753 615.905 263.554 615.763 264.369 615.666C265.402 615.546 266.24 615.449 266.884 615.374C267.527 615.292 267.995 615.161 268.287 614.981C268.578 614.802 268.724 614.51 268.724 614.106V614.027C268.724 613.047 268.447 612.287 267.894 611.749C267.348 611.21 266.532 610.94 265.447 610.94C264.317 610.94 263.427 611.191 262.776 611.692C262.132 612.186 261.687 612.736 261.44 613.342L258.286 612.624C258.66 611.576 259.206 610.731 259.925 610.087C260.65 609.436 261.485 608.965 262.428 608.673C263.37 608.374 264.362 608.224 265.402 608.224C266.09 608.224 266.82 608.307 267.591 608.471C268.369 608.628 269.095 608.92 269.768 609.347C270.449 609.773 271.007 610.383 271.441 611.176C271.875 611.962 272.092 612.983 272.092 614.24V625.689H268.814V623.332H268.679C268.462 623.766 268.137 624.192 267.703 624.611C267.269 625.03 266.711 625.378 266.031 625.655C265.35 625.932 264.534 626.071 263.584 626.071ZM264.313 623.377C265.241 623.377 266.034 623.193 266.693 622.827C267.359 622.46 267.864 621.981 268.208 621.39C268.56 620.792 268.736 620.152 268.736 619.471V617.248C268.616 617.368 268.384 617.48 268.04 617.585C267.703 617.682 267.318 617.768 266.884 617.843C266.45 617.911 266.027 617.974 265.615 618.034C265.204 618.086 264.86 618.131 264.583 618.169C263.932 618.251 263.337 618.39 262.798 618.584C262.267 618.779 261.84 619.059 261.518 619.426C261.204 619.785 261.047 620.264 261.047 620.863C261.047 621.693 261.354 622.322 261.967 622.748C262.581 623.167 263.363 623.377 264.313 623.377ZM276.562 625.689V608.449H279.805V611.187H279.985C280.299 610.26 280.853 609.53 281.646 608.999C282.447 608.46 283.352 608.191 284.362 608.191C284.572 608.191 284.819 608.198 285.103 608.213C285.395 608.228 285.623 608.247 285.788 608.269V611.479C285.653 611.442 285.414 611.401 285.069 611.356C284.725 611.303 284.381 611.277 284.037 611.277C283.244 611.277 282.537 611.446 281.916 611.782C281.302 612.112 280.816 612.572 280.456 613.163C280.097 613.746 279.918 614.412 279.918 615.161V625.689H276.562ZM291.338 632.154C290.837 632.154 290.38 632.113 289.969 632.031C289.557 631.956 289.25 631.873 289.048 631.784L289.857 629.034C290.47 629.198 291.016 629.269 291.495 629.247C291.974 629.225 292.397 629.045 292.764 628.708C293.138 628.372 293.467 627.822 293.751 627.058L294.167 625.913L287.859 608.449H291.45L295.817 621.828H295.996L300.362 608.449H303.965L296.86 627.99C296.531 628.888 296.112 629.647 295.603 630.268C295.095 630.897 294.488 631.368 293.785 631.683C293.082 631.997 292.266 632.154 291.338 632.154ZM315.753 625.689V602.702H319.222V622.703H329.638V625.689H315.753ZM340.587 626.037C338.971 626.037 337.56 625.667 336.355 624.926C335.151 624.185 334.215 623.149 333.549 621.817C332.883 620.485 332.55 618.928 332.55 617.147C332.55 615.359 332.883 613.795 333.549 612.456C334.215 611.116 335.151 610.076 336.355 609.335C337.56 608.595 338.971 608.224 340.587 608.224C342.203 608.224 343.614 608.595 344.818 609.335C346.023 610.076 346.958 611.116 347.624 612.456C348.29 613.795 348.623 615.359 348.623 617.147C348.623 618.928 348.29 620.485 347.624 621.817C346.958 623.149 346.023 624.185 344.818 624.926C343.614 625.667 342.203 626.037 340.587 626.037ZM340.598 623.22C341.646 623.22 342.514 622.943 343.202 622.389C343.89 621.835 344.399 621.098 344.729 620.178C345.065 619.258 345.234 618.244 345.234 617.136C345.234 616.036 345.065 615.026 344.729 614.106C344.399 613.178 343.89 612.433 343.202 611.872C342.514 611.311 341.646 611.03 340.598 611.03C339.543 611.03 338.668 611.311 337.972 611.872C337.283 612.433 336.771 613.178 336.434 614.106C336.105 615.026 335.94 616.036 335.94 617.136C335.94 618.244 336.105 619.258 336.434 620.178C336.771 621.098 337.283 621.835 337.972 622.389C338.668 622.943 339.543 623.22 340.598 623.22ZM359.598 632.513C358.228 632.513 357.05 632.334 356.062 631.974C355.082 631.615 354.281 631.14 353.66 630.549C353.039 629.958 352.575 629.311 352.268 628.607L355.153 627.417C355.355 627.747 355.624 628.095 355.961 628.461C356.305 628.835 356.769 629.153 357.353 629.415C357.944 629.677 358.704 629.808 359.631 629.808C360.903 629.808 361.955 629.498 362.785 628.877C363.616 628.263 364.031 627.283 364.031 625.936V622.546H363.818C363.616 622.913 363.324 623.321 362.942 623.77C362.568 624.219 362.052 624.608 361.394 624.937C360.735 625.266 359.878 625.431 358.823 625.431C357.461 625.431 356.234 625.113 355.142 624.477C354.057 623.833 353.196 622.887 352.56 621.637C351.932 620.38 351.617 618.835 351.617 617.001C351.617 615.168 351.928 613.597 352.549 612.287C353.177 610.978 354.038 609.975 355.13 609.279C356.223 608.576 357.461 608.224 358.846 608.224C359.916 608.224 360.78 608.404 361.438 608.763C362.097 609.115 362.61 609.526 362.976 609.998C363.35 610.469 363.638 610.884 363.84 611.244H364.087V608.449H367.376V626.071C367.376 627.552 367.032 628.768 366.343 629.718C365.655 630.669 364.723 631.372 363.549 631.829C362.381 632.285 361.064 632.513 359.598 632.513ZM359.564 622.647C360.529 622.647 361.345 622.423 362.011 621.974C362.684 621.517 363.193 620.866 363.537 620.021C363.889 619.168 364.065 618.146 364.065 616.957C364.065 615.797 363.893 614.775 363.549 613.892C363.204 613.009 362.699 612.321 362.033 611.827C361.367 611.326 360.544 611.075 359.564 611.075C358.554 611.075 357.712 611.337 357.039 611.861C356.365 612.377 355.856 613.081 355.512 613.971C355.175 614.861 355.007 615.857 355.007 616.957C355.007 618.086 355.179 619.078 355.523 619.931C355.868 620.784 356.376 621.45 357.05 621.929C357.731 622.408 358.569 622.647 359.564 622.647ZM379.139 626.037C377.523 626.037 376.112 625.667 374.907 624.926C373.703 624.185 372.767 623.149 372.101 621.817C371.435 620.485 371.102 618.928 371.102 617.147C371.102 615.359 371.435 613.795 372.101 612.456C372.767 611.116 373.703 610.076 374.907 609.335C376.112 608.595 377.523 608.224 379.139 608.224C380.755 608.224 382.166 608.595 383.37 609.335C384.575 610.076 385.51 611.116 386.176 612.456C386.842 613.795 387.175 615.359 387.175 617.147C387.175 618.928 386.842 620.485 386.176 621.817C385.51 623.149 384.575 624.185 383.37 624.926C382.166 625.667 380.755 626.037 379.139 626.037ZM379.15 623.22C380.198 623.22 381.066 622.943 381.754 622.389C382.443 621.835 382.951 621.098 383.281 620.178C383.617 619.258 383.786 618.244 383.786 617.136C383.786 616.036 383.617 615.026 383.281 614.106C382.951 613.178 382.443 612.433 381.754 611.872C381.066 611.311 380.198 611.03 379.15 611.03C378.095 611.03 377.22 611.311 376.524 611.872C375.835 612.433 375.323 613.178 374.986 614.106C374.657 615.026 374.492 616.036 374.492 617.136C374.492 618.244 374.657 619.258 374.986 620.178C375.323 621.098 375.835 621.835 376.524 622.389C377.22 622.943 378.095 623.22 379.15 623.22Z" fill="black"></path><defs><clipPath id="clip0_2321_21799"><rect width="40.9408" height="40.9408" fill="white" transform="translate(675 271)"></rect></clipPath><clipPath id="clip1_2321_21799"><rect width="40.9408" height="40.9408" fill="white" transform="translate(1401 271)"></rect></clipPath><clipPath id="clip2_2321_21799"><rect width="40.9408" height="40.9408" fill="white" transform="translate(66.043 115.729)"></rect></clipPath><clipPath id="clip3_2321_21799"><rect width="40.9408" height="40.9408" fill="white" transform="translate(66.043 195.779)"></rect></clipPath></defs></svg> 