<?xml version="1.0" encoding="UTF-8"?>
<svg xmlns="http://www.w3.org/2000/svg" viewBox="0 0 64 64" fill="none" color="currentColor">

<g>
  <ellipse cx="11.00" cy="32.00" rx="3.10" ry="8.40" transform="rotate(-22.00 11.00 32.00)" stroke="currentColor" stroke-width="0.42" opacity="0.340"/>
  <ellipse cx="11.00" cy="32.16" rx="2.96" ry="8.00" transform="rotate(-18.91 11.00 32.16)" stroke="currentColor" stroke-width="0.42" opacity="0.452"/>
  <ellipse cx="11.00" cy="32.30" rx="2.82" ry="7.60" transform="rotate(-16.15 11.00 32.30)" stroke="currentColor" stroke-width="0.32" opacity="0.370"/>
  <ellipse cx="11.00" cy="32.43" rx="2.67" ry="7.20" transform="rotate(-13.94 11.00 32.43)" stroke="currentColor" stroke-width="0.32" opacity="0.463"/>
  <ellipse cx="11.00" cy="32.53" rx="2.53" ry="6.80" transform="rotate(-12.43 11.00 32.53)" stroke="currentColor" stroke-width="0.32" opacity="0.538"/>
  <ellipse cx="11.00" cy="32.61" rx="2.39" ry="6.40" transform="rotate(-11.55 11.00 32.61)" stroke="currentColor" stroke-width="0.32" opacity="0.590"/>
  <ellipse cx="11.00" cy="32.65" rx="2.25" ry="6.00" transform="rotate(-11.13 11.00 32.65)" stroke="currentColor" stroke-width="0.32" opacity="0.617"/>
  <ellipse cx="11.00" cy="32.65" rx="2.10" ry="5.60" transform="rotate(-10.87 11.00 32.65)" stroke="currentColor" stroke-width="0.32" opacity="0.617"/>
  <ellipse cx="11.00" cy="32.61" rx="1.96" ry="5.20" transform="rotate(-10.45 11.00 32.61)" stroke="currentColor" stroke-width="0.32" opacity="0.590"/>
  <ellipse cx="11.00" cy="32.53" rx="1.82" ry="4.80" transform="rotate(-9.57 11.00 32.53)" stroke="currentColor" stroke-width="0.32" opacity="0.538"/>
  <ellipse cx="11.00" cy="32.43" rx="1.68" ry="4.40" transform="rotate(-8.06 11.00 32.43)" stroke="currentColor" stroke-width="0.32" opacity="0.463"/>
  <ellipse cx="11.00" cy="32.30" rx="1.53" ry="4.00" transform="rotate(-5.85 11.00 32.30)" stroke="currentColor" stroke-width="0.32" opacity="0.370"/>
  <ellipse cx="11.00" cy="32.16" rx="1.39" ry="3.60" transform="rotate(-3.09 11.00 32.16)" stroke="currentColor" stroke-width="0.42" opacity="0.452"/>
  <ellipse cx="11.00" cy="32.00" rx="1.25" ry="3.20" transform="rotate(-0.00 11.00 32.00)" stroke="currentColor" stroke-width="0.42" opacity="0.340"/>
  <ellipse cx="18.00" cy="32.00" rx="3.10" ry="8.40" transform="rotate(-14.67 18.00 32.00)" stroke="currentColor" stroke-width="0.42" opacity="0.376"/>
  <ellipse cx="18.00" cy="32.16" rx="2.96" ry="8.00" transform="rotate(-11.58 18.00 32.16)" stroke="currentColor" stroke-width="0.42" opacity="0.500"/>
  <ellipse cx="18.00" cy="32.30" rx="2.82" ry="7.60" transform="rotate(-8.81 18.00 32.30)" stroke="currentColor" stroke-width="0.32" opacity="0.409"/>
  <ellipse cx="18.00" cy="32.43" rx="2.67" ry="7.20" transform="rotate(-6.61 18.00 32.43)" stroke="currentColor" stroke-width="0.32" opacity="0.512"/>
  <ellipse cx="18.00" cy="32.53" rx="2.53" ry="6.80" transform="rotate(-5.09 18.00 32.53)" stroke="currentColor" stroke-width="0.32" opacity="0.595"/>
  <ellipse cx="18.00" cy="32.61" rx="2.39" ry="6.40" transform="rotate(-4.22 18.00 32.61)" stroke="currentColor" stroke-width="0.32" opacity="0.653"/>
  <ellipse cx="18.00" cy="32.65" rx="2.25" ry="6.00" transform="rotate(-3.79 18.00 32.65)" stroke="currentColor" stroke-width="0.32" opacity="0.682"/>
  <ellipse cx="18.00" cy="32.65" rx="2.10" ry="5.60" transform="rotate(-3.54 18.00 32.65)" stroke="currentColor" stroke-width="0.32" opacity="0.682"/>
  <ellipse cx="18.00" cy="32.61" rx="1.96" ry="5.20" transform="rotate(-3.12 18.00 32.61)" stroke="currentColor" stroke-width="0.32" opacity="0.653"/>
  <ellipse cx="18.00" cy="32.53" rx="1.82" ry="4.80" transform="rotate(-2.24 18.00 32.53)" stroke="currentColor" stroke-width="0.32" opacity="0.595"/>
  <ellipse cx="18.00" cy="32.43" rx="1.68" ry="4.40" transform="rotate(-0.72 18.00 32.43)" stroke="currentColor" stroke-width="0.32" opacity="0.512"/>
  <ellipse cx="18.00" cy="32.30" rx="1.53" ry="4.00" transform="rotate(1.48 18.00 32.30)" stroke="currentColor" stroke-width="0.32" opacity="0.409"/>
  <ellipse cx="18.00" cy="32.16" rx="1.39" ry="3.60" transform="rotate(4.25 18.00 32.16)" stroke="currentColor" stroke-width="0.42" opacity="0.500"/>
  <ellipse cx="18.00" cy="32.00" rx="1.25" ry="3.20" transform="rotate(7.33 18.00 32.00)" stroke="currentColor" stroke-width="0.42" opacity="0.376"/>
  <ellipse cx="25.00" cy="32.00" rx="3.10" ry="8.40" transform="rotate(-7.33 25.00 32.00)" stroke="currentColor" stroke-width="0.42" opacity="0.482"/>
  <ellipse cx="25.00" cy="32.16" rx="2.96" ry="8.00" transform="rotate(-4.25 25.00 32.16)" stroke="currentColor" stroke-width="0.42" opacity="0.615"/>
  <ellipse cx="25.00" cy="32.30" rx="2.82" ry="7.60" transform="rotate(-1.48 25.00 32.30)" stroke="currentColor" stroke-width="0.32" opacity="0.518"/>
  <ellipse cx="25.00" cy="32.43" rx="2.67" ry="7.20" transform="rotate(0.72 25.00 32.43)" stroke="currentColor" stroke-width="0.32" opacity="0.628"/>
  <ellipse cx="25.00" cy="32.53" rx="2.53" ry="6.80" transform="rotate(2.24 25.00 32.53)" stroke="currentColor" stroke-width="0.32" opacity="0.716"/>
  <ellipse cx="25.00" cy="32.61" rx="2.39" ry="6.40" transform="rotate(3.12 25.00 32.61)" stroke="currentColor" stroke-width="0.32" opacity="0.778"/>
  <ellipse cx="25.00" cy="32.65" rx="2.25" ry="6.00" transform="rotate(3.54 25.00 32.65)" stroke="currentColor" stroke-width="0.32" opacity="0.810"/>
  <ellipse cx="25.00" cy="32.65" rx="2.10" ry="5.60" transform="rotate(3.79 25.00 32.65)" stroke="currentColor" stroke-width="0.32" opacity="0.810"/>
  <ellipse cx="25.00" cy="32.61" rx="1.96" ry="5.20" transform="rotate(4.22 25.00 32.61)" stroke="currentColor" stroke-width="0.32" opacity="0.778"/>
  <ellipse cx="25.00" cy="32.53" rx="1.82" ry="4.80" transform="rotate(5.09 25.00 32.53)" stroke="currentColor" stroke-width="0.32" opacity="0.716"/>
  <ellipse cx="25.00" cy="32.43" rx="1.68" ry="4.40" transform="rotate(6.61 25.00 32.43)" stroke="currentColor" stroke-width="0.32" opacity="0.628"/>
  <ellipse cx="25.00" cy="32.30" rx="1.53" ry="4.00" transform="rotate(8.81 25.00 32.30)" stroke="currentColor" stroke-width="0.32" opacity="0.518"/>
  <ellipse cx="25.00" cy="32.16" rx="1.39" ry="3.60" transform="rotate(11.58 25.00 32.16)" stroke="currentColor" stroke-width="0.42" opacity="0.615"/>
  <ellipse cx="25.00" cy="32.00" rx="1.25" ry="3.20" transform="rotate(14.67 25.00 32.00)" stroke="currentColor" stroke-width="0.42" opacity="0.482"/>
  <ellipse cx="32.00" cy="32.00" rx="3.10" ry="8.40" transform="rotate(0.00 32.00 32.00)" stroke="currentColor" stroke-width="0.42" opacity="0.492"/>
  <ellipse cx="32.00" cy="32.16" rx="2.96" ry="8.00" transform="rotate(3.09 32.00 32.16)" stroke="currentColor" stroke-width="0.42" opacity="0.628"/>
  <ellipse cx="32.00" cy="32.30" rx="2.82" ry="7.60" transform="rotate(5.85 32.00 32.30)" stroke="currentColor" stroke-width="0.32" opacity="0.529"/>
  <ellipse cx="32.00" cy="32.43" rx="2.67" ry="7.20" transform="rotate(8.06 32.00 32.43)" stroke="currentColor" stroke-width="0.32" opacity="0.641"/>
  <ellipse cx="32.00" cy="32.53" rx="2.53" ry="6.80" transform="rotate(9.57 32.00 32.53)" stroke="currentColor" stroke-width="0.32" opacity="0.732"/>
  <ellipse cx="32.00" cy="32.61" rx="2.39" ry="6.40" transform="rotate(10.45 32.00 32.61)" stroke="currentColor" stroke-width="0.32" opacity="0.795"/>
  <ellipse cx="32.00" cy="32.65" rx="2.25" ry="6.00" transform="rotate(10.87 32.00 32.65)" stroke="currentColor" stroke-width="0.32" opacity="0.828"/>
  <ellipse cx="32.00" cy="32.65" rx="2.10" ry="5.60" transform="rotate(11.13 32.00 32.65)" stroke="currentColor" stroke-width="0.32" opacity="0.828"/>
  <ellipse cx="32.00" cy="32.61" rx="1.96" ry="5.20" transform="rotate(11.55 32.00 32.61)" stroke="currentColor" stroke-width="0.32" opacity="0.795"/>
  <ellipse cx="32.00" cy="32.53" rx="1.82" ry="4.80" transform="rotate(12.43 32.00 32.53)" stroke="currentColor" stroke-width="0.32" opacity="0.732"/>
  <ellipse cx="32.00" cy="32.43" rx="1.68" ry="4.40" transform="rotate(13.94 32.00 32.43)" stroke="currentColor" stroke-width="0.32" opacity="0.641"/>
  <ellipse cx="32.00" cy="32.30" rx="1.53" ry="4.00" transform="rotate(16.15 32.00 32.30)" stroke="currentColor" stroke-width="0.32" opacity="0.529"/>
  <ellipse cx="32.00" cy="32.16" rx="1.39" ry="3.60" transform="rotate(18.91 32.00 32.16)" stroke="currentColor" stroke-width="0.42" opacity="0.628"/>
  <ellipse cx="32.00" cy="32.00" rx="1.25" ry="3.20" transform="rotate(22.00 32.00 32.00)" stroke="currentColor" stroke-width="0.42" opacity="0.492"/>
  <ellipse cx="39.00" cy="32.00" rx="3.10" ry="8.40" transform="rotate(7.33 39.00 32.00)" stroke="currentColor" stroke-width="0.42" opacity="0.482"/>
  <ellipse cx="39.00" cy="32.16" rx="2.96" ry="8.00" transform="rotate(10.42 39.00 32.16)" stroke="currentColor" stroke-width="0.42" opacity="0.615"/>
  <ellipse cx="39.00" cy="32.30" rx="2.82" ry="7.60" transform="rotate(13.19 39.00 32.30)" stroke="currentColor" stroke-width="0.32" opacity="0.518"/>
  <ellipse cx="39.00" cy="32.43" rx="2.67" ry="7.20" transform="rotate(15.39 39.00 32.43)" stroke="currentColor" stroke-width="0.32" opacity="0.628"/>
  <ellipse cx="39.00" cy="32.53" rx="2.53" ry="6.80" transform="rotate(16.91 39.00 32.53)" stroke="currentColor" stroke-width="0.32" opacity="0.716"/>
  <ellipse cx="39.00" cy="32.61" rx="2.39" ry="6.40" transform="rotate(17.78 39.00 32.61)" stroke="currentColor" stroke-width="0.32" opacity="0.778"/>
  <ellipse cx="39.00" cy="32.65" rx="2.25" ry="6.00" transform="rotate(18.21 39.00 32.65)" stroke="currentColor" stroke-width="0.32" opacity="0.810"/>
  <ellipse cx="39.00" cy="32.65" rx="2.10" ry="5.60" transform="rotate(18.46 39.00 32.65)" stroke="currentColor" stroke-width="0.32" opacity="0.810"/>
  <ellipse cx="39.00" cy="32.61" rx="1.96" ry="5.20" transform="rotate(18.88 39.00 32.61)" stroke="currentColor" stroke-width="0.32" opacity="0.778"/>
  <ellipse cx="39.00" cy="32.53" rx="1.82" ry="4.80" transform="rotate(19.76 39.00 32.53)" stroke="currentColor" stroke-width="0.32" opacity="0.716"/>
  <ellipse cx="39.00" cy="32.43" rx="1.68" ry="4.40" transform="rotate(21.28 39.00 32.43)" stroke="currentColor" stroke-width="0.32" opacity="0.628"/>
  <ellipse cx="39.00" cy="32.30" rx="1.53" ry="4.00" transform="rotate(23.48 39.00 32.30)" stroke="currentColor" stroke-width="0.32" opacity="0.518"/>
  <ellipse cx="39.00" cy="32.16" rx="1.39" ry="3.60" transform="rotate(26.25 39.00 32.16)" stroke="currentColor" stroke-width="0.42" opacity="0.615"/>
  <ellipse cx="39.00" cy="32.00" rx="1.25" ry="3.20" transform="rotate(29.33 39.00 32.00)" stroke="currentColor" stroke-width="0.42" opacity="0.482"/>
  <ellipse cx="46.00" cy="32.00" rx="3.10" ry="8.40" transform="rotate(14.67 46.00 32.00)" stroke="currentColor" stroke-width="0.42" opacity="0.376"/>
  <ellipse cx="46.00" cy="32.16" rx="2.96" ry="8.00" transform="rotate(17.75 46.00 32.16)" stroke="currentColor" stroke-width="0.42" opacity="0.500"/>
  <ellipse cx="46.00" cy="32.30" rx="2.82" ry="7.60" transform="rotate(20.52 46.00 32.30)" stroke="currentColor" stroke-width="0.32" opacity="0.409"/>
  <ellipse cx="46.00" cy="32.43" rx="2.67" ry="7.20" transform="rotate(22.72 46.00 32.43)" stroke="currentColor" stroke-width="0.32" opacity="0.512"/>
  <ellipse cx="46.00" cy="32.53" rx="2.53" ry="6.80" transform="rotate(24.24 46.00 32.53)" stroke="currentColor" stroke-width="0.32" opacity="0.595"/>
  <ellipse cx="46.00" cy="32.61" rx="2.39" ry="6.40" transform="rotate(25.12 46.00 32.61)" stroke="currentColor" stroke-width="0.32" opacity="0.653"/>
  <ellipse cx="46.00" cy="32.65" rx="2.25" ry="6.00" transform="rotate(25.54 46.00 32.65)" stroke="currentColor" stroke-width="0.32" opacity="0.682"/>
  <ellipse cx="46.00" cy="32.65" rx="2.10" ry="5.60" transform="rotate(25.79 46.00 32.65)" stroke="currentColor" stroke-width="0.32" opacity="0.682"/>
  <ellipse cx="46.00" cy="32.61" rx="1.96" ry="5.20" transform="rotate(26.22 46.00 32.61)" stroke="currentColor" stroke-width="0.32" opacity="0.653"/>
  <ellipse cx="46.00" cy="32.53" rx="1.82" ry="4.80" transform="rotate(27.09 46.00 32.53)" stroke="currentColor" stroke-width="0.32" opacity="0.595"/>
  <ellipse cx="46.00" cy="32.43" rx="1.68" ry="4.40" transform="rotate(28.61 46.00 32.43)" stroke="currentColor" stroke-width="0.32" opacity="0.512"/>
  <ellipse cx="46.00" cy="32.30" rx="1.53" ry="4.00" transform="rotate(30.81 46.00 32.30)" stroke="currentColor" stroke-width="0.32" opacity="0.409"/>
  <ellipse cx="46.00" cy="32.16" rx="1.39" ry="3.60" transform="rotate(33.58 46.00 32.16)" stroke="currentColor" stroke-width="0.42" opacity="0.500"/>
  <ellipse cx="46.00" cy="32.00" rx="1.25" ry="3.20" transform="rotate(36.67 46.00 32.00)" stroke="currentColor" stroke-width="0.42" opacity="0.376"/>
  <ellipse cx="53.00" cy="32.00" rx="3.10" ry="8.40" transform="rotate(22.00 53.00 32.00)" stroke="currentColor" stroke-width="0.42" opacity="0.340"/>
  <ellipse cx="53.00" cy="32.16" rx="2.96" ry="8.00" transform="rotate(25.09 53.00 32.16)" stroke="currentColor" stroke-width="0.42" opacity="0.452"/>
  <ellipse cx="53.00" cy="32.30" rx="2.82" ry="7.60" transform="rotate(27.85 53.00 32.30)" stroke="currentColor" stroke-width="0.32" opacity="0.370"/>
  <ellipse cx="53.00" cy="32.43" rx="2.67" ry="7.20" transform="rotate(30.06 53.00 32.43)" stroke="currentColor" stroke-width="0.32" opacity="0.463"/>
  <ellipse cx="53.00" cy="32.53" rx="2.53" ry="6.80" transform="rotate(31.57 53.00 32.53)" stroke="currentColor" stroke-width="0.32" opacity="0.538"/>
  <ellipse cx="53.00" cy="32.61" rx="2.39" ry="6.40" transform="rotate(32.45 53.00 32.61)" stroke="currentColor" stroke-width="0.32" opacity="0.590"/>
  <ellipse cx="53.00" cy="32.65" rx="2.25" ry="6.00" transform="rotate(32.87 53.00 32.65)" stroke="currentColor" stroke-width="0.32" opacity="0.617"/>
  <ellipse cx="53.00" cy="32.65" rx="2.10" ry="5.60" transform="rotate(33.13 53.00 32.65)" stroke="currentColor" stroke-width="0.32" opacity="0.617"/>
  <ellipse cx="53.00" cy="32.61" rx="1.96" ry="5.20" transform="rotate(33.55 53.00 32.61)" stroke="currentColor" stroke-width="0.32" opacity="0.590"/>
  <ellipse cx="53.00" cy="32.53" rx="1.82" ry="4.80" transform="rotate(34.43 53.00 32.53)" stroke="currentColor" stroke-width="0.32" opacity="0.538"/>
  <ellipse cx="53.00" cy="32.43" rx="1.68" ry="4.40" transform="rotate(35.94 53.00 32.43)" stroke="currentColor" stroke-width="0.32" opacity="0.463"/>
  <ellipse cx="53.00" cy="32.30" rx="1.53" ry="4.00" transform="rotate(38.15 53.00 32.30)" stroke="currentColor" stroke-width="0.32" opacity="0.370"/>
  <ellipse cx="53.00" cy="32.16" rx="1.39" ry="3.60" transform="rotate(40.91 53.00 32.16)" stroke="currentColor" stroke-width="0.42" opacity="0.452"/>
  <ellipse cx="53.00" cy="32.00" rx="1.25" ry="3.20" transform="rotate(44.00 53.00 32.00)" stroke="currentColor" stroke-width="0.42" opacity="0.340"/>
</g>
</svg>
