<?xml version="1.0" encoding="UTF-8"?>
<svg xmlns="http://www.w3.org/2000/svg" viewBox="0 0 64 64" fill="none" color="currentColor">

<g>
  <ellipse cx="32.00" cy="31.00" rx="9.50" ry="6.20" transform="rotate(-12.00 32.00 31.00)" stroke="currentColor" stroke-width="0.42" opacity="0.460"/>
  <ellipse cx="32.00" cy="31.13" rx="8.95" ry="5.85" transform="rotate(-8.83 32.00 31.13)" stroke="currentColor" stroke-width="0.42" opacity="0.592"/>
  <ellipse cx="32.00" cy="31.26" rx="8.39" ry="5.49" transform="rotate(-6.32 32.00 31.26)" stroke="currentColor" stroke-width="0.32" opacity="0.436"/>
  <ellipse cx="32.00" cy="31.36" rx="7.84" ry="5.14" transform="rotate(-4.82 32.00 31.36)" stroke="currentColor" stroke-width="0.32" opacity="0.545"/>
  <ellipse cx="32.00" cy="31.45" rx="7.28" ry="4.78" transform="rotate(-4.14 32.00 31.45)" stroke="currentColor" stroke-width="0.32" opacity="0.633"/>
  <ellipse cx="32.00" cy="31.51" rx="6.73" ry="4.43" transform="rotate(-3.70 32.00 31.51)" stroke="currentColor" stroke-width="0.32" opacity="0.694"/>
  <ellipse cx="32.00" cy="31.55" rx="6.18" ry="4.08" transform="rotate(-2.79 32.00 31.55)" stroke="currentColor" stroke-width="0.32" opacity="0.726"/>
  <ellipse cx="32.00" cy="31.55" rx="5.62" ry="3.72" transform="rotate(-0.95 32.00 31.55)" stroke="currentColor" stroke-width="0.32" opacity="0.726"/>
  <ellipse cx="32.00" cy="31.51" rx="5.07" ry="3.37" transform="rotate(1.84 32.00 31.51)" stroke="currentColor" stroke-width="0.32" opacity="0.694"/>
  <ellipse cx="32.00" cy="31.45" rx="4.52" ry="3.02" transform="rotate(5.09 32.00 31.45)" stroke="currentColor" stroke-width="0.32" opacity="0.633"/>
  <ellipse cx="32.00" cy="31.36" rx="3.96" ry="2.66" transform="rotate(8.11 32.00 31.36)" stroke="currentColor" stroke-width="0.32" opacity="0.545"/>
  <ellipse cx="32.00" cy="31.26" rx="3.41" ry="2.31" transform="rotate(10.29 32.00 31.26)" stroke="currentColor" stroke-width="0.32" opacity="0.436"/>
  <ellipse cx="32.00" cy="31.13" rx="2.85" ry="1.95" transform="rotate(11.48 32.00 31.13)" stroke="currentColor" stroke-width="0.42" opacity="0.592"/>
  <ellipse cx="32.00" cy="31.00" rx="2.30" ry="1.60" transform="rotate(12.00 32.00 31.00)" stroke="currentColor" stroke-width="0.42" opacity="0.460"/>
  <ellipse cx="32.00" cy="27.20" rx="3.40" ry="2.20" transform="rotate(-22.00 32.00 27.20)" stroke="currentColor" stroke-width="0.38" opacity="0.260"/>
  <ellipse cx="32.00" cy="27.45" rx="2.85" ry="1.85" transform="rotate(-17.50 32.00 27.45)" stroke="currentColor" stroke-width="0.30" opacity="0.557"/>
  <ellipse cx="32.00" cy="27.55" rx="2.30" ry="1.50" transform="rotate(-13.00 32.00 27.55)" stroke="currentColor" stroke-width="0.30" opacity="0.680"/>
  <ellipse cx="32.00" cy="27.45" rx="1.75" ry="1.15" transform="rotate(-8.50 32.00 27.45)" stroke="currentColor" stroke-width="0.30" opacity="0.557"/>
  <ellipse cx="32.00" cy="27.20" rx="1.20" ry="0.80" transform="rotate(-4.00 32.00 27.20)" stroke="currentColor" stroke-width="0.38" opacity="0.260"/>
  <ellipse cx="33.88" cy="26.75" rx="3.40" ry="2.20" transform="rotate(-1.77 33.88 26.75)" stroke="currentColor" stroke-width="0.38" opacity="0.252"/>
  <ellipse cx="33.88" cy="27.00" rx="2.85" ry="1.85" transform="rotate(2.73 33.88 27.00)" stroke="currentColor" stroke-width="0.30" opacity="0.549"/>
  <ellipse cx="33.88" cy="27.10" rx="2.30" ry="1.50" transform="rotate(7.23 33.88 27.10)" stroke="currentColor" stroke-width="0.30" opacity="0.672"/>
  <ellipse cx="33.88" cy="27.00" rx="1.75" ry="1.15" transform="rotate(11.73 33.88 27.00)" stroke="currentColor" stroke-width="0.30" opacity="0.549"/>
  <ellipse cx="33.88" cy="26.75" rx="1.20" ry="0.80" transform="rotate(16.23 33.88 26.75)" stroke="currentColor" stroke-width="0.38" opacity="0.252"/>
  <ellipse cx="36.11" cy="26.88" rx="3.40" ry="2.20" transform="rotate(18.17 36.11 26.88)" stroke="currentColor" stroke-width="0.38" opacity="0.244"/>
  <ellipse cx="36.11" cy="27.13" rx="2.85" ry="1.85" transform="rotate(22.67 36.11 27.13)" stroke="currentColor" stroke-width="0.30" opacity="0.541"/>
  <ellipse cx="36.11" cy="27.23" rx="2.30" ry="1.50" transform="rotate(27.17 36.11 27.23)" stroke="currentColor" stroke-width="0.30" opacity="0.664"/>
  <ellipse cx="36.11" cy="27.13" rx="1.75" ry="1.15" transform="rotate(31.67 36.11 27.13)" stroke="currentColor" stroke-width="0.30" opacity="0.541"/>
  <ellipse cx="36.11" cy="26.88" rx="1.20" ry="0.80" transform="rotate(36.17 36.11 26.88)" stroke="currentColor" stroke-width="0.38" opacity="0.244"/>
  <ellipse cx="38.37" cy="27.71" rx="3.40" ry="2.20" transform="rotate(37.60 38.37 27.71)" stroke="currentColor" stroke-width="0.38" opacity="0.236"/>
  <ellipse cx="38.37" cy="27.96" rx="2.85" ry="1.85" transform="rotate(42.10 38.37 27.96)" stroke="currentColor" stroke-width="0.30" opacity="0.533"/>
  <ellipse cx="38.37" cy="28.06" rx="2.30" ry="1.50" transform="rotate(46.60 38.37 28.06)" stroke="currentColor" stroke-width="0.30" opacity="0.656"/>
  <ellipse cx="38.37" cy="27.96" rx="1.75" ry="1.15" transform="rotate(51.10 38.37 27.96)" stroke="currentColor" stroke-width="0.30" opacity="0.533"/>
  <ellipse cx="38.37" cy="27.71" rx="1.20" ry="0.80" transform="rotate(55.60 38.37 27.71)" stroke="currentColor" stroke-width="0.38" opacity="0.236"/>
  <ellipse cx="40.28" cy="29.24" rx="3.40" ry="2.20" transform="rotate(56.38 40.28 29.24)" stroke="currentColor" stroke-width="0.38" opacity="0.228"/>
  <ellipse cx="40.28" cy="29.49" rx="2.85" ry="1.85" transform="rotate(60.88 40.28 29.49)" stroke="currentColor" stroke-width="0.30" opacity="0.525"/>
  <ellipse cx="40.28" cy="29.59" rx="2.30" ry="1.50" transform="rotate(65.38 40.28 29.59)" stroke="currentColor" stroke-width="0.30" opacity="0.648"/>
  <ellipse cx="40.28" cy="29.49" rx="1.75" ry="1.15" transform="rotate(69.88 40.28 29.49)" stroke="currentColor" stroke-width="0.30" opacity="0.525"/>
  <ellipse cx="40.28" cy="29.24" rx="1.20" ry="0.80" transform="rotate(74.38 40.28 29.24)" stroke="currentColor" stroke-width="0.38" opacity="0.228"/>
  <ellipse cx="41.49" cy="31.38" rx="3.40" ry="2.20" transform="rotate(74.46 41.49 31.38)" stroke="currentColor" stroke-width="0.38" opacity="0.220"/>
  <ellipse cx="41.49" cy="31.63" rx="2.85" ry="1.85" transform="rotate(78.96 41.49 31.63)" stroke="currentColor" stroke-width="0.30" opacity="0.517"/>
  <ellipse cx="41.49" cy="31.73" rx="2.30" ry="1.50" transform="rotate(83.46 41.49 31.73)" stroke="currentColor" stroke-width="0.30" opacity="0.640"/>
  <ellipse cx="41.49" cy="31.63" rx="1.75" ry="1.15" transform="rotate(87.96 41.49 31.63)" stroke="currentColor" stroke-width="0.30" opacity="0.517"/>
  <ellipse cx="41.49" cy="31.38" rx="1.20" ry="0.80" transform="rotate(92.46 41.49 31.38)" stroke="currentColor" stroke-width="0.38" opacity="0.220"/>
  <ellipse cx="41.67" cy="33.91" rx="3.40" ry="2.20" transform="rotate(91.95 41.67 33.91)" stroke="currentColor" stroke-width="0.38" opacity="0.212"/>
  <ellipse cx="41.67" cy="34.16" rx="2.85" ry="1.85" transform="rotate(96.45 41.67 34.16)" stroke="currentColor" stroke-width="0.30" opacity="0.509"/>
  <ellipse cx="41.67" cy="34.26" rx="2.30" ry="1.50" transform="rotate(100.95 41.67 34.26)" stroke="currentColor" stroke-width="0.30" opacity="0.632"/>
  <ellipse cx="41.67" cy="34.16" rx="1.75" ry="1.15" transform="rotate(105.45 41.67 34.16)" stroke="currentColor" stroke-width="0.30" opacity="0.509"/>
  <ellipse cx="41.67" cy="33.91" rx="1.20" ry="0.80" transform="rotate(109.95 41.67 33.91)" stroke="currentColor" stroke-width="0.38" opacity="0.212"/>
  <ellipse cx="40.63" cy="36.54" rx="3.40" ry="2.20" transform="rotate(109.03 40.63 36.54)" stroke="currentColor" stroke-width="0.38" opacity="0.204"/>
  <ellipse cx="40.63" cy="36.79" rx="2.85" ry="1.85" transform="rotate(113.53 40.63 36.79)" stroke="currentColor" stroke-width="0.30" opacity="0.501"/>
  <ellipse cx="40.63" cy="36.89" rx="2.30" ry="1.50" transform="rotate(118.03 40.63 36.89)" stroke="currentColor" stroke-width="0.30" opacity="0.624"/>
  <ellipse cx="40.63" cy="36.79" rx="1.75" ry="1.15" transform="rotate(122.53 40.63 36.79)" stroke="currentColor" stroke-width="0.30" opacity="0.501"/>
  <ellipse cx="40.63" cy="36.54" rx="1.20" ry="0.80" transform="rotate(127.03 40.63 36.54)" stroke="currentColor" stroke-width="0.38" opacity="0.204"/>
  <ellipse cx="38.32" cy="38.93" rx="3.40" ry="2.20" transform="rotate(125.97 38.32 38.93)" stroke="currentColor" stroke-width="0.38" opacity="0.196"/>
  <ellipse cx="38.32" cy="39.18" rx="2.85" ry="1.85" transform="rotate(130.47 38.32 39.18)" stroke="currentColor" stroke-width="0.30" opacity="0.493"/>
  <ellipse cx="38.32" cy="39.28" rx="2.30" ry="1.50" transform="rotate(134.97 38.32 39.28)" stroke="currentColor" stroke-width="0.30" opacity="0.616"/>
  <ellipse cx="38.32" cy="39.18" rx="1.75" ry="1.15" transform="rotate(139.47 38.32 39.18)" stroke="currentColor" stroke-width="0.30" opacity="0.493"/>
  <ellipse cx="38.32" cy="38.93" rx="1.20" ry="0.80" transform="rotate(143.97 38.32 38.93)" stroke="currentColor" stroke-width="0.38" opacity="0.196"/>
  <ellipse cx="34.86" cy="40.72" rx="3.40" ry="2.20" transform="rotate(143.05 34.86 40.72)" stroke="currentColor" stroke-width="0.38" opacity="0.188"/>
  <ellipse cx="34.86" cy="40.96" rx="2.85" ry="1.85" transform="rotate(147.55 34.86 40.96)" stroke="currentColor" stroke-width="0.30" opacity="0.485"/>
  <ellipse cx="34.86" cy="41.07" rx="2.30" ry="1.50" transform="rotate(152.05 34.86 41.07)" stroke="currentColor" stroke-width="0.30" opacity="0.608"/>
  <ellipse cx="34.86" cy="40.96" rx="1.75" ry="1.15" transform="rotate(156.55 34.86 40.96)" stroke="currentColor" stroke-width="0.30" opacity="0.485"/>
  <ellipse cx="34.86" cy="40.72" rx="1.20" ry="0.80" transform="rotate(161.05 34.86 40.72)" stroke="currentColor" stroke-width="0.38" opacity="0.188"/>
  <ellipse cx="30.54" cy="41.58" rx="3.40" ry="2.20" transform="rotate(160.54 30.54 41.58)" stroke="currentColor" stroke-width="0.38" opacity="0.180"/>
  <ellipse cx="30.54" cy="41.83" rx="2.85" ry="1.85" transform="rotate(165.04 30.54 41.83)" stroke="currentColor" stroke-width="0.30" opacity="0.477"/>
  <ellipse cx="30.54" cy="41.93" rx="2.30" ry="1.50" transform="rotate(169.54 30.54 41.93)" stroke="currentColor" stroke-width="0.30" opacity="0.600"/>
  <ellipse cx="30.54" cy="41.83" rx="1.75" ry="1.15" transform="rotate(174.04 30.54 41.83)" stroke="currentColor" stroke-width="0.30" opacity="0.477"/>
  <ellipse cx="30.54" cy="41.58" rx="1.20" ry="0.80" transform="rotate(178.54 30.54 41.58)" stroke="currentColor" stroke-width="0.38" opacity="0.180"/>
  <ellipse cx="25.80" cy="41.30" rx="3.40" ry="2.20" transform="rotate(178.62 25.80 41.30)" stroke="currentColor" stroke-width="0.38" opacity="0.172"/>
  <ellipse cx="25.80" cy="41.54" rx="2.85" ry="1.85" transform="rotate(183.12 25.80 41.54)" stroke="currentColor" stroke-width="0.30" opacity="0.469"/>
  <ellipse cx="25.80" cy="41.65" rx="2.30" ry="1.50" transform="rotate(187.62 25.80 41.65)" stroke="currentColor" stroke-width="0.30" opacity="0.592"/>
  <ellipse cx="25.80" cy="41.54" rx="1.75" ry="1.15" transform="rotate(192.12 25.80 41.54)" stroke="currentColor" stroke-width="0.30" opacity="0.469"/>
  <ellipse cx="25.80" cy="41.30" rx="1.20" ry="0.80" transform="rotate(196.62 25.80 41.30)" stroke="currentColor" stroke-width="0.38" opacity="0.172"/>
  <ellipse cx="21.18" cy="39.75" rx="3.40" ry="2.20" transform="rotate(197.40 21.18 39.75)" stroke="currentColor" stroke-width="0.38" opacity="0.164"/>
  <ellipse cx="21.18" cy="40.00" rx="2.85" ry="1.85" transform="rotate(201.90 21.18 40.00)" stroke="currentColor" stroke-width="0.30" opacity="0.461"/>
  <ellipse cx="21.18" cy="40.10" rx="2.30" ry="1.50" transform="rotate(206.40 21.18 40.10)" stroke="currentColor" stroke-width="0.30" opacity="0.584"/>
  <ellipse cx="21.18" cy="40.00" rx="1.75" ry="1.15" transform="rotate(210.90 21.18 40.00)" stroke="currentColor" stroke-width="0.30" opacity="0.461"/>
  <ellipse cx="21.18" cy="39.75" rx="1.20" ry="0.80" transform="rotate(215.40 21.18 39.75)" stroke="currentColor" stroke-width="0.38" opacity="0.164"/>
  <ellipse cx="17.28" cy="37.00" rx="3.40" ry="2.20" transform="rotate(216.83 17.28 37.00)" stroke="currentColor" stroke-width="0.38" opacity="0.156"/>
  <ellipse cx="17.28" cy="37.25" rx="2.85" ry="1.85" transform="rotate(221.33 17.28 37.25)" stroke="currentColor" stroke-width="0.30" opacity="0.453"/>
  <ellipse cx="17.28" cy="37.35" rx="2.30" ry="1.50" transform="rotate(225.83 17.28 37.35)" stroke="currentColor" stroke-width="0.30" opacity="0.576"/>
  <ellipse cx="17.28" cy="37.25" rx="1.75" ry="1.15" transform="rotate(230.33 17.28 37.25)" stroke="currentColor" stroke-width="0.30" opacity="0.453"/>
  <ellipse cx="17.28" cy="37.00" rx="1.20" ry="0.80" transform="rotate(234.83 17.28 37.00)" stroke="currentColor" stroke-width="0.38" opacity="0.156"/>
  <ellipse cx="14.65" cy="33.23" rx="3.40" ry="2.20" transform="rotate(236.77 14.65 33.23)" stroke="currentColor" stroke-width="0.38" opacity="0.148"/>
  <ellipse cx="14.65" cy="33.48" rx="2.85" ry="1.85" transform="rotate(241.27 14.65 33.48)" stroke="currentColor" stroke-width="0.30" opacity="0.445"/>
  <ellipse cx="14.65" cy="33.58" rx="2.30" ry="1.50" transform="rotate(245.77 14.65 33.58)" stroke="currentColor" stroke-width="0.30" opacity="0.568"/>
  <ellipse cx="14.65" cy="33.48" rx="1.75" ry="1.15" transform="rotate(250.27 14.65 33.48)" stroke="currentColor" stroke-width="0.30" opacity="0.445"/>
  <ellipse cx="14.65" cy="33.23" rx="1.20" ry="0.80" transform="rotate(254.77 14.65 33.23)" stroke="currentColor" stroke-width="0.38" opacity="0.148"/>
  <ellipse cx="13.73" cy="28.80" rx="3.40" ry="2.20" transform="rotate(257.00 13.73 28.80)" stroke="currentColor" stroke-width="0.38" opacity="0.140"/>
  <ellipse cx="13.73" cy="29.05" rx="2.85" ry="1.85" transform="rotate(261.50 13.73 29.05)" stroke="currentColor" stroke-width="0.30" opacity="0.437"/>
  <ellipse cx="13.73" cy="29.15" rx="2.30" ry="1.50" transform="rotate(266.00 13.73 29.15)" stroke="currentColor" stroke-width="0.30" opacity="0.560"/>
  <ellipse cx="13.73" cy="29.05" rx="1.75" ry="1.15" transform="rotate(270.50 13.73 29.05)" stroke="currentColor" stroke-width="0.30" opacity="0.437"/>
  <ellipse cx="13.73" cy="28.80" rx="1.20" ry="0.80" transform="rotate(275.00 13.73 28.80)" stroke="currentColor" stroke-width="0.38" opacity="0.140"/>
  <ellipse cx="36.33" cy="32.90" rx="3.40" ry="2.20" transform="rotate(98.00 36.33 32.90)" stroke="currentColor" stroke-width="0.38" opacity="0.260"/>
  <ellipse cx="36.33" cy="33.15" rx="2.85" ry="1.85" transform="rotate(102.50 36.33 33.15)" stroke="currentColor" stroke-width="0.30" opacity="0.557"/>
  <ellipse cx="36.33" cy="33.25" rx="2.30" ry="1.50" transform="rotate(107.00 36.33 33.25)" stroke="currentColor" stroke-width="0.30" opacity="0.680"/>
  <ellipse cx="36.33" cy="33.15" rx="1.75" ry="1.15" transform="rotate(111.50 36.33 33.15)" stroke="currentColor" stroke-width="0.30" opacity="0.557"/>
  <ellipse cx="36.33" cy="32.90" rx="1.20" ry="0.80" transform="rotate(116.00 36.33 32.90)" stroke="currentColor" stroke-width="0.38" opacity="0.260"/>
  <ellipse cx="35.90" cy="34.36" rx="3.40" ry="2.20" transform="rotate(118.23 35.90 34.36)" stroke="currentColor" stroke-width="0.38" opacity="0.252"/>
  <ellipse cx="35.90" cy="34.61" rx="2.85" ry="1.85" transform="rotate(122.73 35.90 34.61)" stroke="currentColor" stroke-width="0.30" opacity="0.549"/>
  <ellipse cx="35.90" cy="34.71" rx="2.30" ry="1.50" transform="rotate(127.23 35.90 34.71)" stroke="currentColor" stroke-width="0.30" opacity="0.672"/>
  <ellipse cx="35.90" cy="34.61" rx="1.75" ry="1.15" transform="rotate(131.73 35.90 34.61)" stroke="currentColor" stroke-width="0.30" opacity="0.549"/>
  <ellipse cx="35.90" cy="34.36" rx="1.20" ry="0.80" transform="rotate(136.23 35.90 34.36)" stroke="currentColor" stroke-width="0.38" opacity="0.252"/>
  <ellipse cx="34.64" cy="35.76" rx="3.40" ry="2.20" transform="rotate(138.17 34.64 35.76)" stroke="currentColor" stroke-width="0.38" opacity="0.244"/>
  <ellipse cx="34.64" cy="36.01" rx="2.85" ry="1.85" transform="rotate(142.67 34.64 36.01)" stroke="currentColor" stroke-width="0.30" opacity="0.541"/>
  <ellipse cx="34.64" cy="36.11" rx="2.30" ry="1.50" transform="rotate(147.17 34.64 36.11)" stroke="currentColor" stroke-width="0.30" opacity="0.664"/>
  <ellipse cx="34.64" cy="36.01" rx="1.75" ry="1.15" transform="rotate(151.67 34.64 36.01)" stroke="currentColor" stroke-width="0.30" opacity="0.541"/>
  <ellipse cx="34.64" cy="35.76" rx="1.20" ry="0.80" transform="rotate(156.17 34.64 35.76)" stroke="currentColor" stroke-width="0.38" opacity="0.244"/>
  <ellipse cx="32.56" cy="36.84" rx="3.40" ry="2.20" transform="rotate(157.60 32.56 36.84)" stroke="currentColor" stroke-width="0.38" opacity="0.236"/>
  <ellipse cx="32.56" cy="37.08" rx="2.85" ry="1.85" transform="rotate(162.10 32.56 37.08)" stroke="currentColor" stroke-width="0.30" opacity="0.533"/>
  <ellipse cx="32.56" cy="37.19" rx="2.30" ry="1.50" transform="rotate(166.60 32.56 37.19)" stroke="currentColor" stroke-width="0.30" opacity="0.656"/>
  <ellipse cx="32.56" cy="37.08" rx="1.75" ry="1.15" transform="rotate(171.10 32.56 37.08)" stroke="currentColor" stroke-width="0.30" opacity="0.533"/>
  <ellipse cx="32.56" cy="36.84" rx="1.20" ry="0.80" transform="rotate(175.60 32.56 36.84)" stroke="currentColor" stroke-width="0.38" opacity="0.236"/>
  <ellipse cx="29.86" cy="37.33" rx="3.40" ry="2.20" transform="rotate(176.38 29.86 37.33)" stroke="currentColor" stroke-width="0.38" opacity="0.228"/>
  <ellipse cx="29.86" cy="37.58" rx="2.85" ry="1.85" transform="rotate(180.88 29.86 37.58)" stroke="currentColor" stroke-width="0.30" opacity="0.525"/>
  <ellipse cx="29.86" cy="37.68" rx="2.30" ry="1.50" transform="rotate(185.38 29.86 37.68)" stroke="currentColor" stroke-width="0.30" opacity="0.648"/>
  <ellipse cx="29.86" cy="37.58" rx="1.75" ry="1.15" transform="rotate(189.88 29.86 37.58)" stroke="currentColor" stroke-width="0.30" opacity="0.525"/>
  <ellipse cx="29.86" cy="37.33" rx="1.20" ry="0.80" transform="rotate(194.38 29.86 37.33)" stroke="currentColor" stroke-width="0.38" opacity="0.228"/>
  <ellipse cx="26.83" cy="37.06" rx="3.40" ry="2.20" transform="rotate(194.46 26.83 37.06)" stroke="currentColor" stroke-width="0.38" opacity="0.220"/>
  <ellipse cx="26.83" cy="37.30" rx="2.85" ry="1.85" transform="rotate(198.96 26.83 37.30)" stroke="currentColor" stroke-width="0.30" opacity="0.517"/>
  <ellipse cx="26.83" cy="37.41" rx="2.30" ry="1.50" transform="rotate(203.46 26.83 37.41)" stroke="currentColor" stroke-width="0.30" opacity="0.640"/>
  <ellipse cx="26.83" cy="37.30" rx="1.75" ry="1.15" transform="rotate(207.96 26.83 37.30)" stroke="currentColor" stroke-width="0.30" opacity="0.517"/>
  <ellipse cx="26.83" cy="37.06" rx="1.20" ry="0.80" transform="rotate(212.46 26.83 37.06)" stroke="currentColor" stroke-width="0.38" opacity="0.220"/>
  <ellipse cx="23.85" cy="35.91" rx="3.40" ry="2.20" transform="rotate(211.95 23.85 35.91)" stroke="currentColor" stroke-width="0.38" opacity="0.212"/>
  <ellipse cx="23.85" cy="36.16" rx="2.85" ry="1.85" transform="rotate(216.45 23.85 36.16)" stroke="currentColor" stroke-width="0.30" opacity="0.509"/>
  <ellipse cx="23.85" cy="36.26" rx="2.30" ry="1.50" transform="rotate(220.95 23.85 36.26)" stroke="currentColor" stroke-width="0.30" opacity="0.632"/>
  <ellipse cx="23.85" cy="36.16" rx="1.75" ry="1.15" transform="rotate(225.45 23.85 36.16)" stroke="currentColor" stroke-width="0.30" opacity="0.509"/>
  <ellipse cx="23.85" cy="35.91" rx="1.20" ry="0.80" transform="rotate(229.95 23.85 35.91)" stroke="currentColor" stroke-width="0.38" opacity="0.212"/>
  <ellipse cx="21.37" cy="33.91" rx="3.40" ry="2.20" transform="rotate(229.03 21.37 33.91)" stroke="currentColor" stroke-width="0.38" opacity="0.204"/>
  <ellipse cx="21.37" cy="34.16" rx="2.85" ry="1.85" transform="rotate(233.53 21.37 34.16)" stroke="currentColor" stroke-width="0.30" opacity="0.501"/>
  <ellipse cx="21.37" cy="34.26" rx="2.30" ry="1.50" transform="rotate(238.03 21.37 34.26)" stroke="currentColor" stroke-width="0.30" opacity="0.624"/>
  <ellipse cx="21.37" cy="34.16" rx="1.75" ry="1.15" transform="rotate(242.53 21.37 34.16)" stroke="currentColor" stroke-width="0.30" opacity="0.501"/>
  <ellipse cx="21.37" cy="33.91" rx="1.20" ry="0.80" transform="rotate(247.03 21.37 33.91)" stroke="currentColor" stroke-width="0.38" opacity="0.204"/>
  <ellipse cx="19.80" cy="31.19" rx="3.40" ry="2.20" transform="rotate(245.97 19.80 31.19)" stroke="currentColor" stroke-width="0.38" opacity="0.196"/>
  <ellipse cx="19.80" cy="31.44" rx="2.85" ry="1.85" transform="rotate(250.47 19.80 31.44)" stroke="currentColor" stroke-width="0.30" opacity="0.493"/>
  <ellipse cx="19.80" cy="31.54" rx="2.30" ry="1.50" transform="rotate(254.97 19.80 31.54)" stroke="currentColor" stroke-width="0.30" opacity="0.616"/>
  <ellipse cx="19.80" cy="31.44" rx="1.75" ry="1.15" transform="rotate(259.47 19.80 31.44)" stroke="currentColor" stroke-width="0.30" opacity="0.493"/>
  <ellipse cx="19.80" cy="31.19" rx="1.20" ry="0.80" transform="rotate(263.97 19.80 31.19)" stroke="currentColor" stroke-width="0.38" opacity="0.196"/>
  <ellipse cx="19.50" cy="28.02" rx="3.40" ry="2.20" transform="rotate(263.05 19.50 28.02)" stroke="currentColor" stroke-width="0.38" opacity="0.188"/>
  <ellipse cx="19.50" cy="28.27" rx="2.85" ry="1.85" transform="rotate(267.55 19.50 28.27)" stroke="currentColor" stroke-width="0.30" opacity="0.485"/>
  <ellipse cx="19.50" cy="28.37" rx="2.30" ry="1.50" transform="rotate(272.05 19.50 28.37)" stroke="currentColor" stroke-width="0.30" opacity="0.608"/>
  <ellipse cx="19.50" cy="28.27" rx="1.75" ry="1.15" transform="rotate(276.55 19.50 28.27)" stroke="currentColor" stroke-width="0.30" opacity="0.485"/>
  <ellipse cx="19.50" cy="28.02" rx="1.20" ry="0.80" transform="rotate(281.05 19.50 28.02)" stroke="currentColor" stroke-width="0.38" opacity="0.188"/>
  <ellipse cx="20.67" cy="24.75" rx="3.40" ry="2.20" transform="rotate(280.54 20.67 24.75)" stroke="currentColor" stroke-width="0.38" opacity="0.180"/>
  <ellipse cx="20.67" cy="24.99" rx="2.85" ry="1.85" transform="rotate(285.04 20.67 24.99)" stroke="currentColor" stroke-width="0.30" opacity="0.477"/>
  <ellipse cx="20.67" cy="25.10" rx="2.30" ry="1.50" transform="rotate(289.54 20.67 25.10)" stroke="currentColor" stroke-width="0.30" opacity="0.600"/>
  <ellipse cx="20.67" cy="24.99" rx="1.75" ry="1.15" transform="rotate(294.04 20.67 24.99)" stroke="currentColor" stroke-width="0.30" opacity="0.477"/>
  <ellipse cx="20.67" cy="24.75" rx="1.20" ry="0.80" transform="rotate(298.54 20.67 24.75)" stroke="currentColor" stroke-width="0.38" opacity="0.180"/>
  <ellipse cx="23.37" cy="21.77" rx="3.40" ry="2.20" transform="rotate(298.62 23.37 21.77)" stroke="currentColor" stroke-width="0.38" opacity="0.172"/>
  <ellipse cx="23.37" cy="22.02" rx="2.85" ry="1.85" transform="rotate(303.12 23.37 22.02)" stroke="currentColor" stroke-width="0.30" opacity="0.469"/>
  <ellipse cx="23.37" cy="22.12" rx="2.30" ry="1.50" transform="rotate(307.62 23.37 22.12)" stroke="currentColor" stroke-width="0.30" opacity="0.592"/>
  <ellipse cx="23.37" cy="22.02" rx="1.75" ry="1.15" transform="rotate(312.12 23.37 22.02)" stroke="currentColor" stroke-width="0.30" opacity="0.469"/>
  <ellipse cx="23.37" cy="21.77" rx="1.20" ry="0.80" transform="rotate(316.62 23.37 21.77)" stroke="currentColor" stroke-width="0.38" opacity="0.172"/>
  <ellipse cx="27.43" cy="19.50" rx="3.40" ry="2.20" transform="rotate(317.40 27.43 19.50)" stroke="currentColor" stroke-width="0.38" opacity="0.164"/>
  <ellipse cx="27.43" cy="19.75" rx="2.85" ry="1.85" transform="rotate(321.90 27.43 19.75)" stroke="currentColor" stroke-width="0.30" opacity="0.461"/>
  <ellipse cx="27.43" cy="19.85" rx="2.30" ry="1.50" transform="rotate(326.40 27.43 19.85)" stroke="currentColor" stroke-width="0.30" opacity="0.584"/>
  <ellipse cx="27.43" cy="19.75" rx="1.75" ry="1.15" transform="rotate(330.90 27.43 19.75)" stroke="currentColor" stroke-width="0.30" opacity="0.461"/>
  <ellipse cx="27.43" cy="19.50" rx="1.20" ry="0.80" transform="rotate(335.40 27.43 19.50)" stroke="currentColor" stroke-width="0.38" opacity="0.164"/>
  <ellipse cx="32.52" cy="18.31" rx="3.40" ry="2.20" transform="rotate(336.83 32.52 18.31)" stroke="currentColor" stroke-width="0.38" opacity="0.156"/>
  <ellipse cx="32.52" cy="18.56" rx="2.85" ry="1.85" transform="rotate(341.33 32.52 18.56)" stroke="currentColor" stroke-width="0.30" opacity="0.453"/>
  <ellipse cx="32.52" cy="18.66" rx="2.30" ry="1.50" transform="rotate(345.83 32.52 18.66)" stroke="currentColor" stroke-width="0.30" opacity="0.576"/>
  <ellipse cx="32.52" cy="18.56" rx="1.75" ry="1.15" transform="rotate(350.33 32.52 18.56)" stroke="currentColor" stroke-width="0.30" opacity="0.453"/>
  <ellipse cx="32.52" cy="18.31" rx="1.20" ry="0.80" transform="rotate(354.83 32.52 18.31)" stroke="currentColor" stroke-width="0.38" opacity="0.156"/>
  <ellipse cx="38.13" cy="18.46" rx="3.40" ry="2.20" transform="rotate(356.77 38.13 18.46)" stroke="currentColor" stroke-width="0.38" opacity="0.148"/>
  <ellipse cx="38.13" cy="18.71" rx="2.85" ry="1.85" transform="rotate(361.27 38.13 18.71)" stroke="currentColor" stroke-width="0.30" opacity="0.445"/>
  <ellipse cx="38.13" cy="18.81" rx="2.30" ry="1.50" transform="rotate(365.77 38.13 18.81)" stroke="currentColor" stroke-width="0.30" opacity="0.568"/>
  <ellipse cx="38.13" cy="18.71" rx="1.75" ry="1.15" transform="rotate(370.27 38.13 18.71)" stroke="currentColor" stroke-width="0.30" opacity="0.445"/>
  <ellipse cx="38.13" cy="18.46" rx="1.20" ry="0.80" transform="rotate(374.77 38.13 18.46)" stroke="currentColor" stroke-width="0.38" opacity="0.148"/>
  <ellipse cx="43.64" cy="20.07" rx="3.40" ry="2.20" transform="rotate(377.00 43.64 20.07)" stroke="currentColor" stroke-width="0.38" opacity="0.140"/>
  <ellipse cx="43.64" cy="20.32" rx="2.85" ry="1.85" transform="rotate(381.50 43.64 20.32)" stroke="currentColor" stroke-width="0.30" opacity="0.437"/>
  <ellipse cx="43.64" cy="20.42" rx="2.30" ry="1.50" transform="rotate(386.00 43.64 20.42)" stroke="currentColor" stroke-width="0.30" opacity="0.560"/>
  <ellipse cx="43.64" cy="20.32" rx="1.75" ry="1.15" transform="rotate(390.50 43.64 20.32)" stroke="currentColor" stroke-width="0.30" opacity="0.437"/>
  <ellipse cx="43.64" cy="20.07" rx="1.20" ry="0.80" transform="rotate(395.00 43.64 20.07)" stroke="currentColor" stroke-width="0.38" opacity="0.140"/>
  <ellipse cx="27.67" cy="32.90" rx="3.40" ry="2.20" transform="rotate(218.00 27.67 32.90)" stroke="currentColor" stroke-width="0.38" opacity="0.260"/>
  <ellipse cx="27.67" cy="33.15" rx="2.85" ry="1.85" transform="rotate(222.50 27.67 33.15)" stroke="currentColor" stroke-width="0.30" opacity="0.557"/>
  <ellipse cx="27.67" cy="33.25" rx="2.30" ry="1.50" transform="rotate(227.00 27.67 33.25)" stroke="currentColor" stroke-width="0.30" opacity="0.680"/>
  <ellipse cx="27.67" cy="33.15" rx="1.75" ry="1.15" transform="rotate(231.50 27.67 33.15)" stroke="currentColor" stroke-width="0.30" opacity="0.557"/>
  <ellipse cx="27.67" cy="32.90" rx="1.20" ry="0.80" transform="rotate(236.00 27.67 32.90)" stroke="currentColor" stroke-width="0.38" opacity="0.260"/>
  <ellipse cx="26.22" cy="31.89" rx="3.40" ry="2.20" transform="rotate(238.23 26.22 31.89)" stroke="currentColor" stroke-width="0.38" opacity="0.252"/>
  <ellipse cx="26.22" cy="32.13" rx="2.85" ry="1.85" transform="rotate(242.73 26.22 32.13)" stroke="currentColor" stroke-width="0.30" opacity="0.549"/>
  <ellipse cx="26.22" cy="32.24" rx="2.30" ry="1.50" transform="rotate(247.23 26.22 32.24)" stroke="currentColor" stroke-width="0.30" opacity="0.672"/>
  <ellipse cx="26.22" cy="32.13" rx="1.75" ry="1.15" transform="rotate(251.73 26.22 32.13)" stroke="currentColor" stroke-width="0.30" opacity="0.549"/>
  <ellipse cx="26.22" cy="31.89" rx="1.20" ry="0.80" transform="rotate(256.23 26.22 31.89)" stroke="currentColor" stroke-width="0.38" opacity="0.252"/>
  <ellipse cx="25.25" cy="30.35" rx="3.40" ry="2.20" transform="rotate(258.17 25.25 30.35)" stroke="currentColor" stroke-width="0.38" opacity="0.244"/>
  <ellipse cx="25.25" cy="30.60" rx="2.85" ry="1.85" transform="rotate(262.67 25.25 30.60)" stroke="currentColor" stroke-width="0.30" opacity="0.541"/>
  <ellipse cx="25.25" cy="30.70" rx="2.30" ry="1.50" transform="rotate(267.17 25.25 30.70)" stroke="currentColor" stroke-width="0.30" opacity="0.664"/>
  <ellipse cx="25.25" cy="30.60" rx="1.75" ry="1.15" transform="rotate(271.67 25.25 30.60)" stroke="currentColor" stroke-width="0.30" opacity="0.541"/>
  <ellipse cx="25.25" cy="30.35" rx="1.20" ry="0.80" transform="rotate(276.17 25.25 30.35)" stroke="currentColor" stroke-width="0.38" opacity="0.244"/>
  <ellipse cx="25.07" cy="28.45" rx="3.40" ry="2.20" transform="rotate(277.60 25.07 28.45)" stroke="currentColor" stroke-width="0.38" opacity="0.236"/>
  <ellipse cx="25.07" cy="28.70" rx="2.85" ry="1.85" transform="rotate(282.10 25.07 28.70)" stroke="currentColor" stroke-width="0.30" opacity="0.533"/>
  <ellipse cx="25.07" cy="28.80" rx="2.30" ry="1.50" transform="rotate(286.60 25.07 28.80)" stroke="currentColor" stroke-width="0.30" opacity="0.656"/>
  <ellipse cx="25.07" cy="28.70" rx="1.75" ry="1.15" transform="rotate(291.10 25.07 28.70)" stroke="currentColor" stroke-width="0.30" opacity="0.533"/>
  <ellipse cx="25.07" cy="28.45" rx="1.20" ry="0.80" transform="rotate(295.60 25.07 28.45)" stroke="currentColor" stroke-width="0.38" opacity="0.236"/>
  <ellipse cx="25.86" cy="26.43" rx="3.40" ry="2.20" transform="rotate(296.38 25.86 26.43)" stroke="currentColor" stroke-width="0.38" opacity="0.228"/>
  <ellipse cx="25.86" cy="26.67" rx="2.85" ry="1.85" transform="rotate(300.88 25.86 26.67)" stroke="currentColor" stroke-width="0.30" opacity="0.525"/>
  <ellipse cx="25.86" cy="26.78" rx="2.30" ry="1.50" transform="rotate(305.38 25.86 26.78)" stroke="currentColor" stroke-width="0.30" opacity="0.648"/>
  <ellipse cx="25.86" cy="26.67" rx="1.75" ry="1.15" transform="rotate(309.88 25.86 26.67)" stroke="currentColor" stroke-width="0.30" opacity="0.525"/>
  <ellipse cx="25.86" cy="26.43" rx="1.20" ry="0.80" transform="rotate(314.38 25.86 26.43)" stroke="currentColor" stroke-width="0.38" opacity="0.228"/>
  <ellipse cx="27.69" cy="24.57" rx="3.40" ry="2.20" transform="rotate(314.46 27.69 24.57)" stroke="currentColor" stroke-width="0.38" opacity="0.220"/>
  <ellipse cx="27.69" cy="24.81" rx="2.85" ry="1.85" transform="rotate(318.96 27.69 24.81)" stroke="currentColor" stroke-width="0.30" opacity="0.517"/>
  <ellipse cx="27.69" cy="24.92" rx="2.30" ry="1.50" transform="rotate(323.46 27.69 24.92)" stroke="currentColor" stroke-width="0.30" opacity="0.640"/>
  <ellipse cx="27.69" cy="24.81" rx="1.75" ry="1.15" transform="rotate(327.96 27.69 24.81)" stroke="currentColor" stroke-width="0.30" opacity="0.517"/>
  <ellipse cx="27.69" cy="24.57" rx="1.20" ry="0.80" transform="rotate(332.46 27.69 24.57)" stroke="currentColor" stroke-width="0.38" opacity="0.220"/>
  <ellipse cx="30.48" cy="23.18" rx="3.40" ry="2.20" transform="rotate(331.95 30.48 23.18)" stroke="currentColor" stroke-width="0.38" opacity="0.212"/>
  <ellipse cx="30.48" cy="23.43" rx="2.85" ry="1.85" transform="rotate(336.45 30.48 23.43)" stroke="currentColor" stroke-width="0.30" opacity="0.509"/>
  <ellipse cx="30.48" cy="23.53" rx="2.30" ry="1.50" transform="rotate(340.95 30.48 23.53)" stroke="currentColor" stroke-width="0.30" opacity="0.632"/>
  <ellipse cx="30.48" cy="23.43" rx="1.75" ry="1.15" transform="rotate(345.45 30.48 23.43)" stroke="currentColor" stroke-width="0.30" opacity="0.509"/>
  <ellipse cx="30.48" cy="23.18" rx="1.20" ry="0.80" transform="rotate(349.95 30.48 23.18)" stroke="currentColor" stroke-width="0.38" opacity="0.212"/>
  <ellipse cx="34.00" cy="22.55" rx="3.40" ry="2.20" transform="rotate(349.03 34.00 22.55)" stroke="currentColor" stroke-width="0.38" opacity="0.204"/>
  <ellipse cx="34.00" cy="22.80" rx="2.85" ry="1.85" transform="rotate(353.53 34.00 22.80)" stroke="currentColor" stroke-width="0.30" opacity="0.501"/>
  <ellipse cx="34.00" cy="22.90" rx="2.30" ry="1.50" transform="rotate(358.03 34.00 22.90)" stroke="currentColor" stroke-width="0.30" opacity="0.624"/>
  <ellipse cx="34.00" cy="22.80" rx="1.75" ry="1.15" transform="rotate(362.53 34.00 22.80)" stroke="currentColor" stroke-width="0.30" opacity="0.501"/>
  <ellipse cx="34.00" cy="22.55" rx="1.20" ry="0.80" transform="rotate(367.03 34.00 22.55)" stroke="currentColor" stroke-width="0.38" opacity="0.204"/>
  <ellipse cx="37.88" cy="22.87" rx="3.40" ry="2.20" transform="rotate(365.97 37.88 22.87)" stroke="currentColor" stroke-width="0.38" opacity="0.196"/>
  <ellipse cx="37.88" cy="23.12" rx="2.85" ry="1.85" transform="rotate(370.47 37.88 23.12)" stroke="currentColor" stroke-width="0.30" opacity="0.493"/>
  <ellipse cx="37.88" cy="23.22" rx="2.30" ry="1.50" transform="rotate(374.97 37.88 23.22)" stroke="currentColor" stroke-width="0.30" opacity="0.616"/>
  <ellipse cx="37.88" cy="23.12" rx="1.75" ry="1.15" transform="rotate(379.47 37.88 23.12)" stroke="currentColor" stroke-width="0.30" opacity="0.493"/>
  <ellipse cx="37.88" cy="22.87" rx="1.20" ry="0.80" transform="rotate(383.97 37.88 22.87)" stroke="currentColor" stroke-width="0.38" opacity="0.196"/>
  <ellipse cx="41.64" cy="24.26" rx="3.40" ry="2.20" transform="rotate(383.05 41.64 24.26)" stroke="currentColor" stroke-width="0.38" opacity="0.188"/>
  <ellipse cx="41.64" cy="24.51" rx="2.85" ry="1.85" transform="rotate(387.55 41.64 24.51)" stroke="currentColor" stroke-width="0.30" opacity="0.485"/>
  <ellipse cx="41.64" cy="24.61" rx="2.30" ry="1.50" transform="rotate(392.05 41.64 24.61)" stroke="currentColor" stroke-width="0.30" opacity="0.608"/>
  <ellipse cx="41.64" cy="24.51" rx="1.75" ry="1.15" transform="rotate(396.55 41.64 24.51)" stroke="currentColor" stroke-width="0.30" opacity="0.485"/>
  <ellipse cx="41.64" cy="24.26" rx="1.20" ry="0.80" transform="rotate(401.05 41.64 24.26)" stroke="currentColor" stroke-width="0.38" opacity="0.188"/>
  <ellipse cx="44.79" cy="26.67" rx="3.40" ry="2.20" transform="rotate(400.54 44.79 26.67)" stroke="currentColor" stroke-width="0.38" opacity="0.180"/>
  <ellipse cx="44.79" cy="26.92" rx="2.85" ry="1.85" transform="rotate(405.04 44.79 26.92)" stroke="currentColor" stroke-width="0.30" opacity="0.477"/>
  <ellipse cx="44.79" cy="27.02" rx="2.30" ry="1.50" transform="rotate(409.54 44.79 27.02)" stroke="currentColor" stroke-width="0.30" opacity="0.600"/>
  <ellipse cx="44.79" cy="26.92" rx="1.75" ry="1.15" transform="rotate(414.04 44.79 26.92)" stroke="currentColor" stroke-width="0.30" opacity="0.477"/>
  <ellipse cx="44.79" cy="26.67" rx="1.20" ry="0.80" transform="rotate(418.54 44.79 26.67)" stroke="currentColor" stroke-width="0.38" opacity="0.180"/>
  <ellipse cx="46.83" cy="29.93" rx="3.40" ry="2.20" transform="rotate(418.62 46.83 29.93)" stroke="currentColor" stroke-width="0.38" opacity="0.172"/>
  <ellipse cx="46.83" cy="30.18" rx="2.85" ry="1.85" transform="rotate(423.12 46.83 30.18)" stroke="currentColor" stroke-width="0.30" opacity="0.469"/>
  <ellipse cx="46.83" cy="30.28" rx="2.30" ry="1.50" transform="rotate(427.62 46.83 30.28)" stroke="currentColor" stroke-width="0.30" opacity="0.592"/>
  <ellipse cx="46.83" cy="30.18" rx="1.75" ry="1.15" transform="rotate(432.12 46.83 30.18)" stroke="currentColor" stroke-width="0.30" opacity="0.469"/>
  <ellipse cx="46.83" cy="29.93" rx="1.20" ry="0.80" transform="rotate(436.62 46.83 29.93)" stroke="currentColor" stroke-width="0.38" opacity="0.172"/>
  <ellipse cx="47.38" cy="33.74" rx="3.40" ry="2.20" transform="rotate(437.40 47.38 33.74)" stroke="currentColor" stroke-width="0.38" opacity="0.164"/>
  <ellipse cx="47.38" cy="33.99" rx="2.85" ry="1.85" transform="rotate(441.90 47.38 33.99)" stroke="currentColor" stroke-width="0.30" opacity="0.461"/>
  <ellipse cx="47.38" cy="34.09" rx="2.30" ry="1.50" transform="rotate(446.40 47.38 34.09)" stroke="currentColor" stroke-width="0.30" opacity="0.584"/>
  <ellipse cx="47.38" cy="33.99" rx="1.75" ry="1.15" transform="rotate(450.90 47.38 33.99)" stroke="currentColor" stroke-width="0.30" opacity="0.461"/>
  <ellipse cx="47.38" cy="33.74" rx="1.20" ry="0.80" transform="rotate(455.40 47.38 33.74)" stroke="currentColor" stroke-width="0.38" opacity="0.164"/>
  <ellipse cx="46.19" cy="37.69" rx="3.40" ry="2.20" transform="rotate(456.83 46.19 37.69)" stroke="currentColor" stroke-width="0.38" opacity="0.156"/>
  <ellipse cx="46.19" cy="37.94" rx="2.85" ry="1.85" transform="rotate(461.33 46.19 37.94)" stroke="currentColor" stroke-width="0.30" opacity="0.453"/>
  <ellipse cx="46.19" cy="38.04" rx="2.30" ry="1.50" transform="rotate(465.83 46.19 38.04)" stroke="currentColor" stroke-width="0.30" opacity="0.576"/>
  <ellipse cx="46.19" cy="37.94" rx="1.75" ry="1.15" transform="rotate(470.33 46.19 37.94)" stroke="currentColor" stroke-width="0.30" opacity="0.453"/>
  <ellipse cx="46.19" cy="37.69" rx="1.20" ry="0.80" transform="rotate(474.83 46.19 37.69)" stroke="currentColor" stroke-width="0.38" opacity="0.156"/>
  <ellipse cx="43.22" cy="41.31" rx="3.40" ry="2.20" transform="rotate(476.77 43.22 41.31)" stroke="currentColor" stroke-width="0.38" opacity="0.148"/>
  <ellipse cx="43.22" cy="41.55" rx="2.85" ry="1.85" transform="rotate(481.27 43.22 41.55)" stroke="currentColor" stroke-width="0.30" opacity="0.445"/>
  <ellipse cx="43.22" cy="41.66" rx="2.30" ry="1.50" transform="rotate(485.77 43.22 41.66)" stroke="currentColor" stroke-width="0.30" opacity="0.568"/>
  <ellipse cx="43.22" cy="41.55" rx="1.75" ry="1.15" transform="rotate(490.27 43.22 41.55)" stroke="currentColor" stroke-width="0.30" opacity="0.445"/>
  <ellipse cx="43.22" cy="41.31" rx="1.20" ry="0.80" transform="rotate(494.77 43.22 41.31)" stroke="currentColor" stroke-width="0.38" opacity="0.148"/>
  <ellipse cx="38.63" cy="44.13" rx="3.40" ry="2.20" transform="rotate(497.00 38.63 44.13)" stroke="currentColor" stroke-width="0.38" opacity="0.140"/>
  <ellipse cx="38.63" cy="44.37" rx="2.85" ry="1.85" transform="rotate(501.50 38.63 44.37)" stroke="currentColor" stroke-width="0.30" opacity="0.437"/>
  <ellipse cx="38.63" cy="44.48" rx="2.30" ry="1.50" transform="rotate(506.00 38.63 44.48)" stroke="currentColor" stroke-width="0.30" opacity="0.560"/>
  <ellipse cx="38.63" cy="44.37" rx="1.75" ry="1.15" transform="rotate(510.50 38.63 44.37)" stroke="currentColor" stroke-width="0.30" opacity="0.437"/>
  <ellipse cx="38.63" cy="44.13" rx="1.20" ry="0.80" transform="rotate(515.00 38.63 44.13)" stroke="currentColor" stroke-width="0.38" opacity="0.140"/>
</g>
</svg>
