<?xml version="1.0" encoding="UTF-8"?>
<svg xmlns="http://www.w3.org/2000/svg" viewBox="0 0 64 64" fill="none" color="currentColor">

<g>
  <path d="M32 9 L34.2 14.5 L29.8 14.5 Z" fill="currentColor"/>
  <circle cx="31.60" cy="14.00" r="0.36" fill="currentColor" opacity="0.948"/>
  <circle cx="32.95" cy="14.00" r="0.36" fill="currentColor" opacity="0.948"/>
  <circle cx="30.25" cy="15.35" r="0.36" fill="currentColor" opacity="0.929"/>
  <circle cx="31.60" cy="15.35" r="0.36" fill="currentColor" opacity="0.929"/>
  <circle cx="32.95" cy="15.35" r="0.36" fill="currentColor" opacity="0.929"/>
  <circle cx="30.25" cy="16.70" r="0.35" fill="currentColor" opacity="0.908"/>
  <circle cx="31.60" cy="16.70" r="0.35" fill="currentColor" opacity="0.908"/>
  <circle cx="32.95" cy="16.70" r="0.35" fill="currentColor" opacity="0.908"/>
  <circle cx="34.30" cy="16.70" r="0.35" fill="currentColor" opacity="0.908"/>
  <circle cx="28.90" cy="18.05" r="0.34" fill="currentColor" opacity="0.886"/>
  <circle cx="30.25" cy="18.05" r="0.34" fill="currentColor" opacity="0.886"/>
  <circle cx="31.60" cy="18.05" r="0.34" fill="currentColor" opacity="0.886"/>
  <circle cx="32.95" cy="18.05" r="0.34" fill="currentColor" opacity="0.886"/>
  <circle cx="34.30" cy="18.05" r="0.34" fill="currentColor" opacity="0.886"/>
  <circle cx="28.90" cy="19.40" r="0.34" fill="currentColor" opacity="0.863"/>
  <circle cx="30.25" cy="19.40" r="0.34" fill="currentColor" opacity="0.863"/>
  <circle cx="31.60" cy="19.40" r="0.34" fill="currentColor" opacity="0.863"/>
  <circle cx="32.95" cy="19.40" r="0.34" fill="currentColor" opacity="0.863"/>
  <circle cx="34.30" cy="19.40" r="0.34" fill="currentColor" opacity="0.863"/>
  <circle cx="35.65" cy="19.40" r="0.34" fill="currentColor" opacity="0.863"/>
  <circle cx="28.90" cy="20.75" r="0.33" fill="currentColor" opacity="0.839"/>
  <circle cx="30.25" cy="20.75" r="0.33" fill="currentColor" opacity="0.839"/>
  <circle cx="31.60" cy="20.75" r="0.33" fill="currentColor" opacity="0.839"/>
  <circle cx="32.95" cy="20.75" r="0.33" fill="currentColor" opacity="0.839"/>
  <circle cx="34.30" cy="20.75" r="0.33" fill="currentColor" opacity="0.839"/>
  <circle cx="35.65" cy="20.75" r="0.33" fill="currentColor" opacity="0.839"/>
  <circle cx="27.55" cy="22.10" r="0.32" fill="currentColor" opacity="0.814"/>
  <circle cx="28.90" cy="22.10" r="0.32" fill="currentColor" opacity="0.814"/>
  <circle cx="30.25" cy="22.10" r="0.32" fill="currentColor" opacity="0.814"/>
  <circle cx="31.60" cy="22.10" r="0.32" fill="currentColor" opacity="0.814"/>
  <circle cx="32.95" cy="22.10" r="0.32" fill="currentColor" opacity="0.814"/>
  <circle cx="34.30" cy="22.10" r="0.32" fill="currentColor" opacity="0.814"/>
  <circle cx="35.65" cy="22.10" r="0.32" fill="currentColor" opacity="0.814"/>
  <circle cx="27.55" cy="23.45" r="0.32" fill="currentColor" opacity="0.789"/>
  <circle cx="28.90" cy="23.45" r="0.32" fill="currentColor" opacity="0.789"/>
  <circle cx="30.25" cy="23.45" r="0.32" fill="currentColor" opacity="0.789"/>
  <circle cx="31.60" cy="23.45" r="0.32" fill="currentColor" opacity="0.789"/>
  <circle cx="32.95" cy="23.45" r="0.32" fill="currentColor" opacity="0.789"/>
  <circle cx="34.30" cy="23.45" r="0.32" fill="currentColor" opacity="0.789"/>
  <circle cx="35.65" cy="23.45" r="0.32" fill="currentColor" opacity="0.789"/>
  <circle cx="37.00" cy="23.45" r="0.32" fill="currentColor" opacity="0.789"/>
  <circle cx="26.20" cy="24.80" r="0.31" fill="currentColor" opacity="0.763"/>
  <circle cx="27.55" cy="24.80" r="0.31" fill="currentColor" opacity="0.763"/>
  <circle cx="28.90" cy="24.80" r="0.31" fill="currentColor" opacity="0.763"/>
  <circle cx="30.25" cy="24.80" r="0.31" fill="currentColor" opacity="0.763"/>
  <circle cx="31.60" cy="24.80" r="0.31" fill="currentColor" opacity="0.763"/>
  <circle cx="32.95" cy="24.80" r="0.31" fill="currentColor" opacity="0.763"/>
  <circle cx="34.30" cy="24.80" r="0.31" fill="currentColor" opacity="0.763"/>
  <circle cx="35.65" cy="24.80" r="0.31" fill="currentColor" opacity="0.763"/>
  <circle cx="37.00" cy="24.80" r="0.31" fill="currentColor" opacity="0.763"/>
  <circle cx="26.20" cy="26.15" r="0.30" fill="currentColor" opacity="0.736"/>
  <circle cx="27.55" cy="26.15" r="0.30" fill="currentColor" opacity="0.736"/>
  <circle cx="28.90" cy="26.15" r="0.30" fill="currentColor" opacity="0.736"/>
  <circle cx="30.25" cy="26.15" r="0.30" fill="currentColor" opacity="0.736"/>
  <circle cx="31.60" cy="26.15" r="0.30" fill="currentColor" opacity="0.736"/>
  <circle cx="32.95" cy="26.15" r="0.30" fill="currentColor" opacity="0.736"/>
  <circle cx="34.30" cy="26.15" r="0.30" fill="currentColor" opacity="0.736"/>
  <circle cx="35.65" cy="26.15" r="0.30" fill="currentColor" opacity="0.736"/>
  <circle cx="37.00" cy="26.15" r="0.30" fill="currentColor" opacity="0.736"/>
  <circle cx="38.35" cy="26.15" r="0.30" fill="currentColor" opacity="0.736"/>
  <circle cx="24.85" cy="27.50" r="0.30" fill="currentColor" opacity="0.708"/>
  <circle cx="26.20" cy="27.50" r="0.30" fill="currentColor" opacity="0.708"/>
  <circle cx="27.55" cy="27.50" r="0.30" fill="currentColor" opacity="0.708"/>
  <circle cx="28.90" cy="27.50" r="0.30" fill="currentColor" opacity="0.708"/>
  <circle cx="30.25" cy="27.50" r="0.30" fill="currentColor" opacity="0.708"/>
  <circle cx="31.60" cy="27.50" r="0.30" fill="currentColor" opacity="0.708"/>
  <circle cx="32.95" cy="27.50" r="0.30" fill="currentColor" opacity="0.708"/>
  <circle cx="34.30" cy="27.50" r="0.30" fill="currentColor" opacity="0.708"/>
  <circle cx="35.65" cy="27.50" r="0.30" fill="currentColor" opacity="0.708"/>
  <circle cx="37.00" cy="27.50" r="0.30" fill="currentColor" opacity="0.708"/>
  <circle cx="38.35" cy="27.50" r="0.30" fill="currentColor" opacity="0.708"/>
  <circle cx="24.85" cy="28.85" r="0.29" fill="currentColor" opacity="0.680"/>
  <circle cx="26.20" cy="28.85" r="0.29" fill="currentColor" opacity="0.680"/>
  <circle cx="27.55" cy="28.85" r="0.29" fill="currentColor" opacity="0.680"/>
  <circle cx="28.90" cy="28.85" r="0.29" fill="currentColor" opacity="0.680"/>
  <circle cx="30.25" cy="28.85" r="0.29" fill="currentColor" opacity="0.680"/>
  <circle cx="31.60" cy="28.85" r="0.29" fill="currentColor" opacity="0.680"/>
  <circle cx="32.95" cy="28.85" r="0.29" fill="currentColor" opacity="0.680"/>
  <circle cx="34.30" cy="28.85" r="0.29" fill="currentColor" opacity="0.680"/>
  <circle cx="35.65" cy="28.85" r="0.29" fill="currentColor" opacity="0.680"/>
  <circle cx="37.00" cy="28.85" r="0.29" fill="currentColor" opacity="0.680"/>
  <circle cx="38.35" cy="28.85" r="0.29" fill="currentColor" opacity="0.680"/>
  <circle cx="39.70" cy="28.85" r="0.29" fill="currentColor" opacity="0.680"/>
  <circle cx="24.85" cy="30.20" r="0.28" fill="currentColor" opacity="0.652"/>
  <circle cx="26.20" cy="30.20" r="0.28" fill="currentColor" opacity="0.652"/>
  <circle cx="27.55" cy="30.20" r="0.28" fill="currentColor" opacity="0.652"/>
  <circle cx="28.90" cy="30.20" r="0.28" fill="currentColor" opacity="0.652"/>
  <circle cx="30.25" cy="30.20" r="0.28" fill="currentColor" opacity="0.652"/>
  <circle cx="31.60" cy="30.20" r="0.28" fill="currentColor" opacity="0.652"/>
  <circle cx="32.95" cy="30.20" r="0.28" fill="currentColor" opacity="0.652"/>
  <circle cx="34.30" cy="30.20" r="0.28" fill="currentColor" opacity="0.652"/>
  <circle cx="35.65" cy="30.20" r="0.28" fill="currentColor" opacity="0.652"/>
  <circle cx="37.00" cy="30.20" r="0.28" fill="currentColor" opacity="0.652"/>
  <circle cx="38.35" cy="30.20" r="0.28" fill="currentColor" opacity="0.652"/>
  <circle cx="39.70" cy="30.20" r="0.28" fill="currentColor" opacity="0.652"/>
  <circle cx="23.50" cy="31.55" r="0.27" fill="currentColor" opacity="0.622"/>
  <circle cx="24.85" cy="31.55" r="0.27" fill="currentColor" opacity="0.622"/>
  <circle cx="26.20" cy="31.55" r="0.27" fill="currentColor" opacity="0.622"/>
  <circle cx="27.55" cy="31.55" r="0.27" fill="currentColor" opacity="0.622"/>
  <circle cx="28.90" cy="31.55" r="0.27" fill="currentColor" opacity="0.622"/>
  <circle cx="30.25" cy="31.55" r="0.27" fill="currentColor" opacity="0.622"/>
  <circle cx="31.60" cy="31.55" r="0.27" fill="currentColor" opacity="0.622"/>
  <circle cx="32.95" cy="31.55" r="0.27" fill="currentColor" opacity="0.622"/>
  <circle cx="34.30" cy="31.55" r="0.27" fill="currentColor" opacity="0.622"/>
  <circle cx="35.65" cy="31.55" r="0.27" fill="currentColor" opacity="0.622"/>
  <circle cx="37.00" cy="31.55" r="0.27" fill="currentColor" opacity="0.622"/>
  <circle cx="38.35" cy="31.55" r="0.27" fill="currentColor" opacity="0.622"/>
  <circle cx="39.70" cy="31.55" r="0.27" fill="currentColor" opacity="0.622"/>
  <circle cx="41.05" cy="31.55" r="0.27" fill="currentColor" opacity="0.622"/>
  <circle cx="23.50" cy="32.90" r="0.27" fill="currentColor" opacity="0.593"/>
  <circle cx="24.85" cy="32.90" r="0.27" fill="currentColor" opacity="0.593"/>
  <circle cx="26.20" cy="32.90" r="0.27" fill="currentColor" opacity="0.593"/>
  <circle cx="27.55" cy="32.90" r="0.27" fill="currentColor" opacity="0.593"/>
  <circle cx="28.90" cy="32.90" r="0.27" fill="currentColor" opacity="0.593"/>
  <circle cx="30.25" cy="32.90" r="0.27" fill="currentColor" opacity="0.593"/>
  <circle cx="31.60" cy="32.90" r="0.27" fill="currentColor" opacity="0.593"/>
  <circle cx="32.95" cy="32.90" r="0.27" fill="currentColor" opacity="0.593"/>
  <circle cx="34.30" cy="32.90" r="0.27" fill="currentColor" opacity="0.593"/>
  <circle cx="35.65" cy="32.90" r="0.27" fill="currentColor" opacity="0.593"/>
  <circle cx="37.00" cy="32.90" r="0.27" fill="currentColor" opacity="0.593"/>
  <circle cx="38.35" cy="32.90" r="0.27" fill="currentColor" opacity="0.593"/>
  <circle cx="39.70" cy="32.90" r="0.27" fill="currentColor" opacity="0.593"/>
  <circle cx="41.05" cy="32.90" r="0.27" fill="currentColor" opacity="0.593"/>
  <circle cx="22.15" cy="34.25" r="0.26" fill="currentColor" opacity="0.563"/>
  <circle cx="23.50" cy="34.25" r="0.26" fill="currentColor" opacity="0.563"/>
  <circle cx="24.85" cy="34.25" r="0.26" fill="currentColor" opacity="0.563"/>
  <circle cx="26.20" cy="34.25" r="0.26" fill="currentColor" opacity="0.563"/>
  <circle cx="27.55" cy="34.25" r="0.26" fill="currentColor" opacity="0.563"/>
  <circle cx="28.90" cy="34.25" r="0.26" fill="currentColor" opacity="0.563"/>
  <circle cx="30.25" cy="34.25" r="0.26" fill="currentColor" opacity="0.563"/>
  <circle cx="31.60" cy="34.25" r="0.26" fill="currentColor" opacity="0.563"/>
  <circle cx="32.95" cy="34.25" r="0.26" fill="currentColor" opacity="0.563"/>
  <circle cx="34.30" cy="34.25" r="0.26" fill="currentColor" opacity="0.563"/>
  <circle cx="35.65" cy="34.25" r="0.26" fill="currentColor" opacity="0.563"/>
  <circle cx="37.00" cy="34.25" r="0.26" fill="currentColor" opacity="0.563"/>
  <circle cx="38.35" cy="34.25" r="0.26" fill="currentColor" opacity="0.563"/>
  <circle cx="39.70" cy="34.25" r="0.26" fill="currentColor" opacity="0.563"/>
  <circle cx="41.05" cy="34.25" r="0.26" fill="currentColor" opacity="0.563"/>
  <circle cx="22.15" cy="35.60" r="0.25" fill="currentColor" opacity="0.532"/>
  <circle cx="23.50" cy="35.60" r="0.25" fill="currentColor" opacity="0.532"/>
  <circle cx="24.85" cy="35.60" r="0.25" fill="currentColor" opacity="0.532"/>
  <circle cx="26.20" cy="35.60" r="0.25" fill="currentColor" opacity="0.532"/>
  <circle cx="27.55" cy="35.60" r="0.25" fill="currentColor" opacity="0.532"/>
  <circle cx="28.90" cy="35.60" r="0.25" fill="currentColor" opacity="0.532"/>
  <circle cx="30.25" cy="35.60" r="0.25" fill="currentColor" opacity="0.532"/>
  <circle cx="31.60" cy="35.60" r="0.25" fill="currentColor" opacity="0.532"/>
  <circle cx="32.95" cy="35.60" r="0.25" fill="currentColor" opacity="0.532"/>
  <circle cx="34.30" cy="35.60" r="0.25" fill="currentColor" opacity="0.532"/>
  <circle cx="35.65" cy="35.60" r="0.25" fill="currentColor" opacity="0.532"/>
  <circle cx="37.00" cy="35.60" r="0.25" fill="currentColor" opacity="0.532"/>
  <circle cx="38.35" cy="35.60" r="0.25" fill="currentColor" opacity="0.532"/>
  <circle cx="39.70" cy="35.60" r="0.25" fill="currentColor" opacity="0.532"/>
  <circle cx="41.05" cy="35.60" r="0.25" fill="currentColor" opacity="0.532"/>
  <circle cx="42.40" cy="35.60" r="0.25" fill="currentColor" opacity="0.532"/>
  <circle cx="20.80" cy="36.95" r="0.25" fill="currentColor" opacity="0.501"/>
  <circle cx="22.15" cy="36.95" r="0.25" fill="currentColor" opacity="0.501"/>
  <circle cx="23.50" cy="36.95" r="0.25" fill="currentColor" opacity="0.501"/>
  <circle cx="24.85" cy="36.95" r="0.25" fill="currentColor" opacity="0.501"/>
  <circle cx="26.20" cy="36.95" r="0.25" fill="currentColor" opacity="0.501"/>
  <circle cx="27.55" cy="36.95" r="0.25" fill="currentColor" opacity="0.501"/>
  <circle cx="28.90" cy="36.95" r="0.25" fill="currentColor" opacity="0.501"/>
  <circle cx="30.25" cy="36.95" r="0.25" fill="currentColor" opacity="0.501"/>
  <circle cx="31.60" cy="36.95" r="0.25" fill="currentColor" opacity="0.501"/>
  <circle cx="32.95" cy="36.95" r="0.25" fill="currentColor" opacity="0.501"/>
  <circle cx="34.30" cy="36.95" r="0.25" fill="currentColor" opacity="0.501"/>
  <circle cx="35.65" cy="36.95" r="0.25" fill="currentColor" opacity="0.501"/>
  <circle cx="37.00" cy="36.95" r="0.25" fill="currentColor" opacity="0.501"/>
  <circle cx="38.35" cy="36.95" r="0.25" fill="currentColor" opacity="0.501"/>
  <circle cx="39.70" cy="36.95" r="0.25" fill="currentColor" opacity="0.501"/>
  <circle cx="41.05" cy="36.95" r="0.25" fill="currentColor" opacity="0.501"/>
  <circle cx="42.40" cy="36.95" r="0.25" fill="currentColor" opacity="0.501"/>
  <circle cx="20.80" cy="38.30" r="0.24" fill="currentColor" opacity="0.470"/>
  <circle cx="22.15" cy="38.30" r="0.24" fill="currentColor" opacity="0.470"/>
  <circle cx="23.50" cy="38.30" r="0.24" fill="currentColor" opacity="0.470"/>
  <circle cx="24.85" cy="38.30" r="0.24" fill="currentColor" opacity="0.470"/>
  <circle cx="26.20" cy="38.30" r="0.24" fill="currentColor" opacity="0.470"/>
  <circle cx="27.55" cy="38.30" r="0.24" fill="currentColor" opacity="0.470"/>
  <circle cx="28.90" cy="38.30" r="0.24" fill="currentColor" opacity="0.470"/>
  <circle cx="30.25" cy="38.30" r="0.24" fill="currentColor" opacity="0.470"/>
  <circle cx="31.60" cy="38.30" r="0.24" fill="currentColor" opacity="0.470"/>
  <circle cx="32.95" cy="38.30" r="0.24" fill="currentColor" opacity="0.470"/>
  <circle cx="34.30" cy="38.30" r="0.24" fill="currentColor" opacity="0.470"/>
  <circle cx="35.65" cy="38.30" r="0.24" fill="currentColor" opacity="0.470"/>
  <circle cx="37.00" cy="38.30" r="0.24" fill="currentColor" opacity="0.470"/>
  <circle cx="38.35" cy="38.30" r="0.24" fill="currentColor" opacity="0.470"/>
  <circle cx="39.70" cy="38.30" r="0.24" fill="currentColor" opacity="0.470"/>
  <circle cx="41.05" cy="38.30" r="0.24" fill="currentColor" opacity="0.470"/>
  <circle cx="42.40" cy="38.30" r="0.24" fill="currentColor" opacity="0.470"/>
  <circle cx="43.75" cy="38.30" r="0.24" fill="currentColor" opacity="0.470"/>
  <circle cx="19.45" cy="39.65" r="0.23" fill="currentColor" opacity="0.438"/>
  <circle cx="20.80" cy="39.65" r="0.23" fill="currentColor" opacity="0.438"/>
  <circle cx="22.15" cy="39.65" r="0.23" fill="currentColor" opacity="0.438"/>
  <circle cx="23.50" cy="39.65" r="0.23" fill="currentColor" opacity="0.438"/>
  <circle cx="24.85" cy="39.65" r="0.23" fill="currentColor" opacity="0.438"/>
  <circle cx="26.20" cy="39.65" r="0.23" fill="currentColor" opacity="0.438"/>
  <circle cx="27.55" cy="39.65" r="0.23" fill="currentColor" opacity="0.438"/>
  <circle cx="28.90" cy="39.65" r="0.23" fill="currentColor" opacity="0.438"/>
  <circle cx="30.25" cy="39.65" r="0.23" fill="currentColor" opacity="0.438"/>
  <circle cx="31.60" cy="39.65" r="0.23" fill="currentColor" opacity="0.438"/>
  <circle cx="32.95" cy="39.65" r="0.23" fill="currentColor" opacity="0.438"/>
  <circle cx="34.30" cy="39.65" r="0.23" fill="currentColor" opacity="0.438"/>
  <circle cx="35.65" cy="39.65" r="0.23" fill="currentColor" opacity="0.438"/>
  <circle cx="37.00" cy="39.65" r="0.23" fill="currentColor" opacity="0.438"/>
  <circle cx="38.35" cy="39.65" r="0.23" fill="currentColor" opacity="0.438"/>
  <circle cx="39.70" cy="39.65" r="0.23" fill="currentColor" opacity="0.438"/>
  <circle cx="41.05" cy="39.65" r="0.23" fill="currentColor" opacity="0.438"/>
  <circle cx="42.40" cy="39.65" r="0.23" fill="currentColor" opacity="0.438"/>
  <circle cx="43.75" cy="39.65" r="0.23" fill="currentColor" opacity="0.438"/>
  <circle cx="19.45" cy="41.00" r="0.23" fill="currentColor" opacity="0.406"/>
  <circle cx="20.80" cy="41.00" r="0.23" fill="currentColor" opacity="0.406"/>
  <circle cx="22.15" cy="41.00" r="0.23" fill="currentColor" opacity="0.406"/>
  <circle cx="23.50" cy="41.00" r="0.23" fill="currentColor" opacity="0.406"/>
  <circle cx="24.85" cy="41.00" r="0.23" fill="currentColor" opacity="0.406"/>
  <circle cx="26.20" cy="41.00" r="0.23" fill="currentColor" opacity="0.406"/>
  <circle cx="27.55" cy="41.00" r="0.23" fill="currentColor" opacity="0.406"/>
  <circle cx="28.90" cy="41.00" r="0.23" fill="currentColor" opacity="0.406"/>
  <circle cx="30.25" cy="41.00" r="0.23" fill="currentColor" opacity="0.406"/>
  <circle cx="31.60" cy="41.00" r="0.23" fill="currentColor" opacity="0.406"/>
  <circle cx="32.95" cy="41.00" r="0.23" fill="currentColor" opacity="0.406"/>
  <circle cx="34.30" cy="41.00" r="0.23" fill="currentColor" opacity="0.406"/>
  <circle cx="35.65" cy="41.00" r="0.23" fill="currentColor" opacity="0.406"/>
  <circle cx="37.00" cy="41.00" r="0.23" fill="currentColor" opacity="0.406"/>
  <circle cx="38.35" cy="41.00" r="0.23" fill="currentColor" opacity="0.406"/>
  <circle cx="39.70" cy="41.00" r="0.23" fill="currentColor" opacity="0.406"/>
  <circle cx="41.05" cy="41.00" r="0.23" fill="currentColor" opacity="0.406"/>
  <circle cx="42.40" cy="41.00" r="0.23" fill="currentColor" opacity="0.406"/>
  <circle cx="43.75" cy="41.00" r="0.23" fill="currentColor" opacity="0.406"/>
  <circle cx="45.10" cy="41.00" r="0.23" fill="currentColor" opacity="0.406"/>
  <circle cx="19.45" cy="42.35" r="0.22" fill="currentColor" opacity="0.374"/>
  <circle cx="20.80" cy="42.35" r="0.22" fill="currentColor" opacity="0.374"/>
  <circle cx="22.15" cy="42.35" r="0.22" fill="currentColor" opacity="0.374"/>
  <circle cx="23.50" cy="42.35" r="0.22" fill="currentColor" opacity="0.374"/>
  <circle cx="24.85" cy="42.35" r="0.22" fill="currentColor" opacity="0.374"/>
  <circle cx="26.20" cy="42.35" r="0.22" fill="currentColor" opacity="0.374"/>
  <circle cx="27.55" cy="42.35" r="0.22" fill="currentColor" opacity="0.374"/>
  <circle cx="28.90" cy="42.35" r="0.22" fill="currentColor" opacity="0.374"/>
  <circle cx="30.25" cy="42.35" r="0.22" fill="currentColor" opacity="0.374"/>
  <circle cx="31.60" cy="42.35" r="0.22" fill="currentColor" opacity="0.374"/>
  <circle cx="32.95" cy="42.35" r="0.22" fill="currentColor" opacity="0.374"/>
  <circle cx="34.30" cy="42.35" r="0.22" fill="currentColor" opacity="0.374"/>
  <circle cx="35.65" cy="42.35" r="0.22" fill="currentColor" opacity="0.374"/>
  <circle cx="37.00" cy="42.35" r="0.22" fill="currentColor" opacity="0.374"/>
  <circle cx="38.35" cy="42.35" r="0.22" fill="currentColor" opacity="0.374"/>
  <circle cx="39.70" cy="42.35" r="0.22" fill="currentColor" opacity="0.374"/>
  <circle cx="41.05" cy="42.35" r="0.22" fill="currentColor" opacity="0.374"/>
  <circle cx="42.40" cy="42.35" r="0.22" fill="currentColor" opacity="0.374"/>
  <circle cx="43.75" cy="42.35" r="0.22" fill="currentColor" opacity="0.374"/>
  <circle cx="45.10" cy="42.35" r="0.22" fill="currentColor" opacity="0.374"/>
  <circle cx="18.10" cy="43.70" r="0.21" fill="currentColor" opacity="0.341"/>
  <circle cx="19.45" cy="43.70" r="0.21" fill="currentColor" opacity="0.341"/>
  <circle cx="20.80" cy="43.70" r="0.21" fill="currentColor" opacity="0.341"/>
  <circle cx="22.15" cy="43.70" r="0.21" fill="currentColor" opacity="0.341"/>
  <circle cx="23.50" cy="43.70" r="0.21" fill="currentColor" opacity="0.341"/>
  <circle cx="24.85" cy="43.70" r="0.21" fill="currentColor" opacity="0.341"/>
  <circle cx="26.20" cy="43.70" r="0.21" fill="currentColor" opacity="0.341"/>
  <circle cx="27.55" cy="43.70" r="0.21" fill="currentColor" opacity="0.341"/>
  <circle cx="28.90" cy="43.70" r="0.21" fill="currentColor" opacity="0.341"/>
  <circle cx="30.25" cy="43.70" r="0.21" fill="currentColor" opacity="0.341"/>
  <circle cx="31.60" cy="43.70" r="0.21" fill="currentColor" opacity="0.341"/>
  <circle cx="32.95" cy="43.70" r="0.21" fill="currentColor" opacity="0.341"/>
  <circle cx="34.30" cy="43.70" r="0.21" fill="currentColor" opacity="0.341"/>
  <circle cx="35.65" cy="43.70" r="0.21" fill="currentColor" opacity="0.341"/>
  <circle cx="37.00" cy="43.70" r="0.21" fill="currentColor" opacity="0.341"/>
  <circle cx="38.35" cy="43.70" r="0.21" fill="currentColor" opacity="0.341"/>
  <circle cx="39.70" cy="43.70" r="0.21" fill="currentColor" opacity="0.341"/>
  <circle cx="41.05" cy="43.70" r="0.21" fill="currentColor" opacity="0.341"/>
  <circle cx="42.40" cy="43.70" r="0.21" fill="currentColor" opacity="0.341"/>
  <circle cx="43.75" cy="43.70" r="0.21" fill="currentColor" opacity="0.341"/>
  <circle cx="45.10" cy="43.70" r="0.21" fill="currentColor" opacity="0.341"/>
  <circle cx="18.10" cy="45.05" r="0.21" fill="currentColor" opacity="0.308"/>
  <circle cx="19.45" cy="45.05" r="0.21" fill="currentColor" opacity="0.308"/>
  <circle cx="20.80" cy="45.05" r="0.21" fill="currentColor" opacity="0.308"/>
  <circle cx="22.15" cy="45.05" r="0.21" fill="currentColor" opacity="0.308"/>
  <circle cx="23.50" cy="45.05" r="0.21" fill="currentColor" opacity="0.308"/>
  <circle cx="24.85" cy="45.05" r="0.21" fill="currentColor" opacity="0.308"/>
  <circle cx="26.20" cy="45.05" r="0.21" fill="currentColor" opacity="0.308"/>
  <circle cx="27.55" cy="45.05" r="0.21" fill="currentColor" opacity="0.308"/>
  <circle cx="28.90" cy="45.05" r="0.21" fill="currentColor" opacity="0.308"/>
  <circle cx="30.25" cy="45.05" r="0.21" fill="currentColor" opacity="0.308"/>
  <circle cx="31.60" cy="45.05" r="0.21" fill="currentColor" opacity="0.308"/>
  <circle cx="32.95" cy="45.05" r="0.21" fill="currentColor" opacity="0.308"/>
  <circle cx="34.30" cy="45.05" r="0.21" fill="currentColor" opacity="0.308"/>
  <circle cx="35.65" cy="45.05" r="0.21" fill="currentColor" opacity="0.308"/>
  <circle cx="37.00" cy="45.05" r="0.21" fill="currentColor" opacity="0.308"/>
  <circle cx="38.35" cy="45.05" r="0.21" fill="currentColor" opacity="0.308"/>
  <circle cx="39.70" cy="45.05" r="0.21" fill="currentColor" opacity="0.308"/>
  <circle cx="41.05" cy="45.05" r="0.21" fill="currentColor" opacity="0.308"/>
  <circle cx="42.40" cy="45.05" r="0.21" fill="currentColor" opacity="0.308"/>
  <circle cx="43.75" cy="45.05" r="0.21" fill="currentColor" opacity="0.308"/>
  <circle cx="45.10" cy="45.05" r="0.21" fill="currentColor" opacity="0.308"/>
  <circle cx="46.45" cy="45.05" r="0.21" fill="currentColor" opacity="0.308"/>
  <circle cx="16.75" cy="46.40" r="0.20" fill="currentColor" opacity="0.274"/>
  <circle cx="18.10" cy="46.40" r="0.20" fill="currentColor" opacity="0.274"/>
  <circle cx="19.45" cy="46.40" r="0.20" fill="currentColor" opacity="0.274"/>
  <circle cx="20.80" cy="46.40" r="0.20" fill="currentColor" opacity="0.274"/>
  <circle cx="22.15" cy="46.40" r="0.20" fill="currentColor" opacity="0.274"/>
  <circle cx="23.50" cy="46.40" r="0.20" fill="currentColor" opacity="0.274"/>
  <circle cx="24.85" cy="46.40" r="0.20" fill="currentColor" opacity="0.274"/>
  <circle cx="26.20" cy="46.40" r="0.20" fill="currentColor" opacity="0.274"/>
  <circle cx="27.55" cy="46.40" r="0.20" fill="currentColor" opacity="0.274"/>
  <circle cx="28.90" cy="46.40" r="0.20" fill="currentColor" opacity="0.274"/>
  <circle cx="30.25" cy="46.40" r="0.20" fill="currentColor" opacity="0.274"/>
  <circle cx="31.60" cy="46.40" r="0.20" fill="currentColor" opacity="0.274"/>
  <circle cx="32.95" cy="46.40" r="0.20" fill="currentColor" opacity="0.274"/>
  <circle cx="34.30" cy="46.40" r="0.20" fill="currentColor" opacity="0.274"/>
  <circle cx="35.65" cy="46.40" r="0.20" fill="currentColor" opacity="0.274"/>
  <circle cx="37.00" cy="46.40" r="0.20" fill="currentColor" opacity="0.274"/>
  <circle cx="38.35" cy="46.40" r="0.20" fill="currentColor" opacity="0.274"/>
  <circle cx="39.70" cy="46.40" r="0.20" fill="currentColor" opacity="0.274"/>
  <circle cx="41.05" cy="46.40" r="0.20" fill="currentColor" opacity="0.274"/>
  <circle cx="42.40" cy="46.40" r="0.20" fill="currentColor" opacity="0.274"/>
  <circle cx="43.75" cy="46.40" r="0.20" fill="currentColor" opacity="0.274"/>
  <circle cx="45.10" cy="46.40" r="0.20" fill="currentColor" opacity="0.274"/>
  <circle cx="46.45" cy="46.40" r="0.20" fill="currentColor" opacity="0.274"/>
  <circle cx="16.75" cy="47.75" r="0.19" fill="currentColor" opacity="0.240"/>
  <circle cx="18.10" cy="47.75" r="0.19" fill="currentColor" opacity="0.240"/>
  <circle cx="19.45" cy="47.75" r="0.19" fill="currentColor" opacity="0.240"/>
  <circle cx="20.80" cy="47.75" r="0.19" fill="currentColor" opacity="0.240"/>
  <circle cx="22.15" cy="47.75" r="0.19" fill="currentColor" opacity="0.240"/>
  <circle cx="23.50" cy="47.75" r="0.19" fill="currentColor" opacity="0.240"/>
  <circle cx="24.85" cy="47.75" r="0.19" fill="currentColor" opacity="0.240"/>
  <circle cx="26.20" cy="47.75" r="0.19" fill="currentColor" opacity="0.240"/>
  <circle cx="27.55" cy="47.75" r="0.19" fill="currentColor" opacity="0.240"/>
  <circle cx="28.90" cy="47.75" r="0.19" fill="currentColor" opacity="0.240"/>
  <circle cx="30.25" cy="47.75" r="0.19" fill="currentColor" opacity="0.240"/>
  <circle cx="31.60" cy="47.75" r="0.19" fill="currentColor" opacity="0.240"/>
  <circle cx="32.95" cy="47.75" r="0.19" fill="currentColor" opacity="0.240"/>
  <circle cx="34.30" cy="47.75" r="0.19" fill="currentColor" opacity="0.240"/>
  <circle cx="35.65" cy="47.75" r="0.19" fill="currentColor" opacity="0.240"/>
  <circle cx="37.00" cy="47.75" r="0.19" fill="currentColor" opacity="0.240"/>
  <circle cx="38.35" cy="47.75" r="0.19" fill="currentColor" opacity="0.240"/>
  <circle cx="39.70" cy="47.75" r="0.19" fill="currentColor" opacity="0.240"/>
  <circle cx="41.05" cy="47.75" r="0.19" fill="currentColor" opacity="0.240"/>
  <circle cx="42.40" cy="47.75" r="0.19" fill="currentColor" opacity="0.240"/>
  <circle cx="43.75" cy="47.75" r="0.19" fill="currentColor" opacity="0.240"/>
  <circle cx="45.10" cy="47.75" r="0.19" fill="currentColor" opacity="0.240"/>
  <circle cx="46.45" cy="47.75" r="0.19" fill="currentColor" opacity="0.240"/>
  <circle cx="47.80" cy="47.75" r="0.19" fill="currentColor" opacity="0.240"/>
  <circle cx="15.40" cy="49.10" r="0.19" fill="currentColor" opacity="0.206"/>
  <circle cx="16.75" cy="49.10" r="0.19" fill="currentColor" opacity="0.206"/>
  <circle cx="18.10" cy="49.10" r="0.19" fill="currentColor" opacity="0.206"/>
  <circle cx="19.45" cy="49.10" r="0.19" fill="currentColor" opacity="0.206"/>
  <circle cx="20.80" cy="49.10" r="0.19" fill="currentColor" opacity="0.206"/>
  <circle cx="22.15" cy="49.10" r="0.19" fill="currentColor" opacity="0.206"/>
  <circle cx="23.50" cy="49.10" r="0.19" fill="currentColor" opacity="0.206"/>
  <circle cx="24.85" cy="49.10" r="0.19" fill="currentColor" opacity="0.206"/>
  <circle cx="26.20" cy="49.10" r="0.19" fill="currentColor" opacity="0.206"/>
  <circle cx="27.55" cy="49.10" r="0.19" fill="currentColor" opacity="0.206"/>
  <circle cx="28.90" cy="49.10" r="0.19" fill="currentColor" opacity="0.206"/>
  <circle cx="30.25" cy="49.10" r="0.19" fill="currentColor" opacity="0.206"/>
  <circle cx="31.60" cy="49.10" r="0.19" fill="currentColor" opacity="0.206"/>
  <circle cx="32.95" cy="49.10" r="0.19" fill="currentColor" opacity="0.206"/>
  <circle cx="34.30" cy="49.10" r="0.19" fill="currentColor" opacity="0.206"/>
  <circle cx="35.65" cy="49.10" r="0.19" fill="currentColor" opacity="0.206"/>
  <circle cx="37.00" cy="49.10" r="0.19" fill="currentColor" opacity="0.206"/>
  <circle cx="38.35" cy="49.10" r="0.19" fill="currentColor" opacity="0.206"/>
  <circle cx="39.70" cy="49.10" r="0.19" fill="currentColor" opacity="0.206"/>
  <circle cx="41.05" cy="49.10" r="0.19" fill="currentColor" opacity="0.206"/>
  <circle cx="42.40" cy="49.10" r="0.19" fill="currentColor" opacity="0.206"/>
  <circle cx="43.75" cy="49.10" r="0.19" fill="currentColor" opacity="0.206"/>
  <circle cx="45.10" cy="49.10" r="0.19" fill="currentColor" opacity="0.206"/>
  <circle cx="46.45" cy="49.10" r="0.19" fill="currentColor" opacity="0.206"/>
  <circle cx="47.80" cy="49.10" r="0.19" fill="currentColor" opacity="0.206"/>
  <circle cx="15.40" cy="50.45" r="0.18" fill="currentColor" opacity="0.172"/>
  <circle cx="16.75" cy="50.45" r="0.18" fill="currentColor" opacity="0.172"/>
  <circle cx="18.10" cy="50.45" r="0.18" fill="currentColor" opacity="0.172"/>
  <circle cx="19.45" cy="50.45" r="0.18" fill="currentColor" opacity="0.172"/>
  <circle cx="20.80" cy="50.45" r="0.18" fill="currentColor" opacity="0.172"/>
  <circle cx="22.15" cy="50.45" r="0.18" fill="currentColor" opacity="0.172"/>
  <circle cx="23.50" cy="50.45" r="0.18" fill="currentColor" opacity="0.172"/>
  <circle cx="24.85" cy="50.45" r="0.18" fill="currentColor" opacity="0.172"/>
  <circle cx="26.20" cy="50.45" r="0.18" fill="currentColor" opacity="0.172"/>
  <circle cx="27.55" cy="50.45" r="0.18" fill="currentColor" opacity="0.172"/>
  <circle cx="28.90" cy="50.45" r="0.18" fill="currentColor" opacity="0.172"/>
  <circle cx="30.25" cy="50.45" r="0.18" fill="currentColor" opacity="0.172"/>
  <circle cx="31.60" cy="50.45" r="0.18" fill="currentColor" opacity="0.172"/>
  <circle cx="32.95" cy="50.45" r="0.18" fill="currentColor" opacity="0.172"/>
  <circle cx="34.30" cy="50.45" r="0.18" fill="currentColor" opacity="0.172"/>
  <circle cx="35.65" cy="50.45" r="0.18" fill="currentColor" opacity="0.172"/>
  <circle cx="37.00" cy="50.45" r="0.18" fill="currentColor" opacity="0.172"/>
  <circle cx="38.35" cy="50.45" r="0.18" fill="currentColor" opacity="0.172"/>
  <circle cx="39.70" cy="50.45" r="0.18" fill="currentColor" opacity="0.172"/>
  <circle cx="41.05" cy="50.45" r="0.18" fill="currentColor" opacity="0.172"/>
  <circle cx="42.40" cy="50.45" r="0.18" fill="currentColor" opacity="0.172"/>
  <circle cx="43.75" cy="50.45" r="0.18" fill="currentColor" opacity="0.172"/>
  <circle cx="45.10" cy="50.45" r="0.18" fill="currentColor" opacity="0.172"/>
  <circle cx="46.45" cy="50.45" r="0.18" fill="currentColor" opacity="0.172"/>
  <circle cx="47.80" cy="50.45" r="0.18" fill="currentColor" opacity="0.172"/>
  <circle cx="49.15" cy="50.45" r="0.18" fill="currentColor" opacity="0.172"/>
  <circle cx="14.05" cy="51.80" r="0.17" fill="currentColor" opacity="0.137"/>
  <circle cx="15.40" cy="51.80" r="0.17" fill="currentColor" opacity="0.137"/>
  <circle cx="16.75" cy="51.80" r="0.17" fill="currentColor" opacity="0.137"/>
  <circle cx="18.10" cy="51.80" r="0.17" fill="currentColor" opacity="0.137"/>
  <circle cx="19.45" cy="51.80" r="0.17" fill="currentColor" opacity="0.137"/>
  <circle cx="20.80" cy="51.80" r="0.17" fill="currentColor" opacity="0.137"/>
  <circle cx="22.15" cy="51.80" r="0.17" fill="currentColor" opacity="0.137"/>
  <circle cx="23.50" cy="51.80" r="0.17" fill="currentColor" opacity="0.137"/>
  <circle cx="24.85" cy="51.80" r="0.17" fill="currentColor" opacity="0.137"/>
  <circle cx="26.20" cy="51.80" r="0.17" fill="currentColor" opacity="0.137"/>
  <circle cx="27.55" cy="51.80" r="0.17" fill="currentColor" opacity="0.137"/>
  <circle cx="28.90" cy="51.80" r="0.17" fill="currentColor" opacity="0.137"/>
  <circle cx="30.25" cy="51.80" r="0.17" fill="currentColor" opacity="0.137"/>
  <circle cx="31.60" cy="51.80" r="0.17" fill="currentColor" opacity="0.137"/>
  <circle cx="32.95" cy="51.80" r="0.17" fill="currentColor" opacity="0.137"/>
  <circle cx="34.30" cy="51.80" r="0.17" fill="currentColor" opacity="0.137"/>
  <circle cx="35.65" cy="51.80" r="0.17" fill="currentColor" opacity="0.137"/>
  <circle cx="37.00" cy="51.80" r="0.17" fill="currentColor" opacity="0.137"/>
  <circle cx="38.35" cy="51.80" r="0.17" fill="currentColor" opacity="0.137"/>
  <circle cx="39.70" cy="51.80" r="0.17" fill="currentColor" opacity="0.137"/>
  <circle cx="41.05" cy="51.80" r="0.17" fill="currentColor" opacity="0.137"/>
  <circle cx="42.40" cy="51.80" r="0.17" fill="currentColor" opacity="0.137"/>
  <circle cx="43.75" cy="51.80" r="0.17" fill="currentColor" opacity="0.137"/>
  <circle cx="45.10" cy="51.80" r="0.17" fill="currentColor" opacity="0.137"/>
  <circle cx="46.45" cy="51.80" r="0.17" fill="currentColor" opacity="0.137"/>
  <circle cx="47.80" cy="51.80" r="0.17" fill="currentColor" opacity="0.137"/>
  <circle cx="49.15" cy="51.80" r="0.17" fill="currentColor" opacity="0.137"/>
  <circle cx="14.05" cy="53.15" r="0.16" fill="currentColor" opacity="0.102"/>
  <circle cx="15.40" cy="53.15" r="0.16" fill="currentColor" opacity="0.102"/>
  <circle cx="16.75" cy="53.15" r="0.16" fill="currentColor" opacity="0.102"/>
  <circle cx="18.10" cy="53.15" r="0.16" fill="currentColor" opacity="0.102"/>
  <circle cx="19.45" cy="53.15" r="0.16" fill="currentColor" opacity="0.102"/>
  <circle cx="20.80" cy="53.15" r="0.16" fill="currentColor" opacity="0.102"/>
  <circle cx="22.15" cy="53.15" r="0.16" fill="currentColor" opacity="0.102"/>
  <circle cx="23.50" cy="53.15" r="0.16" fill="currentColor" opacity="0.102"/>
  <circle cx="24.85" cy="53.15" r="0.16" fill="currentColor" opacity="0.102"/>
  <circle cx="26.20" cy="53.15" r="0.16" fill="currentColor" opacity="0.102"/>
  <circle cx="27.55" cy="53.15" r="0.16" fill="currentColor" opacity="0.102"/>
  <circle cx="28.90" cy="53.15" r="0.16" fill="currentColor" opacity="0.102"/>
  <circle cx="30.25" cy="53.15" r="0.16" fill="currentColor" opacity="0.102"/>
  <circle cx="31.60" cy="53.15" r="0.16" fill="currentColor" opacity="0.102"/>
  <circle cx="32.95" cy="53.15" r="0.16" fill="currentColor" opacity="0.102"/>
  <circle cx="34.30" cy="53.15" r="0.16" fill="currentColor" opacity="0.102"/>
  <circle cx="35.65" cy="53.15" r="0.16" fill="currentColor" opacity="0.102"/>
  <circle cx="37.00" cy="53.15" r="0.16" fill="currentColor" opacity="0.102"/>
  <circle cx="38.35" cy="53.15" r="0.16" fill="currentColor" opacity="0.102"/>
  <circle cx="39.70" cy="53.15" r="0.16" fill="currentColor" opacity="0.102"/>
  <circle cx="41.05" cy="53.15" r="0.16" fill="currentColor" opacity="0.102"/>
  <circle cx="42.40" cy="53.15" r="0.16" fill="currentColor" opacity="0.102"/>
  <circle cx="43.75" cy="53.15" r="0.16" fill="currentColor" opacity="0.102"/>
  <circle cx="45.10" cy="53.15" r="0.16" fill="currentColor" opacity="0.102"/>
  <circle cx="46.45" cy="53.15" r="0.16" fill="currentColor" opacity="0.102"/>
  <circle cx="47.80" cy="53.15" r="0.16" fill="currentColor" opacity="0.102"/>
  <circle cx="49.15" cy="53.15" r="0.16" fill="currentColor" opacity="0.102"/>
  <circle cx="50.50" cy="53.15" r="0.16" fill="currentColor" opacity="0.102"/>
</g>
</svg>
