<?xml version="1.0" encoding="UTF-8"?>
<svg xmlns="http://www.w3.org/2000/svg" viewBox="0 0 64 64" fill="none" color="currentColor">

<g>
  <line x1="32.00" y1="15.16" x2="42.56" y2="20.00" stroke="currentColor" stroke-width="0.40" opacity="0.320"/>
  <line x1="42.56" y1="20.00" x2="32.00" y2="24.84" stroke="currentColor" stroke-width="0.40" opacity="0.320"/>
  <line x1="32.00" y1="24.84" x2="21.44" y2="20.00" stroke="currentColor" stroke-width="0.40" opacity="0.320"/>
  <line x1="21.44" y1="20.00" x2="32.00" y2="15.16" stroke="currentColor" stroke-width="0.40" opacity="0.320"/>
  <line x1="32.00" y1="20.00" x2="42.14" y2="20.00" stroke="currentColor" stroke-width="0.28" opacity="0.230"/>
  <line x1="32.00" y1="20.00" x2="40.78" y2="22.32" stroke="currentColor" stroke-width="0.28" opacity="0.230"/>
  <line x1="32.00" y1="20.00" x2="37.07" y2="24.02" stroke="currentColor" stroke-width="0.28" opacity="0.230"/>
  <line x1="32.00" y1="20.00" x2="32.00" y2="24.65" stroke="currentColor" stroke-width="0.28" opacity="0.230"/>
  <line x1="32.00" y1="20.00" x2="26.93" y2="24.02" stroke="currentColor" stroke-width="0.28" opacity="0.230"/>
  <line x1="32.00" y1="20.00" x2="23.22" y2="22.32" stroke="currentColor" stroke-width="0.28" opacity="0.230"/>
  <line x1="32.00" y1="20.00" x2="21.86" y2="20.00" stroke="currentColor" stroke-width="0.28" opacity="0.230"/>
  <line x1="32.00" y1="20.00" x2="23.22" y2="17.68" stroke="currentColor" stroke-width="0.28" opacity="0.230"/>
  <line x1="32.00" y1="20.00" x2="26.93" y2="15.98" stroke="currentColor" stroke-width="0.28" opacity="0.230"/>
  <line x1="32.00" y1="20.00" x2="32.00" y2="15.35" stroke="currentColor" stroke-width="0.28" opacity="0.230"/>
  <line x1="32.00" y1="20.00" x2="37.07" y2="15.98" stroke="currentColor" stroke-width="0.28" opacity="0.230"/>
  <line x1="32.00" y1="20.00" x2="40.78" y2="17.68" stroke="currentColor" stroke-width="0.28" opacity="0.230"/>
  <line x1="32.00" y1="15.77" x2="41.22" y2="20.00" stroke="currentColor" stroke-width="0.32" opacity="0.261"/>
  <line x1="41.22" y1="20.00" x2="32.00" y2="24.23" stroke="currentColor" stroke-width="0.32" opacity="0.261"/>
  <line x1="32.00" y1="24.23" x2="22.78" y2="20.00" stroke="currentColor" stroke-width="0.32" opacity="0.261"/>
  <line x1="22.78" y1="20.00" x2="32.00" y2="15.77" stroke="currentColor" stroke-width="0.32" opacity="0.261"/>
  <line x1="32.00" y1="20.00" x2="40.85" y2="20.00" stroke="currentColor" stroke-width="0.28" opacity="0.188"/>
  <line x1="32.00" y1="20.00" x2="39.67" y2="22.03" stroke="currentColor" stroke-width="0.28" opacity="0.188"/>
  <line x1="32.00" y1="20.00" x2="36.43" y2="23.51" stroke="currentColor" stroke-width="0.28" opacity="0.188"/>
  <line x1="32.00" y1="20.00" x2="32.00" y2="24.06" stroke="currentColor" stroke-width="0.28" opacity="0.188"/>
  <line x1="32.00" y1="20.00" x2="27.57" y2="23.51" stroke="currentColor" stroke-width="0.28" opacity="0.188"/>
  <line x1="32.00" y1="20.00" x2="24.33" y2="22.03" stroke="currentColor" stroke-width="0.28" opacity="0.188"/>
  <line x1="32.00" y1="20.00" x2="23.15" y2="20.00" stroke="currentColor" stroke-width="0.28" opacity="0.188"/>
  <line x1="32.00" y1="20.00" x2="24.33" y2="17.97" stroke="currentColor" stroke-width="0.28" opacity="0.188"/>
  <line x1="32.00" y1="20.00" x2="27.57" y2="16.49" stroke="currentColor" stroke-width="0.28" opacity="0.188"/>
  <line x1="32.00" y1="20.00" x2="32.00" y2="15.94" stroke="currentColor" stroke-width="0.28" opacity="0.188"/>
  <line x1="32.00" y1="20.00" x2="36.43" y2="16.49" stroke="currentColor" stroke-width="0.28" opacity="0.188"/>
  <line x1="32.00" y1="20.00" x2="39.67" y2="17.97" stroke="currentColor" stroke-width="0.28" opacity="0.188"/>
  <line x1="32.00" y1="16.39" x2="39.88" y2="20.00" stroke="currentColor" stroke-width="0.32" opacity="0.203"/>
  <line x1="39.88" y1="20.00" x2="32.00" y2="23.61" stroke="currentColor" stroke-width="0.32" opacity="0.203"/>
  <line x1="32.00" y1="23.61" x2="24.12" y2="20.00" stroke="currentColor" stroke-width="0.32" opacity="0.203"/>
  <line x1="24.12" y1="20.00" x2="32.00" y2="16.39" stroke="currentColor" stroke-width="0.32" opacity="0.203"/>
  <line x1="32.00" y1="20.00" x2="39.57" y2="20.00" stroke="currentColor" stroke-width="0.28" opacity="0.146"/>
  <line x1="32.00" y1="20.00" x2="38.56" y2="21.73" stroke="currentColor" stroke-width="0.28" opacity="0.146"/>
  <line x1="32.00" y1="20.00" x2="35.78" y2="23.00" stroke="currentColor" stroke-width="0.28" opacity="0.146"/>
  <line x1="32.00" y1="20.00" x2="32.00" y2="23.47" stroke="currentColor" stroke-width="0.28" opacity="0.146"/>
  <line x1="32.00" y1="20.00" x2="28.22" y2="23.00" stroke="currentColor" stroke-width="0.28" opacity="0.146"/>
  <line x1="32.00" y1="20.00" x2="25.44" y2="21.73" stroke="currentColor" stroke-width="0.28" opacity="0.146"/>
  <line x1="32.00" y1="20.00" x2="24.43" y2="20.00" stroke="currentColor" stroke-width="0.28" opacity="0.146"/>
  <line x1="32.00" y1="20.00" x2="25.44" y2="18.27" stroke="currentColor" stroke-width="0.28" opacity="0.146"/>
  <line x1="32.00" y1="20.00" x2="28.22" y2="17.00" stroke="currentColor" stroke-width="0.28" opacity="0.146"/>
  <line x1="32.00" y1="20.00" x2="32.00" y2="16.53" stroke="currentColor" stroke-width="0.28" opacity="0.146"/>
  <line x1="32.00" y1="20.00" x2="35.78" y2="17.00" stroke="currentColor" stroke-width="0.28" opacity="0.146"/>
  <line x1="32.00" y1="20.00" x2="38.56" y2="18.27" stroke="currentColor" stroke-width="0.28" opacity="0.146"/>
  <line x1="32.00" y1="17.00" x2="38.55" y2="20.00" stroke="currentColor" stroke-width="0.40" opacity="0.144"/>
  <line x1="38.55" y1="20.00" x2="32.00" y2="23.00" stroke="currentColor" stroke-width="0.40" opacity="0.144"/>
  <line x1="32.00" y1="23.00" x2="25.45" y2="20.00" stroke="currentColor" stroke-width="0.40" opacity="0.144"/>
  <line x1="25.45" y1="20.00" x2="32.00" y2="17.00" stroke="currentColor" stroke-width="0.40" opacity="0.144"/>
  <line x1="32.00" y1="20.00" x2="38.29" y2="20.00" stroke="currentColor" stroke-width="0.28" opacity="0.104"/>
  <line x1="32.00" y1="20.00" x2="37.44" y2="21.44" stroke="currentColor" stroke-width="0.28" opacity="0.104"/>
  <line x1="32.00" y1="20.00" x2="35.14" y2="22.49" stroke="currentColor" stroke-width="0.28" opacity="0.104"/>
  <line x1="32.00" y1="20.00" x2="32.00" y2="22.88" stroke="currentColor" stroke-width="0.28" opacity="0.104"/>
  <line x1="32.00" y1="20.00" x2="28.86" y2="22.49" stroke="currentColor" stroke-width="0.28" opacity="0.104"/>
  <line x1="32.00" y1="20.00" x2="26.56" y2="21.44" stroke="currentColor" stroke-width="0.28" opacity="0.104"/>
  <line x1="32.00" y1="20.00" x2="25.71" y2="20.00" stroke="currentColor" stroke-width="0.28" opacity="0.104"/>
  <line x1="32.00" y1="20.00" x2="26.56" y2="18.56" stroke="currentColor" stroke-width="0.28" opacity="0.104"/>
  <line x1="32.00" y1="20.00" x2="28.86" y2="17.51" stroke="currentColor" stroke-width="0.28" opacity="0.104"/>
  <line x1="32.00" y1="20.00" x2="32.00" y2="17.12" stroke="currentColor" stroke-width="0.28" opacity="0.104"/>
  <line x1="32.00" y1="20.00" x2="35.14" y2="17.51" stroke="currentColor" stroke-width="0.28" opacity="0.104"/>
  <line x1="32.00" y1="20.00" x2="37.44" y2="18.56" stroke="currentColor" stroke-width="0.28" opacity="0.104"/>
  <line x1="32.00" y1="22.83" x2="43.28" y2="28.00" stroke="currentColor" stroke-width="0.40" opacity="0.480"/>
  <line x1="43.28" y1="28.00" x2="32.00" y2="33.17" stroke="currentColor" stroke-width="0.40" opacity="0.480"/>
  <line x1="32.00" y1="33.17" x2="20.72" y2="28.00" stroke="currentColor" stroke-width="0.40" opacity="0.480"/>
  <line x1="20.72" y1="28.00" x2="32.00" y2="22.83" stroke="currentColor" stroke-width="0.40" opacity="0.480"/>
  <line x1="32.00" y1="28.00" x2="42.83" y2="28.00" stroke="currentColor" stroke-width="0.28" opacity="0.346"/>
  <line x1="32.00" y1="28.00" x2="41.38" y2="30.48" stroke="currentColor" stroke-width="0.28" opacity="0.346"/>
  <line x1="32.00" y1="28.00" x2="37.41" y2="32.30" stroke="currentColor" stroke-width="0.28" opacity="0.346"/>
  <line x1="32.00" y1="28.00" x2="32.00" y2="32.96" stroke="currentColor" stroke-width="0.28" opacity="0.346"/>
  <line x1="32.00" y1="28.00" x2="26.59" y2="32.30" stroke="currentColor" stroke-width="0.28" opacity="0.346"/>
  <line x1="32.00" y1="28.00" x2="22.62" y2="30.48" stroke="currentColor" stroke-width="0.28" opacity="0.346"/>
  <line x1="32.00" y1="28.00" x2="21.17" y2="28.00" stroke="currentColor" stroke-width="0.28" opacity="0.346"/>
  <line x1="32.00" y1="28.00" x2="22.62" y2="25.52" stroke="currentColor" stroke-width="0.28" opacity="0.346"/>
  <line x1="32.00" y1="28.00" x2="26.59" y2="23.70" stroke="currentColor" stroke-width="0.28" opacity="0.346"/>
  <line x1="32.00" y1="28.00" x2="32.00" y2="23.04" stroke="currentColor" stroke-width="0.28" opacity="0.346"/>
  <line x1="32.00" y1="28.00" x2="37.41" y2="23.70" stroke="currentColor" stroke-width="0.28" opacity="0.346"/>
  <line x1="32.00" y1="28.00" x2="41.38" y2="25.52" stroke="currentColor" stroke-width="0.28" opacity="0.346"/>
  <line x1="32.00" y1="23.32" x2="42.21" y2="28.00" stroke="currentColor" stroke-width="0.32" opacity="0.414"/>
  <line x1="42.21" y1="28.00" x2="32.00" y2="32.68" stroke="currentColor" stroke-width="0.32" opacity="0.414"/>
  <line x1="32.00" y1="32.68" x2="21.79" y2="28.00" stroke="currentColor" stroke-width="0.32" opacity="0.414"/>
  <line x1="21.79" y1="28.00" x2="32.00" y2="23.32" stroke="currentColor" stroke-width="0.32" opacity="0.414"/>
  <line x1="32.00" y1="28.00" x2="41.80" y2="28.00" stroke="currentColor" stroke-width="0.28" opacity="0.298"/>
  <line x1="32.00" y1="28.00" x2="40.49" y2="30.25" stroke="currentColor" stroke-width="0.28" opacity="0.298"/>
  <line x1="32.00" y1="28.00" x2="36.90" y2="31.89" stroke="currentColor" stroke-width="0.28" opacity="0.298"/>
  <line x1="32.00" y1="28.00" x2="32.00" y2="32.49" stroke="currentColor" stroke-width="0.28" opacity="0.298"/>
  <line x1="32.00" y1="28.00" x2="27.10" y2="31.89" stroke="currentColor" stroke-width="0.28" opacity="0.298"/>
  <line x1="32.00" y1="28.00" x2="23.51" y2="30.25" stroke="currentColor" stroke-width="0.28" opacity="0.298"/>
  <line x1="32.00" y1="28.00" x2="22.20" y2="28.00" stroke="currentColor" stroke-width="0.28" opacity="0.298"/>
  <line x1="32.00" y1="28.00" x2="23.51" y2="25.75" stroke="currentColor" stroke-width="0.28" opacity="0.298"/>
  <line x1="32.00" y1="28.00" x2="27.10" y2="24.11" stroke="currentColor" stroke-width="0.28" opacity="0.298"/>
  <line x1="32.00" y1="28.00" x2="32.00" y2="23.51" stroke="currentColor" stroke-width="0.28" opacity="0.298"/>
  <line x1="32.00" y1="28.00" x2="36.90" y2="24.11" stroke="currentColor" stroke-width="0.28" opacity="0.298"/>
  <line x1="32.00" y1="28.00" x2="40.49" y2="25.75" stroke="currentColor" stroke-width="0.28" opacity="0.298"/>
  <line x1="32.00" y1="23.81" x2="41.14" y2="28.00" stroke="currentColor" stroke-width="0.32" opacity="0.348"/>
  <line x1="41.14" y1="28.00" x2="32.00" y2="32.19" stroke="currentColor" stroke-width="0.32" opacity="0.348"/>
  <line x1="32.00" y1="32.19" x2="22.86" y2="28.00" stroke="currentColor" stroke-width="0.32" opacity="0.348"/>
  <line x1="22.86" y1="28.00" x2="32.00" y2="23.81" stroke="currentColor" stroke-width="0.32" opacity="0.348"/>
  <line x1="32.00" y1="28.00" x2="40.77" y2="28.00" stroke="currentColor" stroke-width="0.28" opacity="0.251"/>
  <line x1="32.00" y1="28.00" x2="39.60" y2="30.01" stroke="currentColor" stroke-width="0.28" opacity="0.251"/>
  <line x1="32.00" y1="28.00" x2="36.39" y2="31.48" stroke="currentColor" stroke-width="0.28" opacity="0.251"/>
  <line x1="32.00" y1="28.00" x2="32.00" y2="32.02" stroke="currentColor" stroke-width="0.28" opacity="0.251"/>
  <line x1="32.00" y1="28.00" x2="27.61" y2="31.48" stroke="currentColor" stroke-width="0.28" opacity="0.251"/>
  <line x1="32.00" y1="28.00" x2="24.40" y2="30.01" stroke="currentColor" stroke-width="0.28" opacity="0.251"/>
  <line x1="32.00" y1="28.00" x2="23.23" y2="28.00" stroke="currentColor" stroke-width="0.28" opacity="0.251"/>
  <line x1="32.00" y1="28.00" x2="24.40" y2="25.99" stroke="currentColor" stroke-width="0.28" opacity="0.251"/>
  <line x1="32.00" y1="28.00" x2="27.61" y2="24.52" stroke="currentColor" stroke-width="0.28" opacity="0.251"/>
  <line x1="32.00" y1="28.00" x2="32.00" y2="23.98" stroke="currentColor" stroke-width="0.28" opacity="0.251"/>
  <line x1="32.00" y1="28.00" x2="36.39" y2="24.52" stroke="currentColor" stroke-width="0.28" opacity="0.251"/>
  <line x1="32.00" y1="28.00" x2="39.60" y2="25.99" stroke="currentColor" stroke-width="0.28" opacity="0.251"/>
  <line x1="32.00" y1="24.30" x2="40.07" y2="28.00" stroke="currentColor" stroke-width="0.32" opacity="0.282"/>
  <line x1="40.07" y1="28.00" x2="32.00" y2="31.70" stroke="currentColor" stroke-width="0.32" opacity="0.282"/>
  <line x1="32.00" y1="31.70" x2="23.93" y2="28.00" stroke="currentColor" stroke-width="0.32" opacity="0.282"/>
  <line x1="23.93" y1="28.00" x2="32.00" y2="24.30" stroke="currentColor" stroke-width="0.32" opacity="0.282"/>
  <line x1="32.00" y1="28.00" x2="39.74" y2="28.00" stroke="currentColor" stroke-width="0.28" opacity="0.203"/>
  <line x1="32.00" y1="28.00" x2="38.71" y2="29.77" stroke="currentColor" stroke-width="0.28" opacity="0.203"/>
  <line x1="32.00" y1="28.00" x2="35.87" y2="31.07" stroke="currentColor" stroke-width="0.28" opacity="0.203"/>
  <line x1="32.00" y1="28.00" x2="32.00" y2="31.55" stroke="currentColor" stroke-width="0.28" opacity="0.203"/>
  <line x1="32.00" y1="28.00" x2="28.13" y2="31.07" stroke="currentColor" stroke-width="0.28" opacity="0.203"/>
  <line x1="32.00" y1="28.00" x2="25.29" y2="29.77" stroke="currentColor" stroke-width="0.28" opacity="0.203"/>
  <line x1="32.00" y1="28.00" x2="24.26" y2="28.00" stroke="currentColor" stroke-width="0.28" opacity="0.203"/>
  <line x1="32.00" y1="28.00" x2="25.29" y2="26.23" stroke="currentColor" stroke-width="0.28" opacity="0.203"/>
  <line x1="32.00" y1="28.00" x2="28.13" y2="24.93" stroke="currentColor" stroke-width="0.28" opacity="0.203"/>
  <line x1="32.00" y1="28.00" x2="32.00" y2="24.45" stroke="currentColor" stroke-width="0.28" opacity="0.203"/>
  <line x1="32.00" y1="28.00" x2="35.87" y2="24.93" stroke="currentColor" stroke-width="0.28" opacity="0.203"/>
  <line x1="32.00" y1="28.00" x2="38.71" y2="26.23" stroke="currentColor" stroke-width="0.28" opacity="0.203"/>
  <line x1="32.00" y1="24.79" x2="38.99" y2="28.00" stroke="currentColor" stroke-width="0.40" opacity="0.216"/>
  <line x1="38.99" y1="28.00" x2="32.00" y2="31.21" stroke="currentColor" stroke-width="0.40" opacity="0.216"/>
  <line x1="32.00" y1="31.21" x2="25.01" y2="28.00" stroke="currentColor" stroke-width="0.40" opacity="0.216"/>
  <line x1="25.01" y1="28.00" x2="32.00" y2="24.79" stroke="currentColor" stroke-width="0.40" opacity="0.216"/>
  <line x1="32.00" y1="28.00" x2="38.71" y2="28.00" stroke="currentColor" stroke-width="0.28" opacity="0.156"/>
  <line x1="32.00" y1="28.00" x2="37.81" y2="29.54" stroke="currentColor" stroke-width="0.28" opacity="0.156"/>
  <line x1="32.00" y1="28.00" x2="35.36" y2="30.66" stroke="currentColor" stroke-width="0.28" opacity="0.156"/>
  <line x1="32.00" y1="28.00" x2="32.00" y2="31.08" stroke="currentColor" stroke-width="0.28" opacity="0.156"/>
  <line x1="32.00" y1="28.00" x2="28.64" y2="30.66" stroke="currentColor" stroke-width="0.28" opacity="0.156"/>
  <line x1="32.00" y1="28.00" x2="26.19" y2="29.54" stroke="currentColor" stroke-width="0.28" opacity="0.156"/>
  <line x1="32.00" y1="28.00" x2="25.29" y2="28.00" stroke="currentColor" stroke-width="0.28" opacity="0.156"/>
  <line x1="32.00" y1="28.00" x2="26.19" y2="26.46" stroke="currentColor" stroke-width="0.28" opacity="0.156"/>
  <line x1="32.00" y1="28.00" x2="28.64" y2="25.34" stroke="currentColor" stroke-width="0.28" opacity="0.156"/>
  <line x1="32.00" y1="28.00" x2="32.00" y2="24.92" stroke="currentColor" stroke-width="0.28" opacity="0.156"/>
  <line x1="32.00" y1="28.00" x2="35.36" y2="25.34" stroke="currentColor" stroke-width="0.28" opacity="0.156"/>
  <line x1="32.00" y1="28.00" x2="37.81" y2="26.46" stroke="currentColor" stroke-width="0.28" opacity="0.156"/>
  <line x1="32.00" y1="30.50" x2="44.00" y2="36.00" stroke="currentColor" stroke-width="0.40" opacity="0.620"/>
  <line x1="44.00" y1="36.00" x2="32.00" y2="41.50" stroke="currentColor" stroke-width="0.40" opacity="0.620"/>
  <line x1="32.00" y1="41.50" x2="20.00" y2="36.00" stroke="currentColor" stroke-width="0.40" opacity="0.620"/>
  <line x1="20.00" y1="36.00" x2="32.00" y2="30.50" stroke="currentColor" stroke-width="0.40" opacity="0.620"/>
  <line x1="32.00" y1="36.00" x2="43.52" y2="36.00" stroke="currentColor" stroke-width="0.28" opacity="0.446"/>
  <line x1="32.00" y1="36.00" x2="41.98" y2="38.64" stroke="currentColor" stroke-width="0.28" opacity="0.446"/>
  <line x1="32.00" y1="36.00" x2="37.76" y2="40.57" stroke="currentColor" stroke-width="0.28" opacity="0.446"/>
  <line x1="32.00" y1="36.00" x2="32.00" y2="41.28" stroke="currentColor" stroke-width="0.28" opacity="0.446"/>
  <line x1="32.00" y1="36.00" x2="26.24" y2="40.57" stroke="currentColor" stroke-width="0.28" opacity="0.446"/>
  <line x1="32.00" y1="36.00" x2="22.02" y2="38.64" stroke="currentColor" stroke-width="0.28" opacity="0.446"/>
  <line x1="32.00" y1="36.00" x2="20.48" y2="36.00" stroke="currentColor" stroke-width="0.28" opacity="0.446"/>
  <line x1="32.00" y1="36.00" x2="22.02" y2="33.36" stroke="currentColor" stroke-width="0.28" opacity="0.446"/>
  <line x1="32.00" y1="36.00" x2="26.24" y2="31.43" stroke="currentColor" stroke-width="0.28" opacity="0.446"/>
  <line x1="32.00" y1="36.00" x2="32.00" y2="30.72" stroke="currentColor" stroke-width="0.28" opacity="0.446"/>
  <line x1="32.00" y1="36.00" x2="37.76" y2="31.43" stroke="currentColor" stroke-width="0.28" opacity="0.446"/>
  <line x1="32.00" y1="36.00" x2="41.98" y2="33.36" stroke="currentColor" stroke-width="0.28" opacity="0.446"/>
  <line x1="32.00" y1="30.92" x2="43.09" y2="36.00" stroke="currentColor" stroke-width="0.32" opacity="0.552"/>
  <line x1="43.09" y1="36.00" x2="32.00" y2="41.08" stroke="currentColor" stroke-width="0.32" opacity="0.552"/>
  <line x1="32.00" y1="41.08" x2="20.91" y2="36.00" stroke="currentColor" stroke-width="0.32" opacity="0.552"/>
  <line x1="20.91" y1="36.00" x2="32.00" y2="30.92" stroke="currentColor" stroke-width="0.32" opacity="0.552"/>
  <line x1="32.00" y1="36.00" x2="42.64" y2="36.00" stroke="currentColor" stroke-width="0.28" opacity="0.397"/>
  <line x1="32.00" y1="36.00" x2="41.22" y2="38.44" stroke="currentColor" stroke-width="0.28" opacity="0.397"/>
  <line x1="32.00" y1="36.00" x2="37.32" y2="40.23" stroke="currentColor" stroke-width="0.28" opacity="0.397"/>
  <line x1="32.00" y1="36.00" x2="32.00" y2="40.88" stroke="currentColor" stroke-width="0.28" opacity="0.397"/>
  <line x1="32.00" y1="36.00" x2="26.68" y2="40.23" stroke="currentColor" stroke-width="0.28" opacity="0.397"/>
  <line x1="32.00" y1="36.00" x2="22.78" y2="38.44" stroke="currentColor" stroke-width="0.28" opacity="0.397"/>
  <line x1="32.00" y1="36.00" x2="21.36" y2="36.00" stroke="currentColor" stroke-width="0.28" opacity="0.397"/>
  <line x1="32.00" y1="36.00" x2="22.78" y2="33.56" stroke="currentColor" stroke-width="0.28" opacity="0.397"/>
  <line x1="32.00" y1="36.00" x2="26.68" y2="31.77" stroke="currentColor" stroke-width="0.28" opacity="0.397"/>
  <line x1="32.00" y1="36.00" x2="32.00" y2="31.12" stroke="currentColor" stroke-width="0.28" opacity="0.397"/>
  <line x1="32.00" y1="36.00" x2="37.32" y2="31.77" stroke="currentColor" stroke-width="0.28" opacity="0.397"/>
  <line x1="32.00" y1="36.00" x2="41.22" y2="33.56" stroke="currentColor" stroke-width="0.28" opacity="0.397"/>
  <line x1="32.00" y1="31.34" x2="42.18" y2="36.00" stroke="currentColor" stroke-width="0.32" opacity="0.484"/>
  <line x1="42.18" y1="36.00" x2="32.00" y2="40.66" stroke="currentColor" stroke-width="0.32" opacity="0.484"/>
  <line x1="32.00" y1="40.66" x2="21.82" y2="36.00" stroke="currentColor" stroke-width="0.32" opacity="0.484"/>
  <line x1="21.82" y1="36.00" x2="32.00" y2="31.34" stroke="currentColor" stroke-width="0.32" opacity="0.484"/>
  <line x1="32.00" y1="36.00" x2="41.77" y2="36.00" stroke="currentColor" stroke-width="0.28" opacity="0.348"/>
  <line x1="32.00" y1="36.00" x2="40.46" y2="38.24" stroke="currentColor" stroke-width="0.28" opacity="0.348"/>
  <line x1="32.00" y1="36.00" x2="36.88" y2="39.88" stroke="currentColor" stroke-width="0.28" opacity="0.348"/>
  <line x1="32.00" y1="36.00" x2="32.00" y2="40.48" stroke="currentColor" stroke-width="0.28" opacity="0.348"/>
  <line x1="32.00" y1="36.00" x2="27.12" y2="39.88" stroke="currentColor" stroke-width="0.28" opacity="0.348"/>
  <line x1="32.00" y1="36.00" x2="23.54" y2="38.24" stroke="currentColor" stroke-width="0.28" opacity="0.348"/>
  <line x1="32.00" y1="36.00" x2="22.23" y2="36.00" stroke="currentColor" stroke-width="0.28" opacity="0.348"/>
  <line x1="32.00" y1="36.00" x2="23.54" y2="33.76" stroke="currentColor" stroke-width="0.28" opacity="0.348"/>
  <line x1="32.00" y1="36.00" x2="27.12" y2="32.12" stroke="currentColor" stroke-width="0.28" opacity="0.348"/>
  <line x1="32.00" y1="36.00" x2="32.00" y2="31.52" stroke="currentColor" stroke-width="0.28" opacity="0.348"/>
  <line x1="32.00" y1="36.00" x2="36.88" y2="32.12" stroke="currentColor" stroke-width="0.28" opacity="0.348"/>
  <line x1="32.00" y1="36.00" x2="40.46" y2="33.76" stroke="currentColor" stroke-width="0.28" opacity="0.348"/>
  <line x1="32.00" y1="31.75" x2="41.26" y2="36.00" stroke="currentColor" stroke-width="0.32" opacity="0.415"/>
  <line x1="41.26" y1="36.00" x2="32.00" y2="40.25" stroke="currentColor" stroke-width="0.32" opacity="0.415"/>
  <line x1="32.00" y1="40.25" x2="22.74" y2="36.00" stroke="currentColor" stroke-width="0.32" opacity="0.415"/>
  <line x1="22.74" y1="36.00" x2="32.00" y2="31.75" stroke="currentColor" stroke-width="0.32" opacity="0.415"/>
  <line x1="32.00" y1="36.00" x2="40.89" y2="36.00" stroke="currentColor" stroke-width="0.28" opacity="0.299"/>
  <line x1="32.00" y1="36.00" x2="39.70" y2="38.04" stroke="currentColor" stroke-width="0.28" opacity="0.299"/>
  <line x1="32.00" y1="36.00" x2="36.45" y2="39.53" stroke="currentColor" stroke-width="0.28" opacity="0.299"/>
  <line x1="32.00" y1="36.00" x2="32.00" y2="40.08" stroke="currentColor" stroke-width="0.28" opacity="0.299"/>
  <line x1="32.00" y1="36.00" x2="27.55" y2="39.53" stroke="currentColor" stroke-width="0.28" opacity="0.299"/>
  <line x1="32.00" y1="36.00" x2="24.30" y2="38.04" stroke="currentColor" stroke-width="0.28" opacity="0.299"/>
  <line x1="32.00" y1="36.00" x2="23.11" y2="36.00" stroke="currentColor" stroke-width="0.28" opacity="0.299"/>
  <line x1="32.00" y1="36.00" x2="24.30" y2="33.96" stroke="currentColor" stroke-width="0.28" opacity="0.299"/>
  <line x1="32.00" y1="36.00" x2="27.55" y2="32.47" stroke="currentColor" stroke-width="0.28" opacity="0.299"/>
  <line x1="32.00" y1="36.00" x2="32.00" y2="31.92" stroke="currentColor" stroke-width="0.28" opacity="0.299"/>
  <line x1="32.00" y1="36.00" x2="36.45" y2="32.47" stroke="currentColor" stroke-width="0.28" opacity="0.299"/>
  <line x1="32.00" y1="36.00" x2="39.70" y2="33.96" stroke="currentColor" stroke-width="0.28" opacity="0.299"/>
  <line x1="32.00" y1="32.17" x2="40.35" y2="36.00" stroke="currentColor" stroke-width="0.32" opacity="0.347"/>
  <line x1="40.35" y1="36.00" x2="32.00" y2="39.83" stroke="currentColor" stroke-width="0.32" opacity="0.347"/>
  <line x1="32.00" y1="39.83" x2="23.65" y2="36.00" stroke="currentColor" stroke-width="0.32" opacity="0.347"/>
  <line x1="23.65" y1="36.00" x2="32.00" y2="32.17" stroke="currentColor" stroke-width="0.32" opacity="0.347"/>
  <line x1="32.00" y1="36.00" x2="40.02" y2="36.00" stroke="currentColor" stroke-width="0.28" opacity="0.250"/>
  <line x1="32.00" y1="36.00" x2="38.94" y2="37.84" stroke="currentColor" stroke-width="0.28" opacity="0.250"/>
  <line x1="32.00" y1="36.00" x2="36.01" y2="39.18" stroke="currentColor" stroke-width="0.28" opacity="0.250"/>
  <line x1="32.00" y1="36.00" x2="32.00" y2="39.67" stroke="currentColor" stroke-width="0.28" opacity="0.250"/>
  <line x1="32.00" y1="36.00" x2="27.99" y2="39.18" stroke="currentColor" stroke-width="0.28" opacity="0.250"/>
  <line x1="32.00" y1="36.00" x2="25.06" y2="37.84" stroke="currentColor" stroke-width="0.28" opacity="0.250"/>
  <line x1="32.00" y1="36.00" x2="23.98" y2="36.00" stroke="currentColor" stroke-width="0.28" opacity="0.250"/>
  <line x1="32.00" y1="36.00" x2="25.06" y2="34.16" stroke="currentColor" stroke-width="0.28" opacity="0.250"/>
  <line x1="32.00" y1="36.00" x2="27.99" y2="32.82" stroke="currentColor" stroke-width="0.28" opacity="0.250"/>
  <line x1="32.00" y1="36.00" x2="32.00" y2="32.33" stroke="currentColor" stroke-width="0.28" opacity="0.250"/>
  <line x1="32.00" y1="36.00" x2="36.01" y2="32.82" stroke="currentColor" stroke-width="0.28" opacity="0.250"/>
  <line x1="32.00" y1="36.00" x2="38.94" y2="34.16" stroke="currentColor" stroke-width="0.28" opacity="0.250"/>
  <line x1="32.00" y1="32.59" x2="39.44" y2="36.00" stroke="currentColor" stroke-width="0.40" opacity="0.279"/>
  <line x1="39.44" y1="36.00" x2="32.00" y2="39.41" stroke="currentColor" stroke-width="0.40" opacity="0.279"/>
  <line x1="32.00" y1="39.41" x2="24.56" y2="36.00" stroke="currentColor" stroke-width="0.40" opacity="0.279"/>
  <line x1="24.56" y1="36.00" x2="32.00" y2="32.59" stroke="currentColor" stroke-width="0.40" opacity="0.279"/>
  <line x1="32.00" y1="36.00" x2="39.14" y2="36.00" stroke="currentColor" stroke-width="0.28" opacity="0.201"/>
  <line x1="32.00" y1="36.00" x2="38.19" y2="37.64" stroke="currentColor" stroke-width="0.28" opacity="0.201"/>
  <line x1="32.00" y1="36.00" x2="35.57" y2="38.84" stroke="currentColor" stroke-width="0.28" opacity="0.201"/>
  <line x1="32.00" y1="36.00" x2="32.00" y2="39.27" stroke="currentColor" stroke-width="0.28" opacity="0.201"/>
  <line x1="32.00" y1="36.00" x2="28.43" y2="38.84" stroke="currentColor" stroke-width="0.28" opacity="0.201"/>
  <line x1="32.00" y1="36.00" x2="25.81" y2="37.64" stroke="currentColor" stroke-width="0.28" opacity="0.201"/>
  <line x1="32.00" y1="36.00" x2="24.86" y2="36.00" stroke="currentColor" stroke-width="0.28" opacity="0.201"/>
  <line x1="32.00" y1="36.00" x2="25.81" y2="34.36" stroke="currentColor" stroke-width="0.28" opacity="0.201"/>
  <line x1="32.00" y1="36.00" x2="28.43" y2="33.16" stroke="currentColor" stroke-width="0.28" opacity="0.201"/>
  <line x1="32.00" y1="36.00" x2="32.00" y2="32.73" stroke="currentColor" stroke-width="0.28" opacity="0.201"/>
  <line x1="32.00" y1="36.00" x2="35.57" y2="33.16" stroke="currentColor" stroke-width="0.28" opacity="0.201"/>
  <line x1="32.00" y1="36.00" x2="38.19" y2="34.36" stroke="currentColor" stroke-width="0.28" opacity="0.201"/>
  <line x1="32.00" y1="39.05" x2="42.80" y2="44.00" stroke="currentColor" stroke-width="0.40" opacity="0.380"/>
  <line x1="42.80" y1="44.00" x2="32.00" y2="48.95" stroke="currentColor" stroke-width="0.40" opacity="0.380"/>
  <line x1="32.00" y1="48.95" x2="21.20" y2="44.00" stroke="currentColor" stroke-width="0.40" opacity="0.380"/>
  <line x1="21.20" y1="44.00" x2="32.00" y2="39.05" stroke="currentColor" stroke-width="0.40" opacity="0.380"/>
  <line x1="32.00" y1="44.00" x2="42.37" y2="44.00" stroke="currentColor" stroke-width="0.28" opacity="0.274"/>
  <line x1="32.00" y1="44.00" x2="40.98" y2="46.38" stroke="currentColor" stroke-width="0.28" opacity="0.274"/>
  <line x1="32.00" y1="44.00" x2="37.18" y2="48.12" stroke="currentColor" stroke-width="0.28" opacity="0.274"/>
  <line x1="32.00" y1="44.00" x2="32.00" y2="48.75" stroke="currentColor" stroke-width="0.28" opacity="0.274"/>
  <line x1="32.00" y1="44.00" x2="26.82" y2="48.12" stroke="currentColor" stroke-width="0.28" opacity="0.274"/>
  <line x1="32.00" y1="44.00" x2="23.02" y2="46.38" stroke="currentColor" stroke-width="0.28" opacity="0.274"/>
  <line x1="32.00" y1="44.00" x2="21.63" y2="44.00" stroke="currentColor" stroke-width="0.28" opacity="0.274"/>
  <line x1="32.00" y1="44.00" x2="23.02" y2="41.62" stroke="currentColor" stroke-width="0.28" opacity="0.274"/>
  <line x1="32.00" y1="44.00" x2="26.82" y2="39.88" stroke="currentColor" stroke-width="0.28" opacity="0.274"/>
  <line x1="32.00" y1="44.00" x2="32.00" y2="39.25" stroke="currentColor" stroke-width="0.28" opacity="0.274"/>
  <line x1="32.00" y1="44.00" x2="37.18" y2="39.88" stroke="currentColor" stroke-width="0.28" opacity="0.274"/>
  <line x1="32.00" y1="44.00" x2="40.98" y2="41.62" stroke="currentColor" stroke-width="0.28" opacity="0.274"/>
  <line x1="32.00" y1="39.68" x2="41.43" y2="44.00" stroke="currentColor" stroke-width="0.32" opacity="0.310"/>
  <line x1="41.43" y1="44.00" x2="32.00" y2="48.32" stroke="currentColor" stroke-width="0.32" opacity="0.310"/>
  <line x1="32.00" y1="48.32" x2="22.57" y2="44.00" stroke="currentColor" stroke-width="0.32" opacity="0.310"/>
  <line x1="22.57" y1="44.00" x2="32.00" y2="39.68" stroke="currentColor" stroke-width="0.32" opacity="0.310"/>
  <line x1="32.00" y1="44.00" x2="41.05" y2="44.00" stroke="currentColor" stroke-width="0.28" opacity="0.223"/>
  <line x1="32.00" y1="44.00" x2="39.84" y2="46.08" stroke="currentColor" stroke-width="0.28" opacity="0.223"/>
  <line x1="32.00" y1="44.00" x2="36.53" y2="47.59" stroke="currentColor" stroke-width="0.28" opacity="0.223"/>
  <line x1="32.00" y1="44.00" x2="32.00" y2="48.15" stroke="currentColor" stroke-width="0.28" opacity="0.223"/>
  <line x1="32.00" y1="44.00" x2="27.47" y2="47.59" stroke="currentColor" stroke-width="0.28" opacity="0.223"/>
  <line x1="32.00" y1="44.00" x2="24.16" y2="46.08" stroke="currentColor" stroke-width="0.28" opacity="0.223"/>
  <line x1="32.00" y1="44.00" x2="22.95" y2="44.00" stroke="currentColor" stroke-width="0.28" opacity="0.223"/>
  <line x1="32.00" y1="44.00" x2="24.16" y2="41.92" stroke="currentColor" stroke-width="0.28" opacity="0.223"/>
  <line x1="32.00" y1="44.00" x2="27.47" y2="40.41" stroke="currentColor" stroke-width="0.28" opacity="0.223"/>
  <line x1="32.00" y1="44.00" x2="32.00" y2="39.85" stroke="currentColor" stroke-width="0.28" opacity="0.223"/>
  <line x1="32.00" y1="44.00" x2="36.53" y2="40.41" stroke="currentColor" stroke-width="0.28" opacity="0.223"/>
  <line x1="32.00" y1="44.00" x2="39.84" y2="41.92" stroke="currentColor" stroke-width="0.28" opacity="0.223"/>
  <line x1="32.00" y1="40.30" x2="40.06" y2="44.00" stroke="currentColor" stroke-width="0.32" opacity="0.241"/>
  <line x1="40.06" y1="44.00" x2="32.00" y2="47.70" stroke="currentColor" stroke-width="0.32" opacity="0.241"/>
  <line x1="32.00" y1="47.70" x2="23.94" y2="44.00" stroke="currentColor" stroke-width="0.32" opacity="0.241"/>
  <line x1="23.94" y1="44.00" x2="32.00" y2="40.30" stroke="currentColor" stroke-width="0.32" opacity="0.241"/>
  <line x1="32.00" y1="44.00" x2="39.74" y2="44.00" stroke="currentColor" stroke-width="0.28" opacity="0.173"/>
  <line x1="32.00" y1="44.00" x2="38.70" y2="45.77" stroke="currentColor" stroke-width="0.28" opacity="0.173"/>
  <line x1="32.00" y1="44.00" x2="35.87" y2="47.07" stroke="currentColor" stroke-width="0.28" opacity="0.173"/>
  <line x1="32.00" y1="44.00" x2="32.00" y2="47.55" stroke="currentColor" stroke-width="0.28" opacity="0.173"/>
  <line x1="32.00" y1="44.00" x2="28.13" y2="47.07" stroke="currentColor" stroke-width="0.28" opacity="0.173"/>
  <line x1="32.00" y1="44.00" x2="25.30" y2="45.77" stroke="currentColor" stroke-width="0.28" opacity="0.173"/>
  <line x1="32.00" y1="44.00" x2="24.26" y2="44.00" stroke="currentColor" stroke-width="0.28" opacity="0.173"/>
  <line x1="32.00" y1="44.00" x2="25.30" y2="42.23" stroke="currentColor" stroke-width="0.28" opacity="0.173"/>
  <line x1="32.00" y1="44.00" x2="28.13" y2="40.93" stroke="currentColor" stroke-width="0.28" opacity="0.173"/>
  <line x1="32.00" y1="44.00" x2="32.00" y2="40.45" stroke="currentColor" stroke-width="0.28" opacity="0.173"/>
  <line x1="32.00" y1="44.00" x2="35.87" y2="40.93" stroke="currentColor" stroke-width="0.28" opacity="0.173"/>
  <line x1="32.00" y1="44.00" x2="38.70" y2="42.23" stroke="currentColor" stroke-width="0.28" opacity="0.173"/>
  <line x1="32.00" y1="40.93" x2="38.70" y2="44.00" stroke="currentColor" stroke-width="0.40" opacity="0.171"/>
  <line x1="38.70" y1="44.00" x2="32.00" y2="47.07" stroke="currentColor" stroke-width="0.40" opacity="0.171"/>
  <line x1="32.00" y1="47.07" x2="25.30" y2="44.00" stroke="currentColor" stroke-width="0.40" opacity="0.171"/>
  <line x1="25.30" y1="44.00" x2="32.00" y2="40.93" stroke="currentColor" stroke-width="0.40" opacity="0.171"/>
  <line x1="32.00" y1="44.00" x2="38.43" y2="44.00" stroke="currentColor" stroke-width="0.28" opacity="0.123"/>
  <line x1="32.00" y1="44.00" x2="37.57" y2="45.47" stroke="currentColor" stroke-width="0.28" opacity="0.123"/>
  <line x1="32.00" y1="44.00" x2="35.21" y2="46.55" stroke="currentColor" stroke-width="0.28" opacity="0.123"/>
  <line x1="32.00" y1="44.00" x2="32.00" y2="46.95" stroke="currentColor" stroke-width="0.28" opacity="0.123"/>
  <line x1="32.00" y1="44.00" x2="28.79" y2="46.55" stroke="currentColor" stroke-width="0.28" opacity="0.123"/>
  <line x1="32.00" y1="44.00" x2="26.43" y2="45.47" stroke="currentColor" stroke-width="0.28" opacity="0.123"/>
  <line x1="32.00" y1="44.00" x2="25.57" y2="44.00" stroke="currentColor" stroke-width="0.28" opacity="0.123"/>
  <line x1="32.00" y1="44.00" x2="26.43" y2="42.53" stroke="currentColor" stroke-width="0.28" opacity="0.123"/>
  <line x1="32.00" y1="44.00" x2="28.79" y2="41.45" stroke="currentColor" stroke-width="0.28" opacity="0.123"/>
  <line x1="32.00" y1="44.00" x2="32.00" y2="41.05" stroke="currentColor" stroke-width="0.28" opacity="0.123"/>
  <line x1="32.00" y1="44.00" x2="35.21" y2="41.45" stroke="currentColor" stroke-width="0.28" opacity="0.123"/>
  <line x1="32.00" y1="44.00" x2="37.57" y2="42.53" stroke="currentColor" stroke-width="0.28" opacity="0.123"/>
  <ellipse cx="32.00" cy="20.00" rx="4.65" ry="2.13" transform="rotate(-12.80 32.00 20.00)" stroke="currentColor" stroke-width="0.30" opacity="0.176"/>
  <ellipse cx="32.00" cy="20.00" rx="4.06" ry="1.86" transform="rotate(-12.80 32.00 20.00)" stroke="currentColor" stroke-width="0.30" opacity="0.144"/>
  <ellipse cx="32.00" cy="20.00" rx="3.47" ry="1.59" transform="rotate(-12.80 32.00 20.00)" stroke="currentColor" stroke-width="0.30" opacity="0.111"/>
  <ellipse cx="32.00" cy="20.00" rx="2.88" ry="1.32" transform="rotate(-12.80 32.00 20.00)" stroke="currentColor" stroke-width="0.30" opacity="0.079"/>
  <ellipse cx="32.00" cy="28.00" rx="4.96" ry="2.27" transform="rotate(-9.60 32.00 28.00)" stroke="currentColor" stroke-width="0.30" opacity="0.264"/>
  <ellipse cx="32.00" cy="28.00" rx="4.49" ry="2.06" transform="rotate(-9.60 32.00 28.00)" stroke="currentColor" stroke-width="0.30" opacity="0.228"/>
  <ellipse cx="32.00" cy="28.00" rx="4.02" ry="1.84" transform="rotate(-9.60 32.00 28.00)" stroke="currentColor" stroke-width="0.30" opacity="0.191"/>
  <ellipse cx="32.00" cy="28.00" rx="3.55" ry="1.63" transform="rotate(-9.60 32.00 28.00)" stroke="currentColor" stroke-width="0.30" opacity="0.155"/>
  <ellipse cx="32.00" cy="28.00" rx="3.08" ry="1.41" transform="rotate(-9.60 32.00 28.00)" stroke="currentColor" stroke-width="0.30" opacity="0.119"/>
  <ellipse cx="32.00" cy="36.00" rx="5.28" ry="2.42" transform="rotate(-6.40 32.00 36.00)" stroke="currentColor" stroke-width="0.30" opacity="0.341"/>
  <ellipse cx="32.00" cy="36.00" rx="4.88" ry="2.24" transform="rotate(-6.40 32.00 36.00)" stroke="currentColor" stroke-width="0.30" opacity="0.303"/>
  <ellipse cx="32.00" cy="36.00" rx="4.48" ry="2.05" transform="rotate(-6.40 32.00 36.00)" stroke="currentColor" stroke-width="0.30" opacity="0.266"/>
  <ellipse cx="32.00" cy="36.00" rx="4.08" ry="1.87" transform="rotate(-6.40 32.00 36.00)" stroke="currentColor" stroke-width="0.30" opacity="0.228"/>
  <ellipse cx="32.00" cy="36.00" rx="3.67" ry="1.68" transform="rotate(-6.40 32.00 36.00)" stroke="currentColor" stroke-width="0.30" opacity="0.191"/>
  <ellipse cx="32.00" cy="36.00" rx="3.27" ry="1.50" transform="rotate(-6.40 32.00 36.00)" stroke="currentColor" stroke-width="0.30" opacity="0.153"/>
  <ellipse cx="32.00" cy="44.00" rx="4.75" ry="2.18" transform="rotate(-3.20 32.00 44.00)" stroke="currentColor" stroke-width="0.30" opacity="0.209"/>
  <ellipse cx="32.00" cy="44.00" rx="4.15" ry="1.90" transform="rotate(-3.20 32.00 44.00)" stroke="currentColor" stroke-width="0.30" opacity="0.171"/>
  <ellipse cx="32.00" cy="44.00" rx="3.55" ry="1.63" transform="rotate(-3.20 32.00 44.00)" stroke="currentColor" stroke-width="0.30" opacity="0.132"/>
  <ellipse cx="32.00" cy="44.00" rx="2.95" ry="1.35" transform="rotate(-3.20 32.00 44.00)" stroke="currentColor" stroke-width="0.30" opacity="0.094"/>
</g>
</svg>
